<svg width="1920" height="1080" viewBox="0 0 1920 1080" fill="none" xmlns="http://www.w3.org/2000/svg">
<rect width="1920" height="1080" fill="white"/>
<line x1="368.5" y1="364" x2="368.5" y2="644" stroke="#CDCDCD" stroke-width="5"/>
<line x1="470.5" y1="460" x2="470.5" y2="544" stroke="#CDCDCD" stroke-width="5"/>
<line x1="366" y1="640.5" x2="468" y2="640.5" stroke="#CDCDCD" stroke-width="5"/>
<line x1="366" y1="457.5" x2="468" y2="457.5" stroke="#CDCDCD" stroke-width="5"/>
<line x1="468" y1="541.5" x2="570" y2="541.5" stroke="#CDCDCD" stroke-width="5"/>
<line x1="470.5" y1="642" x2="470.5" y2="726" stroke="#CDCDCD" stroke-width="5"/>
<line x1="468" y1="723.5" x2="570" y2="723.5" stroke="#CDCDCD" stroke-width="5"/>
<rect x="324" y="316" width="214.638" height="87.8852" rx="7.12583" fill="white"/>
<path d="M395.496 334.111H364.498L357.61 325.501H340.389C336.601 325.501 333.501 329.376 333.501 334.111V351.332H402.384V342.722C402.384 337.986 399.284 334.111 395.496 334.111Z" fill="#FFA000"/>
<path d="M395.496 334.111H340.389C336.601 334.111 333.501 337.986 333.501 342.722V385.773C333.501 390.509 336.601 394.383 340.389 394.383H395.496C399.284 394.383 402.384 390.509 402.384 385.773V342.722C402.384 337.986 399.284 334.111 395.496 334.111Z" fill="#FFCA28"/>
<path d="M450.771 382.442C450.567 382.053 450.4 381.57 450.27 380.995C450.159 380.401 450.075 379.789 450.019 379.158C449.5 379.677 448.915 380.169 448.266 380.633C447.635 381.097 446.939 381.505 446.178 381.858C445.399 382.21 444.573 382.489 443.701 382.693C442.829 382.897 441.901 382.999 440.917 382.999C439.321 382.999 437.874 382.767 436.575 382.303C435.295 381.839 434.209 381.208 433.318 380.41C432.409 379.631 431.704 378.703 431.203 377.627C430.72 376.532 430.479 375.354 430.479 374.092C430.479 372.44 430.804 370.993 431.453 369.75C432.121 368.506 433.058 367.467 434.265 366.632C435.471 365.815 436.918 365.203 438.607 364.795C440.314 364.387 442.216 364.182 444.313 364.182H449.936V361.816C449.936 360.907 449.769 360.091 449.435 359.367C449.101 358.643 448.628 358.022 448.015 357.502C447.403 357.001 446.651 356.611 445.761 356.333C444.888 356.055 443.905 355.915 442.81 355.915C441.789 355.915 440.871 356.045 440.054 356.305C439.256 356.565 438.579 356.908 438.022 357.335C437.466 357.762 437.03 358.272 436.714 358.866C436.417 359.441 436.269 360.044 436.269 360.675H431.091C431.11 359.58 431.388 358.504 431.926 357.446C432.483 356.389 433.281 355.433 434.32 354.579C435.341 353.744 436.584 353.067 438.05 352.547C439.535 352.028 441.214 351.768 443.088 351.768C444.796 351.768 446.382 351.981 447.848 352.408C449.314 352.816 450.585 353.438 451.662 354.273C452.719 355.127 453.554 356.184 454.167 357.446C454.779 358.708 455.085 360.183 455.085 361.872V375.873C455.085 376.875 455.178 377.942 455.364 379.074C455.549 380.188 455.809 381.162 456.143 381.997V382.442H450.771ZM441.669 378.518C442.671 378.518 443.608 378.388 444.48 378.128C445.352 377.868 446.15 377.525 446.874 377.098C447.579 376.671 448.192 376.189 448.711 375.651C449.231 375.094 449.639 374.519 449.936 373.925V367.829H445.148C443.367 367.829 441.808 367.987 440.472 368.302C439.154 368.599 438.106 369.063 437.326 369.694C436.77 370.139 436.343 370.668 436.046 371.28C435.768 371.893 435.629 372.589 435.629 373.368C435.629 374.11 435.749 374.797 435.99 375.428C436.25 376.059 436.631 376.597 437.132 377.042C437.633 377.506 438.264 377.868 439.024 378.128C439.785 378.388 440.667 378.518 441.669 378.518ZM465.19 394.022V352.325H469.894L470.144 355.609C470.553 355.09 470.998 354.626 471.48 354.217C471.963 353.791 472.482 353.429 473.039 353.132C473.819 352.686 474.681 352.352 475.628 352.13C476.593 351.889 477.623 351.768 478.718 351.768C480.647 351.768 482.355 352.148 483.839 352.909C485.324 353.67 486.567 354.728 487.569 356.082C488.571 357.437 489.332 359.061 489.852 360.954C490.371 362.828 490.631 364.888 490.631 367.133V367.718C490.631 369.87 490.371 371.884 489.852 373.758C489.332 375.613 488.571 377.228 487.569 378.601C486.567 379.974 485.324 381.051 483.839 381.83C482.373 382.609 480.694 382.999 478.801 382.999C477.651 382.999 476.574 382.878 475.572 382.637C474.589 382.396 473.698 382.053 472.9 381.607C472.417 381.329 471.963 381.023 471.536 380.689C471.109 380.336 470.71 379.956 470.339 379.548V394.022H465.19ZM485.482 367.133C485.482 365.667 485.314 364.275 484.98 362.958C484.665 361.622 484.173 360.443 483.505 359.423C482.819 358.421 481.956 357.623 480.917 357.029C479.877 356.435 478.634 356.138 477.187 356.138C476.389 356.138 475.646 356.231 474.96 356.416C474.292 356.602 473.689 356.871 473.15 357.224C472.557 357.576 472.028 358.012 471.564 358.532C471.1 359.051 470.692 359.627 470.339 360.258V374.76C470.655 375.317 471.016 375.836 471.425 376.319C471.833 376.801 472.297 377.209 472.816 377.543C473.41 377.933 474.069 378.239 474.793 378.462C475.535 378.685 476.352 378.796 477.242 378.796C478.671 378.796 479.905 378.499 480.944 377.905C481.984 377.293 482.837 376.476 483.505 375.456C484.173 374.435 484.665 373.257 484.98 371.921C485.314 370.585 485.482 369.184 485.482 367.718V367.133ZM499.427 394.022V352.325H504.131L504.382 355.609C504.79 355.09 505.235 354.626 505.718 354.217C506.2 353.791 506.72 353.429 507.277 353.132C508.056 352.686 508.919 352.352 509.865 352.13C510.83 351.889 511.86 351.768 512.955 351.768C514.885 351.768 516.592 352.148 518.077 352.909C519.561 353.67 520.804 354.728 521.807 356.082C522.809 357.437 523.569 359.061 524.089 360.954C524.609 362.828 524.868 364.888 524.868 367.133V367.718C524.868 369.87 524.609 371.884 524.089 373.758C523.569 375.613 522.809 377.228 521.807 378.601C520.804 379.974 519.561 381.051 518.077 381.83C516.611 382.609 514.931 382.999 513.038 382.999C511.888 382.999 510.812 382.878 509.81 382.637C508.826 382.396 507.935 382.053 507.137 381.607C506.655 381.329 506.2 381.023 505.773 380.689C505.347 380.336 504.948 379.956 504.576 379.548V394.022H499.427ZM519.719 367.133C519.719 365.667 519.552 364.275 519.218 362.958C518.902 361.622 518.411 360.443 517.743 359.423C517.056 358.421 516.193 357.623 515.154 357.029C514.115 356.435 512.871 356.138 511.424 356.138C510.626 356.138 509.884 356.231 509.197 356.416C508.529 356.602 507.926 356.871 507.388 357.224C506.794 357.576 506.265 358.012 505.801 358.532C505.337 359.051 504.929 359.627 504.576 360.258V374.76C504.892 375.317 505.254 375.836 505.662 376.319C506.07 376.801 506.534 377.209 507.054 377.543C507.648 377.933 508.306 378.239 509.03 378.462C509.772 378.685 510.589 378.796 511.48 378.796C512.909 378.796 514.143 378.499 515.182 377.905C516.221 377.293 517.075 376.476 517.743 375.456C518.411 374.435 518.902 373.257 519.218 371.921C519.552 370.585 519.719 369.184 519.719 367.718V367.133Z" fill="black"/>
<rect x="424" y="596" width="385.638" height="87.8852" rx="7.12583" fill="white"/>
<path d="M495.496 614.111H464.498L457.61 605.501H440.389C436.601 605.501 433.501 609.376 433.501 614.111V631.332H502.384V622.722C502.384 617.986 499.284 614.111 495.496 614.111Z" fill="#FFA000"/>
<path d="M495.496 614.111H440.389C436.601 614.111 433.501 617.986 433.501 622.722V665.773C433.501 670.509 436.601 674.383 440.389 674.383H495.496C499.284 674.383 502.384 670.509 502.384 665.773V622.722C502.384 617.986 499.284 614.111 495.496 614.111Z" fill="#FFCA28"/>
<path d="M536.074 645.992C536.074 643.338 536.278 640.842 536.686 638.504C537.113 636.166 537.679 633.995 538.384 631.991C539.089 630.005 539.897 628.186 540.806 626.535C541.734 624.883 542.708 623.417 543.729 622.137C544.731 620.856 545.742 619.762 546.763 618.852C547.783 617.943 548.758 617.229 549.685 616.709L550.771 620.105C550.177 620.55 549.574 621.088 548.962 621.719C548.368 622.35 547.783 623.055 547.208 623.835C546.354 625.041 545.538 626.461 544.759 628.094C543.979 629.708 543.33 631.48 542.81 633.41C542.309 635.155 541.919 637.075 541.641 639.172C541.363 641.269 541.223 643.524 541.223 645.936V646.326C541.223 648.645 541.353 650.817 541.613 652.839C541.873 654.862 542.226 656.727 542.671 658.434C543.153 660.16 543.71 661.756 544.341 663.222C544.972 664.706 545.631 666.033 546.317 667.202C547.022 668.316 547.746 669.299 548.488 670.153C549.249 671.025 550.01 671.767 550.771 672.38L549.685 675.525C548.758 675.005 547.774 674.291 546.735 673.382C545.714 672.491 544.703 671.396 543.701 670.097C542.68 668.817 541.706 667.351 540.778 665.699C539.869 664.066 539.071 662.248 538.384 660.243C537.679 658.258 537.113 656.096 536.686 653.758C536.278 651.42 536.074 648.924 536.074 646.27V645.992ZM578.523 662.999C576.407 662.999 574.459 662.637 572.677 661.914C570.914 661.19 569.402 660.178 568.14 658.879C566.878 657.58 565.895 656.04 565.19 654.259C564.484 652.477 564.132 650.538 564.132 648.441V647.272C564.132 644.841 564.522 642.67 565.301 640.759C566.08 638.829 567.12 637.196 568.418 635.86C569.699 634.542 571.156 633.531 572.789 632.826C574.44 632.121 576.129 631.768 577.855 631.768C580.026 631.768 581.919 632.148 583.533 632.909C585.166 633.651 586.521 634.681 587.597 635.999C588.673 637.335 589.471 638.903 589.991 640.703C590.529 642.503 590.798 644.452 590.798 646.548V648.859H569.281V649.054C569.411 650.52 569.699 651.809 570.144 652.923C570.608 654.036 571.239 655.02 572.037 655.873C572.854 656.783 573.837 657.497 574.988 658.017C576.138 658.536 577.409 658.796 578.801 658.796C580.638 658.796 582.271 658.425 583.7 657.683C585.129 656.94 586.317 655.957 587.263 654.732L590.408 657.182C589.406 658.703 587.903 660.058 585.899 661.245C583.913 662.415 581.455 662.999 578.523 662.999ZM577.855 635.999C576.815 635.999 575.832 636.194 574.904 636.583C573.976 636.955 573.141 637.502 572.399 638.226C571.657 638.968 571.026 639.877 570.506 640.954C570.005 642.011 569.653 643.236 569.448 644.628H585.649V644.377C585.649 643.449 585.472 642.457 585.12 641.399C584.767 640.323 584.275 639.395 583.644 638.615C583.013 637.836 582.216 637.205 581.251 636.723C580.304 636.24 579.172 635.999 577.855 635.999ZM598.481 647.133C598.481 644.888 598.759 642.828 599.316 640.954C599.891 639.061 600.707 637.437 601.765 636.082C602.804 634.728 604.066 633.67 605.551 632.909C607.035 632.148 608.696 631.768 610.533 631.768C612.333 631.768 613.901 632.074 615.237 632.686C616.592 633.28 617.761 634.152 618.745 635.303V619.687H623.894V662.442H619.162L618.939 659.269C617.937 660.494 616.741 661.422 615.349 662.053C613.957 662.684 612.333 662.999 610.478 662.999C608.659 662.999 607.007 662.609 605.523 661.83C604.057 661.051 602.804 659.974 601.765 658.601C600.726 657.228 599.919 655.613 599.343 653.758C598.768 651.884 598.481 649.87 598.481 647.718V647.133ZM603.63 647.718C603.63 649.184 603.788 650.575 604.103 651.893C604.419 653.21 604.911 654.37 605.579 655.372C606.228 656.374 607.063 657.172 608.084 657.766C609.104 658.341 610.329 658.629 611.758 658.629C613.484 658.629 614.913 658.239 616.045 657.46C617.177 656.68 618.077 655.632 618.745 654.314V640.341C618.077 639.116 617.177 638.114 616.045 637.335C614.913 636.537 613.502 636.138 611.814 636.138C610.366 636.138 609.123 636.435 608.084 637.029C607.063 637.623 606.228 638.421 605.579 639.423C604.911 640.443 604.419 641.622 604.103 642.958C603.788 644.275 603.63 645.667 603.63 647.133V647.718ZM634.499 632.325H649.892V657.989H659.718V662.442H634.499V657.989H644.743V636.806H634.499V632.325ZM644.075 624.419C644.075 623.974 644.14 623.557 644.27 623.167C644.418 622.777 644.641 622.443 644.938 622.165C645.179 621.924 645.485 621.738 645.856 621.608C646.246 621.46 646.682 621.385 647.164 621.385C647.647 621.385 648.074 621.46 648.445 621.608C648.816 621.738 649.122 621.924 649.363 622.165C649.66 622.425 649.883 622.749 650.031 623.139C650.18 623.529 650.254 623.955 650.254 624.419C650.254 625.254 649.994 625.95 649.475 626.507C648.955 627.064 648.185 627.342 647.164 627.342C646.125 627.342 645.346 627.064 644.826 626.507C644.325 625.95 644.075 625.254 644.075 624.419ZM680.121 625.032V632.325H691.59V636.305H680.121V652.672C680.121 653.841 680.27 654.806 680.567 655.567C680.864 656.328 681.272 656.931 681.792 657.376C682.311 657.84 682.905 658.165 683.573 658.351C684.26 658.536 684.983 658.629 685.744 658.629C686.301 658.629 686.876 658.601 687.47 658.545C688.064 658.471 688.648 658.388 689.224 658.295C689.78 658.202 690.3 658.109 690.782 658.017C691.283 657.905 691.692 657.812 692.007 657.738L692.731 661.385C692.304 661.644 691.784 661.876 691.172 662.081C690.56 662.266 689.892 662.424 689.168 662.554C688.444 662.702 687.674 662.814 686.858 662.888C686.06 662.962 685.262 662.999 684.464 662.999C683.128 662.999 681.875 662.814 680.706 662.442C679.555 662.053 678.553 661.44 677.7 660.605C676.846 659.789 676.169 658.731 675.668 657.432C675.185 656.114 674.944 654.528 674.944 652.672V636.305H667.039V632.325H674.944V625.032H680.121ZM700.72 647.105C700.72 644.934 701.035 642.921 701.666 641.065C702.297 639.191 703.206 637.567 704.394 636.194C705.563 634.821 706.992 633.744 708.68 632.965C710.369 632.167 712.271 631.768 714.387 631.768C716.521 631.768 718.432 632.167 720.121 632.965C721.828 633.744 723.275 634.821 724.463 636.194C725.632 637.567 726.532 639.191 727.163 641.065C727.794 642.921 728.109 644.934 728.109 647.105V647.718C728.109 649.889 727.794 651.902 727.163 653.758C726.532 655.613 725.632 657.228 724.463 658.601C723.275 659.974 721.837 661.051 720.149 661.83C718.46 662.609 716.558 662.999 714.442 662.999C712.308 662.999 710.388 662.609 708.68 661.83C706.992 661.051 705.563 659.974 704.394 658.601C703.206 657.228 702.297 655.613 701.666 653.758C701.035 651.902 700.72 649.889 700.72 647.718V647.105ZM705.869 647.718C705.869 649.202 706.045 650.622 706.398 651.976C706.75 653.312 707.289 654.491 708.012 655.511C708.718 656.532 709.608 657.339 710.685 657.933C711.761 658.527 713.013 658.824 714.442 658.824C715.853 658.824 717.087 658.527 718.144 657.933C719.221 657.339 720.121 656.532 720.844 655.511C721.55 654.491 722.078 653.312 722.431 651.976C722.784 650.622 722.96 649.202 722.96 647.718V647.105C722.96 645.639 722.774 644.238 722.403 642.902C722.051 641.547 721.522 640.36 720.817 639.339C720.093 638.318 719.193 637.511 718.117 636.917C717.059 636.305 715.816 635.999 714.387 635.999C712.958 635.999 711.714 636.305 710.657 636.917C709.599 637.511 708.718 638.318 708.012 639.339C707.289 640.36 706.75 641.547 706.398 642.902C706.045 644.238 705.869 645.639 705.869 647.105V647.718ZM756.14 631.768C757.086 631.768 758.069 631.833 759.09 631.963C760.129 632.093 760.909 632.269 761.428 632.492L760.732 637.53C759.73 637.307 758.775 637.149 757.865 637.057C756.975 636.945 756.037 636.89 755.054 636.89C753.792 636.89 752.651 637.047 751.63 637.363C750.61 637.66 749.719 638.105 748.958 638.699C748.271 639.218 747.668 639.859 747.149 640.62C746.648 641.362 746.23 642.197 745.896 643.125V662.442H740.719V632.325H745.618L745.84 636.361L745.868 637.112C747.093 635.461 748.559 634.162 750.266 633.215C751.992 632.25 753.95 631.768 756.14 631.768ZM789.43 646.27C789.43 648.924 789.217 651.42 788.79 653.758C788.382 656.096 787.825 658.258 787.12 660.243C786.415 662.248 785.599 664.066 784.671 665.699C783.761 667.351 782.806 668.817 781.804 670.097C780.783 671.396 779.753 672.491 778.714 673.382C777.693 674.291 776.719 675.005 775.791 675.525L774.706 672.38C775.485 671.804 776.274 671.062 777.072 670.153C777.87 669.243 778.63 668.195 779.354 667.007C780.041 665.801 780.7 664.437 781.33 662.916C781.98 661.412 782.509 659.761 782.917 657.961C783.344 656.291 783.669 654.491 783.891 652.561C784.133 650.612 784.253 648.534 784.253 646.326V645.936C784.253 643.431 784.095 641.158 783.78 639.116C783.483 637.075 783.149 635.34 782.778 633.911C782.24 631.87 781.59 630.042 780.829 628.428C780.069 626.795 779.289 625.375 778.491 624.169C777.879 623.222 777.248 622.397 776.598 621.692C775.949 620.968 775.318 620.355 774.706 619.854L775.791 616.709C776.719 617.229 777.703 617.943 778.742 618.852C779.781 619.762 780.802 620.856 781.804 622.137C782.843 623.454 783.817 624.92 784.726 626.535C785.636 628.149 786.434 629.968 787.12 631.991C787.788 633.939 788.336 636.055 788.762 638.337C789.208 640.601 789.43 643.153 789.43 645.992V646.27Z" fill="black"/>
<rect x="526" y="500" width="454.638" height="87.8852" rx="7.12583" fill="white"/>
<g clip-path="url(#clip0_305_1442)">
<rect x="535.501" y="509.501" width="68.883" height="68.883" fill="white"/>
<path d="M535.501 543.942V578.384H604.384V509.501H535.501V543.942ZM591.01 541.187C592.659 541.57 594.159 542.433 595.319 543.667C595.958 544.332 596.513 545.072 596.972 545.871C596.972 545.959 593.996 547.971 592.183 549.095C592.117 549.139 591.853 548.852 591.561 548.417C591.23 547.846 590.759 547.368 590.194 547.028C589.628 546.688 588.986 546.496 588.326 546.472C586.237 546.329 584.893 547.425 584.904 549.227C584.887 549.676 584.989 550.121 585.201 550.517C585.659 551.47 586.513 552.038 589.191 553.195C594.123 555.316 596.234 556.716 597.545 558.705C599.011 560.91 599.336 564.47 598.344 567.104C597.242 569.969 594.542 571.914 590.723 572.559C588.979 572.759 587.217 572.74 585.477 572.504C582.822 572.073 580.373 570.809 578.484 568.895C577.85 568.195 576.616 566.371 576.693 566.239C576.894 566.089 577.106 565.955 577.327 565.836L579.862 564.381L581.84 563.235L582.253 563.847C582.951 564.845 583.838 565.695 584.865 566.349C587.07 567.506 590.078 567.346 591.566 566.007C592.066 565.516 592.377 564.866 592.447 564.169C592.516 563.472 592.339 562.773 591.946 562.194C591.395 561.428 590.293 560.783 587.213 559.438C583.658 557.906 582.127 556.959 580.727 555.449C579.853 554.452 579.208 553.277 578.837 552.005C578.56 550.551 578.519 549.063 578.715 547.596C579.448 544.163 582.022 541.766 585.78 541.055C587.521 540.84 589.284 540.888 591.01 541.198V541.187ZM574.841 544.075V546.896H565.898V572.372H559.555V546.891H550.589V544.135C550.565 543.187 550.591 542.238 550.666 541.292C550.699 541.248 556.177 541.226 562.79 541.237H574.808L574.841 544.075Z" fill="#007ACC"/>
</g>
<path d="M633.787 523.687H649.18V561.989H659.006V566.442H633.787V561.989H644.031V528.169H633.787V523.687ZM687.008 566.442C686.804 566.053 686.637 565.57 686.507 564.995C686.396 564.401 686.312 563.789 686.257 563.158C685.737 563.677 685.153 564.169 684.503 564.633C683.872 565.097 683.176 565.505 682.415 565.858C681.636 566.21 680.81 566.489 679.938 566.693C679.066 566.897 678.138 566.999 677.155 566.999C675.559 566.999 674.111 566.767 672.812 566.303C671.532 565.839 670.446 565.208 669.556 564.41C668.646 563.631 667.941 562.703 667.44 561.627C666.958 560.532 666.716 559.354 666.716 558.092C666.716 556.44 667.041 554.993 667.691 553.75C668.359 552.506 669.296 551.467 670.502 550.632C671.708 549.815 673.156 549.203 674.844 548.795C676.552 548.387 678.454 548.182 680.551 548.182H686.173V545.816C686.173 544.907 686.006 544.091 685.672 543.367C685.338 542.643 684.865 542.022 684.253 541.502C683.64 541.001 682.889 540.611 681.998 540.333C681.126 540.055 680.142 539.915 679.047 539.915C678.027 539.915 677.108 540.045 676.292 540.305C675.494 540.565 674.816 540.908 674.26 541.335C673.703 541.762 673.267 542.272 672.951 542.866C672.655 543.441 672.506 544.044 672.506 544.675H667.329C667.347 543.58 667.626 542.504 668.164 541.446C668.721 540.389 669.518 539.433 670.558 538.579C671.578 537.744 672.822 537.067 674.288 536.547C675.772 536.028 677.452 535.768 679.326 535.768C681.033 535.768 682.62 535.981 684.086 536.408C685.552 536.816 686.823 537.438 687.899 538.273C688.957 539.127 689.792 540.184 690.404 541.446C691.017 542.708 691.323 544.183 691.323 545.872V559.873C691.323 560.875 691.416 561.942 691.601 563.074C691.787 564.188 692.046 565.162 692.381 565.997V566.442H687.008ZM677.906 562.518C678.908 562.518 679.845 562.388 680.718 562.128C681.59 561.868 682.388 561.525 683.111 561.098C683.817 560.671 684.429 560.189 684.948 559.651C685.468 559.094 685.876 558.519 686.173 557.925V551.829H681.386C679.604 551.829 678.045 551.987 676.709 552.302C675.392 552.599 674.343 553.063 673.564 553.694C673.007 554.139 672.58 554.668 672.283 555.28C672.005 555.893 671.866 556.589 671.866 557.368C671.866 558.11 671.987 558.797 672.228 559.428C672.488 560.059 672.868 560.597 673.369 561.042C673.87 561.506 674.501 561.868 675.262 562.128C676.023 562.388 676.904 562.518 677.906 562.518ZM703.876 578.606C703.394 578.606 702.828 578.551 702.179 578.439C701.529 578.328 701.037 578.235 700.703 578.161L701.538 573.958C702.002 573.995 702.457 574.023 702.902 574.041C703.366 574.079 703.728 574.097 703.988 574.097C704.693 574.097 705.333 573.902 705.908 573.513C706.502 573.123 707.031 572.659 707.495 572.121C707.94 571.583 708.321 571.026 708.636 570.451C708.97 569.875 709.23 569.402 709.416 569.031L711.476 565.023L698.504 536.325H704.266L712.533 555.754L713.869 559.4L715.289 555.865L723.055 536.325H728.817L713.535 571.091C713.183 571.87 712.728 572.696 712.171 573.568C711.633 574.44 710.974 575.248 710.195 575.99C709.416 576.732 708.506 577.354 707.467 577.855C706.428 578.356 705.231 578.606 703.876 578.606ZM734.245 551.105C734.245 548.934 734.56 546.921 735.191 545.065C735.822 543.191 736.731 541.567 737.919 540.194C739.088 538.821 740.517 537.744 742.206 536.965C743.894 536.167 745.796 535.768 747.912 535.768C750.046 535.768 751.957 536.167 753.646 536.965C755.353 537.744 756.801 538.821 757.988 540.194C759.157 541.567 760.057 543.191 760.688 545.065C761.319 546.921 761.635 548.934 761.635 551.105V551.718C761.635 553.889 761.319 555.902 760.688 557.758C760.057 559.613 759.157 561.228 757.988 562.601C756.801 563.974 755.362 565.051 753.674 565.83C751.985 566.609 750.083 566.999 747.968 566.999C745.833 566.999 743.913 566.609 742.206 565.83C740.517 565.051 739.088 563.974 737.919 562.601C736.731 561.228 735.822 559.613 735.191 557.758C734.56 555.902 734.245 553.889 734.245 551.718V551.105ZM739.394 551.718C739.394 553.202 739.571 554.622 739.923 555.976C740.276 557.312 740.814 558.491 741.538 559.511C742.243 560.532 743.133 561.339 744.21 561.933C745.286 562.527 746.539 562.824 747.968 562.824C749.378 562.824 750.612 562.527 751.67 561.933C752.746 561.339 753.646 560.532 754.37 559.511C755.075 558.491 755.604 557.312 755.956 555.976C756.309 554.622 756.485 553.202 756.485 551.718V551.105C756.485 549.639 756.3 548.238 755.928 546.902C755.576 545.547 755.047 544.36 754.342 543.339C753.618 542.318 752.718 541.511 751.642 540.917C750.584 540.305 749.341 539.999 747.912 539.999C746.483 539.999 745.24 540.305 744.182 540.917C743.124 541.511 742.243 542.318 741.538 543.339C740.814 544.36 740.276 545.547 739.923 546.902C739.571 548.238 739.394 549.639 739.394 551.105V551.718ZM789.776 566.442L789.47 562.295C788.468 563.779 787.215 564.939 785.712 565.774C784.209 566.591 782.474 566.999 780.507 566.999C778.93 566.999 777.501 566.758 776.22 566.275C774.94 565.774 773.845 565.004 772.936 563.965C772.026 562.926 771.321 561.608 770.82 560.012C770.338 558.398 770.097 556.468 770.097 554.223V536.325H775.246V554.278C775.246 555.911 775.376 557.266 775.636 558.342C775.896 559.419 776.285 560.272 776.805 560.903C777.324 561.553 777.955 562.007 778.698 562.267C779.459 562.527 780.331 562.657 781.314 562.657C782.465 562.657 783.495 562.527 784.404 562.267C785.313 561.989 786.102 561.608 786.77 561.126C787.327 560.736 787.809 560.272 788.217 559.734C788.644 559.177 788.997 558.574 789.275 557.925V536.325H794.452V566.442H789.776ZM816.359 529.032V536.325H827.827V540.305H816.359V556.672C816.359 557.841 816.507 558.806 816.804 559.567C817.101 560.328 817.509 560.931 818.029 561.376C818.548 561.84 819.142 562.165 819.81 562.351C820.497 562.536 821.221 562.629 821.982 562.629C822.538 562.629 823.113 562.601 823.707 562.545C824.301 562.471 824.886 562.388 825.461 562.295C826.018 562.202 826.537 562.109 827.02 562.017C827.521 561.905 827.929 561.812 828.244 561.738L828.968 565.385C828.541 565.644 828.022 565.876 827.409 566.081C826.797 566.266 826.129 566.424 825.405 566.554C824.682 566.702 823.911 566.814 823.095 566.888C822.297 566.962 821.499 566.999 820.701 566.999C819.365 566.999 818.112 566.814 816.943 566.442C815.793 566.053 814.791 565.44 813.937 564.605C813.084 563.789 812.406 562.731 811.905 561.432C811.423 560.114 811.181 558.528 811.181 556.672V540.305H803.276V536.325H811.181V529.032H816.359ZM847.367 563.102C847.367 562.007 847.701 561.07 848.369 560.291C849.037 559.511 850.049 559.122 851.403 559.122C852.739 559.122 853.751 559.511 854.437 560.291C855.143 561.052 855.495 561.989 855.495 563.102C855.495 564.197 855.143 565.116 854.437 565.858C853.732 566.6 852.721 566.971 851.403 566.971C850.067 566.971 849.056 566.6 848.369 565.858C847.701 565.097 847.367 564.178 847.367 563.102ZM884.834 529.032V536.325H896.302V540.305H884.834V556.672C884.834 557.841 884.982 558.806 885.279 559.567C885.576 560.328 885.984 560.931 886.504 561.376C887.023 561.84 887.617 562.165 888.285 562.351C888.972 562.536 889.695 562.629 890.456 562.629C891.013 562.629 891.588 562.601 892.182 562.545C892.776 562.471 893.36 562.388 893.936 562.295C894.492 562.202 895.012 562.109 895.494 562.017C895.995 561.905 896.404 561.812 896.719 561.738L897.443 565.385C897.016 565.644 896.497 565.876 895.884 566.081C895.272 566.266 894.604 566.424 893.88 566.554C893.156 566.702 892.386 566.814 891.57 566.888C890.772 566.962 889.974 566.999 889.176 566.999C887.84 566.999 886.587 566.814 885.418 566.442C884.268 566.053 883.265 565.44 882.412 564.605C881.558 563.789 880.881 562.731 880.38 561.432C879.897 560.114 879.656 558.528 879.656 556.672V540.305H871.751V536.325H879.656V529.032H884.834ZM926.893 558.454C926.893 557.841 926.772 557.294 926.531 556.811C926.29 556.31 925.881 555.856 925.306 555.447C924.731 555.039 923.97 554.668 923.024 554.334C922.077 553.981 920.899 553.666 919.488 553.388C917.763 553.035 916.185 552.608 914.756 552.107C913.346 551.606 912.14 551.003 911.138 550.298C910.117 549.611 909.329 548.804 908.772 547.876C908.215 546.93 907.937 545.835 907.937 544.592C907.937 543.367 908.224 542.226 908.8 541.168C909.375 540.092 910.182 539.155 911.221 538.357C912.261 537.559 913.495 536.928 914.923 536.464C916.371 536 917.958 535.768 919.683 535.768C921.539 535.768 923.209 536.009 924.694 536.492C926.178 536.974 927.44 537.642 928.479 538.496C929.518 539.349 930.316 540.351 930.873 541.502C931.448 542.634 931.736 543.859 931.736 545.176H926.586C926.586 544.527 926.419 543.896 926.085 543.283C925.751 542.653 925.287 542.096 924.694 541.613C924.1 541.131 923.376 540.741 922.522 540.444C921.687 540.147 920.741 539.999 919.683 539.999C918.588 539.999 917.623 540.12 916.788 540.361C915.972 540.602 915.295 540.927 914.756 541.335C914.2 541.743 913.782 542.216 913.504 542.755C913.226 543.293 913.086 543.849 913.086 544.425C913.086 545.019 913.198 545.547 913.42 546.011C913.643 546.475 914.033 546.893 914.589 547.264C915.128 547.635 915.851 547.969 916.761 548.266C917.688 548.563 918.858 548.85 920.268 549.129C922.124 549.519 923.784 549.973 925.25 550.493C926.716 550.994 927.95 551.597 928.952 552.302C929.955 553.026 930.715 553.861 931.235 554.807C931.773 555.754 932.042 556.848 932.042 558.092C932.042 559.428 931.736 560.643 931.124 561.738C930.53 562.833 929.695 563.77 928.618 564.55C927.542 565.329 926.252 565.932 924.749 566.359C923.246 566.786 921.604 566.999 919.822 566.999C917.781 566.999 915.963 566.73 914.367 566.192C912.771 565.635 911.425 564.902 910.331 563.993C909.217 563.102 908.364 562.063 907.77 560.875C907.195 559.688 906.907 558.454 906.907 557.173H912.056C912.131 558.231 912.409 559.122 912.891 559.845C913.393 560.569 914.014 561.154 914.756 561.599C915.48 562.044 916.287 562.36 917.178 562.545C918.069 562.731 918.95 562.824 919.822 562.824C921.196 562.824 922.393 562.666 923.413 562.351C924.434 562.017 925.232 561.562 925.807 560.987C926.16 560.634 926.429 560.244 926.614 559.818C926.8 559.391 926.893 558.936 926.893 558.454ZM953.559 547.487L961.603 536.325H967.643L956.426 551.216L967.95 566.442H961.993L953.67 554.974L945.347 566.442H939.335L950.859 551.216L939.641 536.325H945.598L953.559 547.487Z" fill="black"/>
<rect x="526" y="677" width="454.638" height="87.8852" rx="7.12583" fill="white"/>
<g clip-path="url(#clip1_305_1442)">
<rect x="535.501" y="686.501" width="68.883" height="68.883" fill="white"/>
<path d="M535.501 720.942V755.384H604.384V686.501H535.501V720.942ZM591.01 718.187C592.659 718.57 594.159 719.433 595.319 720.667C595.958 721.332 596.513 722.072 596.972 722.871C596.972 722.959 593.996 724.971 592.183 726.095C592.117 726.139 591.853 725.852 591.561 725.417C591.23 724.846 590.759 724.368 590.194 724.028C589.628 723.688 588.986 723.496 588.326 723.472C586.237 723.329 584.893 724.425 584.904 726.227C584.887 726.676 584.989 727.121 585.201 727.517C585.659 728.47 586.513 729.038 589.191 730.195C594.123 732.316 596.234 733.716 597.545 735.705C599.011 737.91 599.336 741.47 598.344 744.104C597.242 746.969 594.542 748.914 590.723 749.559C588.979 749.759 587.217 749.74 585.477 749.504C582.822 749.073 580.373 747.809 578.484 745.895C577.85 745.195 576.616 743.371 576.693 743.239C576.894 743.089 577.106 742.955 577.327 742.836L579.862 741.381L581.84 740.235L582.253 740.847C582.951 741.845 583.838 742.695 584.865 743.349C587.07 744.506 590.078 744.346 591.566 743.007C592.066 742.516 592.377 741.866 592.447 741.169C592.516 740.472 592.339 739.773 591.946 739.194C591.395 738.428 590.293 737.783 587.213 736.438C583.658 734.906 582.127 733.959 580.727 732.449C579.853 731.452 579.208 730.277 578.837 729.005C578.56 727.551 578.519 726.063 578.715 724.596C579.448 721.163 582.022 718.766 585.78 718.055C587.521 717.84 589.284 717.888 591.01 718.198V718.187ZM574.841 721.075V723.896H565.898V749.372H559.555V723.891H550.589V721.135C550.565 720.187 550.591 719.238 550.666 718.292C550.699 718.248 556.177 718.226 562.79 718.237H574.808L574.841 721.075Z" fill="#007ACC"/>
</g>
<path d="M633.787 700.687H649.18V738.989H659.006V743.442H633.787V738.989H644.031V705.169H633.787V700.687ZM687.008 743.442C686.804 743.053 686.637 742.57 686.507 741.995C686.396 741.401 686.312 740.789 686.257 740.158C685.737 740.677 685.153 741.169 684.503 741.633C683.872 742.097 683.176 742.505 682.415 742.858C681.636 743.21 680.81 743.489 679.938 743.693C679.066 743.897 678.138 743.999 677.155 743.999C675.559 743.999 674.111 743.767 672.812 743.303C671.532 742.839 670.446 742.208 669.556 741.41C668.646 740.631 667.941 739.703 667.44 738.627C666.958 737.532 666.716 736.354 666.716 735.092C666.716 733.44 667.041 731.993 667.691 730.75C668.359 729.506 669.296 728.467 670.502 727.632C671.708 726.815 673.156 726.203 674.844 725.795C676.552 725.387 678.454 725.182 680.551 725.182H686.173V722.816C686.173 721.907 686.006 721.091 685.672 720.367C685.338 719.643 684.865 719.022 684.253 718.502C683.64 718.001 682.889 717.611 681.998 717.333C681.126 717.055 680.142 716.915 679.047 716.915C678.027 716.915 677.108 717.045 676.292 717.305C675.494 717.565 674.816 717.908 674.26 718.335C673.703 718.762 673.267 719.272 672.951 719.866C672.655 720.441 672.506 721.044 672.506 721.675H667.329C667.347 720.58 667.626 719.504 668.164 718.446C668.721 717.389 669.518 716.433 670.558 715.579C671.578 714.744 672.822 714.067 674.288 713.547C675.772 713.028 677.452 712.768 679.326 712.768C681.033 712.768 682.62 712.981 684.086 713.408C685.552 713.816 686.823 714.438 687.899 715.273C688.957 716.127 689.792 717.184 690.404 718.446C691.017 719.708 691.323 721.183 691.323 722.872V736.873C691.323 737.875 691.416 738.942 691.601 740.074C691.787 741.188 692.046 742.162 692.381 742.997V743.442H687.008ZM677.906 739.518C678.908 739.518 679.845 739.388 680.718 739.128C681.59 738.868 682.388 738.525 683.111 738.098C683.817 737.671 684.429 737.189 684.948 736.651C685.468 736.094 685.876 735.519 686.173 734.925V728.829H681.386C679.604 728.829 678.045 728.987 676.709 729.302C675.392 729.599 674.343 730.063 673.564 730.694C673.007 731.139 672.58 731.668 672.283 732.28C672.005 732.893 671.866 733.589 671.866 734.368C671.866 735.11 671.987 735.797 672.228 736.428C672.488 737.059 672.868 737.597 673.369 738.042C673.87 738.506 674.501 738.868 675.262 739.128C676.023 739.388 676.904 739.518 677.906 739.518ZM703.876 755.606C703.394 755.606 702.828 755.551 702.179 755.439C701.529 755.328 701.037 755.235 700.703 755.161L701.538 750.958C702.002 750.995 702.457 751.023 702.902 751.041C703.366 751.079 703.728 751.097 703.988 751.097C704.693 751.097 705.333 750.902 705.908 750.513C706.502 750.123 707.031 749.659 707.495 749.121C707.94 748.583 708.321 748.026 708.636 747.451C708.97 746.875 709.23 746.402 709.416 746.031L711.476 742.023L698.504 713.325H704.266L712.533 732.754L713.869 736.4L715.289 732.865L723.055 713.325H728.817L713.535 748.091C713.183 748.87 712.728 749.696 712.171 750.568C711.633 751.44 710.974 752.248 710.195 752.99C709.416 753.732 708.506 754.354 707.467 754.855C706.428 755.356 705.231 755.606 703.876 755.606ZM734.245 728.105C734.245 725.934 734.56 723.921 735.191 722.065C735.822 720.191 736.731 718.567 737.919 717.194C739.088 715.821 740.517 714.744 742.206 713.965C743.894 713.167 745.796 712.768 747.912 712.768C750.046 712.768 751.957 713.167 753.646 713.965C755.353 714.744 756.801 715.821 757.988 717.194C759.157 718.567 760.057 720.191 760.688 722.065C761.319 723.921 761.635 725.934 761.635 728.105V728.718C761.635 730.889 761.319 732.902 760.688 734.758C760.057 736.613 759.157 738.228 757.988 739.601C756.801 740.974 755.362 742.051 753.674 742.83C751.985 743.609 750.083 743.999 747.968 743.999C745.833 743.999 743.913 743.609 742.206 742.83C740.517 742.051 739.088 740.974 737.919 739.601C736.731 738.228 735.822 736.613 735.191 734.758C734.56 732.902 734.245 730.889 734.245 728.718V728.105ZM739.394 728.718C739.394 730.202 739.571 731.622 739.923 732.976C740.276 734.312 740.814 735.491 741.538 736.511C742.243 737.532 743.133 738.339 744.21 738.933C745.286 739.527 746.539 739.824 747.968 739.824C749.378 739.824 750.612 739.527 751.67 738.933C752.746 738.339 753.646 737.532 754.37 736.511C755.075 735.491 755.604 734.312 755.956 732.976C756.309 731.622 756.485 730.202 756.485 728.718V728.105C756.485 726.639 756.3 725.238 755.928 723.902C755.576 722.547 755.047 721.36 754.342 720.339C753.618 719.318 752.718 718.511 751.642 717.917C750.584 717.305 749.341 716.999 747.912 716.999C746.483 716.999 745.24 717.305 744.182 717.917C743.124 718.511 742.243 719.318 741.538 720.339C740.814 721.36 740.276 722.547 739.923 723.902C739.571 725.238 739.394 726.639 739.394 728.105V728.718ZM789.776 743.442L789.47 739.295C788.468 740.779 787.215 741.939 785.712 742.774C784.209 743.591 782.474 743.999 780.507 743.999C778.93 743.999 777.501 743.758 776.22 743.275C774.94 742.774 773.845 742.004 772.936 740.965C772.026 739.926 771.321 738.608 770.82 737.012C770.338 735.398 770.097 733.468 770.097 731.223V713.325H775.246V731.278C775.246 732.911 775.376 734.266 775.636 735.342C775.896 736.419 776.285 737.272 776.805 737.903C777.324 738.553 777.955 739.007 778.698 739.267C779.459 739.527 780.331 739.657 781.314 739.657C782.465 739.657 783.495 739.527 784.404 739.267C785.313 738.989 786.102 738.608 786.77 738.126C787.327 737.736 787.809 737.272 788.217 736.734C788.644 736.177 788.997 735.574 789.275 734.925V713.325H794.452V743.442H789.776ZM816.359 706.032V713.325H827.827V717.305H816.359V733.672C816.359 734.841 816.507 735.806 816.804 736.567C817.101 737.328 817.509 737.931 818.029 738.376C818.548 738.84 819.142 739.165 819.81 739.351C820.497 739.536 821.221 739.629 821.982 739.629C822.538 739.629 823.113 739.601 823.707 739.545C824.301 739.471 824.886 739.388 825.461 739.295C826.018 739.202 826.537 739.109 827.02 739.017C827.521 738.905 827.929 738.812 828.244 738.738L828.968 742.385C828.541 742.644 828.022 742.876 827.409 743.081C826.797 743.266 826.129 743.424 825.405 743.554C824.682 743.702 823.911 743.814 823.095 743.888C822.297 743.962 821.499 743.999 820.701 743.999C819.365 743.999 818.112 743.814 816.943 743.442C815.793 743.053 814.791 742.44 813.937 741.605C813.084 740.789 812.406 739.731 811.905 738.432C811.423 737.114 811.181 735.528 811.181 733.672V717.305H803.276V713.325H811.181V706.032H816.359ZM847.367 740.102C847.367 739.007 847.701 738.07 848.369 737.291C849.037 736.511 850.049 736.122 851.403 736.122C852.739 736.122 853.751 736.511 854.437 737.291C855.143 738.052 855.495 738.989 855.495 740.102C855.495 741.197 855.143 742.116 854.437 742.858C853.732 743.6 852.721 743.971 851.403 743.971C850.067 743.971 849.056 743.6 848.369 742.858C847.701 742.097 847.367 741.178 847.367 740.102ZM884.834 706.032V713.325H896.302V717.305H884.834V733.672C884.834 734.841 884.982 735.806 885.279 736.567C885.576 737.328 885.984 737.931 886.504 738.376C887.023 738.84 887.617 739.165 888.285 739.351C888.972 739.536 889.695 739.629 890.456 739.629C891.013 739.629 891.588 739.601 892.182 739.545C892.776 739.471 893.36 739.388 893.936 739.295C894.492 739.202 895.012 739.109 895.494 739.017C895.995 738.905 896.404 738.812 896.719 738.738L897.443 742.385C897.016 742.644 896.497 742.876 895.884 743.081C895.272 743.266 894.604 743.424 893.88 743.554C893.156 743.702 892.386 743.814 891.57 743.888C890.772 743.962 889.974 743.999 889.176 743.999C887.84 743.999 886.587 743.814 885.418 743.442C884.268 743.053 883.265 742.44 882.412 741.605C881.558 740.789 880.881 739.731 880.38 738.432C879.897 737.114 879.656 735.528 879.656 733.672V717.305H871.751V713.325H879.656V706.032H884.834ZM926.893 735.454C926.893 734.841 926.772 734.294 926.531 733.811C926.29 733.31 925.881 732.856 925.306 732.447C924.731 732.039 923.97 731.668 923.024 731.334C922.077 730.981 920.899 730.666 919.488 730.388C917.763 730.035 916.185 729.608 914.756 729.107C913.346 728.606 912.14 728.003 911.138 727.298C910.117 726.611 909.329 725.804 908.772 724.876C908.215 723.93 907.937 722.835 907.937 721.592C907.937 720.367 908.224 719.226 908.8 718.168C909.375 717.092 910.182 716.155 911.221 715.357C912.261 714.559 913.495 713.928 914.923 713.464C916.371 713 917.958 712.768 919.683 712.768C921.539 712.768 923.209 713.009 924.694 713.492C926.178 713.974 927.44 714.642 928.479 715.496C929.518 716.349 930.316 717.351 930.873 718.502C931.448 719.634 931.736 720.859 931.736 722.176H926.586C926.586 721.527 926.419 720.896 926.085 720.283C925.751 719.653 925.287 719.096 924.694 718.613C924.1 718.131 923.376 717.741 922.522 717.444C921.687 717.147 920.741 716.999 919.683 716.999C918.588 716.999 917.623 717.12 916.788 717.361C915.972 717.602 915.295 717.927 914.756 718.335C914.2 718.743 913.782 719.216 913.504 719.755C913.226 720.293 913.086 720.849 913.086 721.425C913.086 722.019 913.198 722.547 913.42 723.011C913.643 723.475 914.033 723.893 914.589 724.264C915.128 724.635 915.851 724.969 916.761 725.266C917.688 725.563 918.858 725.85 920.268 726.129C922.124 726.519 923.784 726.973 925.25 727.493C926.716 727.994 927.95 728.597 928.952 729.302C929.955 730.026 930.715 730.861 931.235 731.807C931.773 732.754 932.042 733.848 932.042 735.092C932.042 736.428 931.736 737.643 931.124 738.738C930.53 739.833 929.695 740.77 928.618 741.55C927.542 742.329 926.252 742.932 924.749 743.359C923.246 743.786 921.604 743.999 919.822 743.999C917.781 743.999 915.963 743.73 914.367 743.192C912.771 742.635 911.425 741.902 910.331 740.993C909.217 740.102 908.364 739.063 907.77 737.875C907.195 736.688 906.907 735.454 906.907 734.173H912.056C912.131 735.231 912.409 736.122 912.891 736.845C913.393 737.569 914.014 738.154 914.756 738.599C915.48 739.044 916.287 739.36 917.178 739.545C918.069 739.731 918.95 739.824 919.822 739.824C921.196 739.824 922.393 739.666 923.413 739.351C924.434 739.017 925.232 738.562 925.807 737.987C926.16 737.634 926.429 737.244 926.614 736.818C926.8 736.391 926.893 735.936 926.893 735.454ZM953.559 724.487L961.603 713.325H967.643L956.426 728.216L967.95 743.442H961.993L953.67 731.974L945.347 743.442H939.335L950.859 728.216L939.641 713.325H945.598L953.559 724.487Z" fill="black"/>
<rect x="424" y="411.771" width="317.638" height="87.8852" rx="7.12583" fill="white"/>
<path d="M495.496 429.882H464.498L457.61 421.271H440.389C436.601 421.271 433.501 425.146 433.501 429.882V447.102H502.384V438.492C502.384 433.756 499.284 429.882 495.496 429.882Z" fill="#FFA000"/>
<path d="M495.496 429.882H440.389C436.601 429.882 433.501 433.756 433.501 438.492V481.544C433.501 486.279 436.601 490.154 440.389 490.154H495.496C499.284 490.154 502.384 486.279 502.384 481.544V438.492C502.384 433.756 499.284 429.882 495.496 429.882Z" fill="#FFCA28"/>
<path d="M536.074 461.762C536.074 459.109 536.278 456.613 536.686 454.275C537.113 451.936 537.679 449.765 538.384 447.761C539.089 445.776 539.897 443.957 540.806 442.305C541.734 440.654 542.708 439.188 543.729 437.907C544.731 436.627 545.742 435.532 546.763 434.623C547.783 433.714 548.758 432.999 549.685 432.48L550.771 435.875C550.177 436.321 549.574 436.859 548.962 437.49C548.368 438.121 547.783 438.826 547.208 439.605C546.354 440.812 545.538 442.231 544.759 443.864C543.979 445.479 543.33 447.251 542.81 449.181C542.309 450.925 541.919 452.846 541.641 454.943C541.363 457.04 541.223 459.294 541.223 461.707V462.096C541.223 464.416 541.353 466.587 541.613 468.61C541.873 470.632 542.226 472.497 542.671 474.205C543.153 475.93 543.71 477.526 544.341 478.992C544.972 480.477 545.631 481.804 546.317 482.973C547.022 484.086 547.746 485.07 548.488 485.923C549.249 486.795 550.01 487.538 550.771 488.15L549.685 491.295C548.758 490.776 547.774 490.061 546.735 489.152C545.714 488.261 544.703 487.167 543.701 485.868C542.68 484.587 541.706 483.121 540.778 481.47C539.869 479.837 539.071 478.018 538.384 476.014C537.679 474.028 537.113 471.866 536.686 469.528C536.278 467.19 536.074 464.694 536.074 462.041V461.762ZM585.231 470.224C585.231 469.612 585.11 469.064 584.869 468.582C584.628 468.081 584.22 467.626 583.644 467.218C583.069 466.81 582.308 466.439 581.362 466.105C580.415 465.752 579.237 465.437 577.827 465.158C576.101 464.806 574.524 464.379 573.095 463.878C571.684 463.377 570.478 462.774 569.476 462.068C568.456 461.382 567.667 460.575 567.11 459.647C566.554 458.7 566.275 457.606 566.275 456.362C566.275 455.137 566.563 453.996 567.138 452.938C567.713 451.862 568.521 450.925 569.56 450.127C570.599 449.329 571.833 448.698 573.262 448.234C574.709 447.77 576.296 447.538 578.022 447.538C579.877 447.538 581.547 447.78 583.032 448.262C584.517 448.745 585.778 449.413 586.818 450.266C587.857 451.12 588.655 452.122 589.211 453.272C589.787 454.404 590.074 455.629 590.074 456.947H584.925C584.925 456.297 584.758 455.666 584.424 455.054C584.09 454.423 583.626 453.866 583.032 453.384C582.438 452.901 581.714 452.512 580.861 452.215C580.026 451.918 579.079 451.769 578.022 451.769C576.927 451.769 575.962 451.89 575.127 452.131C574.31 452.372 573.633 452.697 573.095 453.105C572.538 453.514 572.121 453.987 571.842 454.525C571.564 455.063 571.425 455.62 571.425 456.195C571.425 456.789 571.536 457.318 571.759 457.782C571.981 458.246 572.371 458.663 572.928 459.034C573.466 459.406 574.19 459.74 575.099 460.036C576.027 460.333 577.196 460.621 578.606 460.899C580.462 461.289 582.123 461.744 583.589 462.263C585.055 462.764 586.289 463.367 587.291 464.073C588.293 464.796 589.054 465.631 589.573 466.578C590.111 467.524 590.381 468.619 590.381 469.862C590.381 471.198 590.074 472.414 589.462 473.509C588.868 474.604 588.033 475.541 586.957 476.32C585.88 477.099 584.591 477.703 583.088 478.129C581.585 478.556 579.942 478.77 578.161 478.77C576.12 478.77 574.301 478.501 572.705 477.962C571.109 477.406 569.764 476.673 568.669 475.763C567.556 474.873 566.702 473.833 566.108 472.646C565.533 471.458 565.245 470.224 565.245 468.944H570.395C570.469 470.001 570.747 470.892 571.23 471.616C571.731 472.34 572.353 472.924 573.095 473.37C573.819 473.815 574.626 474.13 575.516 474.316C576.407 474.502 577.289 474.594 578.161 474.594C579.534 474.594 580.731 474.437 581.752 474.121C582.772 473.787 583.57 473.332 584.145 472.757C584.498 472.405 584.767 472.015 584.953 471.588C585.138 471.161 585.231 470.707 585.231 470.224ZM600.262 448.095H615.655V473.759H625.481V478.213H600.262V473.759H610.505V452.577H600.262V448.095ZM609.837 440.19C609.837 439.745 609.902 439.327 610.032 438.937C610.181 438.548 610.403 438.214 610.7 437.935C610.941 437.694 611.248 437.508 611.619 437.379C612.009 437.23 612.445 437.156 612.927 437.156C613.41 437.156 613.836 437.23 614.207 437.379C614.579 437.508 614.885 437.694 615.126 437.935C615.423 438.195 615.646 438.52 615.794 438.909C615.943 439.299 616.017 439.726 616.017 440.19C616.017 441.025 615.757 441.721 615.237 442.278C614.718 442.834 613.948 443.113 612.927 443.113C611.888 443.113 611.109 442.834 610.589 442.278C610.088 441.721 609.837 441.025 609.837 440.19ZM645.884 440.802V448.095H657.352V452.076H645.884V468.443C645.884 469.612 646.032 470.577 646.329 471.338C646.626 472.098 647.035 472.702 647.554 473.147C648.074 473.611 648.668 473.936 649.336 474.121C650.022 474.307 650.746 474.399 651.507 474.399C652.063 474.399 652.639 474.372 653.233 474.316C653.826 474.242 654.411 474.158 654.986 474.065C655.543 473.973 656.062 473.88 656.545 473.787C657.046 473.676 657.454 473.583 657.77 473.509L658.493 477.155C658.067 477.415 657.547 477.647 656.935 477.851C656.322 478.037 655.654 478.194 654.93 478.324C654.207 478.473 653.437 478.584 652.62 478.658C651.822 478.732 651.024 478.77 650.226 478.77C648.89 478.77 647.638 478.584 646.469 478.213C645.318 477.823 644.316 477.211 643.462 476.376C642.609 475.559 641.931 474.502 641.43 473.203C640.948 471.885 640.707 470.298 640.707 468.443V452.076H632.801V448.095H640.707V440.802H645.884ZM681.235 478.77C679.119 478.77 677.171 478.408 675.389 477.684C673.627 476.96 672.114 475.949 670.852 474.65C669.59 473.351 668.607 471.811 667.902 470.029C667.197 468.248 666.844 466.309 666.844 464.212V463.043C666.844 460.612 667.234 458.441 668.013 456.529C668.792 454.599 669.832 452.966 671.131 451.63C672.411 450.313 673.868 449.301 675.501 448.596C677.152 447.891 678.841 447.538 680.567 447.538C682.738 447.538 684.631 447.919 686.245 448.68C687.878 449.422 689.233 450.452 690.309 451.769C691.385 453.105 692.183 454.674 692.703 456.474C693.241 458.274 693.51 460.222 693.51 462.319V464.629H671.994V464.824C672.123 466.29 672.411 467.58 672.856 468.693C673.32 469.807 673.951 470.79 674.749 471.644C675.566 472.553 676.549 473.267 677.7 473.787C678.85 474.307 680.121 474.566 681.513 474.566C683.35 474.566 684.983 474.195 686.412 473.453C687.841 472.711 689.029 471.727 689.975 470.503L693.12 472.952C692.118 474.474 690.615 475.828 688.611 477.016C686.626 478.185 684.167 478.77 681.235 478.77ZM680.567 451.769C679.528 451.769 678.544 451.964 677.616 452.354C676.688 452.725 675.853 453.272 675.111 453.996C674.369 454.738 673.738 455.648 673.218 456.724C672.717 457.782 672.365 459.007 672.161 460.398H688.361V460.148C688.361 459.22 688.184 458.227 687.832 457.169C687.479 456.093 686.987 455.165 686.357 454.386C685.726 453.607 684.928 452.976 683.963 452.493C683.016 452.011 681.884 451.769 680.567 451.769ZM720.956 462.041C720.956 464.694 720.742 467.19 720.316 469.528C719.907 471.866 719.351 474.028 718.645 476.014C717.94 478.018 717.124 479.837 716.196 481.47C715.287 483.121 714.331 484.587 713.329 485.868C712.308 487.167 711.278 488.261 710.239 489.152C709.219 490.061 708.244 490.776 707.316 491.295L706.231 488.15C707.01 487.575 707.799 486.833 708.597 485.923C709.395 485.014 710.156 483.966 710.879 482.778C711.566 481.572 712.225 480.208 712.856 478.686C713.505 477.183 714.034 475.531 714.442 473.731C714.869 472.061 715.194 470.261 715.417 468.331C715.658 466.383 715.778 464.305 715.778 462.096V461.707C715.778 459.201 715.621 456.928 715.305 454.887C715.008 452.846 714.674 451.111 714.303 449.682C713.765 447.64 713.115 445.813 712.355 444.198C711.594 442.565 710.814 441.146 710.016 439.939C709.404 438.993 708.773 438.167 708.124 437.462C707.474 436.738 706.843 436.126 706.231 435.625L707.316 432.48C708.244 432.999 709.228 433.714 710.267 434.623C711.306 435.532 712.327 436.627 713.329 437.907C714.368 439.225 715.342 440.691 716.252 442.305C717.161 443.92 717.959 445.738 718.645 447.761C719.313 449.71 719.861 451.825 720.288 454.108C720.733 456.371 720.956 458.923 720.956 461.762V462.041Z" fill="black"/>
<path d="M1334.48 567V533.629H1346.99C1349.55 533.629 1351.7 534.074 1353.44 534.965C1355.19 535.856 1356.51 537.105 1357.4 538.713C1358.3 540.31 1358.75 542.173 1358.75 544.302C1358.75 546.442 1358.3 548.299 1357.39 549.874C1356.48 551.439 1355.15 552.65 1353.39 553.508C1351.63 554.355 1349.47 554.779 1346.91 554.779H1337.99V549.76H1346.09C1347.59 549.76 1348.82 549.554 1349.78 549.141C1350.73 548.718 1351.44 548.104 1351.89 547.3C1352.36 546.485 1352.59 545.486 1352.59 544.302C1352.59 543.118 1352.36 542.107 1351.89 541.271C1351.43 540.424 1350.72 539.783 1349.76 539.348C1348.8 538.903 1347.57 538.68 1346.06 538.68H1340.52V567H1334.48ZM1351.71 551.879L1359.98 567H1353.23L1345.12 551.879H1351.71ZM1374.62 567.489C1372.17 567.489 1370.05 566.951 1368.26 565.876C1366.47 564.8 1365.08 563.296 1364.09 561.362C1363.11 559.428 1362.62 557.169 1362.62 554.584C1362.62 551.998 1363.11 549.733 1364.09 547.789C1365.08 545.844 1366.47 544.334 1368.26 543.259C1370.05 542.183 1372.17 541.646 1374.62 541.646C1377.06 541.646 1379.18 542.183 1380.97 543.259C1382.76 544.334 1384.15 545.844 1385.13 547.789C1386.12 549.733 1386.61 551.998 1386.61 554.584C1386.61 557.169 1386.12 559.428 1385.13 561.362C1384.15 563.296 1382.76 564.8 1380.97 565.876C1379.18 566.951 1377.06 567.489 1374.62 567.489ZM1374.65 562.763C1375.97 562.763 1377.08 562.4 1377.97 561.672C1378.86 560.933 1379.53 559.944 1379.96 558.706C1380.41 557.468 1380.63 556.088 1380.63 554.567C1380.63 553.036 1380.41 551.651 1379.96 550.412C1379.53 549.163 1378.86 548.169 1377.97 547.43C1377.08 546.692 1375.97 546.322 1374.65 546.322C1373.29 546.322 1372.16 546.692 1371.26 547.43C1370.37 548.169 1369.7 549.163 1369.26 550.412C1368.82 551.651 1368.6 553.036 1368.6 554.567C1368.6 556.088 1368.82 557.468 1369.26 558.706C1369.7 559.944 1370.37 560.933 1371.26 561.672C1372.16 562.4 1373.29 562.763 1374.65 562.763ZM1402.53 567.489C1400.09 567.489 1397.97 566.951 1396.18 565.876C1394.39 564.8 1393 563.296 1392.01 561.362C1391.03 559.428 1390.54 557.169 1390.54 554.584C1390.54 551.998 1391.03 549.733 1392.01 547.789C1393 545.844 1394.39 544.334 1396.18 543.259C1397.97 542.183 1400.09 541.646 1402.53 541.646C1404.98 541.646 1407.1 542.183 1408.89 543.259C1410.68 544.334 1412.07 545.844 1413.04 547.789C1414.03 549.733 1414.53 551.998 1414.53 554.584C1414.53 557.169 1414.03 559.428 1413.04 561.362C1412.07 563.296 1410.68 564.8 1408.89 565.876C1407.1 566.951 1404.98 567.489 1402.53 567.489ZM1402.57 562.763C1403.89 562.763 1405 562.4 1405.89 561.672C1406.78 560.933 1407.44 559.944 1407.88 558.706C1408.32 557.468 1408.55 556.088 1408.55 554.567C1408.55 553.036 1408.32 551.651 1407.88 550.412C1407.44 549.163 1406.78 548.169 1405.89 547.43C1405 546.692 1403.89 546.322 1402.57 546.322C1401.21 546.322 1400.08 546.692 1399.18 547.43C1398.29 548.169 1397.62 549.163 1397.17 550.412C1396.74 551.651 1396.52 553.036 1396.52 554.567C1396.52 556.088 1396.74 557.468 1397.17 558.706C1397.62 559.944 1398.29 560.933 1399.18 561.672C1400.08 562.4 1401.21 562.763 1402.57 562.763ZM1432.03 541.972V546.534H1417.64V541.972H1432.03ZM1421.19 535.975H1427.09V559.472C1427.09 560.265 1427.21 560.873 1427.45 561.297C1427.7 561.71 1428.03 561.992 1428.43 562.144C1428.83 562.296 1429.28 562.372 1429.77 562.372C1430.13 562.372 1430.47 562.345 1430.78 562.291C1431.09 562.237 1431.33 562.188 1431.49 562.144L1432.49 566.756C1432.17 566.864 1431.72 566.984 1431.13 567.114C1430.56 567.244 1429.85 567.32 1429.02 567.342C1427.54 567.386 1426.21 567.163 1425.02 566.674C1423.84 566.174 1422.9 565.403 1422.2 564.36C1421.52 563.317 1421.18 562.014 1421.19 560.45V535.975ZM1448.61 567V533.629H1454.65V561.932H1469.35V567H1448.61ZM1481.54 567.505C1479.95 567.505 1478.52 567.223 1477.25 566.658C1475.99 566.082 1474.99 565.235 1474.25 564.116C1473.53 562.997 1473.16 561.617 1473.16 559.977C1473.16 558.565 1473.42 557.397 1473.94 556.474C1474.47 555.55 1475.18 554.812 1476.08 554.258C1476.98 553.704 1478 553.285 1479.13 553.003C1480.27 552.71 1481.44 552.498 1482.66 552.368C1484.13 552.215 1485.32 552.08 1486.23 551.96C1487.14 551.83 1487.81 551.634 1488.22 551.374C1488.64 551.102 1488.85 550.684 1488.85 550.119V550.021C1488.85 548.794 1488.49 547.843 1487.76 547.17C1487.03 546.496 1485.99 546.159 1484.62 546.159C1483.17 546.159 1482.03 546.474 1481.18 547.104C1480.34 547.734 1479.78 548.479 1479.48 549.337L1473.98 548.555C1474.41 547.034 1475.13 545.763 1476.13 544.742C1477.13 543.71 1478.35 542.938 1479.79 542.428C1481.24 541.906 1482.84 541.646 1484.58 541.646C1485.79 541.646 1486.99 541.787 1488.19 542.069C1489.38 542.352 1490.47 542.819 1491.46 543.471C1492.45 544.112 1493.24 544.986 1493.84 546.094C1494.45 547.202 1494.75 548.587 1494.75 550.249V567H1489.08V563.562H1488.89C1488.53 564.257 1488.02 564.909 1487.37 565.517C1486.73 566.115 1485.92 566.598 1484.94 566.967C1483.98 567.326 1482.84 567.505 1481.54 567.505ZM1483.07 563.171C1484.25 563.171 1485.28 562.937 1486.15 562.47C1487.02 561.992 1487.69 561.362 1488.15 560.58C1488.63 559.798 1488.87 558.945 1488.87 558.022V555.072C1488.69 555.224 1488.37 555.366 1487.92 555.496C1487.49 555.626 1487 555.74 1486.46 555.838C1485.92 555.936 1485.38 556.023 1484.85 556.099C1484.31 556.175 1483.85 556.24 1483.46 556.294C1482.58 556.414 1481.79 556.61 1481.1 556.881C1480.4 557.153 1479.85 557.533 1479.45 558.022C1479.05 558.5 1478.85 559.119 1478.85 559.879C1478.85 560.966 1479.25 561.786 1480.04 562.34C1480.83 562.894 1481.84 563.171 1483.07 563.171ZM1503.45 576.386C1502.65 576.386 1501.91 576.32 1501.22 576.19C1500.55 576.071 1500.01 575.929 1499.61 575.766L1500.98 571.171C1501.83 571.421 1502.6 571.541 1503.27 571.53C1503.95 571.519 1504.54 571.307 1505.05 570.894C1505.57 570.492 1506.01 569.819 1506.37 568.874L1506.88 567.521L1497.8 541.972H1504.06L1509.82 560.873H1510.09L1515.87 541.972H1522.14L1512.12 570.031C1511.66 571.356 1511.04 572.491 1510.26 573.436C1509.49 574.392 1508.55 575.12 1507.43 575.62C1506.32 576.13 1505 576.386 1503.45 576.386ZM1536.29 567.489C1533.85 567.489 1531.73 566.951 1529.94 565.876C1528.14 564.8 1526.75 563.296 1525.76 561.362C1524.79 559.428 1524.3 557.169 1524.3 554.584C1524.3 551.998 1524.79 549.733 1525.76 547.789C1526.75 545.844 1528.14 544.334 1529.94 543.259C1531.73 542.183 1533.85 541.646 1536.29 541.646C1538.74 541.646 1540.85 542.183 1542.65 543.259C1544.44 544.334 1545.82 545.844 1546.8 547.789C1547.79 549.733 1548.28 551.998 1548.28 554.584C1548.28 557.169 1547.79 559.428 1546.8 561.362C1545.82 563.296 1544.44 564.8 1542.65 565.876C1540.85 566.951 1538.74 567.489 1536.29 567.489ZM1536.32 562.763C1537.65 562.763 1538.76 562.4 1539.65 561.672C1540.54 560.933 1541.2 559.944 1541.64 558.706C1542.08 557.468 1542.3 556.088 1542.3 554.567C1542.3 553.036 1542.08 551.651 1541.64 550.412C1541.2 549.163 1540.54 548.169 1539.65 547.43C1538.76 546.692 1537.65 546.322 1536.32 546.322C1534.97 546.322 1533.84 546.692 1532.93 547.43C1532.04 548.169 1531.38 549.163 1530.93 550.412C1530.5 551.651 1530.28 553.036 1530.28 554.567C1530.28 556.088 1530.5 557.468 1530.93 558.706C1531.38 559.944 1532.04 560.933 1532.93 561.672C1533.84 562.4 1534.97 562.763 1536.32 562.763ZM1569.24 556.474V541.972H1575.14V567H1569.42V562.552H1569.16C1568.6 563.953 1567.67 565.099 1566.37 565.99C1565.09 566.881 1563.51 567.326 1561.63 567.326C1559.99 567.326 1558.54 566.962 1557.28 566.234C1556.03 565.495 1555.06 564.425 1554.35 563.024C1553.64 561.612 1553.29 559.906 1553.29 557.908V541.972H1559.19V556.995C1559.19 558.581 1559.62 559.841 1560.49 560.775C1561.36 561.71 1562.5 562.177 1563.91 562.177C1564.78 562.177 1565.63 561.965 1566.44 561.541C1567.25 561.118 1567.92 560.488 1568.44 559.651C1568.98 558.804 1569.24 557.745 1569.24 556.474ZM1593.7 541.972V546.534H1579.32V541.972H1593.7ZM1582.87 535.975H1588.77V559.472C1588.77 560.265 1588.89 560.873 1589.13 561.297C1589.38 561.71 1589.7 561.992 1590.1 562.144C1590.51 562.296 1590.95 562.372 1591.44 562.372C1591.81 562.372 1592.15 562.345 1592.45 562.291C1592.77 562.237 1593 562.188 1593.17 562.144L1594.16 566.756C1593.85 566.864 1593.4 566.984 1592.81 567.114C1592.23 567.244 1591.53 567.32 1590.69 567.342C1589.21 567.386 1587.88 567.163 1586.7 566.674C1585.51 566.174 1584.57 565.403 1583.88 564.36C1583.19 563.317 1582.86 562.014 1582.87 560.45V535.975Z" fill="#FF0000"/>
<path d="M1039.99 550.359C1039.21 551.145 1039.21 552.419 1039.99 553.205L1052.8 566.011C1053.58 566.797 1054.86 566.797 1055.64 566.011C1056.43 565.225 1056.43 563.951 1055.64 563.165L1044.26 551.782L1055.64 540.399C1056.43 539.613 1056.43 538.339 1055.64 537.553C1054.86 536.767 1053.58 536.767 1052.8 537.553L1039.99 550.359ZM1316.69 549.77L1041.41 549.77L1041.41 553.795L1316.69 553.795L1316.69 549.77Z" fill="#FF0000"/>
<path d="M1334.48 743V709.629H1346.99C1349.55 709.629 1351.7 710.074 1353.44 710.965C1355.19 711.856 1356.51 713.105 1357.4 714.713C1358.3 716.31 1358.75 718.173 1358.75 720.302C1358.75 722.442 1358.3 724.299 1357.39 725.874C1356.48 727.439 1355.15 728.65 1353.39 729.508C1351.63 730.355 1349.47 730.779 1346.91 730.779H1337.99V725.76H1346.09C1347.59 725.76 1348.82 725.554 1349.78 725.141C1350.73 724.718 1351.44 724.104 1351.89 723.3C1352.36 722.485 1352.59 721.486 1352.59 720.302C1352.59 719.118 1352.36 718.107 1351.89 717.271C1351.43 716.424 1350.72 715.783 1349.76 715.348C1348.8 714.903 1347.57 714.68 1346.06 714.68H1340.52V743H1334.48ZM1351.71 727.879L1359.98 743H1353.23L1345.12 727.879H1351.71ZM1374.62 743.489C1372.17 743.489 1370.05 742.951 1368.26 741.876C1366.47 740.8 1365.08 739.296 1364.09 737.362C1363.11 735.428 1362.62 733.169 1362.62 730.584C1362.62 727.998 1363.11 725.733 1364.09 723.789C1365.08 721.844 1366.47 720.334 1368.26 719.259C1370.05 718.183 1372.17 717.646 1374.62 717.646C1377.06 717.646 1379.18 718.183 1380.97 719.259C1382.76 720.334 1384.15 721.844 1385.13 723.789C1386.12 725.733 1386.61 727.998 1386.61 730.584C1386.61 733.169 1386.12 735.428 1385.13 737.362C1384.15 739.296 1382.76 740.8 1380.97 741.876C1379.18 742.951 1377.06 743.489 1374.62 743.489ZM1374.65 738.763C1375.97 738.763 1377.08 738.4 1377.97 737.672C1378.86 736.933 1379.53 735.944 1379.96 734.706C1380.41 733.468 1380.63 732.088 1380.63 730.567C1380.63 729.036 1380.41 727.651 1379.96 726.412C1379.53 725.163 1378.86 724.169 1377.97 723.43C1377.08 722.692 1375.97 722.322 1374.65 722.322C1373.29 722.322 1372.16 722.692 1371.26 723.43C1370.37 724.169 1369.7 725.163 1369.26 726.412C1368.82 727.651 1368.6 729.036 1368.6 730.567C1368.6 732.088 1368.82 733.468 1369.26 734.706C1369.7 735.944 1370.37 736.933 1371.26 737.672C1372.16 738.4 1373.29 738.763 1374.65 738.763ZM1402.53 743.489C1400.09 743.489 1397.97 742.951 1396.18 741.876C1394.39 740.8 1393 739.296 1392.01 737.362C1391.03 735.428 1390.54 733.169 1390.54 730.584C1390.54 727.998 1391.03 725.733 1392.01 723.789C1393 721.844 1394.39 720.334 1396.18 719.259C1397.97 718.183 1400.09 717.646 1402.53 717.646C1404.98 717.646 1407.1 718.183 1408.89 719.259C1410.68 720.334 1412.07 721.844 1413.04 723.789C1414.03 725.733 1414.53 727.998 1414.53 730.584C1414.53 733.169 1414.03 735.428 1413.04 737.362C1412.07 739.296 1410.68 740.8 1408.89 741.876C1407.1 742.951 1404.98 743.489 1402.53 743.489ZM1402.57 738.763C1403.89 738.763 1405 738.4 1405.89 737.672C1406.78 736.933 1407.44 735.944 1407.88 734.706C1408.32 733.468 1408.55 732.088 1408.55 730.567C1408.55 729.036 1408.32 727.651 1407.88 726.412C1407.44 725.163 1406.78 724.169 1405.89 723.43C1405 722.692 1403.89 722.322 1402.57 722.322C1401.21 722.322 1400.08 722.692 1399.18 723.43C1398.29 724.169 1397.62 725.163 1397.17 726.412C1396.74 727.651 1396.52 729.036 1396.52 730.567C1396.52 732.088 1396.74 733.468 1397.17 734.706C1397.62 735.944 1398.29 736.933 1399.18 737.672C1400.08 738.4 1401.21 738.763 1402.57 738.763ZM1432.03 717.972V722.534H1417.64V717.972H1432.03ZM1421.19 711.975H1427.09V735.472C1427.09 736.265 1427.21 736.873 1427.45 737.297C1427.7 737.71 1428.03 737.992 1428.43 738.144C1428.83 738.296 1429.28 738.372 1429.77 738.372C1430.13 738.372 1430.47 738.345 1430.78 738.291C1431.09 738.237 1431.33 738.188 1431.49 738.144L1432.49 742.756C1432.17 742.864 1431.72 742.984 1431.13 743.114C1430.56 743.244 1429.85 743.32 1429.02 743.342C1427.54 743.386 1426.21 743.163 1425.02 742.674C1423.84 742.174 1422.9 741.403 1422.2 740.36C1421.52 739.317 1421.18 738.014 1421.19 736.45V711.975ZM1448.61 743V709.629H1454.65V737.932H1469.35V743H1448.61ZM1481.54 743.505C1479.95 743.505 1478.52 743.223 1477.25 742.658C1475.99 742.082 1474.99 741.235 1474.25 740.116C1473.53 738.997 1473.16 737.617 1473.16 735.977C1473.16 734.565 1473.42 733.397 1473.94 732.474C1474.47 731.55 1475.18 730.812 1476.08 730.258C1476.98 729.704 1478 729.285 1479.13 729.003C1480.27 728.71 1481.44 728.498 1482.66 728.368C1484.13 728.215 1485.32 728.08 1486.23 727.96C1487.14 727.83 1487.81 727.634 1488.22 727.374C1488.64 727.102 1488.85 726.684 1488.85 726.119V726.021C1488.85 724.794 1488.49 723.843 1487.76 723.17C1487.03 722.496 1485.99 722.159 1484.62 722.159C1483.17 722.159 1482.03 722.474 1481.18 723.104C1480.34 723.734 1479.78 724.479 1479.48 725.337L1473.98 724.555C1474.41 723.034 1475.13 721.763 1476.13 720.742C1477.13 719.71 1478.35 718.938 1479.79 718.428C1481.24 717.906 1482.84 717.646 1484.58 717.646C1485.79 717.646 1486.99 717.787 1488.19 718.069C1489.38 718.352 1490.47 718.819 1491.46 719.471C1492.45 720.112 1493.24 720.986 1493.84 722.094C1494.45 723.202 1494.75 724.587 1494.75 726.249V743H1489.08V739.562H1488.89C1488.53 740.257 1488.02 740.909 1487.37 741.517C1486.73 742.115 1485.92 742.598 1484.94 742.967C1483.98 743.326 1482.84 743.505 1481.54 743.505ZM1483.07 739.171C1484.25 739.171 1485.28 738.937 1486.15 738.47C1487.02 737.992 1487.69 737.362 1488.15 736.58C1488.63 735.798 1488.87 734.945 1488.87 734.022V731.072C1488.69 731.224 1488.37 731.366 1487.92 731.496C1487.49 731.626 1487 731.74 1486.46 731.838C1485.92 731.936 1485.38 732.023 1484.85 732.099C1484.31 732.175 1483.85 732.24 1483.46 732.294C1482.58 732.414 1481.79 732.61 1481.1 732.881C1480.4 733.153 1479.85 733.533 1479.45 734.022C1479.05 734.5 1478.85 735.119 1478.85 735.879C1478.85 736.966 1479.25 737.786 1480.04 738.34C1480.83 738.894 1481.84 739.171 1483.07 739.171ZM1503.45 752.386C1502.65 752.386 1501.91 752.32 1501.22 752.19C1500.55 752.071 1500.01 751.929 1499.61 751.766L1500.98 747.171C1501.83 747.421 1502.6 747.541 1503.27 747.53C1503.95 747.519 1504.54 747.307 1505.05 746.894C1505.57 746.492 1506.01 745.819 1506.37 744.874L1506.88 743.521L1497.8 717.972H1504.06L1509.82 736.873H1510.09L1515.87 717.972H1522.14L1512.12 746.031C1511.66 747.356 1511.04 748.491 1510.26 749.436C1509.49 750.392 1508.55 751.12 1507.43 751.62C1506.32 752.13 1505 752.386 1503.45 752.386ZM1536.29 743.489C1533.85 743.489 1531.73 742.951 1529.94 741.876C1528.14 740.8 1526.75 739.296 1525.76 737.362C1524.79 735.428 1524.3 733.169 1524.3 730.584C1524.3 727.998 1524.79 725.733 1525.76 723.789C1526.75 721.844 1528.14 720.334 1529.94 719.259C1531.73 718.183 1533.85 717.646 1536.29 717.646C1538.74 717.646 1540.85 718.183 1542.65 719.259C1544.44 720.334 1545.82 721.844 1546.8 723.789C1547.79 725.733 1548.28 727.998 1548.28 730.584C1548.28 733.169 1547.79 735.428 1546.8 737.362C1545.82 739.296 1544.44 740.8 1542.65 741.876C1540.85 742.951 1538.74 743.489 1536.29 743.489ZM1536.32 738.763C1537.65 738.763 1538.76 738.4 1539.65 737.672C1540.54 736.933 1541.2 735.944 1541.64 734.706C1542.08 733.468 1542.3 732.088 1542.3 730.567C1542.3 729.036 1542.08 727.651 1541.64 726.412C1541.2 725.163 1540.54 724.169 1539.65 723.43C1538.76 722.692 1537.65 722.322 1536.32 722.322C1534.97 722.322 1533.84 722.692 1532.93 723.43C1532.04 724.169 1531.38 725.163 1530.93 726.412C1530.5 727.651 1530.28 729.036 1530.28 730.567C1530.28 732.088 1530.5 733.468 1530.93 734.706C1531.38 735.944 1532.04 736.933 1532.93 737.672C1533.84 738.4 1534.97 738.763 1536.32 738.763ZM1569.24 732.474V717.972H1575.14V743H1569.42V738.552H1569.16C1568.6 739.953 1567.67 741.099 1566.37 741.99C1565.09 742.881 1563.51 743.326 1561.63 743.326C1559.99 743.326 1558.54 742.962 1557.28 742.234C1556.03 741.495 1555.06 740.425 1554.35 739.024C1553.64 737.612 1553.29 735.906 1553.29 733.908V717.972H1559.19V732.995C1559.19 734.581 1559.62 735.841 1560.49 736.775C1561.36 737.71 1562.5 738.177 1563.91 738.177C1564.78 738.177 1565.63 737.965 1566.44 737.541C1567.25 737.118 1567.92 736.488 1568.44 735.651C1568.98 734.804 1569.24 733.745 1569.24 732.474ZM1593.7 717.972V722.534H1579.32V717.972H1593.7ZM1582.87 711.975H1588.77V735.472C1588.77 736.265 1588.89 736.873 1589.13 737.297C1589.38 737.71 1589.7 737.992 1590.1 738.144C1590.51 738.296 1590.95 738.372 1591.44 738.372C1591.81 738.372 1592.15 738.345 1592.45 738.291C1592.77 738.237 1593 738.188 1593.17 738.144L1594.16 742.756C1593.85 742.864 1593.4 742.984 1592.81 743.114C1592.23 743.244 1591.53 743.32 1590.69 743.342C1589.21 743.386 1587.88 743.163 1586.7 742.674C1585.51 742.174 1584.57 741.403 1583.88 740.36C1583.19 739.317 1582.86 738.014 1582.87 736.45V711.975Z" fill="#FF0000"/>
<path d="M1039.99 726.359C1039.21 727.145 1039.21 728.419 1039.99 729.205L1052.8 742.011C1053.58 742.797 1054.86 742.797 1055.64 742.011C1056.43 741.225 1056.43 739.951 1055.64 739.165L1044.26 727.782L1055.64 716.399C1056.43 715.613 1056.43 714.339 1055.64 713.553C1054.86 712.767 1053.58 712.767 1052.8 713.553L1039.99 726.359ZM1316.69 725.77L1041.41 725.77L1041.41 729.795L1316.69 729.795L1316.69 725.77Z" fill="#FF0000"/>
<defs>
<clipPath id="clip0_305_1442">
<rect x="535.501" y="509.501" width="68.883" height="68.883" rx="9.5011" fill="white"/>
</clipPath>
<clipPath id="clip1_305_1442">
<rect x="535.501" y="686.501" width="68.883" height="68.883" rx="9.5011" fill="white"/>
</clipPath>
</defs>
</svg>
