<svg width="1587" height="384" viewBox="0 0 1587 384" fill="none" xmlns="http://www.w3.org/2000/svg">
<rect width="1587" height="384" fill="white"/>
<path d="M992.008 37H1538.97C1548.4 37 1556 43.3971 1556 51.3629V195.655C1556 203.603 1548.4 210 1538.97 210H992.008C982.584 210 975 203.603 975 195.655V51.3629C975 43.3971 982.584 37 992.008 37Z" fill="#FFE6D5" stroke="#FF6600" stroke-width="1.38663" stroke-linejoin="round"/>
<path d="M1200.66 83.0114H1196.52C1196.52 82.8047 1196.52 82.6393 1196.52 82.5153L1196.44 81.9365C1196.44 81.8331 1196.44 81.7505 1196.44 81.6884V81.1097C1196.44 80.9443 1196.4 80.7583 1196.36 80.5309V80.0348C1196.36 79.8281 1196.36 79.6214 1196.36 79.456V78.8772C1196.36 78.8359 1196.36 78.7532 1196.36 78.6292V78.1331C1196.36 77.9677 1196.36 77.7817 1196.36 77.5543V77.0582C1196.29 76.5621 1196.27 76.1073 1196.27 75.6526V75.0738C1196.27 74.9704 1196.27 74.8051 1196.27 74.5777L1196.19 73.9989C1196.19 73.8335 1196.19 73.6682 1196.19 73.5028V72.924C1196.19 72.8827 1196.19 72.8 1196.19 72.676V72.0972C1196.19 69.8441 1196.19 67.5909 1196.19 65.3171H1200.99C1200.99 68.5831 1200.94 71.8285 1200.9 75.0738V75.6526C1200.9 75.8179 1200.9 76.0246 1200.9 76.2313C1200.9 76.4587 1200.86 76.7274 1200.82 77.0582V77.5543C1200.82 77.7196 1200.82 77.9263 1200.82 78.1331V78.6292C1200.82 78.7532 1200.82 78.8359 1200.82 78.8772V79.5387C1200.82 79.6627 1200.82 79.8281 1200.82 80.0348V80.5309C1200.76 80.7583 1200.74 80.9443 1200.74 81.1097V81.6884C1200.74 81.8125 1200.74 81.8951 1200.74 81.9365L1200.66 82.5153C1200.66 82.6806 1200.66 82.846 1200.66 83.0114ZM1189.66 83.0114H1185.52C1185.52 82.8047 1185.52 82.6393 1185.52 82.5153L1185.44 81.9365C1185.44 81.8331 1185.44 81.7505 1185.44 81.6884V81.1097C1185.44 80.9443 1185.4 80.7583 1185.36 80.5309V80.0348C1185.36 79.8281 1185.36 79.6214 1185.36 79.456V78.8772C1185.36 78.8359 1185.36 78.7532 1185.36 78.6292V78.1331C1185.36 77.9677 1185.36 77.7817 1185.36 77.5543V77.0582C1185.3 76.5621 1185.28 76.1073 1185.28 75.6526V75.0738C1185.28 74.9704 1185.28 74.8051 1185.28 74.5777L1185.19 73.9989C1185.19 73.8335 1185.19 73.6682 1185.19 73.5028V72.924C1185.19 72.8827 1185.19 72.8 1185.19 72.676V72.0972C1185.19 69.8441 1185.19 67.5909 1185.19 65.3171H1189.99C1189.99 68.5831 1189.95 71.8285 1189.91 75.0738V75.6526C1189.91 75.8179 1189.91 76.0246 1189.91 76.2313C1189.91 76.4587 1189.87 76.7274 1189.82 77.0582V77.5543C1189.82 77.7196 1189.82 77.9263 1189.82 78.1331V78.6292C1189.82 78.7532 1189.82 78.8359 1189.82 78.8772V79.5387C1189.82 79.6627 1189.82 79.8281 1189.82 80.0348V80.5309C1189.76 80.7583 1189.74 80.9443 1189.74 81.1097V81.6884C1189.74 81.8125 1189.74 81.8951 1189.74 81.9365L1189.66 82.5153C1189.66 82.6806 1189.66 82.846 1189.66 83.0114Z" fill="black"/>
<path d="M1212.87 107.816V103.848H1218.41V71.2703H1212.87V67.3015H1228.34V71.2703H1222.8V103.848H1228.34V107.816H1212.87Z" fill="black"/>
<path d="M1273.2 108.23C1271.42 108.23 1269.91 107.858 1268.65 107.155C1267.49 106.494 1266.58 105.584 1265.92 104.426C1265.14 103.062 1264.76 101.45 1264.76 99.6308C1264.76 97.9358 1265.09 96.4888 1265.76 95.3313C1266.52 94.0083 1267.62 92.9335 1269.06 92.1066C1271.05 90.9491 1273.57 90.3703 1276.67 90.3703H1281.71V87.8071C1281.71 86.7115 1281.47 85.7193 1280.97 84.8305C1280.51 84.0657 1279.89 83.4662 1279.07 83.0115C1278.08 82.474 1276.88 82.1846 1275.51 82.1846C1274.07 82.1846 1272.87 82.474 1271.87 83.0115C1271.05 83.4662 1270.39 84.0863 1269.89 84.9132C1269.56 85.5333 1269.35 86.1534 1269.31 86.8149L1265.09 85.8227C1265.2 84.8305 1265.53 83.8383 1266.09 82.8461C1266.85 81.5232 1267.91 80.4483 1269.23 79.6214C1270.92 78.6913 1273.03 78.2158 1275.51 78.2158C1277.87 78.2158 1279.94 78.7119 1281.71 79.7041C1283.04 80.4896 1284.07 81.5232 1284.86 82.8461C1285.68 84.293 1286.1 85.9467 1286.1 87.8071V107.816H1281.71V103.765C1280.82 105.15 1279.73 106.225 1278.41 106.99C1276.92 107.816 1275.18 108.23 1273.2 108.23ZM1274.6 104.261C1276.03 104.261 1277.29 103.972 1278.41 103.352C1279.4 102.814 1280.16 102.029 1280.72 101.036C1281.38 99.8789 1281.71 98.5146 1281.71 96.9023V94.3391H1276.67C1274.62 94.3391 1272.95 94.7112 1271.63 95.414C1270.8 95.9101 1270.16 96.5509 1269.72 97.3157C1269.33 97.9771 1269.15 98.7626 1269.15 99.6308C1269.15 100.52 1269.33 101.284 1269.72 101.946C1270.1 102.607 1270.65 103.145 1271.38 103.517C1272.2 104.013 1273.28 104.261 1274.6 104.261Z" fill="black"/>
<path d="M1292.28 107.816V78.629H1296.66V80.3653C1297.16 79.6005 1297.7 79.0424 1298.32 78.7117C1298.85 78.3809 1299.49 78.2156 1300.22 78.2156C1300.92 78.2156 1301.58 78.3809 1302.2 78.7117C1302.86 79.1044 1303.44 79.7452 1303.94 80.6134C1304.14 81.0061 1304.37 81.4816 1304.6 82.019C1304.76 81.4816 1304.97 80.9855 1305.26 80.5307C1305.69 79.6625 1306.27 79.0424 1307 78.7117C1307.53 78.3809 1308.18 78.2156 1308.9 78.2156C1309.6 78.2156 1310.26 78.3809 1310.88 78.7117C1311.54 79.1044 1312.14 79.7452 1312.7 80.6134C1313.57 82.2257 1314.03 84.3962 1314.03 87.1454V107.816H1309.64V87.1454C1309.64 84.8923 1309.25 83.3833 1308.49 82.5978C1308.2 82.3291 1307.87 82.1844 1307.49 82.1844C1307.1 82.1844 1306.77 82.3291 1306.5 82.5978C1305.78 83.3213 1305.38 84.5822 1305.34 86.4012V107.816H1300.96V87.1454C1300.96 84.8923 1300.57 83.3833 1299.8 82.5978C1299.51 82.3291 1299.18 82.1844 1298.81 82.1844C1298.42 82.1844 1298.09 82.3291 1297.82 82.5978C1297.03 83.3833 1296.66 84.8923 1296.66 87.1454V107.816H1292.28Z" fill="black"/>
<path d="M1355.75 108.23C1353.97 108.23 1352.46 107.858 1351.2 107.155C1350.04 106.494 1349.13 105.584 1348.47 104.426C1347.68 103.062 1347.31 101.45 1347.31 99.6308C1347.31 97.9358 1347.64 96.4888 1348.3 95.3313C1349.07 94.0083 1350.16 92.9335 1351.61 92.1066C1353.6 90.9491 1356.12 90.3703 1359.22 90.3703H1364.26V87.8071C1364.26 86.7115 1364.01 85.7193 1363.52 84.8305C1363.06 84.0657 1362.44 83.4662 1361.62 83.0115C1360.62 82.474 1359.42 82.1846 1358.06 82.1846C1356.61 82.1846 1355.41 82.474 1354.42 83.0115C1353.6 83.4662 1352.93 84.0863 1352.44 84.9132C1352.11 85.5333 1351.9 86.1534 1351.86 86.8149L1347.64 85.8227C1347.75 84.8305 1348.08 83.8383 1348.63 82.8461C1349.4 81.5232 1350.45 80.4483 1351.78 79.6214C1353.47 78.6913 1355.58 78.2158 1358.06 78.2158C1360.42 78.2158 1362.48 78.7119 1364.26 79.7041C1365.58 80.4896 1366.62 81.5232 1367.4 82.8461C1368.23 84.293 1368.64 85.9467 1368.64 87.8071V107.816H1364.26V103.765C1363.37 105.15 1362.28 106.225 1360.95 106.99C1359.47 107.816 1357.73 108.23 1355.75 108.23ZM1357.15 104.261C1358.58 104.261 1359.84 103.972 1360.95 103.352C1361.95 102.814 1362.71 102.029 1363.27 101.036C1363.93 99.8789 1364.26 98.5146 1364.26 96.9023V94.3391H1359.22C1357.17 94.3391 1355.5 94.7112 1354.17 95.414C1353.35 95.9101 1352.71 96.5509 1352.27 97.3157C1351.88 97.9771 1351.69 98.7626 1351.69 99.6308C1351.69 100.52 1351.88 101.284 1352.27 101.946C1352.64 102.607 1353.2 103.145 1353.93 103.517C1354.75 104.013 1355.83 104.261 1357.15 104.261Z" fill="black"/>
<path d="M1402.76 107.816V67.3015H1407.64L1413.26 89.2953L1418.8 67.3015H1423.68V107.816H1419.29V99.7134C1419.29 98.0184 1419.29 96.158 1419.29 94.1736L1419.38 93.6775C1419.42 92.4166 1419.46 91.073 1419.46 89.626L1419.54 89.0472C1419.58 88.3858 1419.62 87.683 1419.62 86.8975C1419.62 86.4634 1419.64 85.988 1419.71 85.4919V84.8304C1419.75 84.6237 1419.79 84.2929 1419.79 83.8382V82.4326C1419.83 82.3912 1419.87 82.3292 1419.87 82.2672C1419.87 82.1018 1419.87 81.9778 1419.87 81.8538V81.3577L1419.95 80.7789C1419.95 79.8487 1419.98 79.0219 1420.04 78.2984V77.7196C1420.08 77.5129 1420.12 77.2235 1420.12 76.8928V76.3967C1420.12 75.9626 1420.12 75.5492 1420.12 75.1564L1414.83 95.6619H1411.6L1406.31 75.1564C1406.31 75.2805 1406.31 75.3631 1406.31 75.4045C1406.31 75.7352 1406.31 76.0659 1406.31 76.3967V77.0581C1406.31 77.2855 1406.33 77.5129 1406.39 77.7196V78.2984C1406.39 78.5878 1406.42 78.8772 1406.48 79.2079C1406.48 79.704 1406.48 80.2415 1406.48 80.7789L1406.56 81.3577V81.8538C1406.56 81.9778 1406.56 82.1018 1406.56 82.2672C1406.56 82.3292 1406.58 82.3912 1406.64 82.4326V83.8382C1406.64 84.1689 1406.66 84.541 1406.73 84.9131V85.4919C1406.77 86.8148 1406.83 88.0137 1406.89 89.0472L1406.97 89.626C1406.97 91.073 1406.99 92.4166 1407.06 93.6775L1407.14 94.1736C1407.14 96.158 1407.14 98.0184 1407.14 99.7134V107.816H1402.76Z" fill="black"/>
<path d="M1438.29 108.23C1436.52 108.23 1435.01 107.858 1433.75 107.155C1432.59 106.494 1431.68 105.584 1431.02 104.426C1430.23 103.062 1429.86 101.45 1429.86 99.6308C1429.86 97.9358 1430.19 96.4888 1430.85 95.3313C1431.62 94.0083 1432.71 92.9335 1434.16 92.1066C1436.14 90.9491 1438.67 90.3703 1441.77 90.3703H1446.81V87.8071C1446.81 86.7115 1446.56 85.7193 1446.07 84.8305C1445.61 84.0657 1444.99 83.4662 1444.16 83.0115C1443.17 82.474 1441.97 82.1846 1440.61 82.1846C1439.16 82.1846 1437.96 82.474 1436.97 83.0115C1436.14 83.4662 1435.48 84.0863 1434.99 84.9132C1434.66 85.5333 1434.45 86.1534 1434.41 86.8149L1430.19 85.8227C1430.29 84.8305 1430.62 83.8383 1431.18 82.8461C1431.95 81.5232 1433 80.4483 1434.33 79.6214C1436.02 78.6913 1438.13 78.2158 1440.61 78.2158C1442.97 78.2158 1445.03 78.7119 1446.81 79.7041C1448.13 80.4896 1449.17 81.5232 1449.95 82.8461C1450.78 84.293 1451.19 85.9467 1451.19 87.8071V107.816H1446.81V103.765C1445.92 105.15 1444.83 106.225 1443.5 106.99C1442.01 107.816 1440.28 108.23 1438.29 108.23ZM1439.7 104.261C1441.13 104.261 1442.39 103.972 1443.5 103.352C1444.5 102.814 1445.26 102.029 1445.82 101.036C1446.48 99.8789 1446.81 98.5146 1446.81 96.9023V94.3391H1441.77C1439.72 94.3391 1438.05 94.7112 1436.72 95.414C1435.9 95.9101 1435.26 96.5509 1434.82 97.3157C1434.43 97.9771 1434.24 98.7626 1434.24 99.6308C1434.24 100.52 1434.43 101.284 1434.82 101.946C1435.19 102.607 1435.75 103.145 1436.47 103.517C1437.3 104.013 1438.38 104.261 1439.7 104.261Z" fill="black"/>
<path d="M1461.1 107.816V78.6292H1465.48V84.0863C1465.75 83.3835 1466.08 82.7221 1466.47 82.1019C1467.24 80.7377 1468.21 79.7041 1469.37 79.0427C1470.3 78.5052 1471.35 78.2158 1472.51 78.2158C1473.83 78.2158 1475.03 78.5466 1476.15 79.208C1477.24 79.8281 1478.13 80.6963 1478.79 81.8539C1479.12 82.412 1479.37 82.9908 1479.54 83.5902L1475.4 85.492C1475.28 85.0579 1475.11 84.6238 1474.91 84.169C1474.51 83.5076 1474 82.9908 1473.33 82.598C1472.78 82.3293 1472.2 82.1846 1471.6 82.1846C1470.71 82.1846 1469.9 82.3913 1469.2 82.7634C1468.37 83.2595 1467.67 84.0037 1467.13 84.9959C1466.02 86.8769 1465.48 89.3367 1465.48 92.3547V107.816H1461.1Z" fill="black"/>
<path d="M1485.3 107.816V107.568C1485.3 106.369 1486.05 104.467 1487.54 101.863C1488.2 100.767 1488.69 99.9612 1489.03 99.4651L1493.24 93.2639L1489.03 86.9799C1488.69 86.4838 1488.2 85.6983 1487.54 84.5821C1486.05 81.9983 1485.3 80.0965 1485.3 78.877V78.6289H1489.69V78.877C1489.69 79.8692 1490.68 81.8329 1492.66 84.7475L1495.81 89.4604L1498.87 84.7475C1500.85 81.8329 1501.84 79.8692 1501.84 78.877V78.6289H1506.22V78.877C1506.22 80.0965 1505.48 81.9983 1503.99 84.5821C1503.33 85.6983 1502.83 86.4838 1502.5 86.9799L1498.29 93.2639L1502.5 99.4651C1502.83 99.9612 1503.33 100.767 1503.99 101.863C1505.48 104.467 1506.22 106.369 1506.22 107.568V107.816H1501.84V107.568C1501.84 106.576 1500.85 104.633 1498.87 101.698L1495.81 96.9846L1492.66 101.698C1490.68 104.633 1489.69 106.576 1489.69 107.568V107.816H1485.3Z" fill="black"/>
<path d="M1530.84 83.0114H1526.71C1526.71 82.8047 1526.71 82.6393 1526.71 82.5153L1526.63 81.9365C1526.63 81.8331 1526.63 81.7505 1526.63 81.6884V81.1097C1526.63 80.9443 1526.59 80.7583 1526.55 80.5309V80.0348C1526.55 79.8281 1526.55 79.6214 1526.55 79.456V78.8772C1526.55 78.8359 1526.55 78.7532 1526.55 78.6292V78.1331C1526.55 77.9677 1526.55 77.7817 1526.55 77.5543V77.0582C1526.48 76.5621 1526.46 76.1073 1526.46 75.6526V75.0738C1526.46 74.9704 1526.46 74.8051 1526.46 74.5777L1526.38 73.9989C1526.38 73.8335 1526.38 73.6682 1526.38 73.5028V72.924C1526.38 72.8827 1526.38 72.8 1526.38 72.676V72.0972C1526.38 69.8441 1526.38 67.5909 1526.38 65.3171H1531.18C1531.18 68.5831 1531.13 71.8285 1531.09 75.0738V75.6526C1531.09 75.8179 1531.09 76.0246 1531.09 76.2313C1531.09 76.4587 1531.05 76.7274 1531.01 77.0582V77.5543C1531.01 77.7196 1531.01 77.9263 1531.01 78.1331V78.6292C1531.01 78.7532 1531.01 78.8359 1531.01 78.8772V79.5387C1531.01 79.6627 1531.01 79.8281 1531.01 80.0348V80.5309C1530.95 80.7583 1530.93 80.9443 1530.93 81.1097V81.6884C1530.93 81.8125 1530.93 81.8951 1530.93 81.9365L1530.84 82.5153C1530.84 82.6806 1530.84 82.846 1530.84 83.0114ZM1519.85 83.0114H1515.71C1515.71 82.8047 1515.71 82.6393 1515.71 82.5153L1515.63 81.9365C1515.63 81.8331 1515.63 81.7505 1515.63 81.6884V81.1097C1515.63 80.9443 1515.59 80.7583 1515.55 80.5309V80.0348C1515.55 79.8281 1515.55 79.6214 1515.55 79.456V78.8772C1515.55 78.8359 1515.55 78.7532 1515.55 78.6292V78.1331C1515.55 77.9677 1515.55 77.7817 1515.55 77.5543V77.0582C1515.49 76.5621 1515.47 76.1073 1515.47 75.6526V75.0738C1515.47 74.9704 1515.47 74.8051 1515.47 74.5777L1515.38 73.9989C1515.38 73.8335 1515.38 73.6682 1515.38 73.5028V72.924C1515.38 72.8827 1515.38 72.8 1515.38 72.676V72.0972C1515.38 69.8441 1515.38 67.5909 1515.38 65.3171H1520.18C1520.18 68.5831 1520.14 71.8285 1520.1 75.0738V75.6526C1520.1 75.8179 1520.1 76.0246 1520.1 76.2313C1520.1 76.4587 1520.05 76.7274 1520.01 77.0582V77.5543C1520.01 77.7196 1520.01 77.9263 1520.01 78.1331V78.6292C1520.01 78.7532 1520.01 78.8359 1520.01 78.8772V79.5387C1520.01 79.6627 1520.01 79.8281 1520.01 80.0348V80.5309C1519.95 80.7583 1519.93 80.9443 1519.93 81.1097V81.6884C1519.93 81.8125 1519.93 81.8951 1519.93 81.9365L1519.85 82.5153C1519.85 82.6806 1519.85 82.846 1519.85 83.0114Z" fill="black"/>
<path d="M1015.92 108.23C1014.14 108.23 1012.64 107.858 1011.38 107.155C1010.22 106.494 1009.31 105.584 1008.65 104.426C1007.86 103.062 1007.49 101.45 1007.49 99.6308C1007.49 97.9358 1007.82 96.4888 1008.48 95.3313C1009.25 94.0083 1010.34 92.9335 1011.79 92.1066C1013.77 90.9491 1016.29 90.3703 1019.4 90.3703H1024.44V87.8071C1024.44 86.7115 1024.19 85.7193 1023.69 84.8305C1023.24 84.0657 1022.62 83.4662 1021.79 83.0115C1020.8 82.474 1019.6 82.1846 1018.24 82.1846C1016.79 82.1846 1015.59 82.474 1014.6 83.0115C1013.77 83.4662 1013.11 84.0863 1012.62 84.9132C1012.28 85.5333 1012.08 86.1534 1012.04 86.8149L1007.82 85.8227C1007.92 84.8305 1008.25 83.8383 1008.81 82.8461C1009.58 81.5232 1010.63 80.4483 1011.95 79.6214C1013.65 78.6913 1015.76 78.2158 1018.24 78.2158C1020.59 78.2158 1022.66 78.7119 1024.44 79.7041C1025.76 80.4896 1026.8 81.5232 1027.58 82.8461C1028.41 84.293 1028.82 85.9467 1028.82 87.8071V107.816H1024.44V103.765C1023.55 105.15 1022.45 106.225 1021.13 106.99C1019.64 107.816 1017.91 108.23 1015.92 108.23ZM1017.33 104.261C1018.75 104.261 1020.02 103.972 1021.13 103.352C1022.12 102.814 1022.89 102.029 1023.45 101.036C1024.11 99.8789 1024.44 98.5146 1024.44 96.9023V94.3391H1019.4C1017.35 94.3391 1015.67 94.7112 1014.35 95.414C1013.52 95.9101 1012.88 96.5509 1012.45 97.3157C1012.06 97.9771 1011.87 98.7626 1011.87 99.6308C1011.87 100.52 1012.06 101.284 1012.45 101.946C1012.82 102.607 1013.38 103.145 1014.1 103.517C1014.93 104.013 1016.01 104.261 1017.33 104.261Z" fill="#8F9ED3"/>
<path d="M1047.24 108.23C1045.69 108.23 1044.35 107.899 1043.19 107.238C1041.91 106.535 1040.83 105.419 1039.97 103.93C1039.9 103.827 1039.84 103.724 1039.8 103.6V107.816H1035.42V67.3015H1039.8V82.846C1039.84 82.7426 1039.9 82.6393 1039.97 82.5152C1040.83 81.0269 1041.91 79.9314 1043.19 79.2079C1044.35 78.5464 1045.69 78.2157 1047.24 78.2157C1048.9 78.2157 1050.34 78.5878 1051.62 79.2906C1052.95 80.0761 1054.04 81.1923 1054.93 82.6806C1056.13 84.8304 1056.75 87.5383 1056.75 90.7836V95.6619C1056.75 98.9279 1056.13 101.615 1054.93 103.765C1054.04 105.253 1052.95 106.39 1051.62 107.155C1050.34 107.858 1048.9 108.23 1047.24 108.23ZM1045.92 104.261C1047.01 104.261 1047.99 104.054 1048.81 103.6C1049.74 103.062 1050.51 102.256 1051.13 101.202C1051.95 99.7754 1052.37 97.9357 1052.37 95.6619V90.7836C1052.37 88.5305 1051.95 86.6908 1051.13 85.2438C1050.51 84.2103 1049.74 83.4041 1048.81 82.846C1047.99 82.4119 1047.01 82.1845 1045.92 82.1845C1044.93 82.1845 1044.04 82.4119 1043.27 82.846C1042.38 83.3007 1041.66 84.0035 1041.12 84.9957C1040.23 86.5461 1039.8 88.4685 1039.8 90.7836V95.6619C1039.8 97.977 1040.23 99.9201 1041.12 101.45C1041.66 102.442 1042.38 103.165 1043.27 103.6C1044.04 104.054 1044.93 104.261 1045.92 104.261Z" fill="#8F9ED3"/>
<path d="M1073.44 108.23C1071.29 108.23 1069.43 107.796 1067.9 106.907C1066.41 106.039 1065.19 104.799 1064.26 103.186C1063.1 101.16 1062.52 98.6386 1062.52 95.662V90.7837C1062.52 87.8071 1063.1 85.3059 1064.26 83.2595C1065.19 81.6679 1066.41 80.4276 1067.9 79.5388C1069.43 78.6706 1071.29 78.2158 1073.44 78.2158C1075.52 78.2158 1077.32 78.6706 1078.81 79.5388C1080.34 80.4276 1081.58 81.6679 1082.53 83.2595C1083.69 85.3059 1084.27 87.8071 1084.27 90.7837V95.662C1084.27 98.6386 1083.69 101.16 1082.53 103.186C1081.81 104.406 1080.96 105.419 1079.97 106.245C1079.57 106.473 1079.18 106.7 1078.81 106.907C1077.32 107.796 1075.52 108.23 1073.44 108.23ZM1073.44 104.261C1074.53 104.261 1075.5 104.054 1076.33 103.6C1077.26 103.062 1078.02 102.256 1078.64 101.202C1079.47 99.7755 1079.88 97.9358 1079.88 95.662V90.7837C1079.88 88.5306 1079.47 86.6909 1078.64 85.2439C1078.02 84.2104 1077.26 83.4042 1076.33 82.8461C1075.5 82.412 1074.53 82.1846 1073.44 82.1846C1072.28 82.1846 1071.29 82.412 1070.46 82.8461C1069.51 83.4042 1068.74 84.2104 1068.14 85.2439C1067.32 86.6909 1066.9 88.5306 1066.9 90.7837V95.662C1066.9 97.9358 1067.32 99.7755 1068.14 101.202C1068.74 102.256 1069.51 103.062 1070.46 103.6C1071.29 104.054 1072.28 104.261 1073.44 104.261Z" fill="#8F9ED3"/>
<path d="M1099.55 108.23C1097.99 108.23 1096.65 107.899 1095.49 107.238C1094.21 106.535 1093.18 105.419 1092.35 103.93C1091.07 101.78 1090.45 99.0313 1090.45 95.6619V78.6292H1094.83V95.6619C1094.83 97.9771 1095.27 99.9201 1096.16 101.45C1096.69 102.442 1097.42 103.165 1098.3 103.6C1099.07 104.054 1099.96 104.261 1100.95 104.261C1101.88 104.261 1102.73 104.054 1103.51 103.6C1104.38 103.165 1105.11 102.442 1105.66 101.45C1106.53 99.9201 1106.99 97.9771 1106.99 95.6619V78.6292H1111.37V107.816H1106.99V103.6C1106.92 103.724 1106.86 103.827 1106.82 103.93C1105.93 105.419 1104.86 106.535 1103.6 107.238C1102.44 107.899 1101.07 108.23 1099.55 108.23Z" fill="#8F9ED3"/>
<path d="M1132.6 108.23C1130.89 108.23 1129.42 107.858 1128.22 107.155C1126.94 106.452 1125.9 105.398 1125.08 104.013C1124.02 102.153 1123.51 99.8581 1123.51 97.1502V82.5979H1117.47V78.6291H1123.51V67.3015H1127.89V78.6291H1136.74V82.5979H1127.89V97.1502C1127.89 99.1346 1128.24 100.788 1128.96 102.111C1129.4 102.897 1129.96 103.434 1130.62 103.765C1131.22 104.096 1131.88 104.261 1132.6 104.261C1133.3 104.261 1133.94 104.096 1134.5 103.765C1134.83 103.662 1135.12 103.434 1135.41 103.103C1136.45 102.008 1137.09 100.416 1137.31 98.3078L1141.61 99.3C1141.39 101.078 1140.87 102.649 1140.04 104.013C1139.26 105.398 1138.24 106.452 1136.98 107.155C1135.76 107.858 1134.3 108.23 1132.6 108.23Z" fill="#8F9ED3"/>
<path d="M1155.98 86.8149C1155.03 86.8149 1154.25 86.6289 1153.59 86.2361C1153.03 85.9054 1152.55 85.4506 1152.18 84.8305C1151.85 84.169 1151.68 83.4042 1151.68 82.5154C1151.68 81.5852 1151.85 80.779 1152.18 80.1175C1152.55 79.5181 1153.03 79.0427 1153.59 78.7119C1154.25 78.3812 1155.03 78.2158 1155.98 78.2158C1156.85 78.2158 1157.64 78.3812 1158.3 78.7119C1158.84 79.0427 1159.31 79.5181 1159.7 80.1175C1160.03 80.779 1160.2 81.5852 1160.2 82.5154C1160.2 83.4042 1160.03 84.169 1159.7 84.8305C1159.31 85.4506 1158.84 85.9054 1158.3 86.2361C1157.64 86.6289 1156.85 86.8149 1155.98 86.8149ZM1155.98 108.23C1155.03 108.23 1154.25 108.065 1153.59 107.734C1153.03 107.403 1152.55 106.948 1152.18 106.328C1151.85 105.667 1151.68 104.902 1151.68 104.013C1151.68 103.083 1151.85 102.277 1152.18 101.615C1152.55 101.016 1153.03 100.54 1153.59 100.21C1154.25 99.8375 1155.03 99.6308 1155.98 99.6308C1156.85 99.6308 1157.64 99.8375 1158.3 100.21C1158.84 100.54 1159.31 101.016 1159.7 101.615C1160.03 102.277 1160.2 103.083 1160.2 104.013C1160.2 104.902 1160.03 105.667 1159.7 106.328C1159.31 106.948 1158.84 107.403 1158.3 107.734C1157.64 108.065 1156.85 108.23 1155.98 108.23Z" fill="#8F9ED3"/>
<path d="M1211.45 175.755C1209.74 175.755 1208.27 175.383 1207.07 174.68C1205.79 173.977 1204.75 172.923 1203.93 171.538C1202.87 169.677 1202.36 167.383 1202.36 164.675V150.123H1196.32V146.154H1202.36V134.826H1206.74V146.154H1215.59V150.123H1206.74V164.675C1206.74 166.66 1207.09 168.313 1207.81 169.636C1208.25 170.422 1208.81 170.959 1209.47 171.29C1210.07 171.621 1210.73 171.786 1211.45 171.786C1212.15 171.786 1212.8 171.621 1213.35 171.29C1213.68 171.186 1213.97 170.959 1214.26 170.628C1215.3 169.533 1215.94 167.941 1216.17 165.833L1220.46 166.825C1220.24 168.603 1219.72 170.174 1218.89 171.538C1218.11 172.923 1217.1 173.977 1215.83 174.68C1214.61 175.383 1213.15 175.755 1211.45 175.755Z" fill="#0000FF"/>
<path d="M1227.64 175.341V146.154H1232.02V151.611C1232.29 150.908 1232.62 150.247 1233.02 149.627C1233.78 148.263 1234.75 147.229 1235.91 146.568C1236.84 146.03 1237.89 145.741 1239.05 145.741C1240.37 145.741 1241.57 146.071 1242.69 146.733C1243.79 147.353 1244.67 148.221 1245.34 149.379C1245.67 149.937 1245.91 150.516 1246.08 151.115L1241.95 153.017C1241.82 152.583 1241.66 152.149 1241.45 151.694C1241.06 151.032 1240.54 150.516 1239.88 150.123C1239.32 149.854 1238.74 149.71 1238.14 149.71C1237.25 149.71 1236.45 149.916 1235.74 150.288C1234.92 150.784 1234.21 151.529 1233.68 152.521C1232.56 154.402 1232.02 156.862 1232.02 159.88V175.341H1227.64Z" fill="#0000FF"/>
<path d="M1260.94 175.755C1259.39 175.755 1258.05 175.424 1256.89 174.762C1255.61 174.06 1254.58 172.943 1253.75 171.455C1252.47 169.305 1251.85 166.556 1251.85 163.187V146.154H1256.23V163.187C1256.23 165.502 1256.67 167.445 1257.55 168.975C1258.09 169.967 1258.82 170.69 1259.7 171.124C1260.47 171.579 1261.36 171.786 1262.35 171.786C1263.28 171.786 1264.13 171.579 1264.91 171.124C1265.78 170.69 1266.51 169.967 1267.06 168.975C1267.93 167.445 1268.39 165.502 1268.39 163.187V146.154H1272.77V175.341H1268.39V171.124C1268.32 171.248 1268.26 171.352 1268.22 171.455C1267.33 172.943 1266.26 174.06 1265 174.762C1263.84 175.424 1262.47 175.755 1260.94 175.755Z" fill="#0000FF"/>
<path d="M1290.2 175.755C1289.47 175.755 1288.75 175.693 1288.05 175.589C1286.72 175.362 1285.5 174.969 1284.41 174.349C1282.86 173.481 1281.62 172.241 1280.69 170.628C1279.53 168.603 1278.95 166.122 1278.95 163.187V158.309C1278.95 155.332 1279.53 152.831 1280.69 150.784C1281.62 149.193 1282.84 147.953 1284.33 147.064C1285.85 146.195 1287.72 145.741 1289.87 145.741C1291.95 145.741 1293.75 146.195 1295.24 147.064C1296.77 147.953 1298.01 149.193 1298.96 150.784C1300.12 152.831 1300.7 155.332 1300.7 158.309V162.691H1283.33V163.187C1283.33 165.399 1283.75 167.197 1284.57 168.561C1285.17 169.616 1285.94 170.422 1286.89 170.959C1287.88 171.517 1288.98 171.786 1290.2 171.786C1291.46 171.786 1292.55 171.517 1293.5 170.959C1294.5 170.422 1295.28 169.616 1295.9 168.561C1296.23 167.962 1296.5 167.3 1296.73 166.577L1300.78 168.148C1300.49 169.037 1300.14 169.843 1299.7 170.546C1298.75 172.199 1297.51 173.481 1295.98 174.349C1294.33 175.3 1292.39 175.755 1290.2 175.755ZM1283.33 158.805H1296.31V158.309C1296.31 156.055 1295.9 154.216 1295.07 152.769C1294.45 151.735 1293.69 150.929 1292.76 150.371C1291.93 149.937 1290.96 149.71 1289.87 149.71C1288.71 149.71 1287.72 149.937 1286.89 150.371C1285.94 150.929 1285.17 151.735 1284.57 152.769C1283.75 154.216 1283.33 156.055 1283.33 158.309V158.805Z" fill="#0000FF"/>
<path d="M1015.11 175.341V151.776H1008.91V147.807H1015.11V142.598C1015.11 140.511 1015.54 138.712 1016.43 137.224C1017.1 136.066 1017.96 135.157 1019.08 134.495C1020.24 133.896 1021.58 133.586 1023.13 133.586C1024.66 133.586 1026.03 133.896 1027.18 134.495C1028.28 135.157 1029.17 136.066 1029.83 137.224C1030.37 138.175 1030.74 139.208 1030.9 140.366L1026.69 141.441C1026.56 140.573 1026.31 139.829 1025.94 139.208C1025.61 138.609 1025.2 138.175 1024.7 137.885C1024.21 137.617 1023.67 137.472 1023.13 137.472C1022.51 137.472 1021.99 137.617 1021.56 137.885C1021.06 138.175 1020.65 138.609 1020.32 139.208C1019.76 140.035 1019.49 141.172 1019.49 142.598V147.807H1028.75V151.776H1019.49V175.341H1015.11Z" fill="#8F9ED3"/>
<path d="M1045.52 175.755C1043.97 175.755 1042.63 175.424 1041.47 174.762C1040.19 174.06 1039.15 172.943 1038.33 171.455C1037.05 169.305 1036.43 166.556 1036.43 163.187V146.154H1040.81V163.187C1040.81 165.502 1041.24 167.445 1042.13 168.975C1042.67 169.967 1043.39 170.69 1044.28 171.124C1045.05 171.579 1045.93 171.786 1046.93 171.786C1047.86 171.786 1048.7 171.579 1049.49 171.124C1050.36 170.69 1051.08 169.967 1051.64 168.975C1052.51 167.445 1052.96 165.502 1052.96 163.187V146.154H1057.34V175.341H1052.96V171.124C1052.9 171.248 1052.84 171.352 1052.8 171.455C1051.91 172.943 1050.83 174.06 1049.57 174.762C1048.41 175.424 1047.05 175.755 1045.52 175.755Z" fill="#8F9ED3"/>
<path d="M1063.94 175.341V146.154H1068.32V150.371C1068.37 150.268 1068.43 150.164 1068.49 150.04C1069.36 148.552 1070.43 147.456 1071.71 146.733C1072.87 146.071 1074.22 145.741 1075.77 145.741C1077.3 145.741 1078.66 146.071 1079.82 146.733C1081.08 147.456 1082.13 148.552 1082.96 150.04C1084.22 152.19 1084.86 154.96 1084.86 158.309V175.341H1080.48V158.309C1080.48 155.993 1080.02 154.071 1079.16 152.521C1078.6 151.529 1077.87 150.826 1077.01 150.371C1076.22 149.937 1075.37 149.71 1074.44 149.71C1073.45 149.71 1072.56 149.937 1071.8 150.371C1070.91 150.826 1070.18 151.529 1069.65 152.521C1068.76 154.071 1068.32 155.993 1068.32 158.309V175.341H1063.94Z" fill="#8F9ED3"/>
<path d="M1091.46 175.341V146.154H1095.84V150.371C1095.88 150.268 1095.94 150.164 1096.01 150.04C1096.87 148.552 1097.95 147.456 1099.23 146.733C1100.39 146.071 1101.73 145.741 1103.28 145.741C1104.81 145.741 1106.18 146.071 1107.33 146.733C1108.59 147.456 1109.65 148.552 1110.48 150.04C1111.74 152.19 1112.38 154.96 1112.38 158.309V175.341H1107.99V158.309C1107.99 155.993 1107.54 154.071 1106.67 152.521C1106.11 151.529 1105.39 150.826 1104.52 150.371C1103.74 149.937 1102.89 149.71 1101.96 149.71C1100.97 149.71 1100.08 149.937 1099.31 150.371C1098.42 150.826 1097.7 151.529 1097.16 152.521C1096.27 154.071 1095.84 155.993 1095.84 158.309V175.341H1091.46Z" fill="#8F9ED3"/>
<path d="M1124.51 186.669V186.255C1124.51 184.044 1124.72 182.307 1125.18 181.046L1127.16 175.093L1120.88 157.234C1119.59 153.658 1118.97 150.66 1118.97 148.221V146.154H1123.36V148.221C1123.36 150.102 1123.89 152.665 1125.01 155.911L1129.39 168.809L1133.86 155.911C1134.95 152.769 1135.51 150.206 1135.51 148.221V146.154H1139.89V148.221C1139.89 150.598 1139.25 153.596 1137.99 157.234L1129.31 182.369C1129.02 183.134 1128.9 184.436 1128.9 186.255V186.669H1124.51Z" fill="#8F9ED3"/>
<path d="M1156.99 154.34C1156.04 154.34 1155.25 154.154 1154.59 153.761C1154.04 153.43 1153.56 152.976 1153.19 152.355C1152.86 151.694 1152.69 150.929 1152.69 150.04C1152.69 149.11 1152.86 148.304 1153.19 147.642C1153.56 147.043 1154.04 146.568 1154.59 146.237C1155.25 145.906 1156.04 145.741 1156.99 145.741C1157.86 145.741 1158.64 145.906 1159.31 146.237C1159.84 146.568 1160.32 147.043 1160.71 147.642C1161.04 148.304 1161.21 149.11 1161.21 150.04C1161.21 150.929 1161.04 151.694 1160.71 152.355C1160.32 152.976 1159.84 153.43 1159.31 153.761C1158.64 154.154 1157.86 154.34 1156.99 154.34ZM1156.99 175.755C1156.04 175.755 1155.25 175.589 1154.59 175.259C1154.04 174.928 1153.56 174.473 1153.19 173.853C1152.86 173.192 1152.69 172.427 1152.69 171.538C1152.69 170.608 1152.86 169.802 1153.19 169.14C1153.56 168.541 1154.04 168.065 1154.59 167.734C1155.25 167.362 1156.04 167.156 1156.99 167.156C1157.86 167.156 1158.64 167.362 1159.31 167.734C1159.84 168.065 1160.32 168.541 1160.71 169.14C1161.04 169.802 1161.21 170.608 1161.21 171.538C1161.21 172.427 1161.04 173.192 1160.71 173.853C1160.32 174.473 1159.84 174.928 1159.31 175.259C1158.64 175.589 1157.86 175.755 1156.99 175.755Z" fill="#8F9ED3"/>
<path d="M284.981 73H387.198V170.38H284.981V73Z" fill="#ECECEC" stroke="#999999" stroke-width="1.24601" stroke-linejoin="round"/>
<path fill-rule="evenodd" clip-rule="evenodd" d="M323.82 108.347H348.749V133.276H323.82V108.347Z" fill="#040404" stroke="#040404" stroke-width="3.32269"/>
<path d="M73.0729 120.928V121.389C73.0729 123.086 73.2924 124.674 73.7314 126.152C74.1704 127.615 74.7996 128.888 75.619 129.971C76.4239 131.054 77.4116 131.903 78.5822 132.517C79.7529 133.132 81.0625 133.439 82.5112 133.439C83.3745 133.439 84.1793 133.344 84.9256 133.154C85.6719 132.978 86.3523 132.722 86.9669 132.385C87.362 132.166 87.7278 131.91 88.0644 131.617C88.4156 131.325 88.7448 131.003 89.0521 130.651V132.693C89.0521 133.717 88.9058 134.624 88.6131 135.414C88.3204 136.205 87.9034 136.863 87.362 137.39C86.8059 137.931 86.1401 138.341 85.3646 138.619C84.589 138.897 83.7184 139.036 82.7526 139.036C82.2112 139.036 81.6698 138.978 81.1283 138.86C80.5869 138.758 80.0455 138.582 79.5041 138.334C78.9627 138.085 78.4286 137.748 77.9018 137.324C77.375 136.914 76.8628 136.409 76.3653 135.81L74.2582 138.246C74.7996 139.021 75.4435 139.673 76.1897 140.199C76.9506 140.726 77.7408 141.143 78.5603 141.451C79.3651 141.772 80.1626 141.999 80.9528 142.131C81.7429 142.277 82.4453 142.35 83.0599 142.35C84.5525 142.35 85.9133 142.131 87.1425 141.692C88.3717 141.253 89.4325 140.609 90.3251 139.76C91.2031 138.912 91.8836 137.88 92.3664 136.666C92.864 135.451 93.1127 134.061 93.1127 132.495V109.251H89.4252L89.2277 111.841C88.9497 111.49 88.6497 111.168 88.3278 110.875C88.0205 110.582 87.6912 110.326 87.34 110.107C86.6962 109.682 85.9719 109.36 85.167 109.141C84.3769 108.922 83.5062 108.812 82.5551 108.812C81.0771 108.812 79.7529 109.112 78.5822 109.712C77.4116 110.312 76.4165 111.146 75.5971 112.214C74.7777 113.282 74.1484 114.562 73.7094 116.055C73.2851 117.533 73.0729 119.157 73.0729 120.928ZM77.1336 121.389V120.928C77.1336 119.772 77.2506 118.674 77.4847 117.635C77.7335 116.582 78.1213 115.653 78.6481 114.848C79.1602 114.058 79.8187 113.428 80.6235 112.96C81.443 112.492 82.4234 112.258 83.5647 112.258C84.2378 112.258 84.8524 112.346 85.4085 112.521C85.9645 112.682 86.4694 112.909 86.923 113.202C87.3766 113.509 87.779 113.867 88.1302 114.277C88.4814 114.687 88.7887 115.141 89.0521 115.638V126.525C88.7887 127.037 88.4814 127.505 88.1302 127.93C87.779 128.354 87.3839 128.72 86.9449 129.027C86.4913 129.334 85.9792 129.576 85.4085 129.751C84.8524 129.912 84.2232 129.993 83.5208 129.993C82.3941 129.993 81.4283 129.766 80.6235 129.312C79.8187 128.844 79.1602 128.215 78.6481 127.425C78.1213 126.635 77.7335 125.72 77.4847 124.681C77.2506 123.642 77.1336 122.545 77.1336 121.389ZM116.379 108.812C114.652 108.812 113.109 109.192 111.748 109.953C110.402 110.699 109.246 111.724 108.28 113.026L108.258 112.433L108.082 109.251H104.219V133H108.302V117.767C108.565 117.035 108.894 116.377 109.289 115.792C109.699 115.192 110.175 114.687 110.716 114.277C111.316 113.809 112.018 113.458 112.823 113.224C113.628 112.975 114.528 112.85 115.523 112.85C116.299 112.85 117.038 112.894 117.74 112.982C118.457 113.055 119.211 113.18 120.001 113.355L120.549 109.382C120.14 109.207 119.525 109.068 118.706 108.965C117.901 108.863 117.125 108.812 116.379 108.812ZM126.673 120.906V121.389C126.673 123.101 126.922 124.688 127.42 126.152C127.917 127.615 128.634 128.888 129.571 129.971C130.493 131.054 131.619 131.903 132.951 132.517C134.297 133.132 135.812 133.439 137.494 133.439C139.163 133.439 140.662 133.132 141.994 132.517C143.326 131.903 144.46 131.054 145.396 129.971C146.318 128.888 147.028 127.615 147.525 126.152C148.023 124.688 148.272 123.101 148.272 121.389V120.906C148.272 119.194 148.023 117.606 147.525 116.143C147.028 114.665 146.318 113.385 145.396 112.302C144.46 111.219 143.318 110.37 141.972 109.756C140.641 109.126 139.133 108.812 137.451 108.812C135.782 108.812 134.282 109.126 132.951 109.756C131.619 110.37 130.493 111.219 129.571 112.302C128.634 113.385 127.917 114.665 127.42 116.143C126.922 117.606 126.673 119.194 126.673 120.906ZM130.734 121.389V120.906C130.734 119.75 130.873 118.645 131.151 117.592C131.429 116.523 131.853 115.587 132.424 114.782C132.98 113.977 133.675 113.341 134.509 112.872C135.343 112.39 136.324 112.148 137.451 112.148C138.577 112.148 139.558 112.39 140.392 112.872C141.24 113.341 141.95 113.977 142.521 114.782C143.077 115.587 143.494 116.523 143.772 117.592C144.065 118.645 144.211 119.75 144.211 120.906V121.389C144.211 122.559 144.072 123.679 143.794 124.747C143.516 125.801 143.099 126.73 142.543 127.535C141.972 128.339 141.262 128.976 140.414 129.444C139.58 129.912 138.607 130.147 137.494 130.147C136.368 130.147 135.38 129.912 134.531 129.444C133.683 128.976 132.98 128.339 132.424 127.535C131.853 126.73 131.429 125.801 131.151 124.747C130.873 123.679 130.734 122.559 130.734 121.389ZM170.462 133H174.15V109.251H170.067V126.283C169.848 126.796 169.57 127.271 169.233 127.71C168.911 128.135 168.531 128.5 168.092 128.808C167.565 129.188 166.943 129.488 166.226 129.708C165.509 129.912 164.697 130.015 163.79 130.015C163.014 130.015 162.327 129.912 161.727 129.708C161.141 129.503 160.644 129.144 160.234 128.632C159.824 128.135 159.517 127.461 159.312 126.613C159.107 125.764 159.005 124.696 159.005 123.408V109.251H154.944V123.364C154.944 125.135 155.134 126.657 155.515 127.93C155.91 129.188 156.466 130.227 157.183 131.047C157.9 131.866 158.763 132.473 159.773 132.868C160.783 133.249 161.909 133.439 163.153 133.439C164.704 133.439 166.073 133.117 167.258 132.473C168.443 131.815 169.431 130.9 170.221 129.73L170.462 133ZM191.929 130.147C190.656 130.147 189.588 129.898 188.724 129.4C187.876 128.888 187.195 128.222 186.683 127.403C186.156 126.598 185.776 125.691 185.542 124.681C185.322 123.657 185.212 122.625 185.212 121.586V120.664C185.212 119.64 185.322 118.623 185.542 117.613C185.776 116.604 186.156 115.689 186.683 114.87C187.21 114.065 187.898 113.414 188.746 112.916C189.61 112.404 190.671 112.148 191.929 112.148C192.748 112.148 193.509 112.287 194.212 112.565C194.929 112.843 195.543 113.224 196.055 113.706C196.568 114.189 196.97 114.753 197.263 115.397C197.57 116.026 197.731 116.699 197.746 117.416H201.587C201.587 116.216 201.345 115.089 200.862 114.036C200.379 112.982 199.714 112.068 198.865 111.292C198.002 110.531 196.977 109.931 195.792 109.492C194.621 109.039 193.334 108.812 191.929 108.812C190.129 108.812 188.556 109.134 187.21 109.778C185.864 110.421 184.744 111.285 183.852 112.368C182.944 113.465 182.264 114.731 181.81 116.165C181.357 117.599 181.13 119.099 181.13 120.664V121.586C181.13 123.167 181.357 124.674 181.81 126.108C182.264 127.527 182.944 128.778 183.852 129.861C184.744 130.959 185.864 131.829 187.21 132.473C188.556 133.117 190.129 133.439 191.929 133.439C193.187 133.439 194.395 133.227 195.551 132.802C196.707 132.363 197.731 131.778 198.624 131.047C199.516 130.329 200.226 129.495 200.753 128.544C201.294 127.578 201.572 126.569 201.587 125.515H197.746C197.731 126.174 197.555 126.788 197.219 127.359C196.897 127.915 196.465 128.398 195.924 128.808C195.382 129.232 194.76 129.561 194.058 129.795C193.37 130.03 192.661 130.147 191.929 130.147ZM212.869 112.785V99.2857H208.808V133H212.869V115.748C213.161 115.28 213.491 114.855 213.856 114.475C214.237 114.08 214.647 113.736 215.086 113.443C215.642 113.063 216.249 112.77 216.907 112.565C217.566 112.36 218.261 112.258 218.993 112.258C219.885 112.243 220.675 112.368 221.363 112.631C222.051 112.88 222.622 113.26 223.075 113.772C223.5 114.241 223.821 114.833 224.041 115.55C224.26 116.253 224.37 117.072 224.37 118.009V133H228.431V118.052C228.431 116.457 228.233 115.082 227.838 113.926C227.458 112.755 226.909 111.79 226.192 111.029C225.475 110.268 224.604 109.712 223.58 109.36C222.57 108.995 221.444 108.812 220.2 108.812C219.249 108.826 218.349 108.965 217.5 109.229C216.666 109.492 215.898 109.88 215.195 110.392C214.756 110.699 214.339 111.058 213.944 111.468C213.549 111.863 213.191 112.302 212.869 112.785ZM234.664 120.906V121.389C234.664 123.101 234.913 124.688 235.411 126.152C235.908 127.615 236.625 128.888 237.562 129.971C238.484 131.054 239.61 131.903 240.942 132.517C242.288 133.132 243.803 133.439 245.485 133.439C247.154 133.439 248.654 133.132 249.985 132.517C251.317 131.903 252.451 131.054 253.387 129.971C254.309 128.888 255.019 127.615 255.516 126.152C256.014 124.688 256.263 123.101 256.263 121.389V120.906C256.263 119.194 256.014 117.606 255.516 116.143C255.019 114.665 254.309 113.385 253.387 112.302C252.451 111.219 251.309 110.37 249.963 109.756C248.632 109.126 247.124 108.812 245.442 108.812C243.773 108.812 242.274 109.126 240.942 109.756C239.61 110.37 238.484 111.219 237.562 112.302C236.625 113.385 235.908 114.665 235.411 116.143C234.913 117.606 234.664 119.194 234.664 120.906ZM238.725 121.389V120.906C238.725 119.75 238.864 118.645 239.142 117.592C239.42 116.523 239.844 115.587 240.415 114.782C240.971 113.977 241.666 113.341 242.5 112.872C243.334 112.39 244.315 112.148 245.442 112.148C246.568 112.148 247.549 112.39 248.383 112.872C249.232 113.341 249.941 113.977 250.512 114.782C251.068 115.587 251.485 116.523 251.763 117.592C252.056 118.645 252.202 119.75 252.202 120.906V121.389C252.202 122.559 252.063 123.679 251.785 124.747C251.507 125.801 251.09 126.73 250.534 127.535C249.963 128.339 249.253 128.976 248.405 129.444C247.571 129.912 246.598 130.147 245.485 130.147C244.359 130.147 243.371 129.912 242.522 129.444C241.674 128.976 240.971 128.339 240.415 127.535C239.844 126.73 239.42 125.801 239.142 124.747C238.864 123.679 238.725 122.559 238.725 121.389Z" fill="black"/>
<path d="M284.981 230H387.198V327.38H284.981V230Z" fill="#ECECEC" stroke="#999999" stroke-width="1.24601" stroke-linejoin="round"/>
<path fill-rule="evenodd" clip-rule="evenodd" d="M323.82 265.347H348.749V290.276H323.82V265.347Z" fill="#040404" stroke="#040404" stroke-width="3.32269"/>
<path d="M102.938 287.147C101.665 287.147 100.597 286.898 99.7333 286.4C98.8845 285.888 98.2041 285.222 97.692 284.403C97.1652 283.598 96.7847 282.691 96.5506 281.681C96.3311 280.657 96.2214 279.625 96.2214 278.586V277.664C96.2214 276.64 96.3311 275.623 96.5506 274.613C96.7847 273.604 97.1652 272.689 97.692 271.87C98.2188 271.065 98.9065 270.414 99.7552 269.916C100.619 269.404 101.679 269.148 102.938 269.148C103.757 269.148 104.518 269.287 105.221 269.565C105.938 269.843 106.552 270.224 107.064 270.706C107.577 271.189 107.979 271.753 108.272 272.397C108.579 273.026 108.74 273.699 108.754 274.416H112.596C112.596 273.216 112.354 272.089 111.871 271.036C111.388 269.982 110.723 269.068 109.874 268.292C109.011 267.531 107.986 266.931 106.801 266.492C105.63 266.039 104.343 265.812 102.938 265.812C101.138 265.812 99.565 266.134 98.2188 266.778C96.8725 267.421 95.7531 268.285 94.8605 269.368C93.9532 270.465 93.2728 271.731 92.8192 273.165C92.3656 274.599 92.1388 276.099 92.1388 277.664V278.586C92.1388 280.167 92.3656 281.674 92.8192 283.108C93.2728 284.527 93.9532 285.778 94.8605 286.861C95.7531 287.959 96.8725 288.829 98.2188 289.473C99.565 290.117 101.138 290.439 102.938 290.439C104.196 290.439 105.404 290.227 106.56 289.802C107.716 289.363 108.74 288.778 109.632 288.047C110.525 287.329 111.235 286.495 111.762 285.544C112.303 284.578 112.581 283.569 112.596 282.515H108.754C108.74 283.174 108.564 283.788 108.228 284.359C107.906 284.915 107.474 285.398 106.933 285.808C106.391 286.232 105.769 286.561 105.067 286.795C104.379 287.03 103.67 287.147 102.938 287.147ZM123.878 269.785V256.286H119.817V290H123.878V272.748C124.17 272.28 124.5 271.855 124.865 271.475C125.246 271.08 125.656 270.736 126.094 270.443C126.651 270.063 127.258 269.77 127.916 269.565C128.575 269.36 129.27 269.258 130.001 269.258C130.894 269.243 131.684 269.368 132.372 269.631C133.06 269.88 133.63 270.26 134.084 270.772C134.508 271.241 134.83 271.833 135.05 272.55C135.269 273.253 135.379 274.072 135.379 275.009V290H139.44V275.052C139.44 273.457 139.242 272.082 138.847 270.926C138.467 269.755 137.918 268.79 137.201 268.029C136.484 267.268 135.613 266.712 134.589 266.36C133.579 265.995 132.453 265.812 131.209 265.812C130.258 265.826 129.358 265.965 128.509 266.229C127.675 266.492 126.907 266.88 126.204 267.392C125.765 267.699 125.348 268.058 124.953 268.468C124.558 268.863 124.2 269.302 123.878 269.785ZM147.451 266.251V269.785H155.529V286.488H147.451V290H167.337V286.488H159.589V266.251H147.451ZM155.002 260.017C155.002 260.676 155.199 261.224 155.594 261.663C156.004 262.102 156.619 262.322 157.438 262.322C158.243 262.322 158.85 262.102 159.26 261.663C159.67 261.224 159.875 260.676 159.875 260.017C159.875 259.651 159.816 259.315 159.699 259.007C159.582 258.7 159.406 258.444 159.172 258.239C158.982 258.049 158.741 257.903 158.448 257.8C158.155 257.683 157.819 257.625 157.438 257.625C157.058 257.625 156.714 257.683 156.407 257.8C156.114 257.903 155.873 258.049 155.682 258.239C155.448 258.459 155.273 258.722 155.156 259.029C155.053 259.337 155.002 259.666 155.002 260.017ZM183.931 287.147C182.658 287.147 181.59 286.898 180.727 286.4C179.878 285.888 179.197 285.222 178.685 284.403C178.158 283.598 177.778 282.691 177.544 281.681C177.324 280.657 177.215 279.625 177.215 278.586V277.664C177.215 276.64 177.324 275.623 177.544 274.613C177.778 273.604 178.158 272.689 178.685 271.87C179.212 271.065 179.9 270.414 180.749 269.916C181.612 269.404 182.673 269.148 183.931 269.148C184.751 269.148 185.512 269.287 186.214 269.565C186.931 269.843 187.546 270.224 188.058 270.706C188.57 271.189 188.972 271.753 189.265 272.397C189.572 273.026 189.733 273.699 189.748 274.416H193.589C193.589 273.216 193.347 272.089 192.865 271.036C192.382 269.982 191.716 269.068 190.867 268.292C190.004 267.531 188.98 266.931 187.794 266.492C186.624 266.039 185.336 265.812 183.931 265.812C182.131 265.812 180.558 266.134 179.212 266.778C177.866 267.421 176.746 268.285 175.854 269.368C174.947 270.465 174.266 271.731 173.812 273.165C173.359 274.599 173.132 276.099 173.132 277.664V278.586C173.132 280.167 173.359 281.674 173.812 283.108C174.266 284.527 174.947 285.778 175.854 286.861C176.746 287.959 177.866 288.829 179.212 289.473C180.558 290.117 182.131 290.439 183.931 290.439C185.19 290.439 186.397 290.227 187.553 289.802C188.709 289.363 189.733 288.778 190.626 288.047C191.518 287.329 192.228 286.495 192.755 285.544C193.296 284.578 193.574 283.569 193.589 282.515H189.748C189.733 283.174 189.558 283.788 189.221 284.359C188.899 284.915 188.467 285.398 187.926 285.808C187.385 286.232 186.763 286.561 186.06 286.795C185.373 287.03 184.663 287.147 183.931 287.147ZM210.929 287.147C209.656 287.147 208.588 286.898 207.724 286.4C206.876 285.888 206.195 285.222 205.683 284.403C205.156 283.598 204.776 282.691 204.542 281.681C204.322 280.657 204.212 279.625 204.212 278.586V277.664C204.212 276.64 204.322 275.623 204.542 274.613C204.776 273.604 205.156 272.689 205.683 271.87C206.21 271.065 206.898 270.414 207.746 269.916C208.61 269.404 209.671 269.148 210.929 269.148C211.748 269.148 212.509 269.287 213.212 269.565C213.929 269.843 214.543 270.224 215.055 270.706C215.568 271.189 215.97 271.753 216.263 272.397C216.57 273.026 216.731 273.699 216.746 274.416H220.587C220.587 273.216 220.345 272.089 219.862 271.036C219.379 269.982 218.714 269.068 217.865 268.292C217.002 267.531 215.977 266.931 214.792 266.492C213.621 266.039 212.334 265.812 210.929 265.812C209.129 265.812 207.556 266.134 206.21 266.778C204.864 267.421 203.744 268.285 202.852 269.368C201.944 270.465 201.264 271.731 200.81 273.165C200.357 274.599 200.13 276.099 200.13 277.664V278.586C200.13 280.167 200.357 281.674 200.81 283.108C201.264 284.527 201.944 285.778 202.852 286.861C203.744 287.959 204.864 288.829 206.21 289.473C207.556 290.117 209.129 290.439 210.929 290.439C212.187 290.439 213.395 290.227 214.551 289.802C215.707 289.363 216.731 288.778 217.624 288.047C218.516 287.329 219.226 286.495 219.753 285.544C220.294 284.578 220.572 283.569 220.587 282.515H216.746C216.731 283.174 216.555 283.788 216.219 284.359C215.897 284.915 215.465 285.398 214.924 285.808C214.382 286.232 213.76 286.561 213.058 286.795C212.37 287.03 211.661 287.147 210.929 287.147ZM226.667 277.906V278.389C226.667 280.101 226.915 281.688 227.413 283.152C227.91 284.615 228.627 285.888 229.564 286.971C230.486 288.054 231.613 288.903 232.944 289.517C234.29 290.132 235.805 290.439 237.488 290.439C239.156 290.439 240.656 290.132 241.987 289.517C243.319 288.903 244.453 288.054 245.39 286.971C246.311 285.888 247.021 284.615 247.519 283.152C248.016 281.688 248.265 280.101 248.265 278.389V277.906C248.265 276.194 248.016 274.606 247.519 273.143C247.021 271.665 246.311 270.385 245.39 269.302C244.453 268.219 243.312 267.37 241.965 266.756C240.634 266.126 239.127 265.812 237.444 265.812C235.776 265.812 234.276 266.126 232.944 266.756C231.613 267.37 230.486 268.219 229.564 269.302C228.627 270.385 227.91 271.665 227.413 273.143C226.915 274.606 226.667 276.194 226.667 277.906ZM230.727 278.389V277.906C230.727 276.75 230.866 275.645 231.144 274.592C231.422 273.523 231.847 272.587 232.417 271.782C232.973 270.977 233.669 270.341 234.503 269.872C235.337 269.39 236.317 269.148 237.444 269.148C238.571 269.148 239.551 269.39 240.385 269.872C241.234 270.341 241.943 270.977 242.514 271.782C243.07 272.587 243.487 273.523 243.765 274.592C244.058 275.645 244.204 276.75 244.204 277.906V278.389C244.204 279.559 244.065 280.679 243.787 281.747C243.509 282.801 243.092 283.73 242.536 284.535C241.965 285.339 241.256 285.976 240.407 286.444C239.573 286.912 238.6 287.147 237.488 287.147C236.361 287.147 235.373 286.912 234.525 286.444C233.676 285.976 232.973 285.339 232.417 284.535C231.847 283.73 231.422 282.801 231.144 281.747C230.866 280.679 230.727 279.559 230.727 278.389Z" fill="black"/>
<path d="M973.268 145.268C974.244 144.291 974.244 142.709 973.268 141.732L957.358 125.822C956.382 124.846 954.799 124.846 953.822 125.822C952.846 126.799 952.846 128.382 953.822 129.358L967.964 143.5L953.822 157.642C952.846 158.618 952.846 160.201 953.822 161.178C954.799 162.154 956.382 162.154 957.358 161.178L973.268 145.268ZM337 280C500.223 280 579.702 246.366 658.047 212.798C736.094 179.358 812.985 146 971.5 146L971.5 141C812.015 141 734.406 174.642 656.078 208.202C578.048 241.634 499.277 275 337 275V280Z" fill="black"/>
<path d="M972.768 122.268C973.744 121.291 973.744 119.709 972.768 118.732L956.858 102.822C955.882 101.846 954.299 101.846 953.322 102.822C952.346 103.799 952.346 105.382 953.322 106.358L967.464 120.5L953.322 134.642C952.346 135.618 952.346 137.201 953.322 138.178C954.299 139.154 955.882 139.154 956.858 138.178L972.768 122.268ZM337 123H971V118H337V123Z" fill="black"/>
</svg>
