<svg width="1587" height="242" viewBox="0 0 1587 242" fill="none" xmlns="http://www.w3.org/2000/svg">
<rect width="1587" height="242" fill="white"/>
<path d="M992.008 37H1538.97C1548.4 37 1556 43.3971 1556 51.3629V195.655C1556 203.603 1548.4 210 1538.97 210H992.008C982.584 210 975 203.603 975 195.655V51.3629C975 43.3971 982.584 37 992.008 37Z" fill="#FFE6D5" stroke="#FF6600" stroke-width="1.38663" stroke-linejoin="round"/>
<path d="M1200.66 83.0114H1196.52C1196.52 82.8047 1196.52 82.6393 1196.52 82.5153L1196.44 81.9365C1196.44 81.8331 1196.44 81.7505 1196.44 81.6884V81.1097C1196.44 80.9443 1196.4 80.7583 1196.36 80.5309V80.0348C1196.36 79.8281 1196.36 79.6214 1196.36 79.456V78.8772C1196.36 78.8359 1196.36 78.7532 1196.36 78.6292V78.1331C1196.36 77.9677 1196.36 77.7817 1196.36 77.5543V77.0582C1196.29 76.5621 1196.27 76.1073 1196.27 75.6526V75.0738C1196.27 74.9704 1196.27 74.8051 1196.27 74.5777L1196.19 73.9989C1196.19 73.8335 1196.19 73.6682 1196.19 73.5028V72.924C1196.19 72.8827 1196.19 72.8 1196.19 72.676V72.0972C1196.19 69.8441 1196.19 67.5909 1196.19 65.3171H1200.99C1200.99 68.5831 1200.94 71.8285 1200.9 75.0738V75.6526C1200.9 75.8179 1200.9 76.0246 1200.9 76.2313C1200.9 76.4587 1200.86 76.7274 1200.82 77.0582V77.5543C1200.82 77.7196 1200.82 77.9263 1200.82 78.1331V78.6292C1200.82 78.7532 1200.82 78.8359 1200.82 78.8772V79.5387C1200.82 79.6627 1200.82 79.8281 1200.82 80.0348V80.5309C1200.76 80.7583 1200.74 80.9443 1200.74 81.1097V81.6884C1200.74 81.8125 1200.74 81.8951 1200.74 81.9365L1200.66 82.5153C1200.66 82.6806 1200.66 82.846 1200.66 83.0114ZM1189.66 83.0114H1185.52C1185.52 82.8047 1185.52 82.6393 1185.52 82.5153L1185.44 81.9365C1185.44 81.8331 1185.44 81.7505 1185.44 81.6884V81.1097C1185.44 80.9443 1185.4 80.7583 1185.36 80.5309V80.0348C1185.36 79.8281 1185.36 79.6214 1185.36 79.456V78.8772C1185.36 78.8359 1185.36 78.7532 1185.36 78.6292V78.1331C1185.36 77.9677 1185.36 77.7817 1185.36 77.5543V77.0582C1185.3 76.5621 1185.28 76.1073 1185.28 75.6526V75.0738C1185.28 74.9704 1185.28 74.8051 1185.28 74.5777L1185.19 73.9989C1185.19 73.8335 1185.19 73.6682 1185.19 73.5028V72.924C1185.19 72.8827 1185.19 72.8 1185.19 72.676V72.0972C1185.19 69.8441 1185.19 67.5909 1185.19 65.3171H1189.99C1189.99 68.5831 1189.95 71.8285 1189.91 75.0738V75.6526C1189.91 75.8179 1189.91 76.0246 1189.91 76.2313C1189.91 76.4587 1189.87 76.7274 1189.82 77.0582V77.5543C1189.82 77.7196 1189.82 77.9263 1189.82 78.1331V78.6292C1189.82 78.7532 1189.82 78.8359 1189.82 78.8772V79.5387C1189.82 79.6627 1189.82 79.8281 1189.82 80.0348V80.5309C1189.76 80.7583 1189.74 80.9443 1189.74 81.1097V81.6884C1189.74 81.8125 1189.74 81.8951 1189.74 81.9365L1189.66 82.5153C1189.66 82.6806 1189.66 82.846 1189.66 83.0114Z" fill="black"/>
<path d="M1212.87 107.816V103.848H1218.41V71.2703H1212.87V67.3015H1228.34V71.2703H1222.8V103.848H1228.34V107.816H1212.87Z" fill="black"/>
<path d="M1273.2 108.23C1271.42 108.23 1269.91 107.858 1268.65 107.155C1267.49 106.494 1266.58 105.584 1265.92 104.426C1265.14 103.062 1264.76 101.45 1264.76 99.6308C1264.76 97.9358 1265.09 96.4888 1265.76 95.3313C1266.52 94.0083 1267.62 92.9335 1269.06 92.1066C1271.05 90.9491 1273.57 90.3703 1276.67 90.3703H1281.71V87.8071C1281.71 86.7115 1281.47 85.7193 1280.97 84.8305C1280.51 84.0657 1279.89 83.4662 1279.07 83.0115C1278.08 82.474 1276.88 82.1846 1275.51 82.1846C1274.07 82.1846 1272.87 82.474 1271.87 83.0115C1271.05 83.4662 1270.39 84.0863 1269.89 84.9132C1269.56 85.5333 1269.35 86.1534 1269.31 86.8149L1265.09 85.8227C1265.2 84.8305 1265.53 83.8383 1266.09 82.8461C1266.85 81.5232 1267.91 80.4483 1269.23 79.6214C1270.92 78.6913 1273.03 78.2158 1275.51 78.2158C1277.87 78.2158 1279.94 78.7119 1281.71 79.7041C1283.04 80.4896 1284.07 81.5232 1284.86 82.8461C1285.68 84.293 1286.1 85.9467 1286.1 87.8071V107.816H1281.71V103.765C1280.82 105.15 1279.73 106.225 1278.41 106.99C1276.92 107.816 1275.18 108.23 1273.2 108.23ZM1274.6 104.261C1276.03 104.261 1277.29 103.972 1278.41 103.352C1279.4 102.814 1280.16 102.029 1280.72 101.036C1281.38 99.8789 1281.71 98.5146 1281.71 96.9023V94.3391H1276.67C1274.62 94.3391 1272.95 94.7112 1271.63 95.414C1270.8 95.9101 1270.16 96.5509 1269.72 97.3157C1269.33 97.9771 1269.15 98.7626 1269.15 99.6308C1269.15 100.52 1269.33 101.284 1269.72 101.946C1270.1 102.607 1270.65 103.145 1271.38 103.517C1272.2 104.013 1273.28 104.261 1274.6 104.261Z" fill="black"/>
<path d="M1292.28 107.816V78.629H1296.66V80.3653C1297.16 79.6005 1297.7 79.0424 1298.32 78.7117C1298.85 78.3809 1299.49 78.2156 1300.22 78.2156C1300.92 78.2156 1301.58 78.3809 1302.2 78.7117C1302.86 79.1044 1303.44 79.7452 1303.94 80.6134C1304.14 81.0061 1304.37 81.4816 1304.6 82.019C1304.76 81.4816 1304.97 80.9855 1305.26 80.5307C1305.69 79.6625 1306.27 79.0424 1307 78.7117C1307.53 78.3809 1308.18 78.2156 1308.9 78.2156C1309.6 78.2156 1310.26 78.3809 1310.88 78.7117C1311.54 79.1044 1312.14 79.7452 1312.7 80.6134C1313.57 82.2257 1314.03 84.3962 1314.03 87.1454V107.816H1309.64V87.1454C1309.64 84.8923 1309.25 83.3833 1308.49 82.5978C1308.2 82.3291 1307.87 82.1844 1307.49 82.1844C1307.1 82.1844 1306.77 82.3291 1306.5 82.5978C1305.78 83.3213 1305.38 84.5822 1305.34 86.4012V107.816H1300.96V87.1454C1300.96 84.8923 1300.57 83.3833 1299.8 82.5978C1299.51 82.3291 1299.18 82.1844 1298.81 82.1844C1298.42 82.1844 1298.09 82.3291 1297.82 82.5978C1297.03 83.3833 1296.66 84.8923 1296.66 87.1454V107.816H1292.28Z" fill="black"/>
<path d="M1355.75 108.23C1353.97 108.23 1352.46 107.858 1351.2 107.155C1350.04 106.494 1349.13 105.584 1348.47 104.426C1347.68 103.062 1347.31 101.45 1347.31 99.6308C1347.31 97.9358 1347.64 96.4888 1348.3 95.3313C1349.07 94.0083 1350.16 92.9335 1351.61 92.1066C1353.6 90.9491 1356.12 90.3703 1359.22 90.3703H1364.26V87.8071C1364.26 86.7115 1364.01 85.7193 1363.52 84.8305C1363.06 84.0657 1362.44 83.4662 1361.62 83.0115C1360.62 82.474 1359.42 82.1846 1358.06 82.1846C1356.61 82.1846 1355.41 82.474 1354.42 83.0115C1353.6 83.4662 1352.93 84.0863 1352.44 84.9132C1352.11 85.5333 1351.9 86.1534 1351.86 86.8149L1347.64 85.8227C1347.75 84.8305 1348.08 83.8383 1348.63 82.8461C1349.4 81.5232 1350.45 80.4483 1351.78 79.6214C1353.47 78.6913 1355.58 78.2158 1358.06 78.2158C1360.42 78.2158 1362.48 78.7119 1364.26 79.7041C1365.58 80.4896 1366.62 81.5232 1367.4 82.8461C1368.23 84.293 1368.64 85.9467 1368.64 87.8071V107.816H1364.26V103.765C1363.37 105.15 1362.28 106.225 1360.95 106.99C1359.47 107.816 1357.73 108.23 1355.75 108.23ZM1357.15 104.261C1358.58 104.261 1359.84 103.972 1360.95 103.352C1361.95 102.814 1362.71 102.029 1363.27 101.036C1363.93 99.8789 1364.26 98.5146 1364.26 96.9023V94.3391H1359.22C1357.17 94.3391 1355.5 94.7112 1354.17 95.414C1353.35 95.9101 1352.71 96.5509 1352.27 97.3157C1351.88 97.9771 1351.69 98.7626 1351.69 99.6308C1351.69 100.52 1351.88 101.284 1352.27 101.946C1352.64 102.607 1353.2 103.145 1353.93 103.517C1354.75 104.013 1355.83 104.261 1357.15 104.261Z" fill="black"/>
<path d="M1402.76 107.816V67.3015H1407.64L1413.26 89.2953L1418.8 67.3015H1423.68V107.816H1419.29V99.7134C1419.29 98.0184 1419.29 96.158 1419.29 94.1736L1419.38 93.6775C1419.42 92.4166 1419.46 91.073 1419.46 89.626L1419.54 89.0472C1419.58 88.3858 1419.62 87.683 1419.62 86.8975C1419.62 86.4634 1419.64 85.988 1419.71 85.4919V84.8304C1419.75 84.6237 1419.79 84.2929 1419.79 83.8382V82.4326C1419.83 82.3912 1419.87 82.3292 1419.87 82.2672C1419.87 82.1018 1419.87 81.9778 1419.87 81.8538V81.3577L1419.95 80.7789C1419.95 79.8487 1419.98 79.0219 1420.04 78.2984V77.7196C1420.08 77.5129 1420.12 77.2235 1420.12 76.8928V76.3967C1420.12 75.9626 1420.12 75.5492 1420.12 75.1564L1414.83 95.6619H1411.6L1406.31 75.1564C1406.31 75.2805 1406.31 75.3631 1406.31 75.4045C1406.31 75.7352 1406.31 76.0659 1406.31 76.3967V77.0581C1406.31 77.2855 1406.33 77.5129 1406.39 77.7196V78.2984C1406.39 78.5878 1406.42 78.8772 1406.48 79.2079C1406.48 79.704 1406.48 80.2415 1406.48 80.7789L1406.56 81.3577V81.8538C1406.56 81.9778 1406.56 82.1018 1406.56 82.2672C1406.56 82.3292 1406.58 82.3912 1406.64 82.4326V83.8382C1406.64 84.1689 1406.66 84.541 1406.73 84.9131V85.4919C1406.77 86.8148 1406.83 88.0137 1406.89 89.0472L1406.97 89.626C1406.97 91.073 1406.99 92.4166 1407.06 93.6775L1407.14 94.1736C1407.14 96.158 1407.14 98.0184 1407.14 99.7134V107.816H1402.76Z" fill="black"/>
<path d="M1438.29 108.23C1436.52 108.23 1435.01 107.858 1433.75 107.155C1432.59 106.494 1431.68 105.584 1431.02 104.426C1430.23 103.062 1429.86 101.45 1429.86 99.6308C1429.86 97.9358 1430.19 96.4888 1430.85 95.3313C1431.62 94.0083 1432.71 92.9335 1434.16 92.1066C1436.14 90.9491 1438.67 90.3703 1441.77 90.3703H1446.81V87.8071C1446.81 86.7115 1446.56 85.7193 1446.07 84.8305C1445.61 84.0657 1444.99 83.4662 1444.16 83.0115C1443.17 82.474 1441.97 82.1846 1440.61 82.1846C1439.16 82.1846 1437.96 82.474 1436.97 83.0115C1436.14 83.4662 1435.48 84.0863 1434.99 84.9132C1434.66 85.5333 1434.45 86.1534 1434.41 86.8149L1430.19 85.8227C1430.29 84.8305 1430.62 83.8383 1431.18 82.8461C1431.95 81.5232 1433 80.4483 1434.33 79.6214C1436.02 78.6913 1438.13 78.2158 1440.61 78.2158C1442.97 78.2158 1445.03 78.7119 1446.81 79.7041C1448.13 80.4896 1449.17 81.5232 1449.95 82.8461C1450.78 84.293 1451.19 85.9467 1451.19 87.8071V107.816H1446.81V103.765C1445.92 105.15 1444.83 106.225 1443.5 106.99C1442.01 107.816 1440.28 108.23 1438.29 108.23ZM1439.7 104.261C1441.13 104.261 1442.39 103.972 1443.5 103.352C1444.5 102.814 1445.26 102.029 1445.82 101.036C1446.48 99.8789 1446.81 98.5146 1446.81 96.9023V94.3391H1441.77C1439.72 94.3391 1438.05 94.7112 1436.72 95.414C1435.9 95.9101 1435.26 96.5509 1434.82 97.3157C1434.43 97.9771 1434.24 98.7626 1434.24 99.6308C1434.24 100.52 1434.43 101.284 1434.82 101.946C1435.19 102.607 1435.75 103.145 1436.47 103.517C1437.3 104.013 1438.38 104.261 1439.7 104.261Z" fill="black"/>
<path d="M1461.1 107.816V78.6292H1465.48V84.0863C1465.75 83.3835 1466.08 82.7221 1466.47 82.1019C1467.24 80.7377 1468.21 79.7041 1469.37 79.0427C1470.3 78.5052 1471.35 78.2158 1472.51 78.2158C1473.83 78.2158 1475.03 78.5466 1476.15 79.208C1477.24 79.8281 1478.13 80.6963 1478.79 81.8539C1479.12 82.412 1479.37 82.9908 1479.54 83.5902L1475.4 85.492C1475.28 85.0579 1475.11 84.6238 1474.91 84.169C1474.51 83.5076 1474 82.9908 1473.33 82.598C1472.78 82.3293 1472.2 82.1846 1471.6 82.1846C1470.71 82.1846 1469.9 82.3913 1469.2 82.7634C1468.37 83.2595 1467.67 84.0037 1467.13 84.9959C1466.02 86.8769 1465.48 89.3367 1465.48 92.3547V107.816H1461.1Z" fill="black"/>
<path d="M1485.3 107.816V107.568C1485.3 106.369 1486.05 104.467 1487.54 101.863C1488.2 100.767 1488.69 99.9612 1489.03 99.4651L1493.24 93.2639L1489.03 86.9799C1488.69 86.4838 1488.2 85.6983 1487.54 84.5821C1486.05 81.9983 1485.3 80.0965 1485.3 78.877V78.6289H1489.69V78.877C1489.69 79.8692 1490.68 81.8329 1492.66 84.7475L1495.81 89.4604L1498.87 84.7475C1500.85 81.8329 1501.84 79.8692 1501.84 78.877V78.6289H1506.22V78.877C1506.22 80.0965 1505.48 81.9983 1503.99 84.5821C1503.33 85.6983 1502.83 86.4838 1502.5 86.9799L1498.29 93.2639L1502.5 99.4651C1502.83 99.9612 1503.33 100.767 1503.99 101.863C1505.48 104.467 1506.22 106.369 1506.22 107.568V107.816H1501.84V107.568C1501.84 106.576 1500.85 104.633 1498.87 101.698L1495.81 96.9846L1492.66 101.698C1490.68 104.633 1489.69 106.576 1489.69 107.568V107.816H1485.3Z" fill="black"/>
<path d="M1530.84 83.0114H1526.71C1526.71 82.8047 1526.71 82.6393 1526.71 82.5153L1526.63 81.9365C1526.63 81.8331 1526.63 81.7505 1526.63 81.6884V81.1097C1526.63 80.9443 1526.59 80.7583 1526.55 80.5309V80.0348C1526.55 79.8281 1526.55 79.6214 1526.55 79.456V78.8772C1526.55 78.8359 1526.55 78.7532 1526.55 78.6292V78.1331C1526.55 77.9677 1526.55 77.7817 1526.55 77.5543V77.0582C1526.48 76.5621 1526.46 76.1073 1526.46 75.6526V75.0738C1526.46 74.9704 1526.46 74.8051 1526.46 74.5777L1526.38 73.9989C1526.38 73.8335 1526.38 73.6682 1526.38 73.5028V72.924C1526.38 72.8827 1526.38 72.8 1526.38 72.676V72.0972C1526.38 69.8441 1526.38 67.5909 1526.38 65.3171H1531.18C1531.18 68.5831 1531.13 71.8285 1531.09 75.0738V75.6526C1531.09 75.8179 1531.09 76.0246 1531.09 76.2313C1531.09 76.4587 1531.05 76.7274 1531.01 77.0582V77.5543C1531.01 77.7196 1531.01 77.9263 1531.01 78.1331V78.6292C1531.01 78.7532 1531.01 78.8359 1531.01 78.8772V79.5387C1531.01 79.6627 1531.01 79.8281 1531.01 80.0348V80.5309C1530.95 80.7583 1530.93 80.9443 1530.93 81.1097V81.6884C1530.93 81.8125 1530.93 81.8951 1530.93 81.9365L1530.84 82.5153C1530.84 82.6806 1530.84 82.846 1530.84 83.0114ZM1519.85 83.0114H1515.71C1515.71 82.8047 1515.71 82.6393 1515.71 82.5153L1515.63 81.9365C1515.63 81.8331 1515.63 81.7505 1515.63 81.6884V81.1097C1515.63 80.9443 1515.59 80.7583 1515.55 80.5309V80.0348C1515.55 79.8281 1515.55 79.6214 1515.55 79.456V78.8772C1515.55 78.8359 1515.55 78.7532 1515.55 78.6292V78.1331C1515.55 77.9677 1515.55 77.7817 1515.55 77.5543V77.0582C1515.49 76.5621 1515.47 76.1073 1515.47 75.6526V75.0738C1515.47 74.9704 1515.47 74.8051 1515.47 74.5777L1515.38 73.9989C1515.38 73.8335 1515.38 73.6682 1515.38 73.5028V72.924C1515.38 72.8827 1515.38 72.8 1515.38 72.676V72.0972C1515.38 69.8441 1515.38 67.5909 1515.38 65.3171H1520.18C1520.18 68.5831 1520.14 71.8285 1520.1 75.0738V75.6526C1520.1 75.8179 1520.1 76.0246 1520.1 76.2313C1520.1 76.4587 1520.05 76.7274 1520.01 77.0582V77.5543C1520.01 77.7196 1520.01 77.9263 1520.01 78.1331V78.6292C1520.01 78.7532 1520.01 78.8359 1520.01 78.8772V79.5387C1520.01 79.6627 1520.01 79.8281 1520.01 80.0348V80.5309C1519.95 80.7583 1519.93 80.9443 1519.93 81.1097V81.6884C1519.93 81.8125 1519.93 81.8951 1519.93 81.9365L1519.85 82.5153C1519.85 82.6806 1519.85 82.846 1519.85 83.0114Z" fill="black"/>
<path d="M1015.92 108.23C1014.14 108.23 1012.64 107.858 1011.38 107.155C1010.22 106.494 1009.31 105.584 1008.65 104.426C1007.86 103.062 1007.49 101.45 1007.49 99.6308C1007.49 97.9358 1007.82 96.4888 1008.48 95.3313C1009.25 94.0083 1010.34 92.9335 1011.79 92.1066C1013.77 90.9491 1016.29 90.3703 1019.4 90.3703H1024.44V87.8071C1024.44 86.7115 1024.19 85.7193 1023.69 84.8305C1023.24 84.0657 1022.62 83.4662 1021.79 83.0115C1020.8 82.474 1019.6 82.1846 1018.24 82.1846C1016.79 82.1846 1015.59 82.474 1014.6 83.0115C1013.77 83.4662 1013.11 84.0863 1012.62 84.9132C1012.28 85.5333 1012.08 86.1534 1012.04 86.8149L1007.82 85.8227C1007.92 84.8305 1008.25 83.8383 1008.81 82.8461C1009.58 81.5232 1010.63 80.4483 1011.95 79.6214C1013.65 78.6913 1015.76 78.2158 1018.24 78.2158C1020.59 78.2158 1022.66 78.7119 1024.44 79.7041C1025.76 80.4896 1026.8 81.5232 1027.58 82.8461C1028.41 84.293 1028.82 85.9467 1028.82 87.8071V107.816H1024.44V103.765C1023.55 105.15 1022.45 106.225 1021.13 106.99C1019.64 107.816 1017.91 108.23 1015.92 108.23ZM1017.33 104.261C1018.75 104.261 1020.02 103.972 1021.13 103.352C1022.12 102.814 1022.89 102.029 1023.45 101.036C1024.11 99.8789 1024.44 98.5146 1024.44 96.9023V94.3391H1019.4C1017.35 94.3391 1015.67 94.7112 1014.35 95.414C1013.52 95.9101 1012.88 96.5509 1012.45 97.3157C1012.06 97.9771 1011.87 98.7626 1011.87 99.6308C1011.87 100.52 1012.06 101.284 1012.45 101.946C1012.82 102.607 1013.38 103.145 1014.1 103.517C1014.93 104.013 1016.01 104.261 1017.33 104.261Z" fill="#8F9ED3"/>
<path d="M1047.24 108.23C1045.69 108.23 1044.35 107.899 1043.19 107.238C1041.91 106.535 1040.83 105.419 1039.97 103.93C1039.9 103.827 1039.84 103.724 1039.8 103.6V107.816H1035.42V67.3015H1039.8V82.846C1039.84 82.7426 1039.9 82.6393 1039.97 82.5152C1040.83 81.0269 1041.91 79.9314 1043.19 79.2079C1044.35 78.5464 1045.69 78.2157 1047.24 78.2157C1048.9 78.2157 1050.34 78.5878 1051.62 79.2906C1052.95 80.0761 1054.04 81.1923 1054.93 82.6806C1056.13 84.8304 1056.75 87.5383 1056.75 90.7836V95.6619C1056.75 98.9279 1056.13 101.615 1054.93 103.765C1054.04 105.253 1052.95 106.39 1051.62 107.155C1050.34 107.858 1048.9 108.23 1047.24 108.23ZM1045.92 104.261C1047.01 104.261 1047.99 104.054 1048.81 103.6C1049.74 103.062 1050.51 102.256 1051.13 101.202C1051.95 99.7754 1052.37 97.9357 1052.37 95.6619V90.7836C1052.37 88.5305 1051.95 86.6908 1051.13 85.2438C1050.51 84.2103 1049.74 83.4041 1048.81 82.846C1047.99 82.4119 1047.01 82.1845 1045.92 82.1845C1044.93 82.1845 1044.04 82.4119 1043.27 82.846C1042.38 83.3007 1041.66 84.0035 1041.12 84.9957C1040.23 86.5461 1039.8 88.4685 1039.8 90.7836V95.6619C1039.8 97.977 1040.23 99.9201 1041.12 101.45C1041.66 102.442 1042.38 103.165 1043.27 103.6C1044.04 104.054 1044.93 104.261 1045.92 104.261Z" fill="#8F9ED3"/>
<path d="M1073.44 108.23C1071.29 108.23 1069.43 107.796 1067.9 106.907C1066.41 106.039 1065.19 104.799 1064.26 103.186C1063.1 101.16 1062.52 98.6386 1062.52 95.662V90.7837C1062.52 87.8071 1063.1 85.3059 1064.26 83.2595C1065.19 81.6679 1066.41 80.4276 1067.9 79.5388C1069.43 78.6706 1071.29 78.2158 1073.44 78.2158C1075.52 78.2158 1077.32 78.6706 1078.81 79.5388C1080.34 80.4276 1081.58 81.6679 1082.53 83.2595C1083.69 85.3059 1084.27 87.8071 1084.27 90.7837V95.662C1084.27 98.6386 1083.69 101.16 1082.53 103.186C1081.81 104.406 1080.96 105.419 1079.97 106.245C1079.57 106.473 1079.18 106.7 1078.81 106.907C1077.32 107.796 1075.52 108.23 1073.44 108.23ZM1073.44 104.261C1074.53 104.261 1075.5 104.054 1076.33 103.6C1077.26 103.062 1078.02 102.256 1078.64 101.202C1079.47 99.7755 1079.88 97.9358 1079.88 95.662V90.7837C1079.88 88.5306 1079.47 86.6909 1078.64 85.2439C1078.02 84.2104 1077.26 83.4042 1076.33 82.8461C1075.5 82.412 1074.53 82.1846 1073.44 82.1846C1072.28 82.1846 1071.29 82.412 1070.46 82.8461C1069.51 83.4042 1068.74 84.2104 1068.14 85.2439C1067.32 86.6909 1066.9 88.5306 1066.9 90.7837V95.662C1066.9 97.9358 1067.32 99.7755 1068.14 101.202C1068.74 102.256 1069.51 103.062 1070.46 103.6C1071.29 104.054 1072.28 104.261 1073.44 104.261Z" fill="#8F9ED3"/>
<path d="M1099.55 108.23C1097.99 108.23 1096.65 107.899 1095.49 107.238C1094.21 106.535 1093.18 105.419 1092.35 103.93C1091.07 101.78 1090.45 99.0313 1090.45 95.6619V78.6292H1094.83V95.6619C1094.83 97.9771 1095.27 99.9201 1096.16 101.45C1096.69 102.442 1097.42 103.165 1098.3 103.6C1099.07 104.054 1099.96 104.261 1100.95 104.261C1101.88 104.261 1102.73 104.054 1103.51 103.6C1104.38 103.165 1105.11 102.442 1105.66 101.45C1106.53 99.9201 1106.99 97.9771 1106.99 95.6619V78.6292H1111.37V107.816H1106.99V103.6C1106.92 103.724 1106.86 103.827 1106.82 103.93C1105.93 105.419 1104.86 106.535 1103.6 107.238C1102.44 107.899 1101.07 108.23 1099.55 108.23Z" fill="#8F9ED3"/>
<path d="M1132.6 108.23C1130.89 108.23 1129.42 107.858 1128.22 107.155C1126.94 106.452 1125.9 105.398 1125.08 104.013C1124.02 102.153 1123.51 99.8581 1123.51 97.1502V82.5979H1117.47V78.6291H1123.51V67.3015H1127.89V78.6291H1136.74V82.5979H1127.89V97.1502C1127.89 99.1346 1128.24 100.788 1128.96 102.111C1129.4 102.897 1129.96 103.434 1130.62 103.765C1131.22 104.096 1131.88 104.261 1132.6 104.261C1133.3 104.261 1133.94 104.096 1134.5 103.765C1134.83 103.662 1135.12 103.434 1135.41 103.103C1136.45 102.008 1137.09 100.416 1137.31 98.3078L1141.61 99.3C1141.39 101.078 1140.87 102.649 1140.04 104.013C1139.26 105.398 1138.24 106.452 1136.98 107.155C1135.76 107.858 1134.3 108.23 1132.6 108.23Z" fill="#8F9ED3"/>
<path d="M1155.98 86.8149C1155.03 86.8149 1154.25 86.6289 1153.59 86.2361C1153.03 85.9054 1152.55 85.4506 1152.18 84.8305C1151.85 84.169 1151.68 83.4042 1151.68 82.5154C1151.68 81.5852 1151.85 80.779 1152.18 80.1175C1152.55 79.5181 1153.03 79.0427 1153.59 78.7119C1154.25 78.3812 1155.03 78.2158 1155.98 78.2158C1156.85 78.2158 1157.64 78.3812 1158.3 78.7119C1158.84 79.0427 1159.31 79.5181 1159.7 80.1175C1160.03 80.779 1160.2 81.5852 1160.2 82.5154C1160.2 83.4042 1160.03 84.169 1159.7 84.8305C1159.31 85.4506 1158.84 85.9054 1158.3 86.2361C1157.64 86.6289 1156.85 86.8149 1155.98 86.8149ZM1155.98 108.23C1155.03 108.23 1154.25 108.065 1153.59 107.734C1153.03 107.403 1152.55 106.948 1152.18 106.328C1151.85 105.667 1151.68 104.902 1151.68 104.013C1151.68 103.083 1151.85 102.277 1152.18 101.615C1152.55 101.016 1153.03 100.54 1153.59 100.21C1154.25 99.8375 1155.03 99.6308 1155.98 99.6308C1156.85 99.6308 1157.64 99.8375 1158.3 100.21C1158.84 100.54 1159.31 101.016 1159.7 101.615C1160.03 102.277 1160.2 103.083 1160.2 104.013C1160.2 104.902 1160.03 105.667 1159.7 106.328C1159.31 106.948 1158.84 107.403 1158.3 107.734C1157.64 108.065 1156.85 108.23 1155.98 108.23Z" fill="#8F9ED3"/>
<path d="M1211.45 175.755C1209.74 175.755 1208.27 175.383 1207.07 174.68C1205.79 173.977 1204.75 172.923 1203.93 171.538C1202.87 169.677 1202.36 167.383 1202.36 164.675V150.123H1196.32V146.154H1202.36V134.826H1206.74V146.154H1215.59V150.123H1206.74V164.675C1206.74 166.66 1207.09 168.313 1207.81 169.636C1208.25 170.422 1208.81 170.959 1209.47 171.29C1210.07 171.621 1210.73 171.786 1211.45 171.786C1212.15 171.786 1212.8 171.621 1213.35 171.29C1213.68 171.186 1213.97 170.959 1214.26 170.628C1215.3 169.533 1215.94 167.941 1216.17 165.833L1220.46 166.825C1220.24 168.603 1219.72 170.174 1218.89 171.538C1218.11 172.923 1217.1 173.977 1215.83 174.68C1214.61 175.383 1213.15 175.755 1211.45 175.755Z" fill="#0000FF"/>
<path d="M1227.64 175.341V146.154H1232.02V151.611C1232.29 150.908 1232.62 150.247 1233.02 149.627C1233.78 148.263 1234.75 147.229 1235.91 146.568C1236.84 146.03 1237.89 145.741 1239.05 145.741C1240.37 145.741 1241.57 146.071 1242.69 146.733C1243.79 147.353 1244.67 148.221 1245.34 149.379C1245.67 149.937 1245.91 150.516 1246.08 151.115L1241.95 153.017C1241.82 152.583 1241.66 152.149 1241.45 151.694C1241.06 151.032 1240.54 150.516 1239.88 150.123C1239.32 149.854 1238.74 149.71 1238.14 149.71C1237.25 149.71 1236.45 149.916 1235.74 150.288C1234.92 150.784 1234.21 151.529 1233.68 152.521C1232.56 154.402 1232.02 156.862 1232.02 159.88V175.341H1227.64Z" fill="#0000FF"/>
<path d="M1260.94 175.755C1259.39 175.755 1258.05 175.424 1256.89 174.762C1255.61 174.06 1254.58 172.943 1253.75 171.455C1252.47 169.305 1251.85 166.556 1251.85 163.187V146.154H1256.23V163.187C1256.23 165.502 1256.67 167.445 1257.55 168.975C1258.09 169.967 1258.82 170.69 1259.7 171.124C1260.47 171.579 1261.36 171.786 1262.35 171.786C1263.28 171.786 1264.13 171.579 1264.91 171.124C1265.78 170.69 1266.51 169.967 1267.06 168.975C1267.93 167.445 1268.39 165.502 1268.39 163.187V146.154H1272.77V175.341H1268.39V171.124C1268.32 171.248 1268.26 171.352 1268.22 171.455C1267.33 172.943 1266.26 174.06 1265 174.762C1263.84 175.424 1262.47 175.755 1260.94 175.755Z" fill="#0000FF"/>
<path d="M1290.2 175.755C1289.47 175.755 1288.75 175.693 1288.05 175.589C1286.72 175.362 1285.5 174.969 1284.41 174.349C1282.86 173.481 1281.62 172.241 1280.69 170.628C1279.53 168.603 1278.95 166.122 1278.95 163.187V158.309C1278.95 155.332 1279.53 152.831 1280.69 150.784C1281.62 149.193 1282.84 147.953 1284.33 147.064C1285.85 146.195 1287.72 145.741 1289.87 145.741C1291.95 145.741 1293.75 146.195 1295.24 147.064C1296.77 147.953 1298.01 149.193 1298.96 150.784C1300.12 152.831 1300.7 155.332 1300.7 158.309V162.691H1283.33V163.187C1283.33 165.399 1283.75 167.197 1284.57 168.561C1285.17 169.616 1285.94 170.422 1286.89 170.959C1287.88 171.517 1288.98 171.786 1290.2 171.786C1291.46 171.786 1292.55 171.517 1293.5 170.959C1294.5 170.422 1295.28 169.616 1295.9 168.561C1296.23 167.962 1296.5 167.3 1296.73 166.577L1300.78 168.148C1300.49 169.037 1300.14 169.843 1299.7 170.546C1298.75 172.199 1297.51 173.481 1295.98 174.349C1294.33 175.3 1292.39 175.755 1290.2 175.755ZM1283.33 158.805H1296.31V158.309C1296.31 156.055 1295.9 154.216 1295.07 152.769C1294.45 151.735 1293.69 150.929 1292.76 150.371C1291.93 149.937 1290.96 149.71 1289.87 149.71C1288.71 149.71 1287.72 149.937 1286.89 150.371C1285.94 150.929 1285.17 151.735 1284.57 152.769C1283.75 154.216 1283.33 156.055 1283.33 158.309V158.805Z" fill="#0000FF"/>
<path d="M1015.11 175.341V151.776H1008.91V147.807H1015.11V142.598C1015.11 140.511 1015.54 138.712 1016.43 137.224C1017.1 136.066 1017.96 135.157 1019.08 134.495C1020.24 133.896 1021.58 133.586 1023.13 133.586C1024.66 133.586 1026.03 133.896 1027.18 134.495C1028.28 135.157 1029.17 136.066 1029.83 137.224C1030.37 138.175 1030.74 139.208 1030.9 140.366L1026.69 141.441C1026.56 140.573 1026.31 139.829 1025.94 139.208C1025.61 138.609 1025.2 138.175 1024.7 137.885C1024.21 137.617 1023.67 137.472 1023.13 137.472C1022.51 137.472 1021.99 137.617 1021.56 137.885C1021.06 138.175 1020.65 138.609 1020.32 139.208C1019.76 140.035 1019.49 141.172 1019.49 142.598V147.807H1028.75V151.776H1019.49V175.341H1015.11Z" fill="#8F9ED3"/>
<path d="M1045.52 175.755C1043.97 175.755 1042.63 175.424 1041.47 174.762C1040.19 174.06 1039.15 172.943 1038.33 171.455C1037.05 169.305 1036.43 166.556 1036.43 163.187V146.154H1040.81V163.187C1040.81 165.502 1041.24 167.445 1042.13 168.975C1042.67 169.967 1043.39 170.69 1044.28 171.124C1045.05 171.579 1045.93 171.786 1046.93 171.786C1047.86 171.786 1048.7 171.579 1049.49 171.124C1050.36 170.69 1051.08 169.967 1051.64 168.975C1052.51 167.445 1052.96 165.502 1052.96 163.187V146.154H1057.34V175.341H1052.96V171.124C1052.9 171.248 1052.84 171.352 1052.8 171.455C1051.91 172.943 1050.83 174.06 1049.57 174.762C1048.41 175.424 1047.05 175.755 1045.52 175.755Z" fill="#8F9ED3"/>
<path d="M1063.94 175.341V146.154H1068.32V150.371C1068.37 150.268 1068.43 150.164 1068.49 150.04C1069.36 148.552 1070.43 147.456 1071.71 146.733C1072.87 146.071 1074.22 145.741 1075.77 145.741C1077.3 145.741 1078.66 146.071 1079.82 146.733C1081.08 147.456 1082.13 148.552 1082.96 150.04C1084.22 152.19 1084.86 154.96 1084.86 158.309V175.341H1080.48V158.309C1080.48 155.993 1080.02 154.071 1079.16 152.521C1078.6 151.529 1077.87 150.826 1077.01 150.371C1076.22 149.937 1075.37 149.71 1074.44 149.71C1073.45 149.71 1072.56 149.937 1071.8 150.371C1070.91 150.826 1070.18 151.529 1069.65 152.521C1068.76 154.071 1068.32 155.993 1068.32 158.309V175.341H1063.94Z" fill="#8F9ED3"/>
<path d="M1091.46 175.341V146.154H1095.84V150.371C1095.88 150.268 1095.94 150.164 1096.01 150.04C1096.87 148.552 1097.95 147.456 1099.23 146.733C1100.39 146.071 1101.73 145.741 1103.28 145.741C1104.81 145.741 1106.18 146.071 1107.33 146.733C1108.59 147.456 1109.65 148.552 1110.48 150.04C1111.74 152.19 1112.38 154.96 1112.38 158.309V175.341H1107.99V158.309C1107.99 155.993 1107.54 154.071 1106.67 152.521C1106.11 151.529 1105.39 150.826 1104.52 150.371C1103.74 149.937 1102.89 149.71 1101.96 149.71C1100.97 149.71 1100.08 149.937 1099.31 150.371C1098.42 150.826 1097.7 151.529 1097.16 152.521C1096.27 154.071 1095.84 155.993 1095.84 158.309V175.341H1091.46Z" fill="#8F9ED3"/>
<path d="M1124.51 186.669V186.255C1124.51 184.044 1124.72 182.307 1125.18 181.046L1127.16 175.093L1120.88 157.234C1119.59 153.658 1118.97 150.66 1118.97 148.221V146.154H1123.36V148.221C1123.36 150.102 1123.89 152.665 1125.01 155.911L1129.39 168.809L1133.86 155.911C1134.95 152.769 1135.51 150.206 1135.51 148.221V146.154H1139.89V148.221C1139.89 150.598 1139.25 153.596 1137.99 157.234L1129.31 182.369C1129.02 183.134 1128.9 184.436 1128.9 186.255V186.669H1124.51Z" fill="#8F9ED3"/>
<path d="M1156.99 154.34C1156.04 154.34 1155.25 154.154 1154.59 153.761C1154.04 153.43 1153.56 152.976 1153.19 152.355C1152.86 151.694 1152.69 150.929 1152.69 150.04C1152.69 149.11 1152.86 148.304 1153.19 147.642C1153.56 147.043 1154.04 146.568 1154.59 146.237C1155.25 145.906 1156.04 145.741 1156.99 145.741C1157.86 145.741 1158.64 145.906 1159.31 146.237C1159.84 146.568 1160.32 147.043 1160.71 147.642C1161.04 148.304 1161.21 149.11 1161.21 150.04C1161.21 150.929 1161.04 151.694 1160.71 152.355C1160.32 152.976 1159.84 153.43 1159.31 153.761C1158.64 154.154 1157.86 154.34 1156.99 154.34ZM1156.99 175.755C1156.04 175.755 1155.25 175.589 1154.59 175.259C1154.04 174.928 1153.56 174.473 1153.19 173.853C1152.86 173.192 1152.69 172.427 1152.69 171.538C1152.69 170.608 1152.86 169.802 1153.19 169.14C1153.56 168.541 1154.04 168.065 1154.59 167.734C1155.25 167.362 1156.04 167.156 1156.99 167.156C1157.86 167.156 1158.64 167.362 1159.31 167.734C1159.84 168.065 1160.32 168.541 1160.71 169.14C1161.04 169.802 1161.21 170.608 1161.21 171.538C1161.21 172.427 1161.04 173.192 1160.71 173.853C1160.32 174.473 1159.84 174.928 1159.31 175.259C1158.64 175.589 1157.86 175.755 1156.99 175.755Z" fill="#8F9ED3"/>
<path d="M284.981 73H387.198V170.38H284.981V73Z" fill="#ECECEC" stroke="#999999" stroke-width="1.24601" stroke-linejoin="round"/>
<path d="M103.253 146.739C100.648 146.739 98.5398 146.243 96.8861 145.251C95.6045 144.527 94.6537 143.597 93.9922 142.44C93.3307 141.282 93 139.959 93 138.471C93 137.086 93.2687 135.887 93.8268 134.833C94.3229 134.006 94.9844 133.324 95.8112 132.766C95.4805 132.435 95.2325 132.104 95.0671 131.773C94.6123 131.009 94.4056 130.182 94.4056 129.293C94.4056 128.425 94.6123 127.557 95.0671 126.73C95.4392 126.068 95.9146 125.531 96.4727 125.076C95.6872 124.477 95.0257 123.753 94.4883 122.926C93.7648 121.603 93.4134 120.094 93.4134 118.379C93.4134 116.622 93.7648 115.113 94.4883 113.831C95.1911 112.57 96.1833 111.599 97.4649 110.937C98.8912 110.069 100.648 109.614 102.757 109.614C103.852 109.614 104.865 109.738 105.816 109.945L105.981 110.028H113.754V113.583L110.86 113.5C110.901 113.624 110.963 113.728 111.025 113.831C111.728 115.113 112.1 116.622 112.1 118.379C112.1 120.094 111.728 121.603 111.025 122.926C110.301 124.084 109.33 125.035 108.131 125.738C106.643 126.564 104.844 126.978 102.757 126.978C101.475 126.978 100.317 126.854 99.2839 126.564C98.9945 126.688 98.7878 126.854 98.6225 127.06C98.1677 127.515 97.961 128.032 97.961 128.631C97.961 129.19 98.147 129.686 98.5398 130.12C99.0772 130.74 100.152 131.029 101.764 131.029C101.806 131.029 101.888 131.029 102.012 131.029H104.41C106.663 131.029 108.565 131.484 110.115 132.352C111.211 133.014 112.059 133.84 112.679 134.833C113.216 135.887 113.505 137.106 113.505 138.553C113.505 139.98 113.195 141.282 112.596 142.44C111.872 143.597 110.88 144.527 109.619 145.251C107.904 146.243 105.775 146.739 103.253 146.739ZM103.253 143.184C104.906 143.184 106.25 142.874 107.304 142.274C108.069 141.819 108.648 141.282 109.041 140.621C109.371 140 109.557 139.318 109.619 138.553C109.557 137.768 109.392 137.148 109.123 136.652C108.834 136.156 108.4 135.742 107.8 135.411C106.849 134.874 105.733 134.585 104.41 134.585H101.764C100.607 134.585 99.6147 134.833 98.7878 135.329C98.1264 135.722 97.6509 136.156 97.3822 136.652C97.0928 137.148 96.9688 137.747 96.9688 138.471C96.9688 139.298 97.1342 140 97.4649 140.621C97.837 141.282 98.3951 141.819 99.1186 142.274C100.214 142.874 101.599 143.184 103.253 143.184ZM102.757 123.422C103.956 123.422 104.989 123.216 105.816 122.761C106.519 122.327 107.098 121.748 107.552 121.025C107.924 120.26 108.131 119.35 108.131 118.296C108.131 117.262 107.924 116.374 107.552 115.65C107.098 114.885 106.519 114.307 105.816 113.914C105.092 113.542 104.266 113.294 103.335 113.17H102.757C101.599 113.17 100.566 113.418 99.6974 113.914C98.9739 114.307 98.4158 114.885 98.0437 115.65C97.5889 116.374 97.3822 117.262 97.3822 118.296C97.3822 119.35 97.5889 120.26 98.0437 121.025C98.4158 121.748 98.9739 122.327 99.6974 122.761C100.566 123.216 101.599 123.422 102.757 123.422Z" fill="black"/>
<path d="M121.53 136.238V110.028H125.498V114.906C125.705 114.307 125.995 113.728 126.325 113.17C127.028 111.909 127.896 110.979 128.888 110.358C129.757 109.862 130.728 109.614 131.782 109.614C132.94 109.614 134.015 109.924 135.007 110.524C135.999 111.082 136.785 111.888 137.405 112.922C137.736 113.418 137.942 113.955 138.066 114.493L134.346 116.146C134.222 115.816 134.097 115.443 133.932 114.989C133.539 114.389 133.064 113.914 132.527 113.583C132.03 113.314 131.493 113.17 130.956 113.17C130.17 113.17 129.467 113.376 128.806 113.748C128.082 114.203 127.441 114.865 126.904 115.733C125.953 117.386 125.498 119.598 125.498 122.347V136.238H121.53Z" fill="black"/>
<path d="M152.703 136.652C150.76 136.652 149.106 136.259 147.742 135.494C146.357 134.667 145.262 133.551 144.435 132.104C143.381 130.285 142.864 128.032 142.864 125.324V120.942C142.864 118.255 143.381 115.981 144.435 114.162C145.262 112.736 146.357 111.64 147.742 110.855C149.106 110.028 150.76 109.614 152.703 109.614C154.564 109.614 156.197 110.028 157.582 110.855C158.946 111.64 160.062 112.736 160.889 114.162C161.922 115.981 162.46 118.255 162.46 120.942V125.324C162.46 128.032 161.922 130.285 160.889 132.104C160.227 133.22 159.442 134.13 158.574 134.833C158.243 135.06 157.912 135.246 157.582 135.411C156.197 136.238 154.564 136.652 152.703 136.652ZM152.703 133.096C153.695 133.096 154.564 132.89 155.349 132.435C156.176 131.939 156.837 131.236 157.333 130.285C158.098 129.024 158.491 127.371 158.491 125.324V120.942C158.491 118.916 158.098 117.262 157.333 115.981C156.837 115.051 156.176 114.327 155.349 113.831C154.564 113.397 153.695 113.17 152.703 113.17C151.649 113.17 150.739 113.397 149.975 113.831C149.148 114.327 148.486 115.051 147.99 115.981C147.205 117.262 146.833 118.916 146.833 120.942V125.324C146.833 127.371 147.205 129.024 147.99 130.285C148.486 131.236 149.148 131.939 149.975 132.435C150.739 132.89 151.649 133.096 152.703 133.096Z" fill="black"/>
<path d="M176.188 136.652C174.741 136.652 173.542 136.342 172.55 135.742C171.392 135.081 170.421 134.088 169.656 132.766C168.54 130.843 168.002 128.363 168.002 125.324V110.028H171.971V125.324C171.971 127.432 172.322 129.169 173.046 130.533C173.583 131.422 174.245 132.083 175.03 132.517C175.692 132.91 176.477 133.096 177.428 133.096C178.296 133.096 179.082 132.91 179.743 132.517C180.508 132.083 181.17 131.422 181.728 130.533C182.43 129.169 182.803 127.432 182.803 125.324V110.028H186.771V136.238H182.803V132.517C182.803 132.579 182.741 132.662 182.637 132.766C181.852 134.088 180.921 135.081 179.826 135.742C178.772 136.342 177.552 136.652 176.188 136.652Z" fill="black"/>
<path d="M202.154 136.652C200.211 136.652 198.558 136.259 197.193 135.494C195.808 134.667 194.713 133.551 193.886 132.104C192.832 130.244 192.315 127.97 192.315 125.324V120.942C192.315 118.296 192.832 116.043 193.886 114.162C194.713 112.736 195.808 111.64 197.193 110.855C198.558 110.028 200.211 109.614 202.154 109.614C204.077 109.614 205.73 110.028 207.115 110.855C208.542 111.681 209.678 112.798 210.505 114.162C211.105 115.278 211.518 116.456 211.746 117.717L208.025 118.792C207.859 117.759 207.529 116.808 207.033 115.981C206.474 115.113 205.792 114.41 204.966 113.914C204.139 113.418 203.188 113.17 202.154 113.17C201.162 113.17 200.253 113.418 199.426 113.914C198.599 114.369 197.937 115.051 197.441 115.981C196.656 117.304 196.284 118.957 196.284 120.942V125.324C196.284 127.308 196.656 128.962 197.441 130.285C197.937 131.236 198.599 131.918 199.426 132.352C200.253 132.848 201.162 133.096 202.154 133.096C203.188 133.096 204.139 132.848 204.966 132.352C205.792 131.856 206.474 131.174 207.033 130.285C207.529 129.458 207.859 128.528 208.025 127.474L211.746 128.549C211.518 129.83 211.105 131.009 210.505 132.104C209.678 133.489 208.542 134.585 207.115 135.411C205.73 136.238 204.077 136.652 202.154 136.652Z" fill="black"/>
<path d="M217.453 136.238V99.8577H221.422V113.831C221.422 113.728 221.463 113.624 221.587 113.5C222.352 112.177 223.282 111.185 224.399 110.524C225.432 109.924 226.652 109.614 228.037 109.614C229.463 109.614 230.683 109.924 231.675 110.524C232.832 111.185 233.783 112.177 234.569 113.5C235.664 115.443 236.222 117.924 236.222 120.942V136.238H232.254V120.942C232.254 118.854 231.882 117.118 231.179 115.733C230.621 114.865 229.959 114.224 229.194 113.831C228.533 113.397 227.747 113.17 226.879 113.17C225.928 113.17 225.143 113.397 224.481 113.831C223.696 114.224 223.034 114.865 222.497 115.733C221.773 117.118 221.422 118.854 221.422 120.942V136.238H217.453Z" fill="black"/>
<path d="M251.605 136.652C249.662 136.652 248.009 136.259 246.644 135.494C245.259 134.667 244.164 133.551 243.337 132.104C242.283 130.285 241.766 128.032 241.766 125.324V120.942C241.766 118.255 242.283 115.981 243.337 114.162C244.164 112.736 245.259 111.64 246.644 110.855C248.009 110.028 249.662 109.614 251.605 109.614C253.466 109.614 255.099 110.028 256.484 110.855C257.848 111.64 258.964 112.736 259.791 114.162C260.825 115.981 261.362 118.255 261.362 120.942V125.324C261.362 128.032 260.825 130.285 259.791 132.104C259.13 133.22 258.344 134.13 257.476 134.833C257.145 135.06 256.814 135.246 256.484 135.411C255.099 136.238 253.466 136.652 251.605 136.652ZM251.605 133.096C252.598 133.096 253.466 132.89 254.251 132.435C255.078 131.939 255.74 131.236 256.236 130.285C257 129.024 257.393 127.371 257.393 125.324V120.942C257.393 118.916 257 117.262 256.236 115.981C255.74 115.051 255.078 114.327 254.251 113.831C253.466 113.397 252.598 113.17 251.605 113.17C250.551 113.17 249.642 113.397 248.877 113.831C248.05 114.327 247.389 115.051 246.892 115.981C246.107 117.262 245.735 118.916 245.735 120.942V125.324C245.735 127.371 246.107 129.024 246.892 130.285C247.389 131.236 248.05 131.939 248.877 132.435C249.642 132.89 250.551 133.096 251.605 133.096Z" fill="black"/>
<path fill-rule="evenodd" clip-rule="evenodd" d="M323.82 108.347H348.749V133.276H323.82V108.347Z" fill="#040404" stroke="#040404" stroke-width="3.32269"/>
<path d="M972.768 122.268C973.744 121.291 973.744 119.709 972.768 118.732L956.858 102.822C955.882 101.846 954.299 101.846 953.322 102.822C952.346 103.799 952.346 105.382 953.322 106.358L967.464 120.5L953.322 134.642C952.346 135.618 952.346 137.201 953.322 138.178C954.299 139.154 955.882 139.154 956.858 138.178L972.768 122.268ZM337 123H971V118H337V123Z" fill="black"/>
</svg>
