<svg width="1920" height="1080" viewBox="0 0 1920 1080" fill="none" xmlns="http://www.w3.org/2000/svg">
<g clip-path="url(#clip0_4_206)">
<rect width="1920" height="1080" fill="white"/>
<path d="M1378 559L1615 312" stroke="#AB9F81" stroke-width="20"/>
<circle cx="1268" cy="663" r="214" fill="#F6FF8C"/>
<circle cx="1268" cy="663" r="211.5" stroke="black" stroke-opacity="0.41" stroke-width="5"/>
<path d="M1229.89 512.876V556.577M1288.05 807.689H1229.89V660.282M1229.89 660.282H1288.05V710.958M1229.89 660.282V609.018M1229.89 609.018H1288.05M1229.89 609.018V556.577M1229.89 556.577H1288.05M1347.21 761.635H1288.05V710.958M1288.05 710.958H1347.21" stroke="#A4C6DF" stroke-width="3.36161"/>
<path d="M1203 504.167V488L1221.82 488L1229.98 497.267L1203 504.167Z" fill="#C4933D" stroke="black" stroke-width="1.45252"/>
<path d="M1226.97 492.92L1255.23 492.909L1255.29 528.506H1203V496.971L1222.97 496.914L1226.97 492.92Z" fill="#F5CE85" stroke="black" stroke-width="1.45252"/>
<path d="M1262.16 551.229V535.063L1280.99 535.062L1289.14 544.33L1262.16 551.229Z" fill="#C4933D" stroke="black" stroke-width="1.45252"/>
<path d="M1286.13 539.982L1314.4 539.972L1314.46 575.569H1262.16V544.034L1282.14 543.977L1286.13 539.982Z" fill="#F5CE85" stroke="black" stroke-width="1.45252"/>
<path d="M1262.16 602.998V586.831L1280.99 586.831L1289.14 596.098L1262.16 602.998Z" fill="#4ABBEB" stroke="black" stroke-width="1.45252"/>
<path d="M1286.13 591.751L1314.4 591.741L1314.46 627.338H1262.16V595.803L1282.14 595.745L1286.13 591.751Z" fill="#4ABBEB" stroke="black" stroke-width="1.45252"/>
<path d="M1262.16 800.66V784.494L1280.99 784.494L1289.14 793.761L1262.16 800.66Z" fill="#C4933D" stroke="black" stroke-width="1.45252"/>
<path d="M1286.13 789.413L1314.4 789.403L1314.46 825H1262.16V793.465L1282.14 793.408L1286.13 789.413Z" fill="#F5CE85" stroke="black" stroke-width="1.45252"/>
<path d="M1321.33 753.598V737.431L1340.15 737.431L1348.31 746.698L1321.33 753.598Z" fill="#C4933D" stroke="black" stroke-width="1.45252"/>
<path d="M1345.3 742.351L1373.56 742.341L1373.62 777.938H1321.33V746.403L1341.3 746.345L1345.3 742.351Z" fill="#F5CE85" stroke="black" stroke-width="1.45252"/>
<path d="M1262.16 654.766V638.6L1280.99 638.6L1289.14 647.867L1262.16 654.766Z" fill="#C4933D" stroke="black" stroke-width="1.45252"/>
<path d="M1286.13 643.52L1314.4 643.509L1314.46 679.106H1262.16V647.571L1282.14 647.514L1286.13 643.52Z" fill="#F5CE85" stroke="black" stroke-width="1.45252"/>
<path d="M1321.33 701.829V685.662L1340.15 685.662L1348.31 694.929L1321.33 701.829Z" fill="#C4933D" stroke="black" stroke-width="1.45252"/>
<path d="M1345.3 690.582L1373.56 690.572L1373.62 726.169H1321.33V694.634L1341.3 694.576L1345.3 690.582Z" fill="#F5CE85" stroke="black" stroke-width="1.45252"/>
<path d="M1067.4 382V329.2H1049.5V316.8H1100.1V329.2H1082.2V382H1067.4ZM1109.07 382V311.9H1123.77V329.1L1123.07 338C1124.93 336.333 1127.1 334.8 1129.57 333.4C1132.1 331.933 1135.03 331.2 1138.37 331.2C1143.77 331.2 1147.67 333 1150.07 336.6C1152.53 340.133 1153.77 345 1153.77 351.2V382H1139.07V353.1C1139.07 349.5 1138.57 347.033 1137.57 345.7C1136.63 344.367 1135.1 343.7 1132.97 343.7C1131.1 343.7 1129.5 344.133 1128.17 345C1126.83 345.8 1125.37 346.967 1123.77 348.5V382H1109.07ZM1188.4 383.2C1183.66 383.2 1179.4 382.167 1175.6 380.1C1171.8 378.033 1168.8 375.067 1166.6 371.2C1164.4 367.333 1163.3 362.667 1163.3 357.2C1163.3 351.8 1164.4 347.167 1166.6 343.3C1168.86 339.433 1171.8 336.467 1175.4 334.4C1179 332.267 1182.76 331.2 1186.7 331.2C1191.43 331.2 1195.33 332.267 1198.4 334.4C1201.53 336.467 1203.86 339.3 1205.4 342.9C1207 346.433 1207.8 350.467 1207.8 355C1207.8 356.267 1207.73 357.533 1207.6 358.8C1207.46 360 1207.33 360.9 1207.2 361.5H1177.5C1178.16 365.1 1179.66 367.767 1182 369.5C1184.33 371.167 1187.13 372 1190.4 372C1193.93 372 1197.5 370.9 1201.1 368.7L1206 377.6C1203.46 379.333 1200.63 380.7 1197.5 381.7C1194.36 382.7 1191.33 383.2 1188.4 383.2ZM1177.4 351.8H1195.3C1195.3 349.067 1194.63 346.833 1193.3 345.1C1192.03 343.3 1189.93 342.4 1187 342.4C1184.73 342.4 1182.7 343.2 1180.9 344.8C1179.1 346.333 1177.93 348.667 1177.4 351.8ZM1259.07 383.2C1254.81 383.2 1250.54 382.4 1246.27 380.8C1242.07 379.2 1238.31 376.867 1234.97 373.8L1243.37 363.7C1245.71 365.7 1248.31 367.333 1251.17 368.6C1254.04 369.867 1256.81 370.5 1259.47 370.5C1262.54 370.5 1264.81 369.933 1266.27 368.8C1267.81 367.667 1268.57 366.133 1268.57 364.2C1268.57 362.133 1267.71 360.633 1265.97 359.7C1264.31 358.7 1262.04 357.6 1259.17 356.4L1250.67 352.8C1248.47 351.867 1246.37 350.633 1244.37 349.1C1242.37 347.5 1240.74 345.533 1239.47 343.2C1238.21 340.867 1237.57 338.133 1237.57 335C1237.57 331.4 1238.54 328.133 1240.47 325.2C1242.47 322.267 1245.21 319.933 1248.67 318.2C1252.21 316.467 1256.24 315.6 1260.77 315.6C1264.51 315.6 1268.24 316.333 1271.97 317.8C1275.71 319.267 1278.97 321.4 1281.77 324.2L1274.27 333.5C1272.14 331.833 1270.01 330.567 1267.87 329.7C1265.74 328.767 1263.37 328.3 1260.77 328.3C1258.24 328.3 1256.21 328.833 1254.67 329.9C1253.21 330.9 1252.47 332.333 1252.47 334.2C1252.47 336.2 1253.41 337.7 1255.27 338.7C1257.21 339.7 1259.57 340.767 1262.37 341.9L1270.77 345.3C1274.71 346.9 1277.84 349.1 1280.17 351.9C1282.51 354.7 1283.67 358.4 1283.67 363C1283.67 366.6 1282.71 369.933 1280.77 373C1278.84 376.067 1276.04 378.533 1272.37 380.4C1268.71 382.267 1264.27 383.2 1259.07 383.2ZM1309.81 383.2C1303.67 383.2 1299.27 381.433 1296.61 377.9C1294.01 374.367 1292.71 369.733 1292.71 364V343.9H1285.91V333L1293.51 332.4L1295.21 319.2H1307.41V332.4H1319.31V343.9H1307.41V363.8C1307.41 366.6 1307.97 368.633 1309.11 369.9C1310.31 371.1 1311.87 371.7 1313.81 371.7C1314.61 371.7 1315.41 371.6 1316.21 371.4C1317.07 371.2 1317.84 370.967 1318.51 370.7L1320.81 381.4C1319.54 381.8 1317.97 382.2 1316.11 382.6C1314.31 383 1312.21 383.2 1309.81 383.2ZM1339.54 383.2C1335 383.2 1331.4 381.767 1328.74 378.9C1326.07 375.967 1324.74 372.4 1324.74 368.2C1324.74 363 1326.94 358.933 1331.34 356C1335.74 353.067 1342.84 351.1 1352.64 350.1C1352.5 347.9 1351.84 346.167 1350.64 344.9C1349.5 343.567 1347.57 342.9 1344.84 342.9C1342.77 342.9 1340.67 343.3 1338.54 344.1C1336.4 344.9 1334.14 346 1331.74 347.4L1326.44 337.7C1329.57 335.767 1332.9 334.2 1336.44 333C1340.04 331.8 1343.77 331.2 1347.64 331.2C1353.97 331.2 1358.84 333.033 1362.24 336.7C1365.64 340.367 1367.34 346 1367.34 353.6V382H1355.34L1354.34 376.9H1353.94C1351.87 378.767 1349.64 380.3 1347.24 381.5C1344.9 382.633 1342.34 383.2 1339.54 383.2ZM1344.54 371.8C1346.2 371.8 1347.64 371.433 1348.84 370.7C1350.1 369.9 1351.37 368.867 1352.64 367.6V358.9C1347.44 359.567 1343.84 360.633 1341.84 362.1C1339.84 363.5 1338.84 365.167 1338.84 367.1C1338.84 368.7 1339.34 369.9 1340.34 370.7C1341.4 371.433 1342.8 371.8 1344.54 371.8ZM1397.47 403.1C1393.6 403.1 1390.1 402.667 1386.97 401.8C1383.84 400.933 1381.34 399.567 1379.47 397.7C1377.6 395.833 1376.67 393.433 1376.67 390.5C1376.67 386.5 1379.04 383.167 1383.77 380.5V380.1C1382.5 379.233 1381.4 378.133 1380.47 376.8C1379.6 375.467 1379.17 373.767 1379.17 371.7C1379.17 369.9 1379.7 368.167 1380.77 366.5C1381.84 364.833 1383.17 363.467 1384.77 362.4V362C1383.04 360.8 1381.47 359.067 1380.07 356.8C1378.74 354.533 1378.07 351.967 1378.07 349.1C1378.07 345.1 1379.04 341.8 1380.97 339.2C1382.9 336.533 1385.44 334.533 1388.57 333.2C1391.7 331.867 1395.04 331.2 1398.57 331.2C1401.5 331.2 1404.07 331.6 1406.27 332.4H1424.37V343.1H1416.47C1416.94 343.833 1417.3 344.767 1417.57 345.9C1417.9 347.033 1418.07 348.267 1418.07 349.6C1418.07 353.4 1417.2 356.533 1415.47 359C1413.74 361.467 1411.4 363.3 1408.47 364.5C1405.54 365.7 1402.24 366.3 1398.57 366.3C1396.64 366.3 1394.64 365.967 1392.57 365.3C1391.37 366.3 1390.77 367.533 1390.77 369C1390.77 370.267 1391.34 371.2 1392.47 371.8C1393.6 372.4 1395.54 372.7 1398.27 372.7H1406.27C1412.4 372.7 1417.07 373.7 1420.27 375.7C1423.54 377.633 1425.17 380.833 1425.17 385.3C1425.17 388.7 1424.04 391.733 1421.77 394.4C1419.5 397.133 1416.3 399.267 1412.17 400.8C1408.04 402.333 1403.14 403.1 1397.47 403.1ZM1398.57 357.4C1400.5 357.4 1402.1 356.7 1403.37 355.3C1404.7 353.9 1405.37 351.833 1405.37 349.1C1405.37 346.5 1404.7 344.533 1403.37 343.2C1402.1 341.8 1400.5 341.1 1398.57 341.1C1396.64 341.1 1395 341.767 1393.67 343.1C1392.4 344.433 1391.77 346.433 1391.77 349.1C1391.77 351.833 1392.4 353.9 1393.67 355.3C1395 356.7 1396.64 357.4 1398.57 357.4ZM1399.77 393.9C1403.1 393.9 1405.84 393.3 1407.97 392.1C1410.1 390.9 1411.17 389.467 1411.17 387.8C1411.17 386.267 1410.5 385.233 1409.17 384.7C1407.9 384.167 1406.04 383.9 1403.57 383.9H1398.47C1396.8 383.9 1395.4 383.833 1394.27 383.7C1393.2 383.633 1392.27 383.5 1391.47 383.3C1389.67 384.9 1388.77 386.533 1388.77 388.2C1388.77 390.067 1389.77 391.467 1391.77 392.4C1393.84 393.4 1396.5 393.9 1399.77 393.9ZM1453.63 383.2C1448.9 383.2 1444.63 382.167 1440.83 380.1C1437.03 378.033 1434.03 375.067 1431.83 371.2C1429.63 367.333 1428.53 362.667 1428.53 357.2C1428.53 351.8 1429.63 347.167 1431.83 343.3C1434.1 339.433 1437.03 336.467 1440.63 334.4C1444.23 332.267 1448 331.2 1451.93 331.2C1456.66 331.2 1460.56 332.267 1463.63 334.4C1466.76 336.467 1469.1 339.3 1470.63 342.9C1472.23 346.433 1473.03 350.467 1473.03 355C1473.03 356.267 1472.96 357.533 1472.83 358.8C1472.7 360 1472.56 360.9 1472.43 361.5H1442.73C1443.4 365.1 1444.9 367.767 1447.23 369.5C1449.56 371.167 1452.36 372 1455.63 372C1459.16 372 1462.73 370.9 1466.33 368.7L1471.23 377.6C1468.7 379.333 1465.86 380.7 1462.73 381.7C1459.6 382.7 1456.56 383.2 1453.63 383.2ZM1442.63 351.8H1460.53C1460.53 349.067 1459.86 346.833 1458.53 345.1C1457.26 343.3 1455.16 342.4 1452.23 342.4C1449.96 342.4 1447.93 343.2 1446.13 344.8C1444.33 346.333 1443.16 348.667 1442.63 351.8Z" fill="black"/>
<path d="M-831 449H-441.5L-84 232.5H292.5H678.5" stroke="#AB9F81" stroke-width="31"/>
<path d="M80 198L121 230.924L80 266.333" stroke="#AB9F81" stroke-width="6.21212"/>
<path d="M469 200L510 232.924L469 268.333" stroke="#AB9F81" stroke-width="6.21212"/>
<circle cx="281.327" cy="232.327" r="105.327" fill="#343434"/>
<path d="M260.861 156.138V179.454M291.889 313.434H260.861V234.786M260.861 234.786H291.889V261.824M260.861 234.786V207.434M260.861 207.434H291.889M260.861 207.434V179.454M260.861 179.454H291.889M323.456 288.862H291.889V261.824M291.889 261.824H323.456" stroke="#A4C6DF" stroke-width="1.79358"/>
<path d="M246.512 151.491V142.865L256.556 142.865L260.907 147.81L246.512 151.491Z" fill="#C4933D" stroke="black" stroke-width="0.774989"/>
<path d="M259.299 145.49L274.381 145.485L274.412 164.477H246.512V147.652L257.168 147.621L259.299 145.49Z" fill="#F5CE85" stroke="black" stroke-width="0.774989"/>
<path d="M278.079 176.601V167.975L288.123 167.975L292.474 172.92L278.079 176.601Z" fill="#C4933D" stroke="black" stroke-width="0.774989"/>
<path d="M290.866 170.6L305.948 170.595L305.979 189.587H278.079V172.762L288.735 172.731L290.866 170.6Z" fill="#F5CE85" stroke="black" stroke-width="0.774989"/>
<path d="M278.079 204.222V195.596L288.123 195.596L292.474 200.541L278.079 204.222Z" fill="#C4933D" stroke="black" stroke-width="0.774989"/>
<path d="M290.866 198.221L305.948 198.216L305.979 217.208H278.079V200.383L288.735 200.352L290.866 198.221Z" fill="#F5CE85" stroke="black" stroke-width="0.774989"/>
<path d="M278.079 309.684V301.059L288.123 301.059L292.474 306.003L278.079 309.684Z" fill="#C4933D" stroke="black" stroke-width="0.774989"/>
<path d="M290.866 303.684L305.948 303.678L305.979 322.671H278.079V305.845L288.735 305.815L290.866 303.684Z" fill="#F5CE85" stroke="black" stroke-width="0.774989"/>
<path d="M309.646 284.574V275.949L319.69 275.949L324.041 280.893L309.646 284.574Z" fill="#C4933D" stroke="black" stroke-width="0.774989"/>
<path d="M322.433 278.573L337.515 278.568L337.545 297.561H309.646V280.735L320.302 280.705L322.433 278.573Z" fill="#F5CE85" stroke="black" stroke-width="0.774989"/>
<path d="M278.079 231.843V223.217L288.123 223.217L292.474 228.162L278.079 231.843Z" fill="#C4933D" stroke="black" stroke-width="0.774989"/>
<path d="M290.866 225.842L305.948 225.837L305.979 244.83H278.079V228.004L288.735 227.973L290.866 225.842Z" fill="#F5CE85" stroke="black" stroke-width="0.774989"/>
<path d="M309.646 256.953V248.328L319.69 248.328L324.041 253.272L309.646 256.953Z" fill="#C4933D" stroke="black" stroke-width="0.774989"/>
<path d="M322.433 250.952L337.515 250.947L337.545 269.94H309.646V253.114L320.302 253.084L322.433 250.952Z" fill="#F5CE85" stroke="black" stroke-width="0.774989"/>
<circle cx="700.327" cy="234.327" r="105.327" fill="#343434"/>
<path d="M679.861 158.138V181.454M710.889 315.434H679.861V236.786M679.861 236.786H710.889V263.824M679.861 236.786V209.434M679.861 209.434H710.889M679.861 209.434V181.454M679.861 181.454H710.889M742.456 290.862H710.889V263.824M710.889 263.824H742.456" stroke="#A4C6DF" stroke-width="1.79358"/>
<path d="M665.512 153.491V144.865L675.556 144.865L679.907 149.81L665.512 153.491Z" fill="#C4933D" stroke="black" stroke-width="0.774989"/>
<path d="M678.299 147.49L693.381 147.485L693.412 166.477H665.512V149.652L676.168 149.621L678.299 147.49Z" fill="#F5CE85" stroke="black" stroke-width="0.774989"/>
<path d="M697.079 178.601V169.975L707.123 169.975L711.474 174.92L697.079 178.601Z" fill="#C4933D" stroke="black" stroke-width="0.774989"/>
<path d="M709.866 172.6L724.948 172.595L724.979 191.587H697.079V174.762L707.735 174.731L709.866 172.6Z" fill="#F5CE85" stroke="black" stroke-width="0.774989"/>
<path d="M697.079 206.222V197.596L707.123 197.596L711.474 202.541L697.079 206.222Z" fill="#C4933D" stroke="black" stroke-width="0.774989"/>
<path d="M709.866 200.221L724.948 200.216L724.979 219.208H697.079V202.383L707.735 202.352L709.866 200.221Z" fill="#F5CE85" stroke="black" stroke-width="0.774989"/>
<path d="M697.079 311.684V303.059L707.123 303.059L711.474 308.003L697.079 311.684Z" fill="#C4933D" stroke="black" stroke-width="0.774989"/>
<path d="M709.866 305.684L724.948 305.678L724.979 324.671H697.079V307.845L707.735 307.815L709.866 305.684Z" fill="#F5CE85" stroke="black" stroke-width="0.774989"/>
<path d="M728.646 286.574V277.949L738.69 277.949L743.041 282.893L728.646 286.574Z" fill="#C4933D" stroke="black" stroke-width="0.774989"/>
<path d="M741.433 280.573L756.515 280.568L756.545 299.561H728.646V282.735L739.302 282.705L741.433 280.573Z" fill="#F5CE85" stroke="black" stroke-width="0.774989"/>
<path d="M697.079 233.843V225.217L707.123 225.217L711.474 230.162L697.079 233.843Z" fill="#C4933D" stroke="black" stroke-width="0.774989"/>
<path d="M709.866 227.842L724.948 227.837L724.979 246.83H697.079V230.004L707.735 229.973L709.866 227.842Z" fill="#F5CE85" stroke="black" stroke-width="0.774989"/>
<path d="M728.646 258.953V250.328L738.69 250.328L743.041 255.272L728.646 258.953Z" fill="#C4933D" stroke="black" stroke-width="0.774989"/>
<path d="M741.433 252.952L756.515 252.947L756.545 271.94H728.646V255.114L739.302 255.084L741.433 252.952Z" fill="#F5CE85" stroke="black" stroke-width="0.774989"/>
<g opacity="0.5">
<circle cx="1684.5" cy="234.5" r="104.5" fill="#343434"/>
<path d="M1664.19 158.909V182.042M1694.98 314.97H1664.19V236.939M1664.19 236.939H1694.98V263.765M1664.19 236.939V209.802M1664.19 209.802H1694.98M1664.19 209.802V182.042M1664.19 182.042H1694.98M1726.3 290.591H1694.98V263.765M1694.98 263.765H1726.3" stroke="#A4C6DF" stroke-width="1.77949"/>
<path d="M1649.96 154.298V145.741L1659.92 145.741L1664.24 150.646L1649.96 154.298Z" fill="#C4933D" stroke="black" stroke-width="0.768903"/>
<path d="M1662.65 148.345L1677.61 148.339L1677.64 167.183H1649.96V150.49L1660.53 150.459L1662.65 148.345Z" fill="#F5CE85" stroke="black" stroke-width="0.768903"/>
<path d="M1681.28 179.211V170.653L1691.24 170.653L1695.56 175.559L1681.28 179.211Z" fill="#C4933D" stroke="black" stroke-width="0.768903"/>
<path d="M1693.96 173.258L1708.93 173.252L1708.96 192.096H1681.28V175.403L1691.85 175.372L1693.96 173.258Z" fill="#F5CE85" stroke="black" stroke-width="0.768903"/>
<path d="M1681.28 206.615V198.058L1691.24 198.058L1695.56 202.963L1681.28 206.615Z" fill="#C4933D" stroke="black" stroke-width="0.768903"/>
<path d="M1693.96 200.662L1708.93 200.656L1708.96 219.5H1681.28V202.807L1691.85 202.776L1693.96 200.662Z" fill="#F5CE85" stroke="black" stroke-width="0.768903"/>
<path d="M1681.28 311.249V302.692L1691.24 302.692L1695.56 307.597L1681.28 311.249Z" fill="#C4933D" stroke="black" stroke-width="0.768903"/>
<path d="M1693.96 305.296L1708.93 305.29L1708.96 324.134H1681.28V307.441L1691.85 307.41L1693.96 305.296Z" fill="#F5CE85" stroke="black" stroke-width="0.768903"/>
<path d="M1712.6 286.337V277.779L1722.56 277.779L1726.88 282.684L1712.6 286.337Z" fill="#C4933D" stroke="black" stroke-width="0.768903"/>
<path d="M1725.28 280.383L1740.25 280.378L1740.28 299.221H1712.6V282.528L1723.17 282.497L1725.28 280.383Z" fill="#F5CE85" stroke="black" stroke-width="0.768903"/>
<path d="M1681.28 234.02V225.462L1691.24 225.462L1695.56 230.367L1681.28 234.02Z" fill="#C4933D" stroke="black" stroke-width="0.768903"/>
<path d="M1693.96 228.066L1708.93 228.061L1708.96 246.904H1681.28V230.211L1691.85 230.18L1693.96 228.066Z" fill="#F5CE85" stroke="black" stroke-width="0.768903"/>
<path d="M1712.6 258.932V250.375L1722.56 250.375L1726.88 255.28L1712.6 258.932Z" fill="#C4933D" stroke="black" stroke-width="0.768903"/>
<path d="M1725.28 252.979L1740.25 252.973L1740.28 271.817H1712.6V255.124L1723.17 255.093L1725.28 252.979Z" fill="#F5CE85" stroke="black" stroke-width="0.768903"/>
</g>
<path d="M1562.29 105V73.7091H1566.4L1577.7 93.3613L1581.09 99.8485H1581.28C1581.18 98.2585 1581.07 96.6208 1580.94 94.9354C1580.85 93.2182 1580.8 91.5328 1580.8 89.8793V73.7091H1584.57V105H1580.47L1569.11 85.3001L1565.73 78.8607H1565.54C1565.66 80.4188 1565.78 82.0247 1565.87 83.6783C1566 85.3319 1566.06 86.9855 1566.06 88.6391V105H1562.29ZM1602.19 105.572C1600.12 105.572 1598.25 105.095 1596.56 104.141C1594.88 103.156 1593.54 101.756 1592.56 99.9439C1591.57 98.1313 1591.08 95.9689 1591.08 93.4567C1591.08 90.9127 1591.57 88.7345 1592.56 86.9219C1593.57 85.1093 1594.88 83.7101 1596.47 82.7243C1598.06 81.7385 1599.73 81.2456 1601.48 81.2456C1604.43 81.2456 1606.71 82.2314 1608.3 84.203C1609.92 86.1746 1610.73 88.814 1610.73 92.1211C1610.73 92.5345 1610.71 92.9479 1610.68 93.3613C1610.68 93.7429 1610.65 94.0768 1610.59 94.363H1594.94C1595.1 96.8116 1595.86 98.7673 1597.23 100.23C1598.63 101.693 1600.44 102.424 1602.67 102.424C1603.78 102.424 1604.8 102.265 1605.72 101.947C1606.68 101.597 1607.58 101.152 1608.44 100.612L1609.82 103.187C1608.84 103.823 1607.71 104.38 1606.44 104.857C1605.2 105.334 1603.78 105.572 1602.19 105.572ZM1594.89 91.5487H1607.3C1607.3 89.1956 1606.79 87.4148 1605.77 86.2064C1604.78 84.9662 1603.38 84.3461 1601.57 84.3461C1599.95 84.3461 1598.49 84.9821 1597.18 86.2541C1595.91 87.4943 1595.15 89.2592 1594.89 91.5487ZM1612.89 105L1620.47 92.8843L1613.46 81.818H1617.71L1620.81 86.9219C1621.16 87.5261 1621.52 88.1621 1621.9 88.8299C1622.29 89.4977 1622.68 90.1495 1623.1 90.7855H1623.29C1623.64 90.1495 1623.99 89.4977 1624.34 88.8299C1624.69 88.1621 1625.04 87.5261 1625.39 86.9219L1628.2 81.818H1632.3L1625.29 93.3136L1632.83 105H1628.58L1625.2 99.61C1624.78 98.9104 1624.37 98.2108 1623.96 97.5112C1623.54 96.8116 1623.11 96.1279 1622.67 95.4601H1622.48C1622.06 96.1279 1621.67 96.8116 1621.28 97.5112C1620.9 98.179 1620.52 98.8786 1620.14 99.61L1616.99 105H1612.89ZM1643.55 105.572C1641.07 105.572 1639.34 104.857 1638.35 103.426C1637.4 101.995 1636.92 100.135 1636.92 97.8451V85.0139H1633.49V82.0565L1637.11 81.818L1637.59 75.3309H1640.88V81.818H1647.13V85.0139H1640.88V97.8928C1640.88 99.3238 1641.14 100.437 1641.65 101.232C1642.19 101.995 1643.12 102.377 1644.46 102.377C1644.87 102.377 1645.32 102.313 1645.8 102.186C1646.27 102.027 1646.7 101.884 1647.08 101.756L1647.85 104.714C1647.21 104.936 1646.51 105.127 1645.75 105.286C1645.02 105.477 1644.28 105.572 1643.55 105.572ZM1671.08 105.572C1669.05 105.572 1667.2 105.095 1665.55 104.141C1663.89 103.187 1662.59 101.804 1661.64 99.9915C1660.68 98.179 1660.2 96.0007 1660.2 93.4567C1660.2 90.8491 1660.71 88.6391 1661.73 86.8265C1662.78 85.0139 1664.15 83.6306 1665.83 82.6766C1667.55 81.7226 1669.39 81.2456 1671.37 81.2456C1672.89 81.2456 1674.2 81.5159 1675.28 82.0565C1676.39 82.5971 1677.34 83.2331 1678.14 83.9645L1676.14 86.5403C1675.47 85.9361 1674.75 85.4432 1673.99 85.0616C1673.26 84.68 1672.43 84.4892 1671.51 84.4892C1670.11 84.4892 1668.85 84.8708 1667.74 85.634C1666.66 86.3654 1665.8 87.4148 1665.17 88.7822C1664.56 90.1177 1664.26 91.6759 1664.26 93.4567C1664.26 96.0961 1664.91 98.2426 1666.21 99.8962C1667.55 101.518 1669.28 102.329 1671.41 102.329C1672.5 102.329 1673.5 102.106 1674.42 101.661C1675.34 101.184 1676.15 100.628 1676.85 99.9915L1678.57 102.615C1677.52 103.537 1676.36 104.269 1675.09 104.809C1673.82 105.318 1672.48 105.572 1671.08 105.572ZM1691.67 105.572C1689.79 105.572 1688.02 105.095 1686.37 104.141C1684.75 103.187 1683.43 101.804 1682.41 99.9915C1681.43 98.179 1680.93 96.0007 1680.93 93.4567C1680.93 90.8491 1681.43 88.6391 1682.41 86.8265C1683.43 85.0139 1684.75 83.6306 1686.37 82.6766C1688.02 81.7226 1689.79 81.2456 1691.67 81.2456C1693.57 81.2456 1695.34 81.7226 1696.96 82.6766C1698.58 83.6306 1699.89 85.0139 1700.87 86.8265C1701.89 88.6391 1702.4 90.8491 1702.4 93.4567C1702.4 96.0007 1701.89 98.179 1700.87 99.9915C1699.89 101.804 1698.58 103.187 1696.96 104.141C1695.34 105.095 1693.57 105.572 1691.67 105.572ZM1691.67 102.329C1693.67 102.329 1695.28 101.518 1696.48 99.8962C1697.72 98.2426 1698.34 96.0961 1698.34 93.4567C1698.34 90.7855 1697.72 88.6232 1696.48 86.9696C1695.28 85.316 1693.67 84.4892 1691.67 84.4892C1689.69 84.4892 1688.09 85.316 1686.85 86.9696C1685.61 88.6232 1684.99 90.7855 1684.99 93.4567C1684.99 96.0961 1685.61 98.2426 1686.85 99.8962C1688.09 101.518 1689.69 102.329 1691.67 102.329ZM1708.5 105V81.818H1711.75L1712.08 85.157H1712.22C1713.24 84.044 1714.35 83.1218 1715.56 82.3904C1716.77 81.6272 1718.06 81.2456 1719.43 81.2456C1721.21 81.2456 1722.59 81.6431 1723.58 82.4381C1724.59 83.2013 1725.34 84.2825 1725.82 85.6817C1727.03 84.3779 1728.25 83.3126 1729.49 82.4858C1730.73 81.659 1732.05 81.2456 1733.45 81.2456C1735.84 81.2456 1737.6 82.0247 1738.75 83.5829C1739.92 85.1093 1740.51 87.3512 1740.51 90.3085V105H1736.6V90.8332C1736.6 88.6709 1736.25 87.0968 1735.55 86.111C1734.85 85.1252 1733.77 84.6323 1732.31 84.6323C1730.59 84.6323 1728.65 85.8248 1726.49 88.2098V105H1722.57V90.8332C1722.57 88.6709 1722.23 87.0968 1721.53 86.111C1720.83 85.1252 1719.73 84.6323 1718.23 84.6323C1716.52 84.6323 1714.58 85.8248 1712.41 88.2098V105H1708.5ZM1748.05 105V81.818H1751.29L1751.63 85.157H1751.77C1752.79 84.044 1753.9 83.1218 1755.11 82.3904C1756.32 81.6272 1757.61 81.2456 1758.97 81.2456C1760.76 81.2456 1762.14 81.6431 1763.12 82.4381C1764.14 83.2013 1764.89 84.2825 1765.37 85.6817C1766.57 84.3779 1767.8 83.3126 1769.04 82.4858C1770.28 81.659 1771.6 81.2456 1773 81.2456C1775.38 81.2456 1777.15 82.0247 1778.29 83.5829C1779.47 85.1093 1780.06 87.3512 1780.06 90.3085V105H1776.15V90.8332C1776.15 88.6709 1775.8 87.0968 1775.1 86.111C1774.4 85.1252 1773.32 84.6323 1771.85 84.6323C1770.14 84.6323 1768.2 85.8248 1766.03 88.2098V105H1762.12V90.8332C1762.12 88.6709 1761.77 87.0968 1761.07 86.111C1760.37 85.1252 1759.28 84.6323 1757.78 84.6323C1756.06 84.6323 1754.13 85.8248 1751.96 88.2098V105H1748.05ZM1787.6 105V81.818H1791.51V105H1787.6ZM1789.6 77.0481C1788.84 77.0481 1788.2 76.8255 1787.69 76.3803C1787.22 75.9033 1786.98 75.2673 1786.98 74.4723C1786.98 73.7091 1787.22 73.089 1787.69 72.612C1788.2 72.135 1788.84 71.8965 1789.6 71.8965C1790.37 71.8965 1790.99 72.135 1791.46 72.612C1791.97 73.089 1792.23 73.7091 1792.23 74.4723C1792.23 75.2673 1791.97 75.9033 1791.46 76.3803C1790.99 76.8255 1790.37 77.0481 1789.6 77.0481ZM1806.64 105.572C1804.16 105.572 1802.42 104.857 1801.44 103.426C1800.48 101.995 1800.01 100.135 1800.01 97.8451V85.0139H1796.57V82.0565L1800.2 81.818L1800.67 75.3309H1803.96V81.818H1810.21V85.0139H1803.96V97.8928C1803.96 99.3238 1804.22 100.437 1804.73 101.232C1805.27 101.995 1806.21 102.377 1807.54 102.377C1807.96 102.377 1808.4 102.313 1808.88 102.186C1809.35 102.027 1809.78 101.884 1810.17 101.756L1810.93 104.714C1810.29 104.936 1809.59 105.127 1808.83 105.286C1808.1 105.477 1807.37 105.572 1806.64 105.572Z" fill="black"/>
<path d="M684 476V541M770.5 914.5H684V695.25M684 695.25H770.5V770.625M684 695.25V619M684 619H770.5M684 619V541M684 541H770.5M858.5 846H770.5V770.625M770.5 770.625H858.5" stroke="#A4C6DF" stroke-width="5"/>
<path d="M644 463.046V439L672 439L684.129 452.784L644 463.046Z" fill="#C4933D" stroke="black" stroke-width="2.16046"/>
<path d="M679.648 446.317L721.692 446.302L721.777 499.249H644V452.344L673.706 452.259L679.648 446.317Z" fill="#F5CE85" stroke="black" stroke-width="2.16046"/>
<path d="M732 533.046V509L760 509L772.129 522.784L732 533.046Z" fill="#C4933D" stroke="black" stroke-width="2.16046"/>
<path d="M767.648 516.317L809.692 516.302L809.777 569.249H732V522.344L761.706 522.259L767.648 516.317Z" fill="#F5CE85" stroke="black" stroke-width="2.16046"/>
<path d="M732 610.046V586L760 586L772.129 599.784L732 610.046Z" fill="#4ABBEB" stroke="black" stroke-width="2.16046"/>
<path d="M767.648 593.317L809.692 593.302L809.777 646.249H732V599.344L761.706 599.259L767.648 593.317Z" fill="#4ABBEB" stroke="black" stroke-width="2.16046"/>
<path d="M732 904.046V880L760 880L772.129 893.784L732 904.046Z" fill="#63DC67" stroke="black" stroke-width="2.16046"/>
<path d="M767.648 887.317L809.692 887.302L809.777 940.249H732V893.344L761.706 893.259L767.648 887.317Z" fill="#63DC67" stroke="black" stroke-width="2.16046"/>
<path d="M820 834.046V810L848 810L860.129 823.784L820 834.046Z" fill="#C4933D" stroke="black" stroke-width="2.16046"/>
<path d="M855.648 817.317L897.692 817.302L897.777 870.249H820V823.344L849.706 823.259L855.648 817.317Z" fill="#F5CE85" stroke="black" stroke-width="2.16046"/>
<path d="M732 687.046V663L760 663L772.129 676.784L732 687.046Z" fill="#C4933D" stroke="black" stroke-width="2.16046"/>
<path d="M767.648 670.317L809.692 670.302L809.777 723.249H732V676.344L761.706 676.259L767.648 670.317Z" fill="#F5CE85" stroke="black" stroke-width="2.16046"/>
<path d="M820 757.046V733L848 733L860.129 746.784L820 757.046Z" fill="#C4933D" stroke="black" stroke-width="2.16046"/>
<path d="M855.648 740.317L897.692 740.302L897.777 793.249H820V746.344L849.706 746.259L855.648 740.317Z" fill="#F5CE85" stroke="black" stroke-width="2.16046"/>
<path d="M502.122 1016.57C499.515 1016.57 497.178 1015.94 495.111 1014.66C493.075 1013.36 491.454 1011.5 490.245 1009.08C489.069 1006.67 488.48 1003.76 488.48 1000.35C488.48 996.984 489.085 994.09 490.293 991.673C491.501 989.256 493.155 987.396 495.254 986.092C497.352 984.789 499.722 984.137 502.361 984.137C504.269 984.137 505.954 984.534 507.417 985.329C508.88 986.092 510.056 986.983 510.947 988L508.8 990.576C507.974 989.686 507.035 988.97 505.986 988.43C504.937 987.889 503.744 987.619 502.409 987.619C500.437 987.619 498.704 988.143 497.209 989.193C495.747 990.21 494.602 991.657 493.775 993.534C492.98 995.41 492.583 997.652 492.583 1000.26C492.583 1002.87 492.98 1005.14 493.775 1007.08C494.57 1008.99 495.683 1010.47 497.114 1011.52C498.577 1012.57 500.294 1013.09 502.266 1013.09C503.76 1013.09 505.096 1012.77 506.272 1012.14C507.449 1011.5 508.53 1010.64 509.516 1009.56L511.71 1012.04C510.47 1013.47 509.071 1014.58 507.512 1015.38C505.954 1016.17 504.158 1016.57 502.122 1016.57ZM523.469 1016.57C521.021 1016.57 519.224 1015.81 518.079 1014.28C516.934 1012.72 516.362 1010.47 516.362 1007.51V992.818H520.321V1006.98C520.321 1009.15 520.655 1010.72 521.323 1011.71C522.022 1012.69 523.135 1013.19 524.662 1013.19C525.87 1013.19 526.935 1012.88 527.857 1012.28C528.811 1011.64 529.829 1010.64 530.91 1009.27V992.818H534.822V1016H531.578L531.244 1012.37H531.101C530.02 1013.65 528.875 1014.66 527.667 1015.43C526.458 1016.19 525.059 1016.57 523.469 1016.57ZM542.642 1016V992.818H545.885L546.219 997.016H546.362C547.157 995.553 548.127 994.392 549.272 993.534C550.417 992.675 551.641 992.246 552.945 992.246C553.867 992.246 554.694 992.405 555.425 992.723L554.662 996.157C554.28 996.03 553.931 995.934 553.613 995.871C553.295 995.807 552.897 995.775 552.42 995.775C551.434 995.775 550.401 996.173 549.32 996.968C548.27 997.763 547.348 999.146 546.553 1001.12V1016H542.642ZM559.178 1016V992.818H562.422L562.756 997.016H562.899C563.694 995.553 564.664 994.392 565.808 993.534C566.953 992.675 568.177 992.246 569.481 992.246C570.403 992.246 571.23 992.405 571.962 992.723L571.198 996.157C570.817 996.03 570.467 995.934 570.149 995.871C569.831 995.807 569.434 995.775 568.957 995.775C567.971 995.775 566.937 996.173 565.856 996.968C564.807 997.763 563.884 999.146 563.09 1001.12V1016H559.178ZM584.646 1016.57C582.579 1016.57 580.702 1016.1 579.017 1015.14C577.332 1014.16 575.996 1012.76 575.01 1010.94C574.025 1009.13 573.532 1006.97 573.532 1004.46C573.532 1001.91 574.025 999.734 575.01 997.922C576.028 996.109 577.332 994.71 578.922 993.724C580.512 992.739 582.181 992.246 583.93 992.246C586.887 992.246 589.161 993.231 590.751 995.203C592.373 997.175 593.184 999.814 593.184 1003.12C593.184 1003.53 593.168 1003.95 593.136 1004.36C593.136 1004.74 593.104 1005.08 593.041 1005.36H577.395C577.554 1007.81 578.317 1009.77 579.685 1011.23C581.084 1012.69 582.897 1013.42 585.123 1013.42C586.236 1013.42 587.253 1013.27 588.175 1012.95C589.129 1012.6 590.036 1012.15 590.894 1011.61L592.278 1014.19C591.292 1014.82 590.163 1015.38 588.891 1015.86C587.651 1016.33 586.236 1016.57 584.646 1016.57ZM577.348 1002.55H589.749C589.749 1000.2 589.241 998.415 588.223 997.206C587.237 995.966 585.838 995.346 584.026 995.346C582.404 995.346 580.941 995.982 579.637 997.254C578.365 998.494 577.602 1000.26 577.348 1002.55ZM598.912 1016V992.818H602.156L602.49 996.157H602.633C603.746 995.044 604.922 994.122 606.163 993.39C607.403 992.627 608.818 992.246 610.408 992.246C612.856 992.246 614.637 993.025 615.75 994.583C616.895 996.109 617.467 998.351 617.467 1001.31V1016H613.556V1001.83C613.556 999.671 613.206 998.097 612.507 997.111C611.807 996.125 610.694 995.632 609.168 995.632C607.991 995.632 606.926 995.934 605.972 996.539C605.05 997.143 604 998.033 602.824 999.21V1016H598.912ZM632.296 1016.57C629.816 1016.57 628.082 1015.86 627.097 1014.43C626.143 1012.99 625.666 1011.13 625.666 1008.85V996.014H622.231V993.057L625.857 992.818L626.333 986.331H629.625V992.818H635.873V996.014H629.625V1008.89C629.625 1010.32 629.879 1011.44 630.388 1012.23C630.929 1012.99 631.867 1013.38 633.202 1013.38C633.616 1013.38 634.061 1013.31 634.538 1013.19C635.015 1013.03 635.444 1012.88 635.826 1012.76L636.589 1015.71C635.953 1015.94 635.253 1016.13 634.49 1016.29C633.759 1016.48 633.027 1016.57 632.296 1016.57ZM650.664 1016V992.818H653.908L654.242 996.157H654.385C655.403 995.044 656.515 994.122 657.724 993.39C658.932 992.627 660.22 992.246 661.588 992.246C663.368 992.246 664.752 992.643 665.737 993.438C666.755 994.201 667.502 995.283 667.979 996.682C669.188 995.378 670.412 994.313 671.652 993.486C672.892 992.659 674.212 992.246 675.611 992.246C677.996 992.246 679.761 993.025 680.906 994.583C682.082 996.109 682.671 998.351 682.671 1001.31V1016H678.759V1001.83C678.759 999.671 678.41 998.097 677.71 997.111C677.01 996.125 675.929 995.632 674.466 995.632C672.749 995.632 670.809 996.825 668.647 999.21V1016H664.736V1001.83C664.736 999.671 664.386 998.097 663.686 997.111C662.987 996.125 661.89 995.632 660.395 995.632C658.678 995.632 656.738 996.825 654.576 999.21V1016H650.664ZM699.227 1016.57C697.351 1016.57 695.586 1016.1 693.933 1015.14C692.311 1014.19 690.991 1012.8 689.974 1010.99C688.988 1009.18 688.495 1007 688.495 1004.46C688.495 1001.85 688.988 999.639 689.974 997.826C690.991 996.014 692.311 994.631 693.933 993.677C695.586 992.723 697.351 992.246 699.227 992.246C701.135 992.246 702.9 992.723 704.522 993.677C706.144 994.631 707.448 996.014 708.433 997.826C709.451 999.639 709.96 1001.85 709.96 1004.46C709.96 1007 709.451 1009.18 708.433 1010.99C707.448 1012.8 706.144 1014.19 704.522 1015.14C702.9 1016.1 701.135 1016.57 699.227 1016.57ZM699.227 1013.33C701.231 1013.33 702.837 1012.52 704.045 1010.9C705.285 1009.24 705.905 1007.1 705.905 1004.46C705.905 1001.79 705.285 999.623 704.045 997.97C702.837 996.316 701.231 995.489 699.227 995.489C697.256 995.489 695.65 996.316 694.41 997.97C693.169 999.623 692.549 1001.79 692.549 1004.46C692.549 1007.1 693.169 1009.24 694.41 1010.9C695.65 1012.52 697.256 1013.33 699.227 1013.33ZM723.983 1016.57C721.089 1016.57 718.768 1015.52 717.019 1013.42C715.27 1011.29 714.395 1008.3 714.395 1004.46C714.395 1001.94 714.856 999.782 715.779 997.97C716.733 996.125 717.973 994.71 719.499 993.724C721.057 992.739 722.711 992.246 724.46 992.246C725.796 992.246 726.956 992.484 727.942 992.961C728.928 993.438 729.93 994.09 730.947 994.917L730.756 990.958V982.038H734.715V1016H731.472L731.138 1013.28H730.995C730.104 1014.17 729.055 1014.95 727.847 1015.62C726.638 1016.25 725.35 1016.57 723.983 1016.57ZM724.842 1013.28C726.877 1013.28 728.848 1012.22 730.756 1010.09V997.97C729.771 997.079 728.817 996.459 727.894 996.109C727.004 995.728 726.082 995.537 725.128 995.537C723.888 995.537 722.759 995.918 721.741 996.682C720.755 997.413 719.96 998.447 719.356 999.782C718.752 1001.09 718.45 1002.63 718.45 1004.41C718.45 1007.18 719.006 1009.35 720.119 1010.94C721.232 1012.5 722.806 1013.28 724.842 1013.28ZM742.523 1016V992.818H746.435V1016H742.523ZM744.527 988.048C743.763 988.048 743.127 987.825 742.619 987.38C742.142 986.903 741.903 986.267 741.903 985.472C741.903 984.709 742.142 984.089 742.619 983.612C743.127 983.135 743.763 982.897 744.527 982.897C745.29 982.897 745.91 983.135 746.387 983.612C746.896 984.089 747.15 984.709 747.15 985.472C747.15 986.267 746.896 986.903 746.387 987.38C745.91 987.825 745.29 988.048 744.527 988.048ZM754.93 1016V996.014H751.781V993.057L754.93 992.818V989.145C754.93 986.792 755.47 984.932 756.551 983.564C757.664 982.165 759.382 981.466 761.703 981.466C762.434 981.466 763.134 981.545 763.802 981.704C764.469 981.831 765.058 982.006 765.567 982.229L764.708 985.234C763.849 984.852 762.975 984.661 762.084 984.661C759.922 984.661 758.841 986.156 758.841 989.145V992.818H763.754V996.014H758.841V1016H754.93ZM768.19 1016V992.818H772.101V1016H768.19ZM770.193 988.048C769.43 988.048 768.794 987.825 768.285 987.38C767.808 986.903 767.57 986.267 767.57 985.472C767.57 984.709 767.808 984.089 768.285 983.612C768.794 983.135 769.43 982.897 770.193 982.897C770.956 982.897 771.576 983.135 772.053 983.612C772.562 984.089 772.817 984.709 772.817 985.472C772.817 986.267 772.562 986.903 772.053 987.38C771.576 987.825 770.956 988.048 770.193 988.048ZM789.087 1016.57C787.051 1016.57 785.207 1016.1 783.553 1015.14C781.9 1014.19 780.596 1012.8 779.642 1010.99C778.688 1009.18 778.211 1007 778.211 1004.46C778.211 1001.85 778.72 999.639 779.737 997.826C780.787 996.014 782.154 994.631 783.84 993.677C785.557 992.723 787.401 992.246 789.373 992.246C790.899 992.246 792.203 992.516 793.284 993.057C794.397 993.597 795.351 994.233 796.146 994.965L794.143 997.54C793.475 996.936 792.759 996.443 791.996 996.062C791.265 995.68 790.438 995.489 789.516 995.489C788.117 995.489 786.861 995.871 785.748 996.634C784.666 997.365 783.808 998.415 783.172 999.782C782.568 1001.12 782.265 1002.68 782.265 1004.46C782.265 1007.1 782.917 1009.24 784.221 1010.9C785.557 1012.52 787.29 1013.33 789.42 1013.33C790.502 1013.33 791.503 1013.11 792.425 1012.66C793.348 1012.18 794.159 1011.63 794.858 1010.99L796.575 1013.62C795.526 1014.54 794.365 1015.27 793.093 1015.81C791.821 1016.32 790.486 1016.57 789.087 1016.57ZM806.558 1016.57C804.619 1016.57 802.997 1016 801.693 1014.86C800.421 1013.68 799.785 1012.06 799.785 1009.99C799.785 1007.45 800.914 1005.51 803.172 1004.17C805.461 1002.8 809.07 1001.85 813.999 1001.31C813.999 1000.32 813.856 999.385 813.57 998.494C813.316 997.604 812.839 996.888 812.139 996.348C811.471 995.775 810.501 995.489 809.229 995.489C807.894 995.489 806.638 995.744 805.461 996.252C804.285 996.761 803.235 997.334 802.313 997.97L800.787 995.251C801.868 994.551 803.188 993.883 804.746 993.247C806.336 992.58 808.053 992.246 809.897 992.246C812.727 992.246 814.779 993.12 816.051 994.869C817.322 996.586 817.958 998.892 817.958 1001.79V1016H814.715L814.381 1013.23H814.238C813.157 1014.12 811.964 1014.9 810.66 1015.57C809.388 1016.24 808.021 1016.57 806.558 1016.57ZM807.703 1013.42C808.816 1013.42 809.865 1013.15 810.851 1012.61C811.837 1012.07 812.886 1011.31 813.999 1010.32V1003.88C810.152 1004.36 807.449 1005.08 805.891 1006.03C804.364 1006.98 803.601 1008.21 803.601 1009.7C803.601 1011.01 803.998 1011.96 804.793 1012.57C805.588 1013.14 806.558 1013.42 807.703 1013.42ZM831.898 1016.57C829.418 1016.57 827.684 1015.86 826.699 1014.43C825.745 1012.99 825.268 1011.13 825.268 1008.85V996.014H821.833V993.057L825.458 992.818L825.935 986.331H829.227V992.818H835.475V996.014H829.227V1008.89C829.227 1010.32 829.481 1011.44 829.99 1012.23C830.531 1012.99 831.469 1013.38 832.804 1013.38C833.218 1013.38 833.663 1013.31 834.14 1013.19C834.617 1013.03 835.046 1012.88 835.428 1012.76L836.191 1015.71C835.555 1015.94 834.855 1016.13 834.092 1016.29C833.361 1016.48 832.629 1016.57 831.898 1016.57ZM840.717 1016V992.818H844.629V1016H840.717ZM842.721 988.048C841.957 988.048 841.321 987.825 840.813 987.38C840.336 986.903 840.097 986.267 840.097 985.472C840.097 984.709 840.336 984.089 840.813 983.612C841.321 983.135 841.957 982.897 842.721 982.897C843.484 982.897 844.104 983.135 844.581 983.612C845.09 984.089 845.344 984.709 845.344 985.472C845.344 986.267 845.09 986.903 844.581 987.38C844.104 987.825 843.484 988.048 842.721 988.048ZM861.471 1016.57C859.595 1016.57 857.83 1016.1 856.176 1015.14C854.554 1014.19 853.235 1012.8 852.217 1010.99C851.231 1009.18 850.739 1007 850.739 1004.46C850.739 1001.85 851.231 999.639 852.217 997.826C853.235 996.014 854.554 994.631 856.176 993.677C857.83 992.723 859.595 992.246 861.471 992.246C863.379 992.246 865.144 992.723 866.766 993.677C868.387 994.631 869.691 996.014 870.677 997.826C871.695 999.639 872.203 1001.85 872.203 1004.46C872.203 1007 871.695 1009.18 870.677 1010.99C869.691 1012.8 868.387 1014.19 866.766 1015.14C865.144 1016.1 863.379 1016.57 861.471 1016.57ZM861.471 1013.33C863.474 1013.33 865.08 1012.52 866.289 1010.9C867.529 1009.24 868.149 1007.1 868.149 1004.46C868.149 1001.79 867.529 999.623 866.289 997.97C865.08 996.316 863.474 995.489 861.471 995.489C859.499 995.489 857.893 996.316 856.653 997.97C855.413 999.623 854.793 1001.79 854.793 1004.46C854.793 1007.1 855.413 1009.24 856.653 1010.9C857.893 1012.52 859.499 1013.33 861.471 1013.33ZM878.308 1016V992.818H881.552L881.886 996.157H882.029C883.142 995.044 884.319 994.122 885.559 993.39C886.799 992.627 888.214 992.246 889.804 992.246C892.253 992.246 894.033 993.025 895.146 994.583C896.291 996.109 896.864 998.351 896.864 1001.31V1016H892.952V1001.83C892.952 999.671 892.602 998.097 891.903 997.111C891.203 996.125 890.09 995.632 888.564 995.632C887.387 995.632 886.322 995.934 885.368 996.539C884.446 997.143 883.396 998.033 882.22 999.21V1016H878.308ZM910.452 1016.57C908.798 1016.57 907.224 1016.27 905.73 1015.67C904.235 1015.03 902.931 1014.27 901.818 1013.38L903.774 1010.75C904.792 1011.55 905.841 1012.22 906.922 1012.76C908.003 1013.27 909.228 1013.52 910.595 1013.52C912.121 1013.52 913.266 1013.17 914.029 1012.47C914.793 1011.74 915.174 1010.88 915.174 1009.89C915.174 1009.1 914.904 1008.43 914.363 1007.89C913.855 1007.35 913.187 1006.91 912.36 1006.56C911.565 1006.17 910.738 1005.82 909.88 1005.51C908.798 1005.09 907.733 1004.63 906.684 1004.12C905.634 1003.58 904.776 1002.9 904.108 1002.07C903.44 1001.21 903.106 1000.13 903.106 998.828C903.106 996.952 903.806 995.394 905.205 994.154C906.636 992.882 908.608 992.246 911.12 992.246C912.551 992.246 913.886 992.5 915.127 993.009C916.367 993.518 917.432 994.138 918.322 994.869L916.414 997.349C915.619 996.745 914.793 996.252 913.934 995.871C913.075 995.489 912.137 995.298 911.12 995.298C909.657 995.298 908.576 995.632 907.876 996.3C907.208 996.968 906.875 997.747 906.875 998.637C906.875 999.369 907.113 999.973 907.59 1000.45C908.067 1000.9 908.687 1001.29 909.45 1001.64C910.213 1001.96 911.024 1002.29 911.883 1002.64C912.996 1003.06 914.093 1003.53 915.174 1004.08C916.255 1004.58 917.146 1005.28 917.845 1006.17C918.577 1007.03 918.943 1008.19 918.943 1009.66C918.943 1010.9 918.609 1012.04 917.941 1013.09C917.305 1014.14 916.351 1014.98 915.079 1015.62C913.839 1016.25 912.296 1016.57 910.452 1016.57Z" fill="black"/>
<path d="M1201.32 609.715C1202.27 608.71 1202.22 607.128 1201.21 606.181L1184.84 590.748C1183.84 589.801 1182.25 589.848 1181.31 590.853C1180.36 591.857 1180.41 593.44 1181.41 594.387L1195.97 608.104L1182.25 622.658C1181.3 623.663 1181.35 625.245 1182.35 626.192C1183.36 627.139 1184.94 627.093 1185.89 626.088L1201.32 609.715ZM827.574 621.499L1199.57 610.499L1199.43 605.501L827.426 616.501L827.574 621.499Z" fill="black"/>
</g>
<defs>
<clipPath id="clip0_4_206">
<rect width="1920" height="1080" fill="white"/>
</clipPath>
</defs>
</svg>
