<svg width="1920" height="1080" viewBox="0 0 1920 1080" fill="none" xmlns="http://www.w3.org/2000/svg">
<rect width="1920" height="1080" fill="white"/>
<path d="M234 579H623.5M623.5 579L981 362.5H1357.5H1743.5L1448.5 791.5H981L623.5 579Z" stroke="#AB9F81" stroke-width="31"/>
<path d="M46.2 93V40.52H62.6C66.1733 40.52 69.3467 41 72.12 41.96C74.8933 42.8667 77.0533 44.4133 78.6 46.6C80.2 48.7333 81 51.6133 81 55.24C81 59.2933 79.9333 62.5733 77.8 65.08C75.6667 67.5333 72.7867 69.2133 69.16 70.12L82.52 93H75L62.36 70.84H52.84V93H46.2ZM52.84 65.4H61.64C65.7467 65.4 68.8933 64.5733 71.08 62.92C73.2667 61.2133 74.36 58.6533 74.36 55.24C74.36 51.7733 73.2667 49.3467 71.08 47.96C68.8933 46.5733 65.7467 45.88 61.64 45.88H52.84V65.4ZM106.086 93.96C102.619 93.96 99.4723 93.16 96.6456 91.56C93.819 89.9067 91.579 87.56 89.9256 84.52C88.2723 81.48 87.4456 77.8533 87.4456 73.64C87.4456 69.3733 88.2723 65.72 89.9256 62.68C91.6323 59.64 93.819 57.2933 96.4856 55.64C99.1523 53.9867 101.952 53.16 104.886 53.16C109.846 53.16 113.659 54.8133 116.326 58.12C119.046 61.4267 120.406 65.8533 120.406 71.4C120.406 72.0933 120.379 72.7867 120.326 73.48C120.326 74.12 120.272 74.68 120.166 75.16H93.9256C94.1923 79.2667 95.4723 82.5467 97.7656 85C100.112 87.4533 103.152 88.68 106.886 88.68C108.752 88.68 110.459 88.4133 112.006 87.88C113.606 87.2933 115.126 86.5467 116.566 85.64L118.886 89.96C117.232 91.0267 115.339 91.96 113.206 92.76C111.126 93.56 108.752 93.96 106.086 93.96ZM93.8456 70.44H114.646C114.646 66.4933 113.792 63.5067 112.086 61.48C110.432 59.4 108.086 58.36 105.046 58.36C102.326 58.36 99.8723 59.4267 97.6856 61.56C95.5523 63.64 94.2723 66.6 93.8456 70.44ZM130.013 109.4V54.12H135.453L136.013 58.6H136.253C138.013 57.1067 139.933 55.8267 142.013 54.76C144.146 53.6933 146.36 53.16 148.653 53.16C153.666 53.16 157.48 54.9733 160.093 58.6C162.706 62.1733 164.013 66.9733 164.013 73C164.013 77.3733 163.213 81.1333 161.613 84.28C160.066 87.4267 158.013 89.8267 155.453 91.48C152.946 93.1333 150.2 93.96 147.213 93.96C145.4 93.96 143.586 93.56 141.773 92.76C140.013 91.96 138.226 90.8667 136.413 89.48L136.573 96.28V109.4H130.013ZM146.093 88.44C149.293 88.44 151.933 87.08 154.013 84.36C156.146 81.5867 157.213 77.8 157.213 73C157.213 68.7333 156.413 65.2933 154.813 62.68C153.266 60.0133 150.653 58.68 146.973 58.68C145.32 58.68 143.64 59.1333 141.933 60.04C140.28 60.9467 138.493 62.2533 136.573 63.96V84.36C138.333 85.8533 140.04 86.92 141.693 87.56C143.346 88.1467 144.813 88.44 146.093 88.44ZM189.508 93.96C186.361 93.96 183.401 93.16 180.628 91.56C177.908 89.96 175.695 87.64 173.988 84.6C172.335 81.56 171.508 77.9067 171.508 73.64C171.508 69.2667 172.335 65.56 173.988 62.52C175.695 59.48 177.908 57.16 180.628 55.56C183.401 53.96 186.361 53.16 189.508 53.16C192.708 53.16 195.668 53.96 198.388 55.56C201.108 57.16 203.295 59.48 204.948 62.52C206.655 65.56 207.508 69.2667 207.508 73.64C207.508 77.9067 206.655 81.56 204.948 84.6C203.295 87.64 201.108 89.96 198.388 91.56C195.668 93.16 192.708 93.96 189.508 93.96ZM189.508 88.52C192.868 88.52 195.561 87.16 197.588 84.44C199.668 81.6667 200.708 78.0667 200.708 73.64C200.708 69.16 199.668 65.5333 197.588 62.76C195.561 59.9867 192.868 58.6 189.508 58.6C186.201 58.6 183.508 59.9867 181.428 62.76C179.348 65.5333 178.308 69.16 178.308 73.64C178.308 78.0667 179.348 81.6667 181.428 84.44C183.508 87.16 186.201 88.52 189.508 88.52ZM227.908 93.96C225.134 93.96 222.494 93.4533 219.988 92.44C217.481 91.3733 215.294 90.0933 213.428 88.6L216.708 84.2C218.414 85.5333 220.174 86.6533 221.988 87.56C223.801 88.4133 225.854 88.84 228.148 88.84C230.708 88.84 232.628 88.2533 233.908 87.08C235.188 85.8533 235.828 84.4133 235.828 82.76C235.828 81.4267 235.374 80.3067 234.468 79.4C233.614 78.4933 232.494 77.7467 231.108 77.16C229.774 76.52 228.388 75.9333 226.948 75.4C225.134 74.7067 223.348 73.9333 221.588 73.08C219.828 72.1733 218.388 71.0267 217.268 69.64C216.148 68.2 215.588 66.3867 215.588 64.2C215.588 61.0533 216.761 58.44 219.108 56.36C221.508 54.2267 224.814 53.16 229.028 53.16C231.428 53.16 233.668 53.5867 235.748 54.44C237.828 55.2933 239.614 56.3333 241.108 57.56L237.908 61.72C236.574 60.7067 235.188 59.88 233.748 59.24C232.308 58.6 230.734 58.28 229.028 58.28C226.574 58.28 224.761 58.84 223.588 59.96C222.468 61.08 221.908 62.3867 221.908 63.88C221.908 65.1067 222.308 66.12 223.108 66.92C223.908 67.6667 224.948 68.3333 226.228 68.92C227.508 69.4533 228.868 70.0133 230.308 70.6C232.174 71.2933 234.014 72.0933 235.828 73C237.641 73.8533 239.134 75.0267 240.308 76.52C241.534 77.96 242.148 79.9067 242.148 82.36C242.148 84.44 241.588 86.36 240.468 88.12C239.401 89.88 237.801 91.2933 235.668 92.36C233.588 93.4267 231.001 93.96 227.908 93.96ZM251.263 93V54.12H257.823V93H251.263ZM254.623 46.12C253.343 46.12 252.276 45.7467 251.423 45C250.623 44.2 250.223 43.1333 250.223 41.8C250.223 40.52 250.623 39.48 251.423 38.68C252.276 37.88 253.343 37.48 254.623 37.48C255.903 37.48 256.943 37.88 257.743 38.68C258.596 39.48 259.023 40.52 259.023 41.8C259.023 43.1333 258.596 44.2 257.743 45C256.943 45.7467 255.903 46.12 254.623 46.12ZM283.191 93.96C279.031 93.96 276.124 92.76 274.471 90.36C272.871 87.96 272.071 84.84 272.071 81V59.48H266.311V54.52L272.391 54.12L273.191 43.24H278.711V54.12H289.191V59.48H278.711V81.08C278.711 83.48 279.137 85.3467 279.991 86.68C280.897 87.96 282.471 88.6 284.711 88.6C285.404 88.6 286.151 88.4933 286.951 88.28C287.751 88.0133 288.471 87.7733 289.111 87.56L290.391 92.52C289.324 92.8933 288.151 93.2133 286.871 93.48C285.644 93.8 284.417 93.96 283.191 93.96ZM312.008 93.96C308.861 93.96 305.901 93.16 303.128 91.56C300.408 89.96 298.195 87.64 296.488 84.6C294.835 81.56 294.008 77.9067 294.008 73.64C294.008 69.2667 294.835 65.56 296.488 62.52C298.195 59.48 300.408 57.16 303.128 55.56C305.901 53.96 308.861 53.16 312.008 53.16C315.208 53.16 318.168 53.96 320.888 55.56C323.608 57.16 325.795 59.48 327.448 62.52C329.155 65.56 330.008 69.2667 330.008 73.64C330.008 77.9067 329.155 81.56 327.448 84.6C325.795 87.64 323.608 89.96 320.888 91.56C318.168 93.16 315.208 93.96 312.008 93.96ZM312.008 88.52C315.368 88.52 318.061 87.16 320.088 84.44C322.168 81.6667 323.208 78.0667 323.208 73.64C323.208 69.16 322.168 65.5333 320.088 62.76C318.061 59.9867 315.368 58.6 312.008 58.6C308.701 58.6 306.008 59.9867 303.928 62.76C301.848 65.5333 300.808 69.16 300.808 73.64C300.808 78.0667 301.848 81.6667 303.928 84.44C306.008 87.16 308.701 88.52 312.008 88.52ZM340.248 93V54.12H345.688L346.248 61.16H346.488C347.821 58.7067 349.448 56.76 351.368 55.32C353.288 53.88 355.341 53.16 357.528 53.16C359.074 53.16 360.461 53.4267 361.688 53.96L360.408 59.72C359.768 59.5067 359.181 59.3467 358.648 59.24C358.114 59.1333 357.448 59.08 356.648 59.08C354.994 59.08 353.261 59.7467 351.448 61.08C349.688 62.4133 348.141 64.7333 346.808 68.04V93H340.248ZM370.653 109.72C369.8 109.72 368.973 109.64 368.173 109.48C367.426 109.32 366.733 109.133 366.093 108.92L367.373 103.72C367.8 103.827 368.28 103.933 368.813 104.04C369.346 104.2 369.853 104.28 370.333 104.28C372.52 104.28 374.333 103.48 375.773 101.88C377.213 100.333 378.333 98.36 379.133 95.96L380.013 93.08L364.413 54.12H371.213L379.133 75.64C379.72 77.2933 380.333 79.08 380.973 81C381.666 82.92 382.306 84.7867 382.893 86.6H383.213C383.8 84.84 384.36 83 384.893 81.08C385.426 79.16 385.96 77.3467 386.493 75.64L393.453 54.12H399.853L385.213 96.2C384.306 98.76 383.213 101.053 381.933 103.08C380.706 105.107 379.16 106.707 377.293 107.88C375.48 109.107 373.266 109.72 370.653 109.72Z" fill="black"/>
<circle cx="229.327" cy="577.958" r="105.327" fill="#343434"/>
<path d="M208.861 501.768V525.085M239.889 659.065H208.861V580.417M208.861 580.417H239.889V607.455M208.861 580.417V553.064M208.861 553.064H239.889M208.861 553.064V525.085M208.861 525.085H239.889M271.456 634.493H239.889V607.455M239.889 607.455H271.456" stroke="#A4C6DF" stroke-width="1.79358"/>
<path d="M194.512 497.121V488.496L204.556 488.496L208.907 493.44L194.512 497.121Z" fill="#C4933D" stroke="black" stroke-width="0.774989"/>
<path d="M207.299 491.121L222.381 491.115L222.412 510.108H194.512V493.282L205.168 493.252L207.299 491.121Z" fill="#F5CE85" stroke="black" stroke-width="0.774989"/>
<path d="M226.079 522.231V513.606L236.123 513.606L240.474 518.55L226.079 522.231Z" fill="#C4933D" stroke="black" stroke-width="0.774989"/>
<path d="M238.866 516.231L253.948 516.225L253.979 535.218H226.079V518.392L236.735 518.362L238.866 516.231Z" fill="#F5CE85" stroke="black" stroke-width="0.774989"/>
<path d="M226.079 549.852V541.227L236.123 541.227L240.474 546.171L226.079 549.852Z" fill="#C4933D" stroke="black" stroke-width="0.774989"/>
<path d="M238.866 543.852L253.948 543.846L253.979 562.839H226.079V546.014L236.735 545.983L238.866 543.852Z" fill="#F5CE85" stroke="black" stroke-width="0.774989"/>
<path d="M226.079 655.315V646.689L236.123 646.689L240.474 651.634L226.079 655.315Z" fill="#C4933D" stroke="black" stroke-width="0.774989"/>
<path d="M238.866 649.314L253.948 649.309L253.979 668.301H226.079V651.476L236.735 651.445L238.866 649.314Z" fill="#F5CE85" stroke="black" stroke-width="0.774989"/>
<path d="M257.646 630.205V621.579L267.69 621.579L272.041 626.523L257.646 630.205Z" fill="#C4933D" stroke="black" stroke-width="0.774989"/>
<path d="M270.433 624.204L285.515 624.199L285.545 643.191H257.646V626.366L268.302 626.335L270.433 624.204Z" fill="#F5CE85" stroke="black" stroke-width="0.774989"/>
<path d="M226.079 577.474V568.848L236.123 568.848L240.474 573.792L226.079 577.474Z" fill="#C4933D" stroke="black" stroke-width="0.774989"/>
<path d="M238.866 571.473L253.948 571.467L253.979 590.46H226.079V573.635L236.735 573.604L238.866 571.473Z" fill="#F5CE85" stroke="black" stroke-width="0.774989"/>
<path d="M257.646 602.584V593.958L267.69 593.958L272.041 598.902L257.646 602.584Z" fill="#C4933D" stroke="black" stroke-width="0.774989"/>
<path d="M270.433 596.583L285.515 596.577L285.545 615.57H257.646V598.745L268.302 598.714L270.433 596.583Z" fill="#F5CE85" stroke="black" stroke-width="0.774989"/>
<circle cx="621.43" cy="571.982" r="105.327" fill="#343434"/>
<path d="M600.963 495.792V519.109M631.992 653.089H600.963V574.44M600.963 574.44H631.992V601.479M600.963 574.44V547.088M600.963 547.088H631.992M600.963 547.088V519.109M600.963 519.109H631.992M663.559 628.517H631.992V601.479M631.992 601.479H663.559" stroke="#A4C6DF" stroke-width="1.79358"/>
<path d="M586.615 491.145V482.52L596.659 482.52L601.01 487.464L586.615 491.145Z" fill="#C4933D" stroke="black" stroke-width="0.774989"/>
<path d="M599.402 485.145L614.484 485.139L614.514 504.132H586.615V487.306L597.271 487.276L599.402 485.145Z" fill="#F5CE85" stroke="black" stroke-width="0.774989"/>
<path d="M618.182 516.255V507.63L628.226 507.63L632.577 512.574L618.182 516.255Z" fill="#C4933D" stroke="black" stroke-width="0.774989"/>
<path d="M630.969 510.255L646.051 510.249L646.081 529.242H618.182V512.416L628.838 512.386L630.969 510.255Z" fill="#F5CE85" stroke="black" stroke-width="0.774989"/>
<path d="M618.182 543.876V535.251L628.226 535.251L632.577 540.195L618.182 543.876Z" fill="#C4933D" stroke="black" stroke-width="0.774989"/>
<path d="M630.969 537.876L646.051 537.87L646.081 556.863H618.182V540.038L628.838 540.007L630.969 537.876Z" fill="#F5CE85" stroke="black" stroke-width="0.774989"/>
<path d="M618.182 649.339V640.713L628.226 640.713L632.577 645.658L618.182 649.339Z" fill="#C4933D" stroke="black" stroke-width="0.774989"/>
<path d="M630.969 643.338L646.051 643.333L646.081 662.325H618.182V645.5L628.838 645.469L630.969 643.338Z" fill="#F5CE85" stroke="black" stroke-width="0.774989"/>
<path d="M649.749 624.229V615.603L659.793 615.603L664.143 620.547L649.749 624.229Z" fill="#C4933D" stroke="black" stroke-width="0.774989"/>
<path d="M662.536 618.228L677.618 618.223L677.648 637.215H649.749V620.39L660.405 620.359L662.536 618.228Z" fill="#F5CE85" stroke="black" stroke-width="0.774989"/>
<path d="M618.182 571.498V562.872L628.226 562.872L632.577 567.816L618.182 571.498Z" fill="#C4933D" stroke="black" stroke-width="0.774989"/>
<path d="M630.969 565.497L646.051 565.491L646.081 584.484H618.182V567.659L628.838 567.628L630.969 565.497Z" fill="#F5CE85" stroke="black" stroke-width="0.774989"/>
<path d="M649.749 596.608V587.982L659.793 587.982L664.143 592.926L649.749 596.608Z" fill="#C4933D" stroke="black" stroke-width="0.774989"/>
<path d="M662.536 590.607L677.618 590.601L677.648 609.594H649.749V592.769L660.405 592.738L662.536 590.607Z" fill="#F5CE85" stroke="black" stroke-width="0.774989"/>
<circle cx="975.702" cy="361.327" r="105.327" fill="#343434"/>
<path d="M955.235 285.138V308.454M986.264 442.434H955.235V363.786M955.235 363.786H986.264V390.824M955.235 363.786V336.434M955.235 336.434H986.264M955.235 336.434V308.454M955.235 308.454H986.264M1017.83 417.862H986.264V390.824M986.264 390.824H1017.83" stroke="#A4C6DF" stroke-width="1.79358"/>
<path d="M940.887 280.491V271.865L950.931 271.865L955.281 276.81L940.887 280.491Z" fill="#C4933D" stroke="black" stroke-width="0.774989"/>
<path d="M953.674 274.49L968.756 274.485L968.786 293.477H940.887V276.652L951.543 276.621L953.674 274.49Z" fill="#F5CE85" stroke="black" stroke-width="0.774989"/>
<path d="M972.454 305.601V296.975L982.498 296.975L986.848 301.92L972.454 305.601Z" fill="#C4933D" stroke="black" stroke-width="0.774989"/>
<path d="M985.241 299.6L1000.32 299.595L1000.35 318.587H972.454V301.762L983.11 301.731L985.241 299.6Z" fill="#F5CE85" stroke="black" stroke-width="0.774989"/>
<path d="M972.454 333.222V324.596L982.498 324.596L986.848 329.541L972.454 333.222Z" fill="#C4933D" stroke="black" stroke-width="0.774989"/>
<path d="M985.241 327.221L1000.32 327.216L1000.35 346.208H972.454V329.383L983.11 329.352L985.241 327.221Z" fill="#F5CE85" stroke="black" stroke-width="0.774989"/>
<path d="M972.454 438.684V430.059L982.498 430.059L986.848 435.003L972.454 438.684Z" fill="#C4933D" stroke="black" stroke-width="0.774989"/>
<path d="M985.241 432.684L1000.32 432.678L1000.35 451.671H972.454V434.845L983.11 434.815L985.241 432.684Z" fill="#F5CE85" stroke="black" stroke-width="0.774989"/>
<path d="M1004.02 413.574V404.949L1014.06 404.949L1018.42 409.893L1004.02 413.574Z" fill="#C4933D" stroke="black" stroke-width="0.774989"/>
<path d="M1016.81 407.573L1031.89 407.568L1031.92 426.561H1004.02V409.735L1014.68 409.705L1016.81 407.573Z" fill="#F5CE85" stroke="black" stroke-width="0.774989"/>
<path d="M972.454 360.843V352.217L982.498 352.217L986.848 357.162L972.454 360.843Z" fill="#C4933D" stroke="black" stroke-width="0.774989"/>
<path d="M985.241 354.842L1000.32 354.837L1000.35 373.83H972.454V357.004L983.11 356.973L985.241 354.842Z" fill="#F5CE85" stroke="black" stroke-width="0.774989"/>
<path d="M1004.02 385.953V377.327L1014.06 377.327L1018.42 382.272L1004.02 385.953Z" fill="#C4933D" stroke="black" stroke-width="0.774989"/>
<path d="M1016.81 379.952L1031.89 379.947L1031.92 398.94H1004.02V382.114L1014.68 382.084L1016.81 379.952Z" fill="#F5CE85" stroke="black" stroke-width="0.774989"/>
<circle cx="1356.67" cy="361.327" r="105.327" fill="#343434"/>
<path d="M1336.21 285.138V308.454M1367.23 442.434H1336.21V363.786M1336.21 363.786H1367.23V390.824M1336.21 363.786V336.434M1336.21 336.434H1367.23M1336.21 336.434V308.454M1336.21 308.454H1367.23M1398.8 417.862H1367.23V390.824M1367.23 390.824H1398.8" stroke="#A4C6DF" stroke-width="1.79358"/>
<path d="M1321.86 280.491V271.865L1331.9 271.865L1336.25 276.81L1321.86 280.491Z" fill="#C4933D" stroke="black" stroke-width="0.774989"/>
<path d="M1334.64 274.49L1349.73 274.485L1349.76 293.477H1321.86V276.652L1332.51 276.621L1334.64 274.49Z" fill="#F5CE85" stroke="black" stroke-width="0.774989"/>
<path d="M1353.42 305.601V296.975L1363.47 296.975L1367.82 301.92L1353.42 305.601Z" fill="#C4933D" stroke="black" stroke-width="0.774989"/>
<path d="M1366.21 299.6L1381.29 299.595L1381.32 318.587H1353.42V301.762L1364.08 301.731L1366.21 299.6Z" fill="#F5CE85" stroke="black" stroke-width="0.774989"/>
<path d="M1353.42 333.222V324.596L1363.47 324.596L1367.82 329.541L1353.42 333.222Z" fill="#C4933D" stroke="black" stroke-width="0.774989"/>
<path d="M1366.21 327.221L1381.29 327.216L1381.32 346.208H1353.42V329.383L1364.08 329.352L1366.21 327.221Z" fill="#F5CE85" stroke="black" stroke-width="0.774989"/>
<path d="M1353.42 438.684V430.059L1363.47 430.059L1367.82 435.003L1353.42 438.684Z" fill="#C4933D" stroke="black" stroke-width="0.774989"/>
<path d="M1366.21 432.684L1381.29 432.678L1381.32 451.671H1353.42V434.845L1364.08 434.815L1366.21 432.684Z" fill="#F5CE85" stroke="black" stroke-width="0.774989"/>
<path d="M1384.99 413.574V404.949L1395.04 404.949L1399.39 409.893L1384.99 413.574Z" fill="#C4933D" stroke="black" stroke-width="0.774989"/>
<path d="M1397.78 407.573L1412.86 407.568L1412.89 426.561H1384.99V409.735L1395.65 409.705L1397.78 407.573Z" fill="#F5CE85" stroke="black" stroke-width="0.774989"/>
<path d="M1353.42 360.843V352.217L1363.47 352.217L1367.82 357.162L1353.42 360.843Z" fill="#C4933D" stroke="black" stroke-width="0.774989"/>
<path d="M1366.21 354.842L1381.29 354.837L1381.32 373.83H1353.42V357.004L1364.08 356.973L1366.21 354.842Z" fill="#F5CE85" stroke="black" stroke-width="0.774989"/>
<path d="M1384.99 385.953V377.327L1395.04 377.327L1399.39 382.272L1384.99 385.953Z" fill="#C4933D" stroke="black" stroke-width="0.774989"/>
<path d="M1397.78 379.952L1412.86 379.947L1412.89 398.94H1384.99V382.114L1395.65 382.084L1397.78 379.952Z" fill="#F5CE85" stroke="black" stroke-width="0.774989"/>
<circle cx="1737.33" cy="364.327" r="105.327" fill="#343434"/>
<path d="M1716.86 288.138V311.454M1747.89 445.434H1716.86V366.786M1716.86 366.786H1747.89V393.824M1716.86 366.786V339.434M1716.86 339.434H1747.89M1716.86 339.434V311.454M1716.86 311.454H1747.89M1779.46 420.862H1747.89V393.824M1747.89 393.824H1779.46" stroke="#A4C6DF" stroke-width="1.79358"/>
<path d="M1702.51 283.491V274.865L1712.56 274.865L1716.91 279.81L1702.51 283.491Z" fill="#C4933D" stroke="black" stroke-width="0.774989"/>
<path d="M1715.3 277.49L1730.38 277.485L1730.41 296.477H1702.51V279.652L1713.17 279.621L1715.3 277.49Z" fill="#F5CE85" stroke="black" stroke-width="0.774989"/>
<path d="M1734.08 308.601V299.975L1744.12 299.975L1748.47 304.92L1734.08 308.601Z" fill="#C4933D" stroke="black" stroke-width="0.774989"/>
<path d="M1746.87 302.6L1761.95 302.595L1761.98 321.587H1734.08V304.762L1744.73 304.731L1746.87 302.6Z" fill="#F5CE85" stroke="black" stroke-width="0.774989"/>
<path d="M1734.08 336.222V327.596L1744.12 327.596L1748.47 332.541L1734.08 336.222Z" fill="#C4933D" stroke="black" stroke-width="0.774989"/>
<path d="M1746.87 330.221L1761.95 330.216L1761.98 349.208H1734.08V332.383L1744.73 332.352L1746.87 330.221Z" fill="#F5CE85" stroke="black" stroke-width="0.774989"/>
<path d="M1734.08 441.684V433.059L1744.12 433.059L1748.47 438.003L1734.08 441.684Z" fill="#C4933D" stroke="black" stroke-width="0.774989"/>
<path d="M1746.87 435.683L1761.95 435.678L1761.98 454.671H1734.08V437.845L1744.73 437.815L1746.87 435.683Z" fill="#F5CE85" stroke="black" stroke-width="0.774989"/>
<path d="M1765.65 416.574V407.949L1775.69 407.949L1780.04 412.893L1765.65 416.574Z" fill="#C4933D" stroke="black" stroke-width="0.774989"/>
<path d="M1778.43 410.573L1793.52 410.568L1793.55 429.561H1765.65V412.735L1776.3 412.705L1778.43 410.573Z" fill="#F5CE85" stroke="black" stroke-width="0.774989"/>
<path d="M1734.08 363.843V355.217L1744.12 355.217L1748.47 360.162L1734.08 363.843Z" fill="#C4933D" stroke="black" stroke-width="0.774989"/>
<path d="M1746.87 357.842L1761.95 357.837L1761.98 376.83H1734.08V360.004L1744.73 359.973L1746.87 357.842Z" fill="#F5CE85" stroke="black" stroke-width="0.774989"/>
<path d="M1765.65 388.953V380.327L1775.69 380.327L1780.04 385.272L1765.65 388.953Z" fill="#C4933D" stroke="black" stroke-width="0.774989"/>
<path d="M1778.43 382.952L1793.52 382.947L1793.55 401.94H1765.65V385.114L1776.3 385.084L1778.43 382.952Z" fill="#F5CE85" stroke="black" stroke-width="0.774989"/>
<circle cx="978.69" cy="788.612" r="105.327" fill="#343434"/>
<path d="M958.223 712.423V735.739M989.252 869.719H958.223V791.071M958.223 791.071H989.252V818.109M958.223 791.071V763.719M958.223 763.719H989.252M958.223 763.719V735.739M958.223 735.739H989.252M1020.82 845.147H989.252V818.109M989.252 818.109H1020.82" stroke="#A4C6DF" stroke-width="1.79358"/>
<path d="M943.875 707.776V699.15L953.919 699.15L958.269 704.095L943.875 707.776Z" fill="#C4933D" stroke="black" stroke-width="0.774989"/>
<path d="M956.662 701.775L971.744 701.77L971.774 720.762H943.875V703.937L954.531 703.906L956.662 701.775Z" fill="#F5CE85" stroke="black" stroke-width="0.774989"/>
<path d="M975.442 732.886V724.26L985.486 724.26L989.836 729.205L975.442 732.886Z" fill="#C4933D" stroke="black" stroke-width="0.774989"/>
<path d="M988.229 726.885L1003.31 726.88L1003.34 745.872H975.442V729.047L986.098 729.016L988.229 726.885Z" fill="#F5CE85" stroke="black" stroke-width="0.774989"/>
<path d="M975.442 760.507V751.881L985.486 751.881L989.836 756.826L975.442 760.507Z" fill="#C4933D" stroke="black" stroke-width="0.774989"/>
<path d="M988.229 754.506L1003.31 754.501L1003.34 773.493H975.442V756.668L986.098 756.637L988.229 754.506Z" fill="#F5CE85" stroke="black" stroke-width="0.774989"/>
<path d="M975.442 865.969V857.344L985.486 857.344L989.836 862.288L975.442 865.969Z" fill="#C4933D" stroke="black" stroke-width="0.774989"/>
<path d="M988.229 859.968L1003.31 859.963L1003.34 878.956H975.442V862.13L986.098 862.1L988.229 859.968Z" fill="#F5CE85" stroke="black" stroke-width="0.774989"/>
<path d="M1007.01 840.859V832.234L1017.05 832.234L1021.4 837.178L1007.01 840.859Z" fill="#C4933D" stroke="black" stroke-width="0.774989"/>
<path d="M1019.8 834.858L1034.88 834.853L1034.91 853.846H1007.01V837.02L1017.66 836.99L1019.8 834.858Z" fill="#F5CE85" stroke="black" stroke-width="0.774989"/>
<path d="M975.442 788.128V779.502L985.486 779.502L989.836 784.447L975.442 788.128Z" fill="#C4933D" stroke="black" stroke-width="0.774989"/>
<path d="M988.229 782.127L1003.31 782.122L1003.34 801.114H975.442V784.289L986.098 784.258L988.229 782.127Z" fill="#F5CE85" stroke="black" stroke-width="0.774989"/>
<path d="M1007.01 813.238V804.612L1017.05 804.612L1021.4 809.557L1007.01 813.238Z" fill="#C4933D" stroke="black" stroke-width="0.774989"/>
<path d="M1019.8 807.237L1034.88 807.232L1034.91 826.225H1007.01V809.399L1017.66 809.369L1019.8 807.237Z" fill="#F5CE85" stroke="black" stroke-width="0.774989"/>
<circle cx="1446.33" cy="792.327" r="105.327" fill="#343434"/>
<path d="M1425.86 716.138V739.454M1456.89 873.434H1425.86V794.786M1425.86 794.786H1456.89V821.824M1425.86 794.786V767.434M1425.86 767.434H1456.89M1425.86 767.434V739.454M1425.86 739.454H1456.89M1488.46 848.862H1456.89V821.824M1456.89 821.824H1488.46" stroke="#A4C6DF" stroke-width="1.79358"/>
<path d="M1411.51 711.491V702.865L1421.56 702.865L1425.91 707.81L1411.51 711.491Z" fill="#C4933D" stroke="black" stroke-width="0.774989"/>
<path d="M1424.3 705.49L1439.38 705.485L1439.41 724.477H1411.51V707.652L1422.17 707.621L1424.3 705.49Z" fill="#F5CE85" stroke="black" stroke-width="0.774989"/>
<path d="M1443.08 736.601V727.975L1453.12 727.975L1457.47 732.92L1443.08 736.601Z" fill="#C4933D" stroke="black" stroke-width="0.774989"/>
<path d="M1455.87 730.6L1470.95 730.595L1470.98 749.587H1443.08V732.762L1453.73 732.731L1455.87 730.6Z" fill="#F5CE85" stroke="black" stroke-width="0.774989"/>
<path d="M1443.08 764.222V755.596L1453.12 755.596L1457.47 760.541L1443.08 764.222Z" fill="#C4933D" stroke="black" stroke-width="0.774989"/>
<path d="M1455.87 758.221L1470.95 758.216L1470.98 777.208H1443.08V760.383L1453.73 760.352L1455.87 758.221Z" fill="#F5CE85" stroke="black" stroke-width="0.774989"/>
<path d="M1443.08 869.684V861.059L1453.12 861.059L1457.47 866.003L1443.08 869.684Z" fill="#C4933D" stroke="black" stroke-width="0.774989"/>
<path d="M1455.87 863.683L1470.95 863.678L1470.98 882.671H1443.08V865.845L1453.73 865.815L1455.87 863.683Z" fill="#F5CE85" stroke="black" stroke-width="0.774989"/>
<path d="M1474.65 844.574V835.949L1484.69 835.949L1489.04 840.893L1474.65 844.574Z" fill="#C4933D" stroke="black" stroke-width="0.774989"/>
<path d="M1487.43 838.573L1502.52 838.568L1502.55 857.561H1474.65V840.735L1485.3 840.705L1487.43 838.573Z" fill="#F5CE85" stroke="black" stroke-width="0.774989"/>
<path d="M1443.08 791.843V783.217L1453.12 783.217L1457.47 788.162L1443.08 791.843Z" fill="#C4933D" stroke="black" stroke-width="0.774989"/>
<path d="M1455.87 785.842L1470.95 785.837L1470.98 804.83H1443.08V788.004L1453.73 787.973L1455.87 785.842Z" fill="#F5CE85" stroke="black" stroke-width="0.774989"/>
<path d="M1474.65 816.953V808.327L1484.69 808.327L1489.04 813.272L1474.65 816.953Z" fill="#C4933D" stroke="black" stroke-width="0.774989"/>
<path d="M1487.43 810.952L1502.52 810.947L1502.55 829.94H1474.65V813.114L1485.3 813.084L1487.43 810.952Z" fill="#F5CE85" stroke="black" stroke-width="0.774989"/>
<path d="M405 545.333L446 578.258L405 613.667" stroke="#AB9F81" stroke-width="6.21212"/>
<path d="M1145 328L1186 360.924L1145 396.333" stroke="#AB9F81" stroke-width="6.21212"/>
<path d="M1230 757L1271 789.924L1230 825.333" stroke="#AB9F81" stroke-width="6.21212"/>
<path d="M1534 330L1575 362.924L1534 398.333" stroke="#AB9F81" stroke-width="6.21212"/>
<path d="M800.765 643.323L818.654 692.769L765.219 701.683" stroke="#AB9F81" stroke-width="6.21212"/>
<path d="M765 454.618L817.198 460.976L801.03 512.681" stroke="#AB9F81" stroke-width="6.21212"/>
<path d="M1557.1 575.583L1607.83 561.743L1612.4 615.723" stroke="#AB9F81" stroke-width="6.21212"/>
<path d="M168.5 256V223.2H176.7C181.767 223.2 185.617 224.617 188.25 227.45C190.883 230.25 192.2 234.25 192.2 239.45C192.2 244.683 190.883 248.75 188.25 251.65C185.65 254.55 181.867 256 176.9 256H168.5ZM172.65 252.6H176.4C180.233 252.6 183.1 251.45 185 249.15C186.933 246.817 187.9 243.583 187.9 239.45C187.9 235.317 186.933 232.15 185 229.95C183.1 227.717 180.233 226.6 176.4 226.6H172.65V252.6ZM198.862 256V231.7H202.962V256H198.862ZM200.962 226.7C200.162 226.7 199.495 226.467 198.962 226C198.462 225.5 198.212 224.833 198.212 224C198.212 223.2 198.462 222.55 198.962 222.05C199.495 221.55 200.162 221.3 200.962 221.3C201.762 221.3 202.412 221.55 202.912 222.05C203.445 222.55 203.712 223.2 203.712 224C203.712 224.833 203.445 225.5 202.912 226C202.412 226.467 201.762 226.7 200.962 226.7ZM226.116 256V235.05H215.966V256H211.866V235.05H208.566V231.95L211.866 231.7V228.5C211.866 225.967 212.483 223.967 213.716 222.5C214.983 221.033 216.883 220.3 219.416 220.3C221.083 220.3 222.566 220.6 223.866 221.2L223.016 224.3C222.016 223.867 220.933 223.65 219.766 223.65C218.566 223.65 217.633 224.083 216.966 224.95C216.3 225.783 215.966 227 215.966 228.6V231.7H226.116V227.85C226.116 225.383 226.683 223.433 227.816 222C228.983 220.533 230.783 219.8 233.216 219.8C233.983 219.8 234.716 219.883 235.416 220.05C236.116 220.183 236.733 220.367 237.266 220.6L236.366 223.75C235.466 223.35 234.55 223.15 233.616 223.15C231.35 223.15 230.216 224.717 230.216 227.85V231.7H235.366V235.05H230.216V256H226.116ZM249.386 256.6C247.219 256.6 245.252 256.1 243.486 255.1C241.719 254.067 240.319 252.6 239.286 250.7C238.252 248.8 237.736 246.533 237.736 243.9C237.736 241.233 238.252 238.95 239.286 237.05C240.352 235.15 241.719 233.683 243.386 232.65C245.052 231.617 246.802 231.1 248.636 231.1C251.736 231.1 254.119 232.133 255.786 234.2C257.486 236.267 258.336 239.033 258.336 242.5C258.336 242.933 258.319 243.367 258.286 243.8C258.286 244.2 258.252 244.55 258.186 244.85H241.786C241.952 247.417 242.752 249.467 244.186 251C245.652 252.533 247.552 253.3 249.886 253.3C251.052 253.3 252.119 253.133 253.086 252.8C254.086 252.433 255.036 251.967 255.936 251.4L257.386 254.1C256.352 254.767 255.169 255.35 253.836 255.85C252.536 256.35 251.052 256.6 249.386 256.6ZM241.736 241.9H254.736C254.736 239.433 254.202 237.567 253.136 236.3C252.102 235 250.636 234.35 248.736 234.35C247.036 234.35 245.502 235.017 244.136 236.35C242.802 237.65 242.002 239.5 241.736 241.9ZM264.34 256V231.7H267.74L268.09 236.1H268.24C269.074 234.567 270.09 233.35 271.29 232.45C272.49 231.55 273.774 231.1 275.14 231.1C276.107 231.1 276.974 231.267 277.74 231.6L276.94 235.2C276.54 235.067 276.174 234.967 275.84 234.9C275.507 234.833 275.09 234.8 274.59 234.8C273.557 234.8 272.474 235.217 271.34 236.05C270.24 236.883 269.274 238.333 268.44 240.4V256H264.34ZM291.036 256.6C288.869 256.6 286.903 256.1 285.136 255.1C283.369 254.067 281.969 252.6 280.936 250.7C279.903 248.8 279.386 246.533 279.386 243.9C279.386 241.233 279.903 238.95 280.936 237.05C282.003 235.15 283.369 233.683 285.036 232.65C286.703 231.617 288.453 231.1 290.286 231.1C293.386 231.1 295.769 232.133 297.436 234.2C299.136 236.267 299.986 239.033 299.986 242.5C299.986 242.933 299.969 243.367 299.936 243.8C299.936 244.2 299.903 244.55 299.836 244.85H283.436C283.603 247.417 284.403 249.467 285.836 251C287.303 252.533 289.203 253.3 291.536 253.3C292.703 253.3 293.769 253.133 294.736 252.8C295.736 252.433 296.686 251.967 297.586 251.4L299.036 254.1C298.003 254.767 296.819 255.35 295.486 255.85C294.186 256.35 292.703 256.6 291.036 256.6ZM283.386 241.9H296.386C296.386 239.433 295.853 237.567 294.786 236.3C293.753 235 292.286 234.35 290.386 234.35C288.686 234.35 287.153 235.017 285.786 236.35C284.453 237.65 283.653 239.5 283.386 241.9ZM305.991 256V231.7H309.391L309.741 235.2H309.891C311.057 234.033 312.291 233.067 313.591 232.3C314.891 231.5 316.374 231.1 318.041 231.1C320.607 231.1 322.474 231.917 323.641 233.55C324.841 235.15 325.441 237.5 325.441 240.6V256H321.341V241.15C321.341 238.883 320.974 237.233 320.241 236.2C319.507 235.167 318.341 234.65 316.741 234.65C315.507 234.65 314.391 234.967 313.391 235.6C312.424 236.233 311.324 237.167 310.091 238.4V256H305.991ZM340.984 256.6C338.384 256.6 336.568 255.85 335.534 254.35C334.534 252.85 334.034 250.9 334.034 248.5V235.05H330.434V231.95L334.234 231.7L334.734 224.9H338.184V231.7H344.734V235.05H338.184V248.55C338.184 250.05 338.451 251.217 338.984 252.05C339.551 252.85 340.534 253.25 341.934 253.25C342.368 253.25 342.834 253.183 343.334 253.05C343.834 252.883 344.284 252.733 344.684 252.6L345.484 255.7C344.818 255.933 344.084 256.133 343.284 256.3C342.518 256.5 341.751 256.6 340.984 256.6ZM365.489 256L356.739 231.7H360.989L365.589 245.5C365.955 246.7 366.322 247.9 366.689 249.1C367.089 250.3 367.472 251.483 367.839 252.65H368.039C368.405 251.483 368.772 250.3 369.139 249.1C369.539 247.9 369.905 246.7 370.239 245.5L374.839 231.7H378.889L370.289 256H365.489ZM393.233 256.6C391.067 256.6 389.1 256.1 387.333 255.1C385.567 254.067 384.167 252.6 383.133 250.7C382.1 248.8 381.583 246.533 381.583 243.9C381.583 241.233 382.1 238.95 383.133 237.05C384.2 235.15 385.567 233.683 387.233 232.65C388.9 231.617 390.65 231.1 392.483 231.1C395.583 231.1 397.967 232.133 399.633 234.2C401.333 236.267 402.183 239.033 402.183 242.5C402.183 242.933 402.167 243.367 402.133 243.8C402.133 244.2 402.1 244.55 402.033 244.85H385.633C385.8 247.417 386.6 249.467 388.033 251C389.5 252.533 391.4 253.3 393.733 253.3C394.9 253.3 395.967 253.133 396.933 252.8C397.933 252.433 398.883 251.967 399.783 251.4L401.233 254.1C400.2 254.767 399.017 255.35 397.683 255.85C396.383 256.35 394.9 256.6 393.233 256.6ZM385.583 241.9H398.583C398.583 239.433 398.05 237.567 396.983 236.3C395.95 235 394.483 234.35 392.583 234.35C390.883 234.35 389.35 235.017 387.983 236.35C386.65 237.65 385.85 239.5 385.583 241.9ZM408.188 256V231.7H411.588L411.938 236.1H412.088C412.921 234.567 413.938 233.35 415.138 232.45C416.338 231.55 417.621 231.1 418.988 231.1C419.955 231.1 420.821 231.267 421.588 231.6L420.788 235.2C420.388 235.067 420.021 234.967 419.688 234.9C419.355 234.833 418.938 234.8 418.438 234.8C417.405 234.8 416.321 235.217 415.188 236.05C414.088 236.883 413.121 238.333 412.288 240.4V256H408.188ZM431.677 256.6C429.943 256.6 428.293 256.283 426.727 255.65C425.16 254.983 423.793 254.183 422.627 253.25L424.677 250.5C425.743 251.333 426.843 252.033 427.977 252.6C429.11 253.133 430.393 253.4 431.827 253.4C433.427 253.4 434.627 253.033 435.427 252.3C436.227 251.533 436.627 250.633 436.627 249.6C436.627 248.767 436.343 248.067 435.777 247.5C435.243 246.933 434.543 246.467 433.677 246.1C432.843 245.7 431.977 245.333 431.077 245C429.943 244.567 428.827 244.083 427.727 243.55C426.627 242.983 425.727 242.267 425.027 241.4C424.327 240.5 423.977 239.367 423.977 238C423.977 236.033 424.71 234.4 426.177 233.1C427.677 231.767 429.743 231.1 432.377 231.1C433.877 231.1 435.277 231.367 436.577 231.9C437.877 232.433 438.993 233.083 439.927 233.85L437.927 236.45C437.093 235.817 436.227 235.3 435.327 234.9C434.427 234.5 433.443 234.3 432.377 234.3C430.843 234.3 429.71 234.65 428.977 235.35C428.277 236.05 427.927 236.867 427.927 237.8C427.927 238.567 428.177 239.2 428.677 239.7C429.177 240.167 429.827 240.583 430.627 240.95C431.427 241.283 432.277 241.633 433.177 242C434.343 242.433 435.493 242.933 436.627 243.5C437.76 244.033 438.693 244.767 439.427 245.7C440.193 246.6 440.577 247.817 440.577 249.35C440.577 250.65 440.227 251.85 439.527 252.95C438.86 254.05 437.86 254.933 436.527 255.6C435.227 256.267 433.61 256.6 431.677 256.6ZM446.274 256V231.7H450.374V256H446.274ZM448.374 226.7C447.574 226.7 446.907 226.467 446.374 226C445.874 225.5 445.624 224.833 445.624 224C445.624 223.2 445.874 222.55 446.374 222.05C446.907 221.55 447.574 221.3 448.374 221.3C449.174 221.3 449.824 221.55 450.324 222.05C450.857 222.55 451.124 223.2 451.124 224C451.124 224.833 450.857 225.5 450.324 226C449.824 226.467 449.174 226.7 448.374 226.7ZM468.029 256.6C466.062 256.6 464.212 256.1 462.479 255.1C460.779 254.1 459.395 252.65 458.329 250.75C457.295 248.85 456.779 246.567 456.779 243.9C456.779 241.167 457.295 238.85 458.329 236.95C459.395 235.05 460.779 233.6 462.479 232.6C464.212 231.6 466.062 231.1 468.029 231.1C470.029 231.1 471.879 231.6 473.579 232.6C475.279 233.6 476.645 235.05 477.679 236.95C478.745 238.85 479.279 241.167 479.279 243.9C479.279 246.567 478.745 248.85 477.679 250.75C476.645 252.65 475.279 254.1 473.579 255.1C471.879 256.1 470.029 256.6 468.029 256.6ZM468.029 253.2C470.129 253.2 471.812 252.35 473.079 250.65C474.379 248.917 475.029 246.667 475.029 243.9C475.029 241.1 474.379 238.833 473.079 237.1C471.812 235.367 470.129 234.5 468.029 234.5C465.962 234.5 464.279 235.367 462.979 237.1C461.679 238.833 461.029 241.1 461.029 243.9C461.029 246.667 461.679 248.917 462.979 250.65C464.279 252.35 465.962 253.2 468.029 253.2ZM485.678 256V231.7H489.078L489.428 235.2H489.578C490.745 234.033 491.978 233.067 493.278 232.3C494.578 231.5 496.061 231.1 497.728 231.1C500.295 231.1 502.161 231.917 503.328 233.55C504.528 235.15 505.128 237.5 505.128 240.6V256H501.028V241.15C501.028 238.883 500.661 237.233 499.928 236.2C499.195 235.167 498.028 234.65 496.428 234.65C495.195 234.65 494.078 234.967 493.078 235.6C492.111 236.233 491.011 237.167 489.778 238.4V256H485.678ZM519.372 256.6C517.639 256.6 515.989 256.283 514.422 255.65C512.855 254.983 511.489 254.183 510.322 253.25L512.372 250.5C513.439 251.333 514.539 252.033 515.672 252.6C516.805 253.133 518.089 253.4 519.522 253.4C521.122 253.4 522.322 253.033 523.122 252.3C523.922 251.533 524.322 250.633 524.322 249.6C524.322 248.767 524.039 248.067 523.472 247.5C522.939 246.933 522.239 246.467 521.372 246.1C520.539 245.7 519.672 245.333 518.772 245C517.639 244.567 516.522 244.083 515.422 243.55C514.322 242.983 513.422 242.267 512.722 241.4C512.022 240.5 511.672 239.367 511.672 238C511.672 236.033 512.405 234.4 513.872 233.1C515.372 231.767 517.439 231.1 520.072 231.1C521.572 231.1 522.972 231.367 524.272 231.9C525.572 232.433 526.689 233.083 527.622 233.85L525.622 236.45C524.789 235.817 523.922 235.3 523.022 234.9C522.122 234.5 521.139 234.3 520.072 234.3C518.539 234.3 517.405 234.65 516.672 235.35C515.972 236.05 515.622 236.867 515.622 237.8C515.622 238.567 515.872 239.2 516.372 239.7C516.872 240.167 517.522 240.583 518.322 240.95C519.122 241.283 519.972 241.633 520.872 242C522.039 242.433 523.189 242.933 524.322 243.5C525.455 244.033 526.389 244.767 527.122 245.7C527.889 246.6 528.272 247.817 528.272 249.35C528.272 250.65 527.922 251.85 527.222 252.95C526.555 254.05 525.555 254.933 524.222 255.6C522.922 256.267 521.305 256.6 519.372 256.6ZM553.429 256.6C551.462 256.6 549.612 256.1 547.879 255.1C546.179 254.1 544.796 252.65 543.729 250.75C542.696 248.85 542.179 246.567 542.179 243.9C542.179 241.167 542.696 238.85 543.729 236.95C544.796 235.05 546.179 233.6 547.879 232.6C549.612 231.6 551.462 231.1 553.429 231.1C555.429 231.1 557.279 231.6 558.979 232.6C560.679 233.6 562.046 235.05 563.079 236.95C564.146 238.85 564.679 241.167 564.679 243.9C564.679 246.567 564.146 248.85 563.079 250.75C562.046 252.65 560.679 254.1 558.979 255.1C557.279 256.1 555.429 256.6 553.429 256.6ZM553.429 253.2C555.529 253.2 557.212 252.35 558.479 250.65C559.779 248.917 560.429 246.667 560.429 243.9C560.429 241.1 559.779 238.833 558.479 237.1C557.212 235.367 555.529 234.5 553.429 234.5C551.362 234.5 549.679 235.367 548.379 237.1C547.079 238.833 546.429 241.1 546.429 243.9C546.429 246.667 547.079 248.917 548.379 250.65C549.679 252.35 551.362 253.2 553.429 253.2ZM571.779 256V235.05H568.479V231.95L571.779 231.7V227.85C571.779 225.383 572.345 223.433 573.479 222C574.645 220.533 576.445 219.8 578.879 219.8C579.645 219.8 580.379 219.883 581.079 220.05C581.779 220.183 582.395 220.367 582.929 220.6L582.029 223.75C581.129 223.35 580.212 223.15 579.279 223.15C577.012 223.15 575.879 224.717 575.879 227.85V231.7H581.029V235.05H575.879V256H571.779ZM601.288 256.6C599.255 256.6 597.555 256 596.188 254.8C594.855 253.567 594.188 251.867 594.188 249.7C594.188 247.033 595.371 245 597.738 243.6C600.138 242.167 603.921 241.167 609.088 240.6C609.088 239.567 608.938 238.583 608.638 237.65C608.371 236.717 607.871 235.967 607.138 235.4C606.438 234.8 605.421 234.5 604.088 234.5C602.688 234.5 601.371 234.767 600.138 235.3C598.905 235.833 597.805 236.433 596.838 237.1L595.238 234.25C596.371 233.517 597.755 232.817 599.388 232.15C601.055 231.45 602.855 231.1 604.788 231.1C607.755 231.1 609.905 232.017 611.238 233.85C612.571 235.65 613.238 238.067 613.238 241.1V256H609.838L609.488 253.1H609.338C608.205 254.033 606.955 254.85 605.588 255.55C604.255 256.25 602.821 256.6 601.288 256.6ZM602.488 253.3C603.655 253.3 604.755 253.017 605.788 252.45C606.821 251.883 607.921 251.083 609.088 250.05V243.3C605.055 243.8 602.221 244.55 600.588 245.55C598.988 246.55 598.188 247.833 598.188 249.4C598.188 250.767 598.605 251.767 599.438 252.4C600.271 253 601.288 253.3 602.488 253.3ZM630.893 266.25V231.7H634.293L634.643 234.5H634.793C635.893 233.567 637.093 232.767 638.393 232.1C639.726 231.433 641.11 231.1 642.543 231.1C645.676 231.1 648.06 232.233 649.693 234.5C651.326 236.733 652.143 239.733 652.143 243.5C652.143 246.233 651.643 248.583 650.643 250.55C649.676 252.517 648.393 254.017 646.793 255.05C645.226 256.083 643.51 256.6 641.643 256.6C640.51 256.6 639.376 256.35 638.243 255.85C637.143 255.35 636.026 254.667 634.893 253.8L634.993 258.05V266.25H630.893ZM640.943 253.15C642.943 253.15 644.593 252.3 645.893 250.6C647.226 248.867 647.893 246.5 647.893 243.5C647.893 240.833 647.393 238.683 646.393 237.05C645.426 235.383 643.793 234.55 641.493 234.55C640.46 234.55 639.41 234.833 638.343 235.4C637.31 235.967 636.193 236.783 634.993 237.85V250.6C636.093 251.533 637.16 252.2 638.193 252.6C639.226 252.967 640.143 253.15 640.943 253.15ZM658.627 256V231.7H662.027L662.377 236.1H662.527C663.361 234.567 664.377 233.35 665.577 232.45C666.777 231.55 668.061 231.1 669.427 231.1C670.394 231.1 671.261 231.267 672.027 231.6L671.227 235.2C670.827 235.067 670.461 234.967 670.127 234.9C669.794 234.833 669.377 234.8 668.877 234.8C667.844 234.8 666.761 235.217 665.627 236.05C664.527 236.883 663.561 238.333 662.727 240.4V256H658.627ZM684.923 256.6C682.956 256.6 681.106 256.1 679.373 255.1C677.673 254.1 676.29 252.65 675.223 250.75C674.19 248.85 673.673 246.567 673.673 243.9C673.673 241.167 674.19 238.85 675.223 236.95C676.29 235.05 677.673 233.6 679.373 232.6C681.106 231.6 682.956 231.1 684.923 231.1C686.923 231.1 688.773 231.6 690.473 232.6C692.173 233.6 693.54 235.05 694.573 236.95C695.64 238.85 696.173 241.167 696.173 243.9C696.173 246.567 695.64 248.85 694.573 250.75C693.54 252.65 692.173 254.1 690.473 255.1C688.773 256.1 686.923 256.6 684.923 256.6ZM684.923 253.2C687.023 253.2 688.706 252.35 689.973 250.65C691.273 248.917 691.923 246.667 691.923 243.9C691.923 241.1 691.273 238.833 689.973 237.1C688.706 235.367 687.023 234.5 684.923 234.5C682.856 234.5 681.173 235.367 679.873 237.1C678.573 238.833 677.923 241.1 677.923 243.9C677.923 246.667 678.573 248.917 679.873 250.65C681.173 252.35 682.856 253.2 684.923 253.2ZM700.073 266.85C699.339 266.85 698.673 266.783 698.073 266.65C697.439 266.517 696.906 266.367 696.473 266.2L697.323 263.1C697.623 263.2 697.973 263.283 698.373 263.35C698.773 263.45 699.189 263.5 699.623 263.5C700.823 263.5 701.623 263.067 702.023 262.2C702.423 261.367 702.623 260.217 702.623 258.75V231.7H706.723V258.75C706.723 261.217 706.223 263.183 705.223 264.65C704.223 266.117 702.506 266.85 700.073 266.85ZM704.623 226.7C703.823 226.7 703.156 226.467 702.623 226C702.123 225.5 701.873 224.833 701.873 224C701.873 223.2 702.123 222.55 702.623 222.05C703.156 221.55 703.823 221.3 704.623 221.3C705.423 221.3 706.073 221.55 706.573 222.05C707.106 222.55 707.373 223.2 707.373 224C707.373 224.833 707.106 225.5 706.573 226C706.073 226.467 705.423 226.7 704.623 226.7ZM724.776 256.6C722.61 256.6 720.643 256.1 718.876 255.1C717.11 254.067 715.71 252.6 714.676 250.7C713.643 248.8 713.126 246.533 713.126 243.9C713.126 241.233 713.643 238.95 714.676 237.05C715.743 235.15 717.11 233.683 718.776 232.65C720.443 231.617 722.193 231.1 724.026 231.1C727.126 231.1 729.51 232.133 731.176 234.2C732.876 236.267 733.726 239.033 733.726 242.5C733.726 242.933 733.71 243.367 733.676 243.8C733.676 244.2 733.643 244.55 733.576 244.85H717.176C717.343 247.417 718.143 249.467 719.576 251C721.043 252.533 722.943 253.3 725.276 253.3C726.443 253.3 727.51 253.133 728.476 252.8C729.476 252.433 730.426 251.967 731.326 251.4L732.776 254.1C731.743 254.767 730.56 255.35 729.226 255.85C727.926 256.35 726.443 256.6 724.776 256.6ZM717.126 241.9H730.126C730.126 239.433 729.593 237.567 728.526 236.3C727.493 235 726.026 234.35 724.126 234.35C722.426 234.35 720.893 235.017 719.526 236.35C718.193 237.65 717.393 239.5 717.126 241.9ZM749.331 256.6C747.198 256.6 745.264 256.1 743.531 255.1C741.798 254.1 740.431 252.65 739.431 250.75C738.431 248.85 737.931 246.567 737.931 243.9C737.931 241.167 738.464 238.85 739.531 236.95C740.631 235.05 742.064 233.6 743.831 232.6C745.631 231.6 747.564 231.1 749.631 231.1C751.231 231.1 752.598 231.383 753.731 231.95C754.898 232.517 755.898 233.183 756.731 233.95L754.631 236.65C753.931 236.017 753.181 235.5 752.381 235.1C751.614 234.7 750.748 234.5 749.781 234.5C748.314 234.5 746.998 234.9 745.831 235.7C744.698 236.467 743.798 237.567 743.131 239C742.498 240.4 742.181 242.033 742.181 243.9C742.181 246.667 742.864 248.917 744.231 250.65C745.631 252.35 747.448 253.2 749.681 253.2C750.814 253.2 751.864 252.967 752.831 252.5C753.798 252 754.648 251.417 755.381 250.75L757.181 253.5C756.081 254.467 754.864 255.233 753.531 255.8C752.198 256.333 750.798 256.6 749.331 256.6ZM769.695 256.6C767.095 256.6 765.279 255.85 764.245 254.35C763.245 252.85 762.745 250.9 762.745 248.5V235.05H759.145V231.95L762.945 231.7L763.445 224.9H766.895V231.7H773.445V235.05H766.895V248.55C766.895 250.05 767.162 251.217 767.695 252.05C768.262 252.85 769.245 253.25 770.645 253.25C771.079 253.25 771.545 253.183 772.045 253.05C772.545 252.883 772.995 252.733 773.395 252.6L774.195 255.7C773.529 255.933 772.795 256.133 771.995 256.3C771.229 256.5 770.462 256.6 769.695 256.6Z" fill="black"/>
<path d="M235 275L215.5 453M472 275L553.5 462M760.5 275L865 309" stroke="#ABABAB" stroke-width="4" stroke-dasharray="8 8"/>
</svg>
