<svg width="1920" height="1080" viewBox="0 0 1920 1080" fill="none" xmlns="http://www.w3.org/2000/svg">
<rect width="1920" height="1080" fill="white"/>
<path d="M70.04 101.96C65.6667 101.96 61.7467 100.893 58.28 98.76C54.8667 96.5733 52.1467 93.4533 50.12 89.4C48.1467 85.3467 47.16 80.4667 47.16 74.76C47.16 69.1067 48.1733 64.2533 50.2 60.2C52.2267 56.1467 55 53.0267 58.52 50.84C62.04 48.6533 66.0133 47.56 70.44 47.56C73.64 47.56 76.4667 48.2267 78.92 49.56C81.3733 50.84 83.3467 52.3333 84.84 54.04L81.24 58.36C79.8533 56.8667 78.28 55.6667 76.52 54.76C74.76 53.8533 72.76 53.4 70.52 53.4C67.2133 53.4 64.3067 54.28 61.8 56.04C59.3467 57.7467 57.4267 60.1733 56.04 63.32C54.7067 66.4667 54.04 70.2267 54.04 74.6C54.04 78.9733 54.7067 82.7867 56.04 86.04C57.3733 89.24 59.24 91.72 61.64 93.48C64.0933 95.24 66.9733 96.12 70.28 96.12C72.7867 96.12 75.0267 95.5867 77 94.52C78.9733 93.4533 80.7867 92.0133 82.44 90.2L86.12 94.36C84.04 96.76 81.6933 98.6267 79.08 99.96C76.4667 101.293 73.4533 101.96 70.04 101.96ZM95.2631 101V62.12H100.703L101.263 69.16H101.503C102.836 66.7067 104.463 64.76 106.383 63.32C108.303 61.88 110.356 61.16 112.543 61.16C114.09 61.16 115.476 61.4267 116.703 61.96L115.423 67.72C114.783 67.5067 114.196 67.3467 113.663 67.24C113.13 67.1333 112.463 67.08 111.663 67.08C110.01 67.08 108.276 67.7467 106.463 69.08C104.703 70.4133 103.156 72.7333 101.823 76.04V101H95.2631ZM137.976 101.96C134.51 101.96 131.363 101.16 128.536 99.56C125.71 97.9067 123.47 95.56 121.816 92.52C120.163 89.48 119.336 85.8533 119.336 81.64C119.336 77.3733 120.163 73.72 121.816 70.68C123.523 67.64 125.71 65.2933 128.376 63.64C131.043 61.9867 133.843 61.16 136.776 61.16C141.736 61.16 145.55 62.8133 148.216 66.12C150.936 69.4267 152.296 73.8533 152.296 79.4C152.296 80.0933 152.27 80.7867 152.216 81.48C152.216 82.12 152.163 82.68 152.056 83.16H125.816C126.083 87.2667 127.363 90.5467 129.656 93C132.003 95.4533 135.043 96.68 138.776 96.68C140.643 96.68 142.35 96.4133 143.896 95.88C145.496 95.2933 147.016 94.5467 148.456 93.64L150.776 97.96C149.123 99.0267 147.23 99.96 145.096 100.76C143.016 101.56 140.643 101.96 137.976 101.96ZM125.736 78.44H146.536C146.536 74.4933 145.683 71.5067 143.976 69.48C142.323 67.4 139.976 66.36 136.936 66.36C134.216 66.36 131.763 67.4267 129.576 69.56C127.443 71.64 126.163 74.6 125.736 78.44ZM169.77 101.96C166.517 101.96 163.797 101 161.61 99.08C159.477 97.1067 158.41 94.3867 158.41 90.92C158.41 86.6533 160.303 83.4 164.09 81.16C167.93 78.8667 173.983 77.2667 182.25 76.36C182.25 74.7067 182.01 73.1333 181.53 71.64C181.103 70.1467 180.303 68.9467 179.13 68.04C178.01 67.08 176.383 66.6 174.25 66.6C172.01 66.6 169.903 67.0267 167.93 67.88C165.957 68.7333 164.197 69.6933 162.65 70.76L160.09 66.2C161.903 65.0267 164.117 63.9067 166.73 62.84C169.397 61.72 172.277 61.16 175.37 61.16C180.117 61.16 183.557 62.6267 185.69 65.56C187.823 68.44 188.89 72.3067 188.89 77.16V101H183.45L182.89 96.36H182.65C180.837 97.8533 178.837 99.16 176.65 100.28C174.517 101.4 172.223 101.96 169.77 101.96ZM171.69 96.68C173.557 96.68 175.317 96.2267 176.97 95.32C178.623 94.4133 180.383 93.1333 182.25 91.48V80.68C175.797 81.48 171.263 82.68 168.65 84.28C166.09 85.88 164.81 87.9333 164.81 90.44C164.81 92.6267 165.477 94.2267 166.81 95.24C168.143 96.2 169.77 96.68 171.69 96.68ZM212.269 101.96C208.109 101.96 205.202 100.76 203.549 98.36C201.949 95.96 201.149 92.84 201.149 89V67.48H195.389V62.52L201.469 62.12L202.269 51.24H207.789V62.12H218.269V67.48H207.789V89.08C207.789 91.48 208.215 93.3467 209.069 94.68C209.975 95.96 211.549 96.6 213.789 96.6C214.482 96.6 215.229 96.4933 216.029 96.28C216.829 96.0133 217.549 95.7733 218.189 95.56L219.469 100.52C218.402 100.893 217.229 101.213 215.949 101.48C214.722 101.8 213.495 101.96 212.269 101.96ZM227.06 101V62.12H233.62V101H227.06ZM230.42 54.12C229.14 54.12 228.073 53.7467 227.22 53C226.42 52.2 226.02 51.1333 226.02 49.8C226.02 48.52 226.42 47.48 227.22 46.68C228.073 45.88 229.14 45.48 230.42 45.48C231.7 45.48 232.74 45.88 233.54 46.68C234.393 47.48 234.82 48.52 234.82 49.8C234.82 51.1333 234.393 52.2 233.54 53C232.74 53.7467 231.7 54.12 230.42 54.12ZM246.748 101V62.12H252.188L252.748 67.72H252.988C254.854 65.8533 256.828 64.3067 258.908 63.08C260.988 61.8 263.361 61.16 266.028 61.16C270.134 61.16 273.121 62.4667 274.988 65.08C276.908 67.64 277.868 71.4 277.868 76.36V101H271.308V77.24C271.308 73.6133 270.721 70.9733 269.548 69.32C268.374 67.6667 266.508 66.84 263.948 66.84C261.974 66.84 260.188 67.3467 258.588 68.36C257.041 69.3733 255.281 70.8667 253.308 72.84V101H246.748ZM303.618 118.92C298.871 118.92 295.004 118.013 292.018 116.2C289.031 114.387 287.538 111.8 287.538 108.44C287.538 106.787 288.044 105.187 289.058 103.64C290.071 102.147 291.458 100.813 293.218 99.64V99.32C292.258 98.7333 291.431 97.9067 290.738 96.84C290.098 95.7733 289.778 94.4933 289.778 93C289.778 91.3467 290.231 89.9067 291.138 88.68C292.044 87.4533 293.004 86.4933 294.018 85.8V85.48C292.738 84.4133 291.564 82.9733 290.498 81.16C289.484 79.3467 288.978 77.2933 288.978 75C288.978 72.1733 289.644 69.72 290.978 67.64C292.311 65.56 294.098 63.96 296.338 62.84C298.578 61.72 301.004 61.16 303.618 61.16C304.684 61.16 305.698 61.2667 306.658 61.48C307.618 61.64 308.444 61.8533 309.138 62.12H322.658V67.16H314.658C315.564 68.0133 316.311 69.16 316.898 70.6C317.538 71.9867 317.858 73.5067 317.858 75.16C317.858 77.9333 317.218 80.3333 315.938 82.36C314.658 84.3867 312.951 85.96 310.818 87.08C308.684 88.1467 306.284 88.68 303.618 88.68C301.538 88.68 299.591 88.2267 297.778 87.32C297.084 87.9067 296.498 88.5733 296.018 89.32C295.538 90.0133 295.298 90.8933 295.298 91.96C295.298 93.1867 295.778 94.2 296.738 95C297.751 95.8 299.564 96.2 302.178 96.2H309.698C314.231 96.2 317.618 96.9467 319.858 98.44C322.151 99.88 323.298 102.227 323.298 105.48C323.298 107.88 322.498 110.093 320.898 112.12C319.298 114.147 317.031 115.773 314.098 117C311.164 118.28 307.671 118.92 303.618 118.92ZM303.618 84.28C305.858 84.28 307.778 83.4533 309.378 81.8C311.031 80.0933 311.858 77.8267 311.858 75C311.858 72.1733 311.058 69.96 309.458 68.36C307.858 66.76 305.911 65.96 303.618 65.96C301.324 65.96 299.378 66.76 297.778 68.36C296.178 69.96 295.378 72.1733 295.378 75C295.378 77.8267 296.178 80.0933 297.778 81.8C299.431 83.4533 301.378 84.28 303.618 84.28ZM304.578 114.36C308.311 114.36 311.298 113.533 313.538 111.88C315.778 110.28 316.898 108.467 316.898 106.44C316.898 104.627 316.204 103.373 314.818 102.68C313.484 101.987 311.564 101.64 309.058 101.64H302.338C301.591 101.64 300.764 101.587 299.858 101.48C299.004 101.373 298.151 101.213 297.298 101C295.911 102.013 294.898 103.08 294.258 104.2C293.618 105.32 293.298 106.44 293.298 107.56C293.298 109.64 294.284 111.293 296.258 112.52C298.284 113.747 301.058 114.36 304.578 114.36ZM355.786 101.96C352.532 101.96 349.812 101 347.626 99.08C345.492 97.1067 344.426 94.3867 344.426 90.92C344.426 86.6533 346.319 83.4 350.106 81.16C353.946 78.8667 359.999 77.2667 368.266 76.36C368.266 74.7067 368.026 73.1333 367.546 71.64C367.119 70.1467 366.319 68.9467 365.146 68.04C364.026 67.08 362.399 66.6 360.266 66.6C358.026 66.6 355.919 67.0267 353.946 67.88C351.972 68.7333 350.212 69.6933 348.666 70.76L346.106 66.2C347.919 65.0267 350.132 63.9067 352.746 62.84C355.412 61.72 358.292 61.16 361.386 61.16C366.132 61.16 369.572 62.6267 371.706 65.56C373.839 68.44 374.906 72.3067 374.906 77.16V101H369.466L368.906 96.36H368.666C366.852 97.8533 364.852 99.16 362.666 100.28C360.532 101.4 358.239 101.96 355.786 101.96ZM357.706 96.68C359.572 96.68 361.332 96.2267 362.986 95.32C364.639 94.4133 366.399 93.1333 368.266 91.48V80.68C361.812 81.48 357.279 82.68 354.666 84.28C352.106 85.88 350.826 87.9333 350.826 90.44C350.826 92.6267 351.492 94.2267 352.826 95.24C354.159 96.2 355.786 96.68 357.706 96.68ZM403.154 101V62.12H408.594L409.154 69.16H409.394C410.727 66.7067 412.354 64.76 414.274 63.32C416.194 61.88 418.247 61.16 420.434 61.16C421.98 61.16 423.367 61.4267 424.594 61.96L423.314 67.72C422.674 67.5067 422.087 67.3467 421.554 67.24C421.02 67.1333 420.354 67.08 419.554 67.08C417.9 67.08 416.167 67.7467 414.354 69.08C412.594 70.4133 411.047 72.7333 409.714 76.04V101H403.154ZM445.867 101.96C442.4 101.96 439.254 101.16 436.427 99.56C433.6 97.9067 431.36 95.56 429.707 92.52C428.054 89.48 427.227 85.8533 427.227 81.64C427.227 77.3733 428.054 73.72 429.707 70.68C431.414 67.64 433.6 65.2933 436.267 63.64C438.934 61.9867 441.734 61.16 444.667 61.16C449.627 61.16 453.44 62.8133 456.107 66.12C458.827 69.4267 460.187 73.8533 460.187 79.4C460.187 80.0933 460.16 80.7867 460.107 81.48C460.107 82.12 460.054 82.68 459.947 83.16H433.707C433.974 87.2667 435.254 90.5467 437.547 93C439.894 95.4533 442.934 96.68 446.667 96.68C448.534 96.68 450.24 96.4133 451.787 95.88C453.387 95.2933 454.907 94.5467 456.347 93.64L458.667 97.96C457.014 99.0267 455.12 99.96 452.987 100.76C450.907 101.56 448.534 101.96 445.867 101.96ZM433.627 78.44H454.427C454.427 74.4933 453.574 71.5067 451.867 69.48C450.214 67.4 447.867 66.36 444.827 66.36C442.107 66.36 439.654 67.4267 437.467 69.56C435.334 71.64 434.054 74.6 433.627 78.44ZM469.794 117.4V62.12H475.234L475.794 66.6H476.034C477.794 65.1067 479.714 63.8267 481.794 62.76C483.928 61.6933 486.141 61.16 488.434 61.16C493.448 61.16 497.261 62.9733 499.874 66.6C502.488 70.1733 503.794 74.9733 503.794 81C503.794 85.3733 502.994 89.1333 501.394 92.28C499.848 95.4267 497.794 97.8267 495.234 99.48C492.728 101.133 489.981 101.96 486.994 101.96C485.181 101.96 483.368 101.56 481.554 100.76C479.794 99.96 478.008 98.8667 476.194 97.48L476.354 104.28V117.4H469.794ZM485.874 96.44C489.074 96.44 491.714 95.08 493.794 92.36C495.928 89.5867 496.994 85.8 496.994 81C496.994 76.7333 496.194 73.2933 494.594 70.68C493.048 68.0133 490.434 66.68 486.754 66.68C485.101 66.68 483.421 67.1333 481.714 68.04C480.061 68.9467 478.274 70.2533 476.354 71.96V92.36C478.114 93.8533 479.821 94.92 481.474 95.56C483.128 96.1467 484.594 96.44 485.874 96.44ZM529.289 101.96C526.143 101.96 523.183 101.16 520.409 99.56C517.689 97.96 515.476 95.64 513.769 92.6C512.116 89.56 511.289 85.9067 511.289 81.64C511.289 77.2667 512.116 73.56 513.769 70.52C515.476 67.48 517.689 65.16 520.409 63.56C523.183 61.96 526.143 61.16 529.289 61.16C532.489 61.16 535.449 61.96 538.169 63.56C540.889 65.16 543.076 67.48 544.729 70.52C546.436 73.56 547.289 77.2667 547.289 81.64C547.289 85.9067 546.436 89.56 544.729 92.6C543.076 95.64 540.889 97.96 538.169 99.56C535.449 101.16 532.489 101.96 529.289 101.96ZM529.289 96.52C532.649 96.52 535.343 95.16 537.369 92.44C539.449 89.6667 540.489 86.0667 540.489 81.64C540.489 77.16 539.449 73.5333 537.369 70.76C535.343 67.9867 532.649 66.6 529.289 66.6C525.983 66.6 523.289 67.9867 521.209 70.76C519.129 73.5333 518.089 77.16 518.089 81.64C518.089 86.0667 519.129 89.6667 521.209 92.44C523.289 95.16 525.983 96.52 529.289 96.52ZM567.689 101.96C564.915 101.96 562.275 101.453 559.769 100.44C557.262 99.3733 555.075 98.0933 553.209 96.6L556.489 92.2C558.195 93.5333 559.955 94.6533 561.769 95.56C563.582 96.4133 565.635 96.84 567.929 96.84C570.489 96.84 572.409 96.2533 573.689 95.08C574.969 93.8533 575.609 92.4133 575.609 90.76C575.609 89.4267 575.155 88.3067 574.249 87.4C573.395 86.4933 572.275 85.7467 570.889 85.16C569.555 84.52 568.169 83.9333 566.729 83.4C564.915 82.7067 563.129 81.9333 561.369 81.08C559.609 80.1733 558.169 79.0267 557.049 77.64C555.929 76.2 555.369 74.3867 555.369 72.2C555.369 69.0533 556.542 66.44 558.889 64.36C561.289 62.2267 564.595 61.16 568.809 61.16C571.209 61.16 573.449 61.5867 575.529 62.44C577.609 63.2933 579.395 64.3333 580.889 65.56L577.689 69.72C576.355 68.7067 574.969 67.88 573.529 67.24C572.089 66.6 570.515 66.28 568.809 66.28C566.355 66.28 564.542 66.84 563.369 67.96C562.249 69.08 561.689 70.3867 561.689 71.88C561.689 73.1067 562.089 74.12 562.889 74.92C563.689 75.6667 564.729 76.3333 566.009 76.92C567.289 77.4533 568.649 78.0133 570.089 78.6C571.955 79.2933 573.795 80.0933 575.609 81C577.422 81.8533 578.915 83.0267 580.089 84.52C581.315 85.96 581.929 87.9067 581.929 90.36C581.929 92.44 581.369 94.36 580.249 96.12C579.182 97.88 577.582 99.2933 575.449 100.36C573.369 101.427 570.782 101.96 567.689 101.96ZM591.044 101V62.12H597.604V101H591.044ZM594.404 54.12C593.124 54.12 592.058 53.7467 591.204 53C590.404 52.2 590.004 51.1333 590.004 49.8C590.004 48.52 590.404 47.48 591.204 46.68C592.058 45.88 593.124 45.48 594.404 45.48C595.684 45.48 596.724 45.88 597.524 46.68C598.378 47.48 598.804 48.52 598.804 49.8C598.804 51.1333 598.378 52.2 597.524 53C596.724 53.7467 595.684 54.12 594.404 54.12ZM622.972 101.96C618.812 101.96 615.905 100.76 614.252 98.36C612.652 95.96 611.852 92.84 611.852 89V67.48H606.092V62.52L612.172 62.12L612.972 51.24H618.492V62.12H628.972V67.48H618.492V89.08C618.492 91.48 618.919 93.3467 619.772 94.68C620.679 95.96 622.252 96.6 624.492 96.6C625.185 96.6 625.932 96.4933 626.732 96.28C627.532 96.0133 628.252 95.7733 628.892 95.56L630.172 100.52C629.105 100.893 627.932 101.213 626.652 101.48C625.425 101.8 624.199 101.96 622.972 101.96ZM651.789 101.96C648.643 101.96 645.683 101.16 642.909 99.56C640.189 97.96 637.976 95.64 636.269 92.6C634.616 89.56 633.789 85.9067 633.789 81.64C633.789 77.2667 634.616 73.56 636.269 70.52C637.976 67.48 640.189 65.16 642.909 63.56C645.683 61.96 648.643 61.16 651.789 61.16C654.989 61.16 657.949 61.96 660.669 63.56C663.389 65.16 665.576 67.48 667.229 70.52C668.936 73.56 669.789 77.2667 669.789 81.64C669.789 85.9067 668.936 89.56 667.229 92.6C665.576 95.64 663.389 97.96 660.669 99.56C657.949 101.16 654.989 101.96 651.789 101.96ZM651.789 96.52C655.149 96.52 657.843 95.16 659.869 92.44C661.949 89.6667 662.989 86.0667 662.989 81.64C662.989 77.16 661.949 73.5333 659.869 70.76C657.843 67.9867 655.149 66.6 651.789 66.6C648.483 66.6 645.789 67.9867 643.709 70.76C641.629 73.5333 640.589 77.16 640.589 81.64C640.589 86.0667 641.629 89.6667 643.709 92.44C645.789 95.16 648.483 96.52 651.789 96.52ZM680.029 101V62.12H685.469L686.029 69.16H686.269C687.602 66.7067 689.229 64.76 691.149 63.32C693.069 61.88 695.122 61.16 697.309 61.16C698.855 61.16 700.242 61.4267 701.469 61.96L700.189 67.72C699.549 67.5067 698.962 67.3467 698.429 67.24C697.895 67.1333 697.229 67.08 696.429 67.08C694.775 67.08 693.042 67.7467 691.229 69.08C689.469 70.4133 687.922 72.7333 686.589 76.04V101H680.029ZM710.434 117.72C709.581 117.72 708.754 117.64 707.954 117.48C707.208 117.32 706.514 117.133 705.874 116.92L707.154 111.72C707.581 111.827 708.061 111.933 708.594 112.04C709.128 112.2 709.634 112.28 710.114 112.28C712.301 112.28 714.114 111.48 715.554 109.88C716.994 108.333 718.114 106.36 718.914 103.96L719.794 101.08L704.194 62.12H710.994L718.914 83.64C719.501 85.2933 720.114 87.08 720.754 89C721.448 90.92 722.088 92.7867 722.674 94.6H722.994C723.581 92.84 724.141 91 724.674 89.08C725.208 87.16 725.741 85.3467 726.274 83.64L733.234 62.12H739.634L724.994 104.2C724.088 106.76 722.994 109.053 721.714 111.08C720.488 113.107 718.941 114.707 717.074 115.88C715.261 117.107 713.048 117.72 710.434 117.72Z" fill="black"/>
<rect x="187" y="214" width="1546.63" height="733" rx="18.325" fill="#383838"/>
<circle cx="241.975" cy="268.975" r="18.325" fill="#F75858"/>
<circle cx="304.28" cy="268.975" r="18.325" fill="#F1F369"/>
<circle cx="366.585" cy="268.975" r="18.325" fill="#76E673"/>
<path d="M252.866 395.531C252.866 396.712 252.651 397.775 252.222 398.719C251.814 399.643 251.223 400.427 250.45 401.071C249.677 401.737 248.732 402.241 247.616 402.585C246.499 402.929 245.243 403.1 243.847 403.1C242.752 403.1 241.667 402.95 240.593 402.649C239.52 402.349 238.564 401.844 237.727 401.135C236.868 400.427 236.17 399.482 235.633 398.301C235.096 397.098 234.827 395.595 234.827 393.791H228.868C228.868 396.218 229.223 398.301 229.931 400.04C230.64 401.78 231.585 403.218 232.766 404.357C233.947 405.516 235.3 406.397 236.825 406.998C238.371 407.599 239.981 407.986 241.656 408.158V414.31H246.456V408.125C248.324 407.932 250.021 407.513 251.545 406.869C253.092 406.225 254.402 405.366 255.475 404.292C256.549 403.24 257.376 401.973 257.956 400.491C258.557 399.009 258.858 397.334 258.858 395.466C258.858 393.555 258.557 391.88 257.956 390.441C257.376 389.002 256.528 387.735 255.411 386.64C254.294 385.545 252.931 384.589 251.32 383.773C249.709 382.957 247.895 382.216 245.876 381.551C244.223 380.992 242.805 380.423 241.624 379.843C240.465 379.242 239.52 378.598 238.79 377.911C238.038 377.223 237.49 376.461 237.147 375.624C236.803 374.786 236.631 373.83 236.631 372.757C236.631 371.661 236.782 370.674 237.082 369.793C237.404 368.891 237.866 368.118 238.467 367.474C239.112 366.765 239.938 366.218 240.948 365.831C241.978 365.445 243.181 365.251 244.555 365.251C245.822 365.251 246.95 365.498 247.938 365.992C248.926 366.486 249.763 367.163 250.45 368.022C251.116 368.902 251.621 369.954 251.964 371.178C252.329 372.381 252.512 373.702 252.512 375.14H258.439C258.417 372.671 258.084 370.491 257.44 368.601C256.796 366.69 255.862 365.09 254.638 363.802C253.693 362.835 252.576 362.052 251.288 361.45C249.999 360.828 248.571 360.409 247.004 360.194V353.107H242.204V360.194C240.465 360.409 238.875 360.849 237.437 361.515C236.019 362.18 234.817 363.05 233.829 364.124C232.82 365.219 232.036 366.497 231.477 367.957C230.941 369.417 230.672 371.049 230.672 372.853C230.672 374.765 230.983 376.45 231.606 377.911C232.229 379.371 233.12 380.659 234.28 381.776C235.418 382.914 236.792 383.891 238.403 384.707C240.014 385.523 241.817 386.243 243.815 386.866C245.404 387.381 246.778 387.95 247.938 388.573C249.097 389.174 250.042 389.829 250.772 390.538C251.502 391.246 252.029 392.019 252.351 392.857C252.694 393.673 252.866 394.564 252.866 395.531ZM269.004 401.264L297.447 389.056V384.353L269.004 372.177V378.329L289.845 386.06L291.778 386.672L289.845 387.22L269.004 395.08V401.264ZM252.866 482.531C252.866 483.712 252.651 484.775 252.222 485.719C251.814 486.643 251.223 487.427 250.45 488.071C249.677 488.737 248.732 489.241 247.616 489.585C246.499 489.929 245.243 490.1 243.847 490.1C242.752 490.1 241.667 489.95 240.593 489.649C239.52 489.349 238.564 488.844 237.727 488.135C236.868 487.427 236.17 486.482 235.633 485.301C235.096 484.098 234.827 482.595 234.827 480.791H228.868C228.868 483.218 229.223 485.301 229.931 487.04C230.64 488.78 231.585 490.218 232.766 491.357C233.947 492.516 235.3 493.397 236.825 493.998C238.371 494.599 239.981 494.986 241.656 495.158V501.31H246.456V495.125C248.324 494.932 250.021 494.513 251.545 493.869C253.092 493.225 254.402 492.366 255.475 491.292C256.549 490.24 257.376 488.973 257.956 487.491C258.557 486.009 258.858 484.334 258.858 482.466C258.858 480.555 258.557 478.88 257.956 477.441C257.376 476.002 256.528 474.735 255.411 473.64C254.294 472.545 252.931 471.589 251.32 470.773C249.709 469.957 247.895 469.216 245.876 468.551C244.223 467.992 242.805 467.423 241.624 466.843C240.465 466.242 239.52 465.598 238.79 464.911C238.038 464.223 237.49 463.461 237.147 462.624C236.803 461.786 236.631 460.83 236.631 459.757C236.631 458.661 236.782 457.674 237.082 456.793C237.404 455.891 237.866 455.118 238.467 454.474C239.112 453.765 239.938 453.218 240.948 452.831C241.978 452.445 243.181 452.251 244.555 452.251C245.822 452.251 246.95 452.498 247.938 452.992C248.926 453.486 249.763 454.163 250.45 455.022C251.116 455.902 251.621 456.954 251.964 458.178C252.329 459.381 252.512 460.702 252.512 462.14H258.439C258.417 459.671 258.084 457.491 257.44 455.601C256.796 453.69 255.862 452.09 254.638 450.802C253.693 449.835 252.576 449.052 251.288 448.45C249.999 447.828 248.571 447.409 247.004 447.194V440.107H242.204V447.194C240.465 447.409 238.875 447.849 237.437 448.515C236.019 449.18 234.817 450.05 233.829 451.124C232.82 452.219 232.036 453.497 231.477 454.957C230.941 456.417 230.672 458.049 230.672 459.853C230.672 461.765 230.983 463.45 231.606 464.911C232.229 466.371 233.12 467.659 234.28 468.776C235.418 469.914 236.792 470.891 238.403 471.707C240.014 472.523 241.817 473.243 243.815 473.866C245.404 474.381 246.778 474.95 247.938 475.573C249.097 476.174 250.042 476.829 250.772 477.538C251.502 478.246 252.029 479.019 252.351 479.857C252.694 480.673 252.866 481.564 252.866 482.531ZM269.004 488.264L297.447 476.056V471.353L269.004 459.177V465.329L289.845 473.06L291.778 473.672L289.845 474.22L269.004 482.08V488.264ZM252.866 569.531C252.866 570.712 252.651 571.775 252.222 572.719C251.814 573.643 251.223 574.427 250.45 575.071C249.677 575.737 248.732 576.241 247.616 576.585C246.499 576.929 245.243 577.1 243.847 577.1C242.752 577.1 241.667 576.95 240.593 576.649C239.52 576.349 238.564 575.844 237.727 575.135C236.868 574.427 236.17 573.482 235.633 572.301C235.096 571.098 234.827 569.595 234.827 567.791H228.868C228.868 570.218 229.223 572.301 229.931 574.04C230.64 575.78 231.585 577.218 232.766 578.357C233.947 579.516 235.3 580.397 236.825 580.998C238.371 581.599 239.981 581.986 241.656 582.158V588.31H246.456V582.125C248.324 581.932 250.021 581.513 251.545 580.869C253.092 580.225 254.402 579.366 255.475 578.292C256.549 577.24 257.376 575.973 257.956 574.491C258.557 573.009 258.858 571.334 258.858 569.466C258.858 567.555 258.557 565.88 257.956 564.441C257.376 563.002 256.528 561.735 255.411 560.64C254.294 559.545 252.931 558.589 251.32 557.773C249.709 556.957 247.895 556.216 245.876 555.551C244.223 554.992 242.805 554.423 241.624 553.843C240.465 553.242 239.52 552.598 238.79 551.911C238.038 551.223 237.49 550.461 237.147 549.624C236.803 548.786 236.631 547.83 236.631 546.757C236.631 545.661 236.782 544.674 237.082 543.793C237.404 542.891 237.866 542.118 238.467 541.474C239.112 540.765 239.938 540.218 240.948 539.831C241.978 539.445 243.181 539.251 244.555 539.251C245.822 539.251 246.95 539.498 247.938 539.992C248.926 540.486 249.763 541.163 250.45 542.022C251.116 542.902 251.621 543.954 251.964 545.178C252.329 546.381 252.512 547.702 252.512 549.14H258.439C258.417 546.671 258.084 544.491 257.44 542.601C256.796 540.69 255.862 539.09 254.638 537.802C253.693 536.835 252.576 536.052 251.288 535.45C249.999 534.828 248.571 534.409 247.004 534.194V527.107H242.204V534.194C240.465 534.409 238.875 534.849 237.437 535.515C236.019 536.18 234.817 537.05 233.829 538.124C232.82 539.219 232.036 540.497 231.477 541.957C230.941 543.417 230.672 545.049 230.672 546.853C230.672 548.765 230.983 550.45 231.606 551.911C232.229 553.371 233.12 554.659 234.28 555.776C235.418 556.914 236.792 557.891 238.403 558.707C240.014 559.523 241.817 560.243 243.815 560.866C245.404 561.381 246.778 561.95 247.938 562.573C249.097 563.174 250.042 563.829 250.772 564.538C251.502 565.246 252.029 566.019 252.351 566.857C252.694 567.673 252.866 568.564 252.866 569.531ZM271.613 546.757H266.266V581.61H271.936V553.876C272.064 553.532 272.225 553.21 272.419 552.909C272.633 552.609 272.88 552.34 273.16 552.104C273.525 551.803 273.965 551.578 274.48 551.427C275.017 551.256 275.64 551.17 276.349 551.17C276.993 551.17 277.551 551.256 278.024 551.427C278.518 551.578 278.926 551.825 279.248 552.168C279.591 552.533 279.838 552.995 279.989 553.553C280.16 554.112 280.246 554.756 280.246 555.486V581.61H285.916V555.518C285.916 555.389 285.916 555.282 285.916 555.196C285.916 555.089 285.916 554.981 285.916 554.874C285.98 554.337 286.109 553.854 286.302 553.425C286.495 552.974 286.764 552.576 287.107 552.233C287.451 551.911 287.88 551.653 288.396 551.46C288.911 551.266 289.523 551.17 290.232 551.17C290.898 551.17 291.477 551.256 291.971 551.427C292.487 551.599 292.916 551.857 293.26 552.201C293.582 552.566 293.829 553.027 294.001 553.586C294.173 554.144 294.258 554.788 294.258 555.518V581.61H299.928V555.583C299.928 553.908 299.734 552.458 299.348 551.234C298.961 549.989 298.403 548.979 297.673 548.206C297.007 547.519 296.191 547.004 295.225 546.66C294.258 546.295 293.174 546.112 291.971 546.112C291.091 546.134 290.275 546.252 289.523 546.467C288.793 546.682 288.127 546.971 287.526 547.337C287.054 547.659 286.613 548.034 286.205 548.464C285.797 548.893 285.443 549.355 285.142 549.849C284.906 549.312 284.616 548.829 284.273 548.4C283.951 547.97 283.586 547.605 283.178 547.304C282.619 546.918 281.964 546.628 281.213 546.435C280.482 546.22 279.656 546.112 278.732 546.112C277.1 546.134 275.704 546.488 274.545 547.175C273.407 547.863 272.483 548.818 271.775 550.042L271.613 546.757ZM311.299 595.687C312.866 595.687 314.251 595.397 315.454 594.817C316.656 594.237 317.709 593.518 318.611 592.659C319.513 591.8 320.275 590.866 320.898 589.856C321.542 588.847 322.068 587.891 322.476 586.989L340.16 546.757H333.493L324.505 569.369L322.863 573.46L321.316 569.241L311.749 546.757H305.082L320.092 579.967L317.709 584.606C317.494 585.035 317.193 585.583 316.807 586.249C316.442 586.914 316.001 587.558 315.486 588.181C314.949 588.804 314.337 589.341 313.65 589.792C312.984 590.243 312.243 590.468 311.427 590.468C311.127 590.468 310.708 590.447 310.171 590.404C309.656 590.382 309.13 590.35 308.593 590.307L307.626 595.171C308.013 595.257 308.582 595.364 309.334 595.493C310.085 595.622 310.74 595.687 311.299 595.687ZM374.176 563.539V558.643H349.534V563.539H374.176ZM387.705 595.01H393.664V578.26C394.094 578.732 394.556 579.173 395.05 579.581C395.543 579.967 396.07 580.322 396.628 580.644C397.551 581.159 398.582 581.556 399.72 581.835C400.88 582.115 402.125 582.254 403.457 582.254C405.647 582.254 407.591 581.803 409.287 580.901C411.005 579.999 412.444 578.754 413.604 577.165C414.763 575.576 415.644 573.707 416.245 571.56C416.846 569.391 417.147 567.061 417.147 564.57V563.893C417.147 561.295 416.846 558.911 416.245 556.742C415.644 554.552 414.763 552.673 413.604 551.105C412.444 549.538 411.005 548.314 409.287 547.433C407.569 546.553 405.594 546.112 403.36 546.112C402.093 546.112 400.901 546.252 399.785 546.531C398.689 546.789 397.691 547.175 396.789 547.691C396.145 548.034 395.543 548.453 394.985 548.947C394.427 549.42 393.911 549.956 393.439 550.558L393.149 546.757H387.705V595.01ZM411.188 563.893V564.57C411.188 566.266 410.994 567.888 410.608 569.434C410.243 570.98 409.674 572.344 408.901 573.525C408.128 574.706 407.14 575.651 405.937 576.359C404.735 577.047 403.306 577.39 401.653 577.39C400.622 577.39 399.677 577.261 398.818 577.004C397.981 576.746 397.218 576.392 396.531 575.941C395.93 575.554 395.393 575.082 394.921 574.523C394.448 573.965 394.029 573.364 393.664 572.719V555.937C394.072 555.207 394.545 554.541 395.082 553.94C395.619 553.339 396.231 552.834 396.918 552.426C397.541 552.018 398.238 551.707 399.012 551.492C399.806 551.277 400.665 551.17 401.589 551.17C403.264 551.17 404.702 551.513 405.905 552.201C407.107 552.888 408.106 553.811 408.901 554.971C409.674 556.152 410.243 557.515 410.608 559.062C410.994 560.586 411.188 562.197 411.188 563.893ZM450.196 546.112C447.662 546.112 445.397 546.671 443.4 547.787C441.424 548.883 439.727 550.386 438.31 552.297L438.278 551.427L438.02 546.757H432.351V581.61H438.342V559.255C438.729 558.181 439.212 557.215 439.792 556.356C440.393 555.475 441.091 554.735 441.886 554.133C442.766 553.446 443.797 552.931 444.978 552.587C446.159 552.222 447.48 552.039 448.94 552.039C450.078 552.039 451.163 552.104 452.193 552.233C453.246 552.34 454.352 552.523 455.511 552.78L456.317 546.95C455.715 546.692 454.813 546.488 453.611 546.338C452.43 546.188 451.291 546.112 450.196 546.112ZM465.304 563.861V564.57C465.304 567.082 465.669 569.412 466.399 571.56C467.129 573.707 468.181 575.576 469.556 577.165C470.909 578.754 472.562 579.999 474.516 580.901C476.492 581.803 478.715 582.254 481.184 582.254C483.632 582.254 485.833 581.803 487.788 580.901C489.742 579.999 491.406 578.754 492.78 577.165C494.133 575.576 495.175 573.707 495.905 571.56C496.635 569.412 497 567.082 497 564.57V563.861C497 561.349 496.635 559.019 495.905 556.871C495.175 554.702 494.133 552.823 492.78 551.234C491.406 549.645 489.731 548.4 487.755 547.498C485.801 546.574 483.589 546.112 481.12 546.112C478.672 546.112 476.47 546.574 474.516 547.498C472.562 548.4 470.909 549.645 469.556 551.234C468.181 552.823 467.129 554.702 466.399 556.871C465.669 559.019 465.304 561.349 465.304 563.861ZM471.263 564.57V563.861C471.263 562.165 471.467 560.543 471.875 558.997C472.283 557.43 472.906 556.055 473.743 554.874C474.559 553.693 475.579 552.759 476.803 552.072C478.027 551.363 479.466 551.009 481.12 551.009C482.773 551.009 484.212 551.363 485.436 552.072C486.682 552.759 487.723 553.693 488.561 554.874C489.377 556.055 489.989 557.43 490.397 558.997C490.826 560.543 491.041 562.165 491.041 563.861V564.57C491.041 566.288 490.837 567.931 490.429 569.498C490.021 571.044 489.409 572.408 488.593 573.589C487.755 574.77 486.714 575.704 485.468 576.392C484.244 577.079 482.816 577.422 481.184 577.422C479.531 577.422 478.081 577.079 476.836 576.392C475.59 575.704 474.559 574.77 473.743 573.589C472.906 572.408 472.283 571.044 471.875 569.498C471.467 567.931 471.263 566.288 471.263 564.57ZM510.626 546.757V551.943H522.254V581.835C522.254 583.489 522.04 584.874 521.61 585.991C521.202 587.129 520.633 588.042 519.903 588.729C519.173 589.416 518.314 589.899 517.326 590.178C516.338 590.479 515.286 590.629 514.169 590.629C513.869 590.629 513.45 590.619 512.913 590.597C512.397 590.597 511.861 590.576 511.302 590.533C510.722 590.511 510.153 590.468 509.595 590.404C509.037 590.361 508.575 590.307 508.21 590.243L507.791 595.139C508.328 595.225 508.843 595.3 509.337 595.364C509.831 595.45 510.325 595.515 510.819 595.558C511.42 595.601 512.032 595.633 512.655 595.654C513.278 595.676 513.922 595.687 514.588 595.687C516.735 595.687 518.647 595.375 520.322 594.752C522.018 594.151 523.457 593.26 524.638 592.079C525.798 590.919 526.678 589.48 527.279 587.762C527.902 586.044 528.214 584.069 528.214 581.835V546.757H510.626ZM521.417 537.576C521.417 538.543 521.707 539.359 522.287 540.024C522.866 540.669 523.758 540.991 524.96 540.991C526.163 540.991 527.065 540.669 527.666 540.024C528.267 539.359 528.568 538.543 528.568 537.576C528.568 536.61 528.267 535.794 527.666 535.128C527.065 534.441 526.163 534.097 524.96 534.097C523.758 534.097 522.866 534.441 522.287 535.128C521.707 535.794 521.417 536.61 521.417 537.576ZM561.617 582.254C565.01 582.254 567.856 581.578 570.153 580.225C572.473 578.85 574.212 577.283 575.372 575.522L571.732 572.687C570.637 574.105 569.262 575.243 567.609 576.102C565.955 576.961 564.065 577.39 561.939 577.39C560.329 577.39 558.858 577.09 557.526 576.488C556.195 575.887 555.057 575.06 554.112 574.008C553.189 573.02 552.458 571.882 551.922 570.594C551.406 569.305 551.073 567.813 550.923 566.116V565.891H575.823V563.217C575.823 560.79 575.511 558.536 574.889 556.452C574.287 554.369 573.364 552.555 572.118 551.009C570.873 549.484 569.305 548.292 567.415 547.433C565.547 546.553 563.357 546.112 560.844 546.112C558.847 546.112 556.893 546.52 554.982 547.337C553.092 548.153 551.406 549.323 549.924 550.848C548.421 552.394 547.219 554.284 546.317 556.517C545.415 558.729 544.964 561.241 544.964 564.054V565.407C544.964 567.834 545.372 570.078 546.188 572.14C547.004 574.201 548.142 575.984 549.602 577.487C551.063 578.99 552.813 580.16 554.853 580.998C556.914 581.835 559.169 582.254 561.617 582.254ZM560.844 551.009C562.369 551.009 563.679 551.288 564.774 551.846C565.891 552.405 566.814 553.135 567.544 554.037C568.274 554.939 568.844 556.012 569.252 557.258C569.66 558.482 569.864 559.631 569.864 560.704V560.994H551.116C551.352 559.384 551.76 557.966 552.34 556.742C552.942 555.497 553.672 554.445 554.531 553.586C555.39 552.748 556.356 552.115 557.43 551.685C558.503 551.234 559.642 551.009 560.844 551.009ZM600.69 577.422C598.822 577.422 597.254 577.057 595.987 576.327C594.742 575.576 593.743 574.599 592.992 573.396C592.219 572.215 591.66 570.883 591.317 569.402C590.995 567.898 590.834 566.384 590.834 564.86V563.507C590.834 562.004 590.995 560.511 591.317 559.029C591.66 557.548 592.219 556.206 592.992 555.003C593.765 553.822 594.774 552.866 596.02 552.136C597.287 551.384 598.844 551.009 600.69 551.009C601.893 551.009 603.01 551.213 604.04 551.621C605.093 552.029 605.995 552.587 606.746 553.296C607.498 554.004 608.088 554.831 608.518 555.776C608.969 556.699 609.205 557.687 609.227 558.74H614.864C614.864 556.979 614.509 555.325 613.801 553.779C613.092 552.233 612.115 550.891 610.869 549.752C609.602 548.636 608.099 547.755 606.36 547.111C604.642 546.445 602.752 546.112 600.69 546.112C598.049 546.112 595.74 546.585 593.765 547.53C591.789 548.475 590.146 549.742 588.836 551.331C587.505 552.941 586.506 554.799 585.841 556.903C585.175 559.008 584.842 561.209 584.842 563.507V564.86C584.842 567.179 585.175 569.391 585.841 571.495C586.506 573.578 587.505 575.415 588.836 577.004C590.146 578.614 591.789 579.892 593.765 580.837C595.74 581.782 598.049 582.254 600.69 582.254C602.537 582.254 604.309 581.943 606.005 581.32C607.702 580.676 609.205 579.817 610.515 578.743C611.825 577.691 612.866 576.467 613.64 575.071C614.434 573.654 614.842 572.172 614.864 570.626H609.227C609.205 571.592 608.947 572.494 608.453 573.332C607.981 574.148 607.348 574.856 606.553 575.458C605.758 576.08 604.846 576.563 603.815 576.907C602.806 577.251 601.764 577.422 600.69 577.422ZM639.57 538.317H633.579V546.757H624.431V551.363H633.579V570.304C633.579 572.451 633.858 574.287 634.416 575.812C634.996 577.315 635.78 578.539 636.768 579.484C637.756 580.45 638.915 581.159 640.247 581.61C641.599 582.039 643.049 582.254 644.595 582.254C645.519 582.254 646.442 582.211 647.365 582.125C648.31 582.039 649.201 581.911 650.039 581.739C650.877 581.589 651.65 581.406 652.358 581.191C653.067 580.955 653.668 580.687 654.162 580.386L653.325 576.166C652.96 576.252 652.487 576.359 651.907 576.488C651.349 576.596 650.748 576.703 650.103 576.81C649.438 576.918 648.761 577.014 648.074 577.1C647.387 577.165 646.721 577.197 646.077 577.197C645.196 577.197 644.359 577.09 643.564 576.875C642.791 576.66 642.104 576.284 641.503 575.747C640.902 575.232 640.429 574.534 640.086 573.654C639.742 572.773 639.57 571.657 639.57 570.304V551.363H652.841V546.757H639.57V538.317ZM665.211 575.264L693.654 563.056V558.353L665.211 546.177V552.329L686.052 560.06L687.985 560.672L686.052 561.22L665.211 569.08V575.264Z" fill="#8EA4BE"/>
<path d="M350.855 372.757H345.508V407.61H351.177V379.876C351.306 379.532 351.467 379.21 351.66 378.909C351.875 378.609 352.122 378.34 352.401 378.104C352.766 377.803 353.206 377.578 353.722 377.427C354.258 377.256 354.881 377.17 355.59 377.17C356.234 377.17 356.792 377.256 357.265 377.427C357.759 377.578 358.167 377.825 358.489 378.168C358.833 378.533 359.08 378.995 359.23 379.553C359.402 380.112 359.488 380.756 359.488 381.486V407.61H365.157V381.518C365.157 381.389 365.157 381.282 365.157 381.196C365.157 381.089 365.157 380.981 365.157 380.874C365.221 380.337 365.35 379.854 365.543 379.425C365.737 378.974 366.005 378.576 366.349 378.233C366.692 377.911 367.122 377.653 367.637 377.46C368.153 377.266 368.765 377.17 369.473 377.17C370.139 377.17 370.719 377.256 371.213 377.427C371.728 377.599 372.158 377.857 372.501 378.201C372.823 378.566 373.07 379.027 373.242 379.586C373.414 380.144 373.5 380.788 373.5 381.518V407.61H379.169V381.583C379.169 379.908 378.976 378.458 378.589 377.234C378.203 375.989 377.644 374.979 376.914 374.206C376.248 373.519 375.432 373.004 374.466 372.66C373.5 372.295 372.415 372.112 371.213 372.112C370.332 372.134 369.516 372.252 368.765 372.467C368.034 372.682 367.369 372.971 366.767 373.337C366.295 373.659 365.855 374.034 365.447 374.464C365.039 374.893 364.684 375.355 364.384 375.849C364.148 375.312 363.858 374.829 363.514 374.4C363.192 373.97 362.827 373.605 362.419 373.304C361.86 372.918 361.206 372.628 360.454 372.435C359.724 372.22 358.897 372.112 357.974 372.112C356.342 372.134 354.946 372.488 353.786 373.175C352.648 373.863 351.724 374.818 351.016 376.042L350.855 372.757ZM398.174 391.343L410.962 407.61H418.532L402.265 387.284L416.374 372.757H409.126L397.691 384.224L393.793 388.412V358.132H387.802V407.61H393.793V395.563L398.174 391.343ZM426.231 389.893V390.57C426.231 393.061 426.563 395.391 427.229 397.56C427.895 399.707 428.829 401.576 430.032 403.165C431.234 404.754 432.684 405.999 434.38 406.901C436.098 407.803 438.009 408.254 440.114 408.254C442.261 408.254 444.14 407.889 445.751 407.159C447.362 406.429 448.747 405.355 449.906 403.938L450.164 407.61H455.64V358.132H449.681V376.203C448.543 374.872 447.19 373.863 445.622 373.175C444.076 372.467 442.261 372.112 440.178 372.112C438.052 372.112 436.13 372.553 434.412 373.433C432.694 374.314 431.234 375.538 430.032 377.105C428.808 378.673 427.863 380.552 427.197 382.742C426.553 384.911 426.231 387.295 426.231 389.893ZM432.19 390.57V389.893C432.19 388.197 432.372 386.586 432.737 385.062C433.103 383.515 433.672 382.152 434.445 380.971C435.196 379.811 436.163 378.888 437.344 378.201C438.546 377.513 439.985 377.17 441.66 377.17C443.614 377.17 445.246 377.631 446.556 378.555C447.866 379.457 448.908 380.616 449.681 382.034V398.204C448.908 399.729 447.866 400.942 446.556 401.844C445.246 402.746 443.593 403.197 441.596 403.197C439.942 403.197 438.525 402.864 437.344 402.198C436.163 401.511 435.196 400.588 434.445 399.428C433.672 398.269 433.103 396.926 432.737 395.402C432.372 393.877 432.19 392.266 432.19 390.57ZM467.913 372.757V377.943H479.767V402.456H467.913V407.61H497.097V402.456H485.726V372.757H467.913ZM478.994 363.609C478.994 364.575 479.284 365.38 479.863 366.024C480.465 366.669 481.367 366.991 482.569 366.991C483.75 366.991 484.642 366.669 485.243 366.024C485.844 365.38 486.145 364.575 486.145 363.609C486.145 363.072 486.059 362.578 485.887 362.127C485.715 361.676 485.458 361.3 485.114 360.999C484.835 360.72 484.481 360.505 484.051 360.355C483.622 360.183 483.128 360.097 482.569 360.097C482.011 360.097 481.506 360.183 481.055 360.355C480.626 360.505 480.271 360.72 479.992 360.999C479.649 361.321 479.391 361.708 479.219 362.159C479.069 362.61 478.994 363.093 478.994 363.609ZM529.438 372.112C526.904 372.112 524.638 372.671 522.641 373.787C520.665 374.883 518.969 376.386 517.551 378.297L517.519 377.427L517.261 372.757H511.592V407.61H517.584V385.255C517.97 384.181 518.453 383.215 519.033 382.356C519.634 381.475 520.332 380.735 521.127 380.133C522.007 379.446 523.038 378.931 524.219 378.587C525.4 378.222 526.721 378.039 528.181 378.039C529.319 378.039 530.404 378.104 531.435 378.233C532.487 378.34 533.593 378.523 534.753 378.78L535.558 372.95C534.957 372.692 534.055 372.488 532.852 372.338C531.671 372.188 530.533 372.112 529.438 372.112ZM588.579 372.757H583.232V407.61H588.901V379.876C589.03 379.532 589.191 379.21 589.384 378.909C589.599 378.609 589.846 378.34 590.125 378.104C590.49 377.803 590.93 377.578 591.446 377.427C591.982 377.256 592.605 377.17 593.314 377.17C593.958 377.17 594.516 377.256 594.989 377.427C595.483 377.578 595.891 377.825 596.213 378.168C596.557 378.533 596.803 378.995 596.954 379.553C597.126 380.112 597.211 380.756 597.211 381.486V407.61H602.881V381.518C602.881 381.389 602.881 381.282 602.881 381.196C602.881 381.089 602.881 380.981 602.881 380.874C602.945 380.337 603.074 379.854 603.267 379.425C603.461 378.974 603.729 378.576 604.073 378.233C604.416 377.911 604.846 377.653 605.361 377.46C605.876 377.266 606.489 377.17 607.197 377.17C607.863 377.17 608.443 377.256 608.937 377.427C609.452 377.599 609.882 377.857 610.225 378.201C610.547 378.566 610.794 379.027 610.966 379.586C611.138 380.144 611.224 380.788 611.224 381.518V407.61H616.893V381.583C616.893 379.908 616.7 378.458 616.313 377.234C615.927 375.989 615.368 374.979 614.638 374.206C613.972 373.519 613.156 373.004 612.19 372.66C611.224 372.295 610.139 372.112 608.937 372.112C608.056 372.134 607.24 372.252 606.489 372.467C605.758 372.682 605.093 372.971 604.491 373.337C604.019 373.659 603.579 374.034 603.171 374.464C602.763 374.893 602.408 375.355 602.108 375.849C601.871 375.312 601.582 374.829 601.238 374.4C600.916 373.97 600.551 373.605 600.143 373.304C599.584 372.918 598.929 372.628 598.178 372.435C597.448 372.22 596.621 372.112 595.698 372.112C594.065 372.134 592.67 372.488 591.51 373.175C590.372 373.863 589.448 374.818 588.74 376.042L588.579 372.757ZM628.264 421.687C629.831 421.687 631.217 421.397 632.419 420.817C633.622 420.237 634.674 419.518 635.576 418.659C636.478 417.8 637.24 416.866 637.863 415.856C638.507 414.847 639.033 413.891 639.441 412.989L657.126 372.757H650.458L641.471 395.369L639.828 399.46L638.282 395.241L628.715 372.757H622.047L637.058 405.967L634.674 410.606C634.459 411.035 634.159 411.583 633.772 412.249C633.407 412.914 632.967 413.558 632.451 414.181C631.914 414.804 631.302 415.341 630.615 415.792C629.95 416.243 629.209 416.468 628.393 416.468C628.092 416.468 627.673 416.447 627.136 416.404C626.621 416.382 626.095 416.35 625.558 416.307L624.592 421.171C624.978 421.257 625.547 421.364 626.299 421.493C627.05 421.622 627.705 421.687 628.264 421.687ZM691.141 389.539V384.643H666.499V389.539H691.141ZM704.67 421.01H710.63V404.26C711.059 404.732 711.521 405.173 712.015 405.581C712.509 405.967 713.035 406.322 713.593 406.644C714.517 407.159 715.547 407.556 716.685 407.835C717.845 408.115 719.091 408.254 720.422 408.254C722.612 408.254 724.556 407.803 726.252 406.901C727.97 405.999 729.409 404.754 730.569 403.165C731.728 401.576 732.609 399.707 733.21 397.56C733.811 395.391 734.112 393.061 734.112 390.57V389.893C734.112 387.295 733.811 384.911 733.21 382.742C732.609 380.552 731.728 378.673 730.569 377.105C729.409 375.538 727.97 374.314 726.252 373.433C724.534 372.553 722.559 372.112 720.325 372.112C719.058 372.112 717.867 372.252 716.75 372.531C715.655 372.789 714.656 373.175 713.754 373.691C713.11 374.034 712.509 374.453 711.95 374.947C711.392 375.42 710.877 375.956 710.404 376.558L710.114 372.757H704.67V421.01ZM728.153 389.893V390.57C728.153 392.266 727.96 393.888 727.573 395.434C727.208 396.98 726.639 398.344 725.866 399.525C725.093 400.706 724.105 401.651 722.902 402.359C721.7 403.047 720.272 403.39 718.618 403.39C717.587 403.39 716.643 403.261 715.784 403.004C714.946 402.746 714.184 402.392 713.497 401.941C712.895 401.554 712.358 401.082 711.886 400.523C711.413 399.965 710.995 399.364 710.63 398.719V381.937C711.038 381.207 711.51 380.541 712.047 379.94C712.584 379.339 713.196 378.834 713.883 378.426C714.506 378.018 715.204 377.707 715.977 377.492C716.771 377.277 717.63 377.17 718.554 377.17C720.229 377.17 721.668 377.513 722.87 378.201C724.073 378.888 725.071 379.811 725.866 380.971C726.639 382.152 727.208 383.515 727.573 385.062C727.96 386.586 728.153 388.197 728.153 389.893ZM767.162 372.112C764.628 372.112 762.362 372.671 760.365 373.787C758.389 374.883 756.693 376.386 755.275 378.297L755.243 377.427L754.985 372.757H749.316V407.61H755.308V385.255C755.694 384.181 756.177 383.215 756.757 382.356C757.358 381.475 758.056 380.735 758.851 380.133C759.731 379.446 760.762 378.931 761.943 378.587C763.124 378.222 764.445 378.039 765.905 378.039C767.043 378.039 768.128 378.104 769.159 378.233C770.211 378.34 771.317 378.523 772.477 378.78L773.282 372.95C772.681 372.692 771.779 372.488 770.576 372.338C769.395 372.188 768.257 372.112 767.162 372.112ZM782.269 389.861V390.57C782.269 393.082 782.634 395.412 783.364 397.56C784.094 399.707 785.147 401.576 786.521 403.165C787.874 404.754 789.527 405.999 791.482 406.901C793.457 407.803 795.68 408.254 798.149 408.254C800.597 408.254 802.799 407.803 804.753 406.901C806.707 405.999 808.371 404.754 809.746 403.165C811.099 401.576 812.14 399.707 812.87 397.56C813.6 395.412 813.965 393.082 813.965 390.57V389.861C813.965 387.349 813.6 385.019 812.87 382.871C812.14 380.702 811.099 378.823 809.746 377.234C808.371 375.645 806.696 374.4 804.721 373.498C802.766 372.574 800.555 372.112 798.085 372.112C795.637 372.112 793.436 372.574 791.482 373.498C789.527 374.4 787.874 375.645 786.521 377.234C785.147 378.823 784.094 380.702 783.364 382.871C782.634 385.019 782.269 387.349 782.269 389.861ZM788.228 390.57V389.861C788.228 388.165 788.432 386.543 788.84 384.997C789.248 383.43 789.871 382.055 790.708 380.874C791.524 379.693 792.545 378.759 793.769 378.072C794.993 377.363 796.431 377.009 798.085 377.009C799.738 377.009 801.177 377.363 802.401 378.072C803.647 378.759 804.688 379.693 805.526 380.874C806.342 382.055 806.954 383.43 807.362 384.997C807.791 386.543 808.006 388.165 808.006 389.861V390.57C808.006 392.288 807.802 393.931 807.394 395.498C806.986 397.044 806.374 398.408 805.558 399.589C804.721 400.77 803.679 401.704 802.434 402.392C801.21 403.079 799.781 403.422 798.149 403.422C796.496 403.422 795.046 403.079 793.801 402.392C792.555 401.704 791.524 400.77 790.708 399.589C789.871 398.408 789.248 397.044 788.84 395.498C788.432 393.931 788.228 392.288 788.228 390.57ZM827.591 372.757V377.943H839.22V407.835C839.22 409.489 839.005 410.874 838.575 411.991C838.167 413.129 837.598 414.042 836.868 414.729C836.138 415.416 835.279 415.899 834.291 416.178C833.303 416.479 832.251 416.629 831.134 416.629C830.834 416.629 830.415 416.619 829.878 416.597C829.363 416.597 828.826 416.576 828.268 416.533C827.688 416.511 827.119 416.468 826.56 416.404C826.002 416.361 825.54 416.307 825.175 416.243L824.756 421.139C825.293 421.225 825.809 421.3 826.303 421.364C826.797 421.45 827.29 421.515 827.784 421.558C828.386 421.601 828.998 421.633 829.62 421.654C830.243 421.676 830.887 421.687 831.553 421.687C833.701 421.687 835.612 421.375 837.287 420.752C838.983 420.151 840.422 419.26 841.603 418.079C842.763 416.919 843.643 415.48 844.245 413.762C844.867 412.044 845.179 410.069 845.179 407.835V372.757H827.591ZM838.382 363.576C838.382 364.543 838.672 365.359 839.252 366.024C839.832 366.669 840.723 366.991 841.925 366.991C843.128 366.991 844.03 366.669 844.631 366.024C845.232 365.359 845.533 364.543 845.533 363.576C845.533 362.61 845.232 361.794 844.631 361.128C844.03 360.441 843.128 360.097 841.925 360.097C840.723 360.097 839.832 360.441 839.252 361.128C838.672 361.794 838.382 362.61 838.382 363.576ZM878.583 408.254C881.976 408.254 884.821 407.578 887.119 406.225C889.438 404.85 891.177 403.283 892.337 401.522L888.697 398.687C887.602 400.105 886.228 401.243 884.574 402.102C882.92 402.961 881.031 403.39 878.905 403.39C877.294 403.39 875.823 403.09 874.492 402.488C873.16 401.887 872.022 401.06 871.077 400.008C870.154 399.02 869.424 397.882 868.887 396.594C868.371 395.305 868.039 393.813 867.888 392.116V391.891H892.788V389.217C892.788 386.79 892.477 384.536 891.854 382.452C891.253 380.369 890.329 378.555 889.084 377.009C887.838 375.484 886.27 374.292 884.381 373.433C882.512 372.553 880.322 372.112 877.809 372.112C875.812 372.112 873.858 372.52 871.947 373.337C870.057 374.153 868.371 375.323 866.89 376.848C865.386 378.394 864.184 380.284 863.282 382.517C862.38 384.729 861.929 387.241 861.929 390.054V391.407C861.929 393.834 862.337 396.078 863.153 398.14C863.969 400.201 865.107 401.984 866.568 403.487C868.028 404.99 869.778 406.16 871.818 406.998C873.88 407.835 876.134 408.254 878.583 408.254ZM877.809 377.009C879.334 377.009 880.644 377.288 881.739 377.846C882.856 378.405 883.779 379.135 884.51 380.037C885.24 380.939 885.809 382.012 886.217 383.258C886.625 384.482 886.829 385.631 886.829 386.704V386.994H868.081C868.318 385.384 868.726 383.966 869.306 382.742C869.907 381.497 870.637 380.445 871.496 379.586C872.355 378.748 873.321 378.115 874.395 377.685C875.469 377.234 876.607 377.009 877.809 377.009ZM917.656 403.422C915.787 403.422 914.22 403.057 912.953 402.327C911.707 401.576 910.709 400.599 909.957 399.396C909.184 398.215 908.626 396.883 908.282 395.402C907.96 393.898 907.799 392.384 907.799 390.86V389.507C907.799 388.004 907.96 386.511 908.282 385.029C908.626 383.548 909.184 382.206 909.957 381.003C910.73 379.822 911.739 378.866 912.985 378.136C914.252 377.384 915.809 377.009 917.656 377.009C918.858 377.009 919.975 377.213 921.006 377.621C922.058 378.029 922.96 378.587 923.711 379.296C924.463 380.004 925.054 380.831 925.483 381.776C925.934 382.699 926.17 383.687 926.192 384.74H931.829C931.829 382.979 931.475 381.325 930.766 379.779C930.057 378.233 929.08 376.891 927.835 375.752C926.568 374.636 925.064 373.755 923.325 373.111C921.607 372.445 919.717 372.112 917.656 372.112C915.014 372.112 912.706 372.585 910.73 373.53C908.754 374.475 907.112 375.742 905.802 377.331C904.47 378.941 903.472 380.799 902.806 382.903C902.14 385.008 901.807 387.209 901.807 389.507V390.86C901.807 393.179 902.14 395.391 902.806 397.495C903.472 399.578 904.47 401.415 905.802 403.004C907.112 404.614 908.754 405.892 910.73 406.837C912.706 407.782 915.014 408.254 917.656 408.254C919.502 408.254 921.274 407.943 922.971 407.32C924.667 406.676 926.17 405.817 927.48 404.743C928.79 403.691 929.832 402.467 930.605 401.071C931.399 399.654 931.807 398.172 931.829 396.626H926.192C926.17 397.592 925.913 398.494 925.419 399.332C924.946 400.148 924.313 400.856 923.518 401.458C922.724 402.08 921.811 402.563 920.78 402.907C919.771 403.251 918.729 403.422 917.656 403.422ZM956.535 364.317H950.544V372.757H941.396V377.363H950.544V396.304C950.544 398.451 950.823 400.287 951.382 401.812C951.961 403.315 952.745 404.539 953.733 405.484C954.721 406.45 955.88 407.159 957.212 407.61C958.565 408.039 960.014 408.254 961.56 408.254C962.484 408.254 963.407 408.211 964.331 408.125C965.276 408.039 966.167 407.911 967.004 407.739C967.842 407.589 968.615 407.406 969.324 407.191C970.032 406.955 970.633 406.687 971.127 406.386L970.29 402.166C969.925 402.252 969.452 402.359 968.873 402.488C968.314 402.596 967.713 402.703 967.069 402.81C966.403 402.918 965.727 403.014 965.039 403.1C964.352 403.165 963.686 403.197 963.042 403.197C962.162 403.197 961.324 403.09 960.53 402.875C959.757 402.66 959.069 402.284 958.468 401.747C957.867 401.232 957.394 400.534 957.051 399.654C956.707 398.773 956.535 397.657 956.535 396.304V377.363H969.807V372.757H956.535V364.317ZM362.966 490.422C361.098 490.422 359.53 490.057 358.263 489.327C357.018 488.576 356.019 487.599 355.268 486.396C354.495 485.215 353.936 483.883 353.593 482.402C353.271 480.898 353.11 479.384 353.11 477.86V476.507C353.11 475.004 353.271 473.511 353.593 472.029C353.936 470.548 354.495 469.206 355.268 468.003C356.041 466.822 357.05 465.866 358.296 465.136C359.563 464.384 361.12 464.009 362.966 464.009C364.169 464.009 365.286 464.213 366.316 464.621C367.369 465.029 368.271 465.587 369.022 466.296C369.774 467.004 370.364 467.831 370.794 468.776C371.245 469.699 371.481 470.687 371.503 471.74H377.14C377.14 469.979 376.785 468.325 376.077 466.779C375.368 465.233 374.391 463.891 373.145 462.752C371.878 461.636 370.375 460.755 368.636 460.111C366.918 459.445 365.028 459.112 362.966 459.112C360.325 459.112 358.017 459.585 356.041 460.53C354.065 461.475 352.422 462.742 351.112 464.331C349.781 465.941 348.782 467.799 348.117 469.903C347.451 472.008 347.118 474.209 347.118 476.507V477.86C347.118 480.179 347.451 482.391 348.117 484.495C348.782 486.578 349.781 488.415 351.112 490.004C352.422 491.614 354.065 492.892 356.041 493.837C358.017 494.782 360.325 495.254 362.966 495.254C364.813 495.254 366.585 494.943 368.281 494.32C369.978 493.676 371.481 492.817 372.791 491.743C374.101 490.691 375.143 489.467 375.916 488.071C376.71 486.654 377.118 485.172 377.14 483.626H371.503C371.481 484.592 371.223 485.494 370.73 486.332C370.257 487.148 369.624 487.856 368.829 488.458C368.034 489.08 367.122 489.563 366.091 489.907C365.082 490.251 364.04 490.422 362.966 490.422ZM386.61 476.893V477.57C386.61 480.061 386.943 482.391 387.609 484.56C388.274 486.707 389.208 488.576 390.411 490.165C391.614 491.754 393.063 492.999 394.76 493.901C396.478 494.803 398.389 495.254 400.493 495.254C402.641 495.254 404.52 494.889 406.13 494.159C407.741 493.429 409.126 492.355 410.286 490.938L410.543 494.61H416.019V445.132H410.06V463.203C408.922 461.872 407.569 460.863 406.002 460.175C404.455 459.467 402.641 459.112 400.558 459.112C398.432 459.112 396.51 459.553 394.792 460.433C393.074 461.314 391.614 462.538 390.411 464.105C389.187 465.673 388.242 467.552 387.576 469.742C386.932 471.911 386.61 474.295 386.61 476.893ZM392.569 477.57V476.893C392.569 475.197 392.752 473.586 393.117 472.062C393.482 470.515 394.051 469.152 394.824 467.971C395.576 466.811 396.542 465.888 397.723 465.201C398.926 464.513 400.364 464.17 402.039 464.17C403.994 464.17 405.626 464.631 406.936 465.555C408.246 466.457 409.287 467.616 410.06 469.034V485.204C409.287 486.729 408.246 487.942 406.936 488.844C405.626 489.746 403.972 490.197 401.975 490.197C400.322 490.197 398.904 489.864 397.723 489.198C396.542 488.511 395.576 487.588 394.824 486.428C394.051 485.269 393.482 483.926 393.117 482.402C392.752 480.877 392.569 479.266 392.569 477.57ZM469.717 459.757H464.37V494.61H470.039V466.876C470.168 466.532 470.329 466.21 470.522 465.909C470.737 465.609 470.984 465.34 471.263 465.104C471.628 464.803 472.068 464.578 472.584 464.427C473.12 464.256 473.743 464.17 474.452 464.17C475.096 464.17 475.654 464.256 476.127 464.427C476.621 464.578 477.029 464.825 477.351 465.168C477.695 465.533 477.942 465.995 478.092 466.553C478.264 467.112 478.35 467.756 478.35 468.486V494.61H484.019V468.518C484.019 468.389 484.019 468.282 484.019 468.196C484.019 468.089 484.019 467.981 484.019 467.874C484.083 467.337 484.212 466.854 484.405 466.425C484.599 465.974 484.867 465.576 485.211 465.233C485.554 464.911 485.984 464.653 486.499 464.46C487.015 464.266 487.627 464.17 488.335 464.17C489.001 464.17 489.581 464.256 490.075 464.427C490.59 464.599 491.02 464.857 491.363 465.201C491.685 465.566 491.932 466.027 492.104 466.586C492.276 467.144 492.362 467.788 492.362 468.518V494.61H498.031V468.583C498.031 466.908 497.838 465.458 497.451 464.234C497.065 462.989 496.506 461.979 495.776 461.206C495.11 460.519 494.294 460.004 493.328 459.66C492.362 459.295 491.277 459.112 490.075 459.112C489.194 459.134 488.378 459.252 487.627 459.467C486.896 459.682 486.231 459.971 485.629 460.337C485.157 460.659 484.717 461.034 484.309 461.464C483.901 461.893 483.546 462.355 483.246 462.849C483.01 462.312 482.72 461.829 482.376 461.4C482.054 460.97 481.689 460.605 481.281 460.304C480.722 459.918 480.067 459.628 479.316 459.435C478.586 459.22 477.759 459.112 476.836 459.112C475.203 459.134 473.808 459.488 472.648 460.175C471.51 460.863 470.586 461.818 469.878 463.042L469.717 459.757ZM509.402 508.687C510.969 508.687 512.355 508.397 513.557 507.817C514.76 507.237 515.812 506.518 516.714 505.659C517.616 504.8 518.378 503.866 519.001 502.856C519.645 501.847 520.171 500.891 520.579 499.989L538.264 459.757H531.596L522.609 482.369L520.966 486.46L519.42 482.241L509.853 459.757H503.185L518.196 492.967L515.812 497.606C515.597 498.035 515.297 498.583 514.91 499.249C514.545 499.914 514.105 500.558 513.589 501.181C513.052 501.804 512.44 502.341 511.753 502.792C511.088 503.243 510.347 503.468 509.531 503.468C509.23 503.468 508.811 503.447 508.274 503.404C507.759 503.382 507.233 503.35 506.696 503.307L505.73 508.171C506.116 508.257 506.685 508.364 507.437 508.493C508.188 508.622 508.843 508.687 509.402 508.687ZM572.279 476.539V471.643H547.637V476.539H572.279ZM585.808 508.01H591.768V491.26C592.197 491.732 592.659 492.173 593.153 492.581C593.647 492.967 594.173 493.322 594.731 493.644C595.655 494.159 596.685 494.556 597.824 494.835C598.983 495.115 600.229 495.254 601.56 495.254C603.751 495.254 605.694 494.803 607.39 493.901C609.108 492.999 610.547 491.754 611.707 490.165C612.866 488.576 613.747 486.707 614.348 484.56C614.95 482.391 615.25 480.061 615.25 477.57V476.893C615.25 474.295 614.95 471.911 614.348 469.742C613.747 467.552 612.866 465.673 611.707 464.105C610.547 462.538 609.108 461.314 607.39 460.433C605.672 459.553 603.697 459.112 601.463 459.112C600.196 459.112 599.005 459.252 597.888 459.531C596.793 459.789 595.794 460.175 594.892 460.691C594.248 461.034 593.647 461.453 593.088 461.947C592.53 462.42 592.015 462.956 591.542 463.558L591.252 459.757H585.808V508.01ZM609.291 476.893V477.57C609.291 479.266 609.098 480.888 608.711 482.434C608.346 483.98 607.777 485.344 607.004 486.525C606.231 487.706 605.243 488.651 604.04 489.359C602.838 490.047 601.41 490.39 599.756 490.39C598.725 490.39 597.781 490.261 596.922 490.004C596.084 489.746 595.322 489.392 594.635 488.941C594.033 488.554 593.496 488.082 593.024 487.523C592.551 486.965 592.133 486.364 591.768 485.719V468.937C592.176 468.207 592.648 467.541 593.185 466.94C593.722 466.339 594.334 465.834 595.021 465.426C595.644 465.018 596.342 464.707 597.115 464.492C597.909 464.277 598.768 464.17 599.692 464.17C601.367 464.17 602.806 464.513 604.008 465.201C605.211 465.888 606.209 466.811 607.004 467.971C607.777 469.152 608.346 470.515 608.711 472.062C609.098 473.586 609.291 475.197 609.291 476.893ZM648.3 459.112C645.766 459.112 643.5 459.671 641.503 460.787C639.527 461.883 637.831 463.386 636.413 465.297L636.381 464.427L636.123 459.757H630.454V494.61H636.446V472.255C636.832 471.181 637.315 470.215 637.895 469.356C638.496 468.475 639.194 467.735 639.989 467.133C640.869 466.446 641.9 465.931 643.081 465.587C644.262 465.222 645.583 465.039 647.043 465.039C648.181 465.039 649.266 465.104 650.297 465.233C651.349 465.34 652.455 465.523 653.615 465.78L654.42 459.95C653.819 459.692 652.917 459.488 651.714 459.338C650.533 459.188 649.395 459.112 648.3 459.112ZM663.407 476.861V477.57C663.407 480.082 663.772 482.412 664.502 484.56C665.232 486.707 666.285 488.576 667.659 490.165C669.012 491.754 670.665 492.999 672.62 493.901C674.595 494.803 676.818 495.254 679.287 495.254C681.736 495.254 683.937 494.803 685.891 493.901C687.845 492.999 689.509 491.754 690.884 490.165C692.237 488.576 693.278 486.707 694.008 484.56C694.738 482.412 695.103 480.082 695.103 477.57V476.861C695.103 474.349 694.738 472.019 694.008 469.871C693.278 467.702 692.237 465.823 690.884 464.234C689.509 462.645 687.834 461.4 685.859 460.498C683.904 459.574 681.693 459.112 679.223 459.112C676.775 459.112 674.574 459.574 672.62 460.498C670.665 461.4 669.012 462.645 667.659 464.234C666.285 465.823 665.232 467.702 664.502 469.871C663.772 472.019 663.407 474.349 663.407 476.861ZM669.366 477.57V476.861C669.366 475.165 669.57 473.543 669.978 471.997C670.386 470.43 671.009 469.055 671.846 467.874C672.663 466.693 673.683 465.759 674.907 465.072C676.131 464.363 677.569 464.009 679.223 464.009C680.877 464.009 682.315 464.363 683.539 465.072C684.785 465.759 685.826 466.693 686.664 467.874C687.48 469.055 688.092 470.43 688.5 471.997C688.93 473.543 689.144 475.165 689.144 476.861V477.57C689.144 479.288 688.94 480.931 688.532 482.498C688.124 484.044 687.512 485.408 686.696 486.589C685.859 487.77 684.817 488.704 683.572 489.392C682.348 490.079 680.92 490.422 679.287 490.422C677.634 490.422 676.184 490.079 674.939 489.392C673.693 488.704 672.663 487.77 671.846 486.589C671.009 485.408 670.386 484.044 669.978 482.498C669.57 480.931 669.366 479.288 669.366 477.57ZM708.729 459.757V464.943H720.358V494.835C720.358 496.489 720.143 497.874 719.713 498.991C719.305 500.129 718.736 501.042 718.006 501.729C717.276 502.416 716.417 502.899 715.429 503.178C714.441 503.479 713.389 503.629 712.272 503.629C711.972 503.629 711.553 503.619 711.016 503.597C710.501 503.597 709.964 503.576 709.406 503.533C708.826 503.511 708.257 503.468 707.698 503.404C707.14 503.361 706.678 503.307 706.313 503.243L705.894 508.139C706.431 508.225 706.947 508.3 707.441 508.364C707.935 508.45 708.428 508.515 708.922 508.558C709.524 508.601 710.136 508.633 710.758 508.654C711.381 508.676 712.025 508.687 712.691 508.687C714.839 508.687 716.75 508.375 718.425 507.752C720.121 507.151 721.56 506.26 722.741 505.079C723.901 503.919 724.781 502.48 725.383 500.762C726.005 499.044 726.317 497.069 726.317 494.835V459.757H708.729ZM719.52 450.576C719.52 451.543 719.81 452.359 720.39 453.024C720.97 453.669 721.861 453.991 723.063 453.991C724.266 453.991 725.168 453.669 725.769 453.024C726.371 452.359 726.671 451.543 726.671 450.576C726.671 449.61 726.371 448.794 725.769 448.128C725.168 447.441 724.266 447.097 723.063 447.097C721.861 447.097 720.97 447.441 720.39 448.128C719.81 448.794 719.52 449.61 719.52 450.576ZM759.721 495.254C763.114 495.254 765.959 494.578 768.257 493.225C770.576 491.85 772.315 490.283 773.475 488.522L769.835 485.687C768.74 487.105 767.366 488.243 765.712 489.102C764.058 489.961 762.169 490.39 760.043 490.39C758.432 490.39 756.961 490.09 755.63 489.488C754.298 488.887 753.16 488.06 752.215 487.008C751.292 486.02 750.562 484.882 750.025 483.594C749.509 482.305 749.177 480.813 749.026 479.116V478.891H773.926V476.217C773.926 473.79 773.615 471.536 772.992 469.452C772.391 467.369 771.467 465.555 770.222 464.009C768.976 462.484 767.409 461.292 765.519 460.433C763.65 459.553 761.46 459.112 758.948 459.112C756.95 459.112 754.996 459.52 753.085 460.337C751.195 461.153 749.509 462.323 748.028 463.848C746.524 465.394 745.322 467.284 744.42 469.517C743.518 471.729 743.067 474.241 743.067 477.054V478.407C743.067 480.834 743.475 483.078 744.291 485.14C745.107 487.201 746.245 488.984 747.706 490.487C749.166 491.99 750.916 493.16 752.956 493.998C755.018 494.835 757.273 495.254 759.721 495.254ZM758.948 464.009C760.472 464.009 761.782 464.288 762.877 464.846C763.994 465.405 764.917 466.135 765.648 467.037C766.378 467.939 766.947 469.012 767.355 470.258C767.763 471.482 767.967 472.631 767.967 473.704V473.994H749.22C749.456 472.384 749.864 470.966 750.444 469.742C751.045 468.497 751.775 467.445 752.634 466.586C753.493 465.748 754.459 465.115 755.533 464.685C756.607 464.234 757.745 464.009 758.948 464.009ZM798.794 490.422C796.925 490.422 795.358 490.057 794.091 489.327C792.845 488.576 791.847 487.599 791.095 486.396C790.322 485.215 789.764 483.883 789.42 482.402C789.098 480.898 788.937 479.384 788.937 477.86V476.507C788.937 475.004 789.098 473.511 789.42 472.029C789.764 470.548 790.322 469.206 791.095 468.003C791.868 466.822 792.877 465.866 794.123 465.136C795.39 464.384 796.947 464.009 798.794 464.009C799.996 464.009 801.113 464.213 802.144 464.621C803.196 465.029 804.098 465.587 804.849 466.296C805.601 467.004 806.192 467.831 806.621 468.776C807.072 469.699 807.308 470.687 807.33 471.74H812.967C812.967 469.979 812.613 468.325 811.904 466.779C811.195 465.233 810.218 463.891 808.973 462.752C807.706 461.636 806.202 460.755 804.463 460.111C802.745 459.445 800.855 459.112 798.794 459.112C796.152 459.112 793.844 459.585 791.868 460.53C789.892 461.475 788.25 462.742 786.94 464.331C785.608 465.941 784.61 467.799 783.944 469.903C783.278 472.008 782.945 474.209 782.945 476.507V477.86C782.945 480.179 783.278 482.391 783.944 484.495C784.61 486.578 785.608 488.415 786.94 490.004C788.25 491.614 789.892 492.892 791.868 493.837C793.844 494.782 796.152 495.254 798.794 495.254C800.64 495.254 802.412 494.943 804.109 494.32C805.805 493.676 807.308 492.817 808.618 491.743C809.928 490.691 810.97 489.467 811.743 488.071C812.537 486.654 812.945 485.172 812.967 483.626H807.33C807.308 484.592 807.051 485.494 806.557 486.332C806.084 487.148 805.451 487.856 804.656 488.458C803.862 489.08 802.949 489.563 801.918 489.907C800.909 490.251 799.867 490.422 798.794 490.422ZM837.673 451.317H831.682V459.757H822.534V464.363H831.682V483.304C831.682 485.451 831.961 487.287 832.52 488.812C833.099 490.315 833.883 491.539 834.871 492.484C835.859 493.45 837.018 494.159 838.35 494.61C839.703 495.039 841.152 495.254 842.698 495.254C843.622 495.254 844.545 495.211 845.469 495.125C846.414 495.039 847.305 494.911 848.142 494.739C848.98 494.589 849.753 494.406 850.462 494.191C851.17 493.955 851.771 493.687 852.265 493.386L851.428 489.166C851.063 489.252 850.59 489.359 850.011 489.488C849.452 489.596 848.851 489.703 848.207 489.81C847.541 489.918 846.865 490.014 846.177 490.1C845.49 490.165 844.824 490.197 844.18 490.197C843.3 490.197 842.462 490.09 841.668 489.875C840.895 489.66 840.207 489.284 839.606 488.747C839.005 488.232 838.532 487.534 838.189 486.654C837.845 485.773 837.673 484.657 837.673 483.304V464.363H850.945V459.757H837.673V451.317Z" fill="white"/>
<path d="M743.228 563.893V564.57C743.228 567.061 743.55 569.391 744.194 571.56C744.839 573.707 745.762 575.576 746.965 577.165C748.146 578.754 749.595 579.999 751.313 580.901C753.031 581.803 754.953 582.254 757.079 582.254C758.346 582.254 759.527 582.115 760.623 581.835C761.718 581.578 762.716 581.202 763.618 580.708C764.198 580.386 764.735 580.01 765.229 579.581C765.744 579.151 766.227 578.679 766.678 578.163V581.159C766.678 582.662 766.464 583.994 766.034 585.153C765.605 586.313 764.993 587.279 764.198 588.052C763.382 588.847 762.405 589.448 761.267 589.856C760.129 590.264 758.851 590.468 757.434 590.468C756.639 590.468 755.844 590.382 755.05 590.211C754.255 590.06 753.461 589.803 752.666 589.437C751.872 589.072 751.088 588.578 750.315 587.956C749.542 587.354 748.79 586.614 748.06 585.733L744.968 589.309C745.762 590.447 746.707 591.402 747.802 592.175C748.919 592.949 750.079 593.561 751.281 594.012C752.462 594.484 753.633 594.817 754.792 595.01C755.952 595.225 756.983 595.332 757.885 595.332C760.075 595.332 762.072 595.01 763.876 594.366C765.68 593.722 767.237 592.777 768.547 591.531C769.835 590.286 770.834 588.772 771.542 586.989C772.273 585.207 772.638 583.167 772.638 580.869V546.757H767.226L766.936 550.558C766.528 550.042 766.088 549.57 765.615 549.14C765.164 548.711 764.681 548.335 764.166 548.013C763.221 547.39 762.158 546.918 760.977 546.596C759.817 546.274 758.54 546.112 757.144 546.112C754.975 546.112 753.031 546.553 751.313 547.433C749.595 548.314 748.135 549.538 746.932 551.105C745.73 552.673 744.806 554.552 744.162 556.742C743.539 558.911 743.228 561.295 743.228 563.893ZM749.187 564.57V563.893C749.187 562.197 749.359 560.586 749.703 559.062C750.068 557.515 750.637 556.152 751.41 554.971C752.162 553.811 753.128 552.888 754.309 552.201C755.512 551.513 756.95 551.17 758.625 551.17C759.613 551.17 760.515 551.299 761.331 551.556C762.147 551.792 762.888 552.125 763.554 552.555C764.22 553.006 764.81 553.532 765.325 554.133C765.841 554.735 766.292 555.4 766.678 556.13V572.107C766.292 572.859 765.841 573.546 765.325 574.169C764.81 574.792 764.23 575.329 763.586 575.78C762.92 576.231 762.169 576.585 761.331 576.843C760.515 577.079 759.592 577.197 758.561 577.197C756.907 577.197 755.49 576.864 754.309 576.198C753.128 575.511 752.162 574.588 751.41 573.428C750.637 572.269 750.068 570.926 749.703 569.402C749.359 567.877 749.187 566.266 749.187 564.57ZM784.878 546.757V551.943H796.732V576.456H784.878V581.61H814.062V576.456H802.691V546.757H784.878ZM795.959 537.609C795.959 538.575 796.249 539.38 796.829 540.024C797.43 540.669 798.332 540.991 799.534 540.991C800.716 540.991 801.607 540.669 802.208 540.024C802.809 539.38 803.11 538.575 803.11 537.609C803.11 537.072 803.024 536.578 802.852 536.127C802.681 535.676 802.423 535.3 802.079 534.999C801.8 534.72 801.446 534.505 801.016 534.355C800.587 534.183 800.093 534.097 799.534 534.097C798.976 534.097 798.471 534.183 798.021 534.355C797.591 534.505 797.237 534.72 796.958 534.999C796.614 535.321 796.356 535.708 796.184 536.159C796.034 536.61 795.959 537.093 795.959 537.609ZM837.673 538.317H831.682V546.757H822.534V551.363H831.682V570.304C831.682 572.451 831.961 574.287 832.52 575.812C833.099 577.315 833.883 578.539 834.871 579.484C835.859 580.45 837.018 581.159 838.35 581.61C839.703 582.039 841.152 582.254 842.698 582.254C843.622 582.254 844.545 582.211 845.469 582.125C846.414 582.039 847.305 581.911 848.142 581.739C848.98 581.589 849.753 581.406 850.462 581.191C851.17 580.955 851.771 580.687 852.265 580.386L851.428 576.166C851.063 576.252 850.59 576.359 850.011 576.488C849.452 576.596 848.851 576.703 848.207 576.81C847.541 576.918 846.865 577.014 846.177 577.1C845.49 577.165 844.824 577.197 844.18 577.197C843.3 577.197 842.462 577.09 841.668 576.875C840.895 576.66 840.207 576.284 839.606 575.747C839.005 575.232 838.532 574.534 838.189 573.654C837.845 572.773 837.673 571.657 837.673 570.304V551.363H850.945V546.757H837.673V538.317ZM903.74 546.757V551.943H915.594V576.456H903.74V581.61H932.924V576.456H921.553V546.757H903.74ZM914.821 537.609C914.821 538.575 915.111 539.38 915.691 540.024C916.292 540.669 917.194 540.991 918.396 540.991C919.578 540.991 920.469 540.669 921.07 540.024C921.671 539.38 921.972 538.575 921.972 537.609C921.972 537.072 921.886 536.578 921.714 536.127C921.543 535.676 921.285 535.3 920.941 534.999C920.662 534.72 920.308 534.505 919.878 534.355C919.449 534.183 918.955 534.097 918.396 534.097C917.838 534.097 917.333 534.183 916.883 534.355C916.453 534.505 916.099 534.72 915.82 534.999C915.476 535.321 915.218 535.708 915.046 536.159C914.896 536.61 914.821 537.093 914.821 537.609ZM942.427 581.61H948.386V556.614C948.794 555.862 949.266 555.175 949.803 554.552C950.361 553.929 950.963 553.382 951.607 552.909C952.402 552.372 953.271 551.954 954.216 551.653C955.161 551.331 956.181 551.17 957.276 551.17C958.543 551.17 959.66 551.32 960.626 551.621C961.614 551.921 962.452 552.405 963.139 553.07C963.805 553.736 964.309 554.606 964.653 555.679C964.996 556.753 965.168 558.063 965.168 559.609V581.61H971.127V559.48C971.127 557.161 970.837 555.164 970.258 553.489C969.699 551.792 968.894 550.397 967.842 549.301C966.79 548.206 965.512 547.401 964.009 546.886C962.527 546.37 960.873 546.112 959.048 546.112C957.695 546.134 956.407 546.338 955.183 546.724C953.98 547.09 952.863 547.616 951.832 548.303C951.145 548.754 950.49 549.291 949.868 549.913C949.266 550.515 948.708 551.18 948.193 551.911L947.774 546.757H942.427V581.61ZM982.981 546.757V551.943H994.835V576.456H982.981V581.61H1012.17V576.456H1000.79V546.757H982.981ZM994.062 537.609C994.062 538.575 994.352 539.38 994.932 540.024C995.533 540.669 996.435 540.991 997.638 540.991C998.819 540.991 999.71 540.669 1000.31 540.024C1000.91 539.38 1001.21 538.575 1001.21 537.609C1001.21 537.072 1001.13 536.578 1000.96 536.127C1000.78 535.676 1000.53 535.3 1000.18 534.999C999.903 534.72 999.549 534.505 999.12 534.355C998.69 534.183 998.196 534.097 997.638 534.097C997.079 534.097 996.575 534.183 996.124 534.355C995.694 534.505 995.34 534.72 995.061 534.999C994.717 535.321 994.46 535.708 994.288 536.159C994.137 536.61 994.062 537.093 994.062 537.609ZM1035.78 538.317H1029.79V546.757H1020.64V551.363H1029.79V570.304C1029.79 572.451 1030.06 574.287 1030.62 575.812C1031.2 577.315 1031.99 578.539 1032.97 579.484C1033.96 580.45 1035.12 581.159 1036.45 581.61C1037.81 582.039 1039.26 582.254 1040.8 582.254C1041.73 582.254 1042.65 582.211 1043.57 582.125C1044.52 582.039 1045.41 581.911 1046.25 581.739C1047.08 581.589 1047.86 581.406 1048.56 581.191C1049.27 580.955 1049.87 580.687 1050.37 580.386L1049.53 576.166C1049.17 576.252 1048.69 576.359 1048.11 576.488C1047.56 576.596 1046.95 576.703 1046.31 576.81C1045.64 576.918 1044.97 577.014 1044.28 577.1C1043.59 577.165 1042.93 577.197 1042.28 577.197C1041.4 577.197 1040.57 577.09 1039.77 576.875C1039 576.66 1038.31 576.284 1037.71 575.747C1037.11 575.232 1036.64 574.534 1036.29 573.654C1035.95 572.773 1035.78 571.657 1035.78 570.304V551.363H1049.05V546.757H1035.78V538.317ZM1111.28 577.745C1111.28 578.99 1111.67 580.053 1112.44 580.934C1113.24 581.793 1114.41 582.222 1115.95 582.222C1117.48 582.222 1118.65 581.793 1119.46 580.934C1120.28 580.075 1120.69 579.012 1120.69 577.745C1120.69 576.456 1120.28 575.372 1119.46 574.491C1118.67 573.589 1117.5 573.138 1115.95 573.138C1114.38 573.138 1113.21 573.589 1112.44 574.491C1111.67 575.393 1111.28 576.478 1111.28 577.745Z" fill="#FFE600"/>
</svg>
