<svg width="1920" height="1080" viewBox="0 0 1920 1080" fill="none" xmlns="http://www.w3.org/2000/svg">
<rect width="1920" height="1080" fill="white"/>
<path d="M61.08 101V54.12H45.24V48.52H83.64V54.12H67.8V101H61.08ZM92.4506 101V44.04H99.0106V59.56L98.7706 67.56C100.637 65.8 102.584 64.3067 104.611 63.08C106.691 61.8 109.064 61.16 111.731 61.16C115.837 61.16 118.824 62.4667 120.691 65.08C122.611 67.64 123.571 71.4 123.571 76.36V101H117.011V77.24C117.011 73.6133 116.424 70.9733 115.251 69.32C114.077 67.6667 112.211 66.84 109.651 66.84C107.677 66.84 105.891 67.3467 104.291 68.36C102.744 69.3733 100.984 70.8667 99.0106 72.84V101H92.4506ZM151.726 101.96C148.26 101.96 145.113 101.16 142.286 99.56C139.46 97.9067 137.22 95.56 135.566 92.52C133.913 89.48 133.086 85.8533 133.086 81.64C133.086 77.3733 133.913 73.72 135.566 70.68C137.273 67.64 139.46 65.2933 142.126 63.64C144.793 61.9867 147.593 61.16 150.526 61.16C155.486 61.16 159.3 62.8133 161.966 66.12C164.686 69.4267 166.046 73.8533 166.046 79.4C166.046 80.0933 166.02 80.7867 165.966 81.48C165.966 82.12 165.913 82.68 165.806 83.16H139.566C139.833 87.2667 141.113 90.5467 143.406 93C145.753 95.4533 148.793 96.68 152.526 96.68C154.393 96.68 156.1 96.4133 157.646 95.88C159.246 95.2933 160.766 94.5467 162.206 93.64L164.526 97.96C162.873 99.0267 160.98 99.96 158.846 100.76C156.766 101.56 154.393 101.96 151.726 101.96ZM139.486 78.44H160.286C160.286 74.4933 159.433 71.5067 157.726 69.48C156.073 67.4 153.726 66.36 150.686 66.36C147.966 66.36 145.513 67.4267 143.326 69.56C141.193 71.64 139.913 74.6 139.486 78.44ZM195.109 101.96C193.776 101.96 192.629 101.507 191.669 100.6C190.763 99.64 190.309 98.44 190.309 97C190.309 95.4533 190.763 94.2267 191.669 93.32C192.629 92.36 193.776 91.88 195.109 91.88C196.389 91.88 197.483 92.36 198.389 93.32C199.349 94.2267 199.829 95.4533 199.829 97C199.829 98.44 199.349 99.64 198.389 100.6C197.483 101.507 196.389 101.96 195.109 101.96ZM224.711 118.92C219.965 118.92 216.098 118.013 213.111 116.2C210.125 114.387 208.631 111.8 208.631 108.44C208.631 106.787 209.138 105.187 210.151 103.64C211.165 102.147 212.551 100.813 214.311 99.64V99.32C213.351 98.7333 212.525 97.9067 211.831 96.84C211.191 95.7733 210.871 94.4933 210.871 93C210.871 91.3467 211.325 89.9067 212.231 88.68C213.138 87.4533 214.098 86.4933 215.111 85.8V85.48C213.831 84.4133 212.658 82.9733 211.591 81.16C210.578 79.3467 210.071 77.2933 210.071 75C210.071 72.1733 210.738 69.72 212.071 67.64C213.405 65.56 215.191 63.96 217.431 62.84C219.671 61.72 222.098 61.16 224.711 61.16C225.778 61.16 226.791 61.2667 227.751 61.48C228.711 61.64 229.538 61.8533 230.231 62.12H243.751V67.16H235.751C236.658 68.0133 237.405 69.16 237.991 70.6C238.631 71.9867 238.951 73.5067 238.951 75.16C238.951 77.9333 238.311 80.3333 237.031 82.36C235.751 84.3867 234.045 85.96 231.911 87.08C229.778 88.1467 227.378 88.68 224.711 88.68C222.631 88.68 220.685 88.2267 218.871 87.32C218.178 87.9067 217.591 88.5733 217.111 89.32C216.631 90.0133 216.391 90.8933 216.391 91.96C216.391 93.1867 216.871 94.2 217.831 95C218.845 95.8 220.658 96.2 223.271 96.2H230.791C235.325 96.2 238.711 96.9467 240.951 98.44C243.245 99.88 244.391 102.227 244.391 105.48C244.391 107.88 243.591 110.093 241.991 112.12C240.391 114.147 238.125 115.773 235.191 117C232.258 118.28 228.765 118.92 224.711 118.92ZM224.711 84.28C226.951 84.28 228.871 83.4533 230.471 81.8C232.125 80.0933 232.951 77.8267 232.951 75C232.951 72.1733 232.151 69.96 230.551 68.36C228.951 66.76 227.005 65.96 224.711 65.96C222.418 65.96 220.471 66.76 218.871 68.36C217.271 69.96 216.471 72.1733 216.471 75C216.471 77.8267 217.271 80.0933 218.871 81.8C220.525 83.4533 222.471 84.28 224.711 84.28ZM225.671 114.36C229.405 114.36 232.391 113.533 234.631 111.88C236.871 110.28 237.991 108.467 237.991 106.44C237.991 104.627 237.298 103.373 235.911 102.68C234.578 101.987 232.658 101.64 230.151 101.64H223.431C222.685 101.64 221.858 101.587 220.951 101.48C220.098 101.373 219.245 101.213 218.391 101C217.005 102.013 215.991 103.08 215.351 104.2C214.711 105.32 214.391 106.44 214.391 107.56C214.391 109.64 215.378 111.293 217.351 112.52C219.378 113.747 222.151 114.36 225.671 114.36ZM251.904 101V62.12H258.464V101H251.904ZM255.264 54.12C253.984 54.12 252.917 53.7467 252.064 53C251.264 52.2 250.864 51.1333 250.864 49.8C250.864 48.52 251.264 47.48 252.064 46.68C252.917 45.88 253.984 45.48 255.264 45.48C256.544 45.48 257.584 45.88 258.384 46.68C259.237 47.48 259.664 48.52 259.664 49.8C259.664 51.1333 259.237 52.2 258.384 53C257.584 53.7467 256.544 54.12 255.264 54.12ZM283.831 101.96C279.671 101.96 276.765 100.76 275.111 98.36C273.511 95.96 272.711 92.84 272.711 89V67.48H266.951V62.52L273.031 62.12L273.831 51.24H279.351V62.12H289.831V67.48H279.351V89.08C279.351 91.48 279.778 93.3467 280.631 94.68C281.538 95.96 283.111 96.6 285.351 96.6C286.045 96.6 286.791 96.4933 287.591 96.28C288.391 96.0133 289.111 95.7733 289.751 95.56L291.031 100.52C289.965 100.893 288.791 101.213 287.511 101.48C286.285 101.8 285.058 101.96 283.831 101.96ZM315.758 101V67.48H310.478V62.52L315.758 62.12V55.96C315.758 52.0133 316.665 48.8933 318.478 46.6C320.345 44.2533 323.225 43.08 327.118 43.08C328.345 43.08 329.518 43.2133 330.638 43.48C331.758 43.6933 332.745 43.9867 333.598 44.36L332.158 49.4C330.718 48.76 329.251 48.44 327.758 48.44C324.131 48.44 322.318 50.9467 322.318 55.96V62.12H330.558V67.48H322.318V101H315.758ZM352.336 101.96C349.19 101.96 346.23 101.16 343.456 99.56C340.736 97.96 338.523 95.64 336.816 92.6C335.163 89.56 334.336 85.9067 334.336 81.64C334.336 77.2667 335.163 73.56 336.816 70.52C338.523 67.48 340.736 65.16 343.456 63.56C346.23 61.96 349.19 61.16 352.336 61.16C355.536 61.16 358.496 61.96 361.216 63.56C363.936 65.16 366.123 67.48 367.776 70.52C369.483 73.56 370.336 77.2667 370.336 81.64C370.336 85.9067 369.483 89.56 367.776 92.6C366.123 95.64 363.936 97.96 361.216 99.56C358.496 101.16 355.536 101.96 352.336 101.96ZM352.336 96.52C355.696 96.52 358.39 95.16 360.416 92.44C362.496 89.6667 363.536 86.0667 363.536 81.64C363.536 77.16 362.496 73.5333 360.416 70.76C358.39 67.9867 355.696 66.6 352.336 66.6C349.03 66.6 346.336 67.9867 344.256 70.76C342.176 73.5333 341.136 77.16 341.136 81.64C341.136 86.0667 342.176 89.6667 344.256 92.44C346.336 95.16 349.03 96.52 352.336 96.52ZM387.536 101.96C385.082 101.96 383.296 101.213 382.176 99.72C381.109 98.1733 380.576 95.9867 380.576 93.16V44.04H387.136V93.64C387.136 94.6533 387.322 95.4 387.696 95.88C388.069 96.3067 388.496 96.52 388.976 96.52C389.189 96.52 389.376 96.52 389.536 96.52C389.749 96.4667 390.042 96.4133 390.416 96.36L391.296 101.32C390.869 101.533 390.362 101.693 389.776 101.8C389.189 101.907 388.442 101.96 387.536 101.96ZM414.246 101.96C409.393 101.96 405.5 100.2 402.566 96.68C399.633 93.1067 398.166 88.0933 398.166 81.64C398.166 77.4267 398.94 73.8 400.486 70.76C402.086 67.6667 404.166 65.2933 406.726 63.64C409.34 61.9867 412.113 61.16 415.046 61.16C417.286 61.16 419.233 61.56 420.886 62.36C422.54 63.16 424.22 64.2533 425.926 65.64L425.606 59V44.04H432.246V101H426.806L426.246 96.44H426.006C424.513 97.9333 422.753 99.24 420.726 100.36C418.7 101.427 416.54 101.96 414.246 101.96ZM415.686 96.44C419.1 96.44 422.406 94.6533 425.606 91.08V70.76C423.953 69.2667 422.353 68.2267 420.806 67.64C419.313 67 417.766 66.68 416.166 66.68C414.086 66.68 412.193 67.32 410.486 68.6C408.833 69.8267 407.5 71.56 406.486 73.8C405.473 75.9867 404.966 78.5733 404.966 81.56C404.966 86.2 405.9 89.8533 407.766 92.52C409.633 95.1333 412.273 96.44 415.686 96.44ZM461.101 101.96C457.635 101.96 454.488 101.16 451.661 99.56C448.835 97.9067 446.595 95.56 444.941 92.52C443.288 89.48 442.461 85.8533 442.461 81.64C442.461 77.3733 443.288 73.72 444.941 70.68C446.648 67.64 448.835 65.2933 451.501 63.64C454.168 61.9867 456.968 61.16 459.901 61.16C464.861 61.16 468.675 62.8133 471.341 66.12C474.061 69.4267 475.421 73.8533 475.421 79.4C475.421 80.0933 475.395 80.7867 475.341 81.48C475.341 82.12 475.288 82.68 475.181 83.16H448.941C449.208 87.2667 450.488 90.5467 452.781 93C455.128 95.4533 458.168 96.68 461.901 96.68C463.768 96.68 465.475 96.4133 467.021 95.88C468.621 95.2933 470.141 94.5467 471.581 93.64L473.901 97.96C472.248 99.0267 470.355 99.96 468.221 100.76C466.141 101.56 463.768 101.96 461.101 101.96ZM448.861 78.44H469.661C469.661 74.4933 468.808 71.5067 467.101 69.48C465.448 67.4 463.101 66.36 460.061 66.36C457.341 66.36 454.888 67.4267 452.701 69.56C450.568 71.64 449.288 74.6 448.861 78.44ZM485.029 101V62.12H490.469L491.029 69.16H491.269C492.602 66.7067 494.229 64.76 496.149 63.32C498.069 61.88 500.122 61.16 502.309 61.16C503.855 61.16 505.242 61.4267 506.469 61.96L505.189 67.72C504.549 67.5067 503.962 67.3467 503.429 67.24C502.895 67.1333 502.229 67.08 501.429 67.08C499.775 67.08 498.042 67.7467 496.229 69.08C494.469 70.4133 492.922 72.7333 491.589 76.04V101H485.029Z" fill="black"/>
<path d="M943.687 443.962H1116.08M1116.08 443.962L1274.31 348.138H1440.95H1611.8L1481.23 538.015H1274.31L1116.08 443.962Z" stroke="#AB9F81" stroke-width="13.7208"/>
<circle cx="941.618" cy="443.5" r="46.6185" fill="#343434"/>
<path d="M932.56 409.778V420.098M946.293 479.399H932.56V444.589M932.56 444.589H946.293V456.556M932.56 444.589V432.482M932.56 432.482H946.293M932.56 432.482V420.098M932.56 420.098H946.293M960.265 468.523H946.293V456.556M946.293 456.556H960.265" stroke="#A4C6DF" stroke-width="0.793847"/>
<path d="M926.209 407.722V403.904L930.655 403.904L932.58 406.092L926.209 407.722Z" fill="#C4933D" stroke="black" stroke-width="0.343015"/>
<path d="M931.869 405.066L938.544 405.063L938.558 413.47H926.209V406.023L930.925 406.009L931.869 405.066Z" fill="#F5CE85" stroke="black" stroke-width="0.343015"/>
<path d="M940.181 418.836V415.018L944.626 415.018L946.552 417.206L940.181 418.836Z" fill="#C4933D" stroke="black" stroke-width="0.343015"/>
<path d="M945.84 416.18L952.516 416.177L952.529 424.583H940.181V417.136L944.897 417.123L945.84 416.18Z" fill="#F5CE85" stroke="black" stroke-width="0.343015"/>
<path d="M940.181 431.061V427.243L944.626 427.243L946.552 429.431L940.181 431.061Z" fill="#C4933D" stroke="black" stroke-width="0.343015"/>
<path d="M945.84 428.405L952.516 428.402L952.529 436.809H940.181V429.362L944.897 429.348L945.84 428.405Z" fill="#F5CE85" stroke="black" stroke-width="0.343015"/>
<path d="M940.181 477.739V473.921L944.626 473.921L946.552 476.11L940.181 477.739Z" fill="#C4933D" stroke="black" stroke-width="0.343015"/>
<path d="M945.84 475.083L952.516 475.081L952.529 483.487H940.181V476.04L944.897 476.026L945.84 475.083Z" fill="#F5CE85" stroke="black" stroke-width="0.343015"/>
<path d="M954.152 466.625V462.807L958.598 462.807L960.524 464.996L954.152 466.625Z" fill="#C4933D" stroke="black" stroke-width="0.343015"/>
<path d="M959.812 463.969L966.487 463.967L966.501 472.373H954.152V464.926L958.869 464.912L959.812 463.969Z" fill="#F5CE85" stroke="black" stroke-width="0.343015"/>
<path d="M940.181 443.286V439.468L944.626 439.468L946.552 441.657L940.181 443.286Z" fill="#C4933D" stroke="black" stroke-width="0.343015"/>
<path d="M945.84 440.63L952.516 440.628L952.529 449.034H940.181V441.587L944.897 441.573L945.84 440.63Z" fill="#F5CE85" stroke="black" stroke-width="0.343015"/>
<path d="M954.152 454.4V450.582L958.598 450.582L960.524 452.771L954.152 454.4Z" fill="#C4933D" stroke="black" stroke-width="0.343015"/>
<path d="M959.812 451.744L966.487 451.742L966.501 460.148H954.152V452.701L958.869 452.687L959.812 451.744Z" fill="#F5CE85" stroke="black" stroke-width="0.343015"/>
<circle cx="1115.17" cy="440.855" r="46.6185" fill="#343434"/>
<path d="M1106.11 407.133V417.453M1119.84 476.754H1106.11V441.944M1106.11 441.944H1119.84V453.911M1106.11 441.944V429.837M1106.11 429.837H1119.84M1106.11 429.837V417.453M1106.11 417.453H1119.84M1133.81 465.878H1119.84V453.911M1119.84 453.911H1133.81" stroke="#A4C6DF" stroke-width="0.793847"/>
<path d="M1099.76 405.077V401.259L1104.2 401.259L1106.13 403.447L1099.76 405.077Z" fill="#C4933D" stroke="black" stroke-width="0.343015"/>
<path d="M1105.42 402.421L1112.09 402.418L1112.1 410.825H1099.76V403.378L1104.47 403.364L1105.42 402.421Z" fill="#F5CE85" stroke="black" stroke-width="0.343015"/>
<path d="M1113.73 416.19V412.373L1118.17 412.373L1120.1 414.561L1113.73 416.19Z" fill="#C4933D" stroke="black" stroke-width="0.343015"/>
<path d="M1119.39 413.535L1126.06 413.532L1126.08 421.938H1113.73V414.491L1118.44 414.478L1119.39 413.535Z" fill="#F5CE85" stroke="black" stroke-width="0.343015"/>
<path d="M1113.73 428.416V424.598L1118.17 424.598L1120.1 426.786L1113.73 428.416Z" fill="#C4933D" stroke="black" stroke-width="0.343015"/>
<path d="M1119.39 425.76L1126.06 425.757L1126.08 434.164H1113.73V426.717L1118.44 426.703L1119.39 425.76Z" fill="#F5CE85" stroke="black" stroke-width="0.343015"/>
<path d="M1113.73 475.094V471.276L1118.17 471.276L1120.1 473.465L1113.73 475.094Z" fill="#C4933D" stroke="black" stroke-width="0.343015"/>
<path d="M1119.39 472.438L1126.06 472.436L1126.08 480.842H1113.73V473.395L1118.44 473.381L1119.39 472.438Z" fill="#F5CE85" stroke="black" stroke-width="0.343015"/>
<path d="M1127.7 463.98V460.162L1132.14 460.162L1134.07 462.351L1127.7 463.98Z" fill="#C4933D" stroke="black" stroke-width="0.343015"/>
<path d="M1133.36 461.324L1140.03 461.322L1140.05 469.728H1127.7V462.281L1132.42 462.267L1133.36 461.324Z" fill="#F5CE85" stroke="black" stroke-width="0.343015"/>
<path d="M1113.73 440.641V436.823L1118.17 436.823L1120.1 439.012L1113.73 440.641Z" fill="#C4933D" stroke="black" stroke-width="0.343015"/>
<path d="M1119.39 437.985L1126.06 437.983L1126.08 446.389H1113.73V438.942L1118.44 438.928L1119.39 437.985Z" fill="#F5CE85" stroke="black" stroke-width="0.343015"/>
<path d="M1127.7 451.755V447.937L1132.14 447.937L1134.07 450.126L1127.7 451.755Z" fill="#C4933D" stroke="black" stroke-width="0.343015"/>
<path d="M1133.36 449.099L1140.03 449.096L1140.05 457.503H1127.7V450.056L1132.42 450.042L1133.36 449.099Z" fill="#F5CE85" stroke="black" stroke-width="0.343015"/>
<circle cx="1271.97" cy="347.618" r="46.6185" fill="#343434"/>
<path d="M1262.91 313.896V324.216M1276.64 383.517H1262.91V348.707M1262.91 348.707H1276.64V360.674M1262.91 348.707V336.601M1262.91 336.601H1276.64M1262.91 336.601V324.216M1262.91 324.216H1276.64M1290.61 372.641H1276.64V360.674M1276.64 360.674H1290.61" stroke="#A4C6DF" stroke-width="0.793847"/>
<path d="M1256.56 311.84V308.022L1261 308.022L1262.93 310.21L1256.56 311.84Z" fill="#C4933D" stroke="black" stroke-width="0.343015"/>
<path d="M1262.22 309.184L1268.89 309.181L1268.91 317.588H1256.56V310.141L1261.28 310.127L1262.22 309.184Z" fill="#F5CE85" stroke="black" stroke-width="0.343015"/>
<path d="M1270.53 322.954V319.136L1274.98 319.136L1276.9 321.324L1270.53 322.954Z" fill="#C4933D" stroke="black" stroke-width="0.343015"/>
<path d="M1276.19 320.298L1282.87 320.295L1282.88 328.702H1270.53V321.255L1275.25 321.241L1276.19 320.298Z" fill="#F5CE85" stroke="black" stroke-width="0.343015"/>
<path d="M1270.53 335.179V331.361L1274.98 331.361L1276.9 333.55L1270.53 335.179Z" fill="#C4933D" stroke="black" stroke-width="0.343015"/>
<path d="M1276.19 332.523L1282.87 332.521L1282.88 340.927H1270.53V333.48L1275.25 333.466L1276.19 332.523Z" fill="#F5CE85" stroke="black" stroke-width="0.343015"/>
<path d="M1270.53 381.857V378.039L1274.98 378.039L1276.9 380.228L1270.53 381.857Z" fill="#C4933D" stroke="black" stroke-width="0.343015"/>
<path d="M1276.19 379.201L1282.87 379.199L1282.88 387.605H1270.53V380.158L1275.25 380.144L1276.19 379.201Z" fill="#F5CE85" stroke="black" stroke-width="0.343015"/>
<path d="M1284.5 370.743V366.925L1288.95 366.925L1290.87 369.114L1284.5 370.743Z" fill="#C4933D" stroke="black" stroke-width="0.343015"/>
<path d="M1290.16 368.087L1296.84 368.085L1296.85 376.491H1284.5V369.044L1289.22 369.031L1290.16 368.087Z" fill="#F5CE85" stroke="black" stroke-width="0.343015"/>
<path d="M1270.53 347.404V343.586L1274.98 343.586L1276.9 345.775L1270.53 347.404Z" fill="#C4933D" stroke="black" stroke-width="0.343015"/>
<path d="M1276.19 344.748L1282.87 344.746L1282.88 353.152H1270.53V345.705L1275.25 345.691L1276.19 344.748Z" fill="#F5CE85" stroke="black" stroke-width="0.343015"/>
<path d="M1284.5 358.518V354.7L1288.95 354.7L1290.87 356.889L1284.5 358.518Z" fill="#C4933D" stroke="black" stroke-width="0.343015"/>
<path d="M1290.16 355.862L1296.84 355.86L1296.85 364.266H1284.5V356.819L1289.22 356.805L1290.16 355.862Z" fill="#F5CE85" stroke="black" stroke-width="0.343015"/>
<circle cx="1440.59" cy="347.618" r="46.6185" fill="#343434"/>
<path d="M1431.53 313.896V324.216M1445.26 383.517H1431.53V348.707M1431.53 348.707H1445.26V360.674M1431.53 348.707V336.601M1431.53 336.601H1445.26M1431.53 336.601V324.216M1431.53 324.216H1445.26M1459.23 372.641H1445.26V360.674M1445.26 360.674H1459.23" stroke="#A4C6DF" stroke-width="0.793847"/>
<path d="M1425.18 311.84V308.022L1429.62 308.022L1431.55 310.21L1425.18 311.84Z" fill="#C4933D" stroke="black" stroke-width="0.343015"/>
<path d="M1430.84 309.184L1437.51 309.181L1437.53 317.588H1425.18V310.141L1429.9 310.127L1430.84 309.184Z" fill="#F5CE85" stroke="black" stroke-width="0.343015"/>
<path d="M1439.15 322.954V319.136L1443.6 319.136L1445.52 321.324L1439.15 322.954Z" fill="#C4933D" stroke="black" stroke-width="0.343015"/>
<path d="M1444.81 320.298L1451.49 320.295L1451.5 328.702H1439.15V321.255L1443.87 321.241L1444.81 320.298Z" fill="#F5CE85" stroke="black" stroke-width="0.343015"/>
<path d="M1439.15 335.179V331.361L1443.6 331.361L1445.52 333.55L1439.15 335.179Z" fill="#C4933D" stroke="black" stroke-width="0.343015"/>
<path d="M1444.81 332.523L1451.49 332.521L1451.5 340.927H1439.15V333.48L1443.87 333.466L1444.81 332.523Z" fill="#F5CE85" stroke="black" stroke-width="0.343015"/>
<path d="M1439.15 381.857V378.039L1443.6 378.039L1445.52 380.228L1439.15 381.857Z" fill="#C4933D" stroke="black" stroke-width="0.343015"/>
<path d="M1444.81 379.201L1451.49 379.199L1451.5 387.605H1439.15V380.158L1443.87 380.144L1444.81 379.201Z" fill="#F5CE85" stroke="black" stroke-width="0.343015"/>
<path d="M1453.12 370.743V366.925L1457.57 366.925L1459.49 369.114L1453.12 370.743Z" fill="#C4933D" stroke="black" stroke-width="0.343015"/>
<path d="M1458.78 368.087L1465.46 368.085L1465.47 376.491H1453.12V369.044L1457.84 369.031L1458.78 368.087Z" fill="#F5CE85" stroke="black" stroke-width="0.343015"/>
<path d="M1439.15 347.404V343.586L1443.6 343.586L1445.52 345.775L1439.15 347.404Z" fill="#C4933D" stroke="black" stroke-width="0.343015"/>
<path d="M1444.81 344.748L1451.49 344.746L1451.5 353.152H1439.15V345.705L1443.87 345.691L1444.81 344.748Z" fill="#F5CE85" stroke="black" stroke-width="0.343015"/>
<path d="M1453.12 358.518V354.7L1457.57 354.7L1459.49 356.889L1453.12 358.518Z" fill="#C4933D" stroke="black" stroke-width="0.343015"/>
<path d="M1458.78 355.862L1465.46 355.86L1465.47 364.266H1453.12V356.819L1457.84 356.805L1458.78 355.862Z" fill="#F5CE85" stroke="black" stroke-width="0.343015"/>
<circle cx="1609.07" cy="348.946" r="46.6185" fill="#343434"/>
<path d="M1600.01 315.224V325.544M1613.74 384.845H1600.01V350.035M1600.01 350.035H1613.74V362.002M1600.01 350.035V337.928M1600.01 337.928H1613.74M1600.01 337.928V325.544M1600.01 325.544H1613.74M1627.71 373.969H1613.74V362.002M1613.74 362.002H1627.71" stroke="#A4C6DF" stroke-width="0.793847"/>
<path d="M1593.66 313.168V309.35L1598.1 309.35L1600.03 311.538L1593.66 313.168Z" fill="#C4933D" stroke="black" stroke-width="0.343015"/>
<path d="M1599.32 310.512L1605.99 310.509L1606.01 318.915H1593.66V311.468L1598.38 311.455L1599.32 310.512Z" fill="#F5CE85" stroke="black" stroke-width="0.343015"/>
<path d="M1607.63 324.281V320.464L1612.08 320.464L1614 322.652L1607.63 324.281Z" fill="#C4933D" stroke="black" stroke-width="0.343015"/>
<path d="M1613.29 321.626L1619.97 321.623L1619.98 330.029H1607.63V322.582L1612.35 322.569L1613.29 321.626Z" fill="#F5CE85" stroke="black" stroke-width="0.343015"/>
<path d="M1607.63 336.507V332.689L1612.08 332.689L1614 334.877L1607.63 336.507Z" fill="#C4933D" stroke="black" stroke-width="0.343015"/>
<path d="M1613.29 333.851L1619.97 333.848L1619.98 342.255H1607.63V334.808L1612.35 334.794L1613.29 333.851Z" fill="#F5CE85" stroke="black" stroke-width="0.343015"/>
<path d="M1607.63 383.185V379.367L1612.08 379.367L1614 381.556L1607.63 383.185Z" fill="#C4933D" stroke="black" stroke-width="0.343015"/>
<path d="M1613.29 380.529L1619.97 380.527L1619.98 388.933H1607.63V381.486L1612.35 381.472L1613.29 380.529Z" fill="#F5CE85" stroke="black" stroke-width="0.343015"/>
<path d="M1621.6 372.071V368.253L1626.05 368.253L1627.97 370.442L1621.6 372.071Z" fill="#C4933D" stroke="black" stroke-width="0.343015"/>
<path d="M1627.26 369.415L1633.94 369.413L1633.95 377.819H1621.6V370.372L1626.32 370.358L1627.26 369.415Z" fill="#F5CE85" stroke="black" stroke-width="0.343015"/>
<path d="M1607.63 348.732V344.914L1612.08 344.914L1614 347.103L1607.63 348.732Z" fill="#C4933D" stroke="black" stroke-width="0.343015"/>
<path d="M1613.29 346.076L1619.97 346.074L1619.98 354.48H1607.63V347.033L1612.35 347.019L1613.29 346.076Z" fill="#F5CE85" stroke="black" stroke-width="0.343015"/>
<path d="M1621.6 359.846V356.028L1626.05 356.028L1627.97 358.217L1621.6 359.846Z" fill="#C4933D" stroke="black" stroke-width="0.343015"/>
<path d="M1627.26 357.19L1633.94 357.187L1633.95 365.594H1621.6V358.147L1626.32 358.133L1627.26 357.19Z" fill="#F5CE85" stroke="black" stroke-width="0.343015"/>
<circle cx="1273.29" cy="536.737" r="46.6185" fill="#343434"/>
<path d="M1264.23 503.015V513.335M1277.97 572.636H1264.23V537.825M1264.23 537.825H1277.97V549.793M1264.23 537.825V525.719M1264.23 525.719H1277.97M1264.23 525.719V513.335M1264.23 513.335H1277.97M1291.94 561.76H1277.97V549.793M1277.97 549.793H1291.94" stroke="#A4C6DF" stroke-width="0.793847"/>
<path d="M1257.88 500.959V497.141L1262.33 497.141L1264.25 499.329L1257.88 500.959Z" fill="#C4933D" stroke="black" stroke-width="0.343015"/>
<path d="M1263.54 498.303L1270.22 498.3L1270.23 506.706H1257.88V499.259L1262.6 499.246L1263.54 498.303Z" fill="#F5CE85" stroke="black" stroke-width="0.343015"/>
<path d="M1271.85 512.072V508.255L1276.3 508.255L1278.22 510.443L1271.85 512.072Z" fill="#C4933D" stroke="black" stroke-width="0.343015"/>
<path d="M1277.51 509.416L1284.19 509.414L1284.2 517.82H1271.85V510.373L1276.57 510.36L1277.51 509.416Z" fill="#F5CE85" stroke="black" stroke-width="0.343015"/>
<path d="M1271.85 524.298V520.48L1276.3 520.48L1278.22 522.668L1271.85 524.298Z" fill="#C4933D" stroke="black" stroke-width="0.343015"/>
<path d="M1277.51 521.642L1284.19 521.639L1284.2 530.046H1271.85V522.599L1276.57 522.585L1277.51 521.642Z" fill="#F5CE85" stroke="black" stroke-width="0.343015"/>
<path d="M1271.85 570.976V567.158L1276.3 567.158L1278.22 569.347L1271.85 570.976Z" fill="#C4933D" stroke="black" stroke-width="0.343015"/>
<path d="M1277.51 568.32L1284.19 568.318L1284.2 576.724H1271.85V569.277L1276.57 569.263L1277.51 568.32Z" fill="#F5CE85" stroke="black" stroke-width="0.343015"/>
<path d="M1285.82 559.862V556.044L1290.27 556.044L1292.2 558.233L1285.82 559.862Z" fill="#C4933D" stroke="black" stroke-width="0.343015"/>
<path d="M1291.48 557.206L1298.16 557.204L1298.17 565.61H1285.82V558.163L1290.54 558.149L1291.48 557.206Z" fill="#F5CE85" stroke="black" stroke-width="0.343015"/>
<path d="M1271.85 536.523V532.705L1276.3 532.705L1278.22 534.894L1271.85 536.523Z" fill="#C4933D" stroke="black" stroke-width="0.343015"/>
<path d="M1277.51 533.867L1284.19 533.865L1284.2 542.271H1271.85V534.824L1276.57 534.81L1277.51 533.867Z" fill="#F5CE85" stroke="black" stroke-width="0.343015"/>
<path d="M1285.82 547.637V543.819L1290.27 543.819L1292.2 546.007L1285.82 547.637Z" fill="#C4933D" stroke="black" stroke-width="0.343015"/>
<path d="M1291.48 544.981L1298.16 544.978L1298.17 553.385H1285.82V545.938L1290.54 545.924L1291.48 544.981Z" fill="#F5CE85" stroke="black" stroke-width="0.343015"/>
<circle cx="1480.27" cy="538.382" r="46.6185" fill="#343434"/>
<path d="M1471.21 504.66V514.98M1484.94 574.28H1471.21V539.47M1471.21 539.47H1484.94V551.437M1471.21 539.47V527.364M1471.21 527.364H1484.94M1471.21 527.364V514.98M1471.21 514.98H1484.94M1498.92 563.404H1484.94V551.437M1484.94 551.437H1498.92" stroke="#A4C6DF" stroke-width="0.793847"/>
<path d="M1464.86 502.603V498.785L1469.31 498.785L1471.23 500.974L1464.86 502.603Z" fill="#C4933D" stroke="black" stroke-width="0.343015"/>
<path d="M1470.52 499.947L1477.2 499.945L1477.21 508.351H1464.86V500.904L1469.58 500.89L1470.52 499.947Z" fill="#F5CE85" stroke="black" stroke-width="0.343015"/>
<path d="M1478.83 513.717V509.899L1483.28 509.899L1485.2 512.087L1478.83 513.717Z" fill="#C4933D" stroke="black" stroke-width="0.343015"/>
<path d="M1484.49 511.061L1491.17 511.058L1491.18 519.465H1478.83V512.018L1483.55 512.004L1484.49 511.061Z" fill="#F5CE85" stroke="black" stroke-width="0.343015"/>
<path d="M1478.83 525.942V522.124L1483.28 522.124L1485.2 524.313L1478.83 525.942Z" fill="#C4933D" stroke="black" stroke-width="0.343015"/>
<path d="M1484.49 523.286L1491.17 523.284L1491.18 531.69H1478.83V524.243L1483.55 524.229L1484.49 523.286Z" fill="#F5CE85" stroke="black" stroke-width="0.343015"/>
<path d="M1478.83 572.62V568.802L1483.28 568.802L1485.2 570.991L1478.83 572.62Z" fill="#C4933D" stroke="black" stroke-width="0.343015"/>
<path d="M1484.49 569.964L1491.17 569.962L1491.18 578.368H1478.83V570.921L1483.55 570.908L1484.49 569.964Z" fill="#F5CE85" stroke="black" stroke-width="0.343015"/>
<path d="M1492.8 561.506V557.689L1497.25 557.689L1499.17 559.877L1492.8 561.506Z" fill="#C4933D" stroke="black" stroke-width="0.343015"/>
<path d="M1498.46 558.85L1505.14 558.848L1505.15 567.254H1492.8V559.807L1497.52 559.794L1498.46 558.85Z" fill="#F5CE85" stroke="black" stroke-width="0.343015"/>
<path d="M1478.83 538.167V534.349L1483.28 534.349L1485.2 536.538L1478.83 538.167Z" fill="#C4933D" stroke="black" stroke-width="0.343015"/>
<path d="M1484.49 535.511L1491.17 535.509L1491.18 543.915H1478.83V536.468L1483.55 536.455L1484.49 535.511Z" fill="#F5CE85" stroke="black" stroke-width="0.343015"/>
<path d="M1492.8 549.281V545.463L1497.25 545.463L1499.17 547.652L1492.8 549.281Z" fill="#C4933D" stroke="black" stroke-width="0.343015"/>
<path d="M1498.46 546.625L1505.14 546.623L1505.15 555.029H1492.8V547.582L1497.52 547.568L1498.46 546.625Z" fill="#F5CE85" stroke="black" stroke-width="0.343015"/>
<path d="M1019.37 429.061L1037.52 443.633L1019.37 459.305" stroke="#AB9F81" stroke-width="2.74952"/>
<path d="M1346.9 332.868L1365.05 347.44L1346.9 363.112" stroke="#AB9F81" stroke-width="2.74952"/>
<path d="M1384.52 522.745L1402.67 537.318L1384.52 552.99" stroke="#AB9F81" stroke-width="2.74952"/>
<path d="M1519.07 333.753L1537.22 348.325L1519.07 363.998" stroke="#AB9F81" stroke-width="2.74952"/>
<path d="M1194.54 472.431L1202.46 494.317L1178.81 498.262" stroke="#AB9F81" stroke-width="2.74952"/>
<path d="M1178.71 388.909L1201.81 391.723L1194.66 414.608" stroke="#AB9F81" stroke-width="2.74952"/>
<path d="M1529.3 442.449L1551.75 436.324L1553.78 460.216" stroke="#AB9F81" stroke-width="2.74952"/>
<rect x="846.5" y="248.5" width="860" height="385" rx="7.5" stroke="black" stroke-width="5"/>
<path d="M296.802 355.842V441.646M410.987 934.688H296.802V645.265M296.802 645.265H410.987V744.765M296.802 645.265V544.611M296.802 544.611H410.987M296.802 544.611V441.646M296.802 441.646H410.987M527.153 844.264H410.987V744.765M410.987 744.765H527.153" stroke="#A4C6DF" stroke-width="6.60029"/>
<path d="M244 338.742V307L280.962 307L296.973 325.195L244 338.742Z" fill="#B5AB9A" stroke="black" stroke-width="2.85193"/>
<path d="M291.057 316.659L346.558 316.639L346.67 386.532H244V324.615L283.214 324.502L291.057 316.659Z" fill="#D2CDC6" stroke="black" stroke-width="2.85193"/>
<path d="M360.165 431.146V399.404L397.127 399.404L413.138 417.599L360.165 431.146Z" fill="#E6DE99" stroke="#0057FF" stroke-width="2.85193"/>
<path d="M407.222 409.064L462.724 409.044L462.835 478.936H360.165V417.019L399.379 416.906L407.222 409.064Z" fill="#FFF6C4" stroke="#0057FF" stroke-width="2.85193"/>
<path d="M360.165 532.791V501.049L397.127 501.049L413.138 519.244L360.165 532.791Z" fill="#B5AB9A" stroke="black" stroke-width="2.85193"/>
<path d="M407.222 510.708L462.724 510.688L462.835 580.58H360.165V518.664L399.379 518.551L407.222 510.708Z" fill="#D2CDC6" stroke="black" stroke-width="2.85193"/>
<path d="M360.165 920.888V889.146L397.127 889.146L413.138 907.341L360.165 920.888Z" fill="#B5AB9A" stroke="black" stroke-width="2.85193"/>
<path d="M407.222 898.805L462.724 898.785L462.835 968.678H360.165V906.761L399.379 906.648L407.222 898.805Z" fill="#D2CDC6" stroke="black" stroke-width="2.85193"/>
<path d="M476.33 828.484V796.742L513.292 796.742L529.303 814.937L476.33 828.484Z" fill="#B5AB9A" stroke="black" stroke-width="2.85193"/>
<path d="M523.387 806.401L578.889 806.381L579 876.274H476.33V814.357L515.544 814.244L523.387 806.401Z" fill="#D2CDC6" stroke="black" stroke-width="2.85193"/>
<path d="M360.165 634.435V602.693L397.127 602.693L413.138 620.888L360.165 634.435Z" fill="#B5AB9A" stroke="black" stroke-width="2.85193"/>
<path d="M407.222 612.353L462.724 612.333L462.835 682.225H360.165V620.308L399.379 620.195L407.222 612.353Z" fill="#D2CDC6" stroke="black" stroke-width="2.85193"/>
<path d="M476.33 726.839V695.097L513.292 695.097L529.303 713.293L476.33 726.839Z" fill="#B5AB9A" stroke="black" stroke-width="2.85193"/>
<path d="M523.387 704.757L578.889 704.737L579 774.629H476.33V712.712L515.544 712.6L523.387 704.757Z" fill="#D2CDC6" stroke="black" stroke-width="2.85193"/>
<rect x="173.5" y="241.5" width="500" height="770" stroke="black" stroke-width="3" stroke-dasharray="6 6"/>
<path d="M498 456.6C496.6 456.6 495.417 456.117 494.45 455.15C493.517 454.183 493.05 452.983 493.05 451.55C493.05 450.083 493.517 448.883 494.45 447.95C495.417 446.983 496.6 446.5 498 446.5C499.433 446.5 500.617 446.983 501.55 447.95C502.483 448.883 502.95 450.083 502.95 451.55C502.95 452.983 502.483 454.183 501.55 455.15C500.617 456.117 499.433 456.6 498 456.6ZM527.28 466.85C525.014 466.85 523.047 466.6 521.38 466.1C519.714 465.633 518.414 464.917 517.48 463.95C516.547 462.983 516.08 461.767 516.08 460.3C516.08 459.333 516.414 458.4 517.08 457.5C517.747 456.6 518.714 455.817 519.98 455.15V454.95C519.347 454.55 518.764 454.033 518.23 453.4C517.73 452.733 517.48 451.883 517.48 450.85C517.48 450.05 517.747 449.233 518.28 448.4C518.814 447.567 519.53 446.85 520.43 446.25V446.05C519.564 445.417 518.814 444.567 518.18 443.5C517.58 442.4 517.28 441.133 517.28 439.7C517.28 437.8 517.747 436.2 518.68 434.9C519.614 433.567 520.847 432.567 522.38 431.9C523.914 431.2 525.58 430.85 527.38 430.85C528.847 430.85 530.13 431.05 531.23 431.45H541.28V435.85H535.63C536.064 436.317 536.43 436.917 536.73 437.65C537.064 438.35 537.23 439.1 537.23 439.9C537.23 441.7 536.78 443.233 535.88 444.5C535.014 445.733 533.847 446.667 532.38 447.3C530.914 447.933 529.247 448.25 527.38 448.25C526.814 448.25 526.197 448.2 525.53 448.1C524.897 447.967 524.264 447.783 523.63 447.55C523.13 447.85 522.747 448.183 522.48 448.55C522.247 448.917 522.13 449.35 522.13 449.85C522.13 450.617 522.514 451.2 523.28 451.6C524.08 451.967 525.247 452.15 526.78 452.15H531.78C534.98 452.15 537.38 452.617 538.98 453.55C540.614 454.45 541.43 455.983 541.43 458.15C541.43 459.75 540.847 461.217 539.68 462.55C538.547 463.883 536.914 464.933 534.78 465.7C532.68 466.467 530.18 466.85 527.28 466.85ZM527.38 444.6C528.247 444.6 529.03 444.417 529.73 444.05C530.43 443.65 530.98 443.083 531.38 442.35C531.814 441.617 532.03 440.733 532.03 439.7C532.03 438.7 531.814 437.85 531.38 437.15C530.98 436.417 530.43 435.85 529.73 435.45C529.03 435.05 528.247 434.85 527.38 434.85C526.547 434.85 525.78 435.05 525.08 435.45C524.38 435.85 523.814 436.417 523.38 437.15C522.947 437.85 522.73 438.7 522.73 439.7C522.73 440.733 522.947 441.617 523.38 442.35C523.814 443.083 524.38 443.65 525.08 444.05C525.78 444.417 526.547 444.6 527.38 444.6ZM527.98 463.05C529.58 463.05 530.964 462.867 532.13 462.5C533.33 462.133 534.247 461.65 534.88 461.05C535.547 460.45 535.88 459.8 535.88 459.1C535.88 458.133 535.464 457.483 534.63 457.15C533.83 456.85 532.597 456.7 530.93 456.7H527.03C526.23 456.7 525.53 456.667 524.93 456.6C524.33 456.533 523.78 456.45 523.28 456.35C522.414 456.85 521.797 457.367 521.43 457.9C521.064 458.433 520.88 458.983 520.88 459.55C520.88 460.65 521.497 461.5 522.73 462.1C523.964 462.733 525.714 463.05 527.98 463.05ZM557.811 456V436H547.161V431.45H563.561V456H557.811ZM560.261 426.95C559.094 426.95 558.111 426.6 557.311 425.9C556.544 425.2 556.161 424.267 556.161 423.1C556.161 421.933 556.544 421 557.311 420.3C558.111 419.567 559.094 419.2 560.261 419.2C561.461 419.2 562.444 419.567 563.211 420.3C563.978 421 564.361 421.933 564.361 423.1C564.361 424.267 563.978 425.2 563.211 425.9C562.444 426.6 561.461 426.95 560.261 426.95ZM592.491 456.6C589.991 456.6 588.008 456.167 586.541 455.3C585.075 454.4 584.025 453.167 583.391 451.6C582.758 450.033 582.441 448.217 582.441 446.15V436H575.891V431.7L582.691 431.45L583.441 423.75H588.191V431.45H599.391V436H588.191V446.1C588.191 447.433 588.375 448.55 588.741 449.45C589.108 450.317 589.708 450.967 590.541 451.4C591.375 451.8 592.475 452 593.841 452C594.908 452 595.875 451.917 596.741 451.75C597.608 451.583 598.441 451.35 599.241 451.05L600.341 455.2C599.241 455.567 598.058 455.883 596.791 456.15C595.525 456.45 594.091 456.6 592.491 456.6Z" fill="black"/>
<path d="M649 443.5H844.5" stroke="black" stroke-width="5"/>
<path d="M675 889H870.5" stroke="black" stroke-width="5" stroke-dasharray="10 10"/>
<path d="M1156.6 206.572C1153.86 206.572 1151.43 205.936 1149.3 204.664C1147.17 203.361 1145.5 201.5 1144.29 199.084C1143.08 196.667 1142.48 193.757 1142.48 190.355C1142.48 186.984 1143.1 184.09 1144.34 181.673C1145.58 179.256 1147.28 177.396 1149.44 176.092C1151.61 174.789 1154.07 174.137 1156.84 174.137C1159 174.137 1160.81 174.55 1162.28 175.377C1163.77 176.172 1164.96 177.046 1165.85 178L1163.66 180.576C1162.86 179.749 1161.94 179.05 1160.89 178.477C1159.84 177.905 1158.52 177.619 1156.93 177.619C1154.83 177.619 1153.01 178.143 1151.45 179.193C1149.89 180.21 1148.68 181.657 1147.82 183.534C1147 185.41 1146.58 187.652 1146.58 190.259C1146.58 194.202 1147.47 197.335 1149.25 199.656C1151.07 201.946 1153.64 203.09 1156.98 203.09C1158.09 203.09 1159.16 202.931 1160.18 202.613C1161.19 202.264 1162.01 201.802 1162.61 201.23V193.073H1155.98V189.782H1166.23V202.947C1165.25 203.997 1163.91 204.871 1162.23 205.571C1160.57 206.238 1158.7 206.572 1156.6 206.572ZM1173.35 206V182.818H1177.26V206H1173.35ZM1175.35 178.048C1174.59 178.048 1173.96 177.825 1173.45 177.38C1172.97 176.903 1172.73 176.267 1172.73 175.472C1172.73 174.709 1172.97 174.089 1173.45 173.612C1173.96 173.135 1174.59 172.897 1175.35 172.897C1176.12 172.897 1176.74 173.135 1177.21 173.612C1177.72 174.089 1177.98 174.709 1177.98 175.472C1177.98 176.267 1177.72 176.903 1177.21 177.38C1176.74 177.825 1176.12 178.048 1175.35 178.048ZM1192.39 206.572C1189.91 206.572 1188.17 205.857 1187.19 204.426C1186.23 202.995 1185.76 201.135 1185.76 198.845V186.014H1182.32V183.057L1185.95 182.818L1186.43 176.331H1189.72V182.818H1195.96V186.014H1189.72V198.893C1189.72 200.324 1189.97 201.437 1190.48 202.232C1191.02 202.995 1191.96 203.377 1193.29 203.377C1193.71 203.377 1194.15 203.313 1194.63 203.186C1195.11 203.027 1195.54 202.884 1195.92 202.756L1196.68 205.714C1196.04 205.936 1195.34 206.127 1194.58 206.286C1193.85 206.477 1193.12 206.572 1192.39 206.572ZM1212.57 185.585C1211.61 185.585 1210.87 185.219 1210.33 184.488C1209.82 183.724 1209.56 182.659 1209.56 181.292C1209.56 179.384 1209.99 177.73 1210.85 176.331C1211.71 174.932 1212.97 173.755 1214.62 172.801L1215.76 174.661C1214.56 175.456 1213.65 176.315 1213.05 177.237C1212.44 178.128 1212.14 179.241 1212.14 180.576C1212.23 180.544 1212.38 180.528 1212.57 180.528C1213.2 180.528 1213.78 180.735 1214.29 181.149C1214.83 181.562 1215.1 182.166 1215.1 182.961C1215.1 183.756 1214.86 184.392 1214.38 184.869C1213.9 185.346 1213.3 185.585 1212.57 185.585ZM1221.01 185.585C1220.06 185.585 1219.31 185.219 1218.77 184.488C1218.26 183.724 1218.01 182.659 1218.01 181.292C1218.01 179.384 1218.44 177.73 1219.29 176.331C1220.15 174.932 1221.41 173.755 1223.06 172.801L1224.21 174.661C1223 175.456 1222.09 176.315 1221.49 177.237C1220.88 178.128 1220.58 179.241 1220.58 180.576C1220.68 180.544 1220.82 180.528 1221.01 180.528C1221.65 180.528 1222.22 180.735 1222.73 181.149C1223.27 181.562 1223.54 182.166 1223.54 182.961C1223.54 183.756 1223.3 184.392 1222.82 184.869C1222.35 185.346 1221.74 185.585 1221.01 185.585ZM1231.45 206V174.709H1239.27C1244.1 174.709 1247.78 176.061 1250.29 178.764C1252.8 181.435 1254.06 185.251 1254.06 190.211C1254.06 195.204 1252.8 199.084 1250.29 201.85C1247.81 204.617 1244.2 206 1239.46 206H1231.45ZM1235.41 202.756H1238.98C1242.64 202.756 1245.38 201.659 1247.19 199.465C1249.03 197.239 1249.95 194.155 1249.95 190.211C1249.95 186.268 1249.03 183.247 1247.19 181.149C1245.38 179.018 1242.64 177.953 1238.98 177.953H1235.41V202.756ZM1265.75 206.572C1263.81 206.572 1262.19 206 1260.89 204.855C1259.62 203.679 1258.98 202.057 1258.98 199.99C1258.98 197.446 1260.11 195.506 1262.37 194.171C1264.66 192.803 1268.27 191.849 1273.2 191.309C1273.2 190.323 1273.05 189.385 1272.77 188.494C1272.51 187.604 1272.03 186.888 1271.34 186.348C1270.67 185.775 1269.7 185.489 1268.43 185.489C1267.09 185.489 1265.83 185.744 1264.66 186.252C1263.48 186.761 1262.43 187.334 1261.51 187.97L1259.98 185.251C1261.06 184.551 1262.38 183.883 1263.94 183.247C1265.53 182.58 1267.25 182.246 1269.09 182.246C1271.92 182.246 1273.97 183.12 1275.25 184.869C1276.52 186.586 1277.15 188.892 1277.15 191.786V206H1273.91L1273.58 203.233H1273.43C1272.35 204.124 1271.16 204.903 1269.86 205.571C1268.58 206.238 1267.22 206.572 1265.75 206.572ZM1266.9 203.424C1268.01 203.424 1269.06 203.154 1270.05 202.613C1271.03 202.073 1272.08 201.31 1273.2 200.324V193.884C1269.35 194.361 1266.64 195.077 1265.09 196.031C1263.56 196.985 1262.8 198.209 1262.8 199.704C1262.8 201.007 1263.19 201.961 1263.99 202.566C1264.78 203.138 1265.75 203.424 1266.9 203.424ZM1291.09 206.572C1288.61 206.572 1286.88 205.857 1285.89 204.426C1284.94 202.995 1284.46 201.135 1284.46 198.845V186.014H1281.03V183.057L1284.65 182.818L1285.13 176.331H1288.42V182.818H1294.67V186.014H1288.42V198.893C1288.42 200.324 1288.68 201.437 1289.19 202.232C1289.73 202.995 1290.66 203.377 1292 203.377C1292.41 203.377 1292.86 203.313 1293.34 203.186C1293.81 203.027 1294.24 202.884 1294.62 202.756L1295.39 205.714C1294.75 205.936 1294.05 206.127 1293.29 206.286C1292.56 206.477 1291.83 206.572 1291.09 206.572ZM1304.23 206.572C1302.29 206.572 1300.67 206 1299.37 204.855C1298.09 203.679 1297.46 202.057 1297.46 199.99C1297.46 197.446 1298.59 195.506 1300.84 194.171C1303.13 192.803 1306.74 191.849 1311.67 191.309C1311.67 190.323 1311.53 189.385 1311.24 188.494C1310.99 187.604 1310.51 186.888 1309.81 186.348C1309.14 185.775 1308.17 185.489 1306.9 185.489C1305.57 185.489 1304.31 185.744 1303.13 186.252C1301.96 186.761 1300.91 187.334 1299.99 187.97L1298.46 185.251C1299.54 184.551 1300.86 183.883 1302.42 183.247C1304.01 182.58 1305.73 182.246 1307.57 182.246C1310.4 182.246 1312.45 183.12 1313.72 184.869C1314.99 186.586 1315.63 188.892 1315.63 191.786V206H1312.39L1312.05 203.233H1311.91C1310.83 204.124 1309.64 204.903 1308.33 205.571C1307.06 206.238 1305.69 206.572 1304.23 206.572ZM1305.38 203.424C1306.49 203.424 1307.54 203.154 1308.52 202.613C1309.51 202.073 1310.56 201.31 1311.67 200.324V193.884C1307.82 194.361 1305.12 195.077 1303.56 196.031C1302.04 196.985 1301.27 198.209 1301.27 199.704C1301.27 201.007 1301.67 201.961 1302.47 202.566C1303.26 203.138 1304.23 203.424 1305.38 203.424ZM1333.18 206.572C1332.1 206.572 1330.97 206.318 1329.79 205.809C1328.65 205.269 1327.57 204.537 1326.55 203.615H1326.41L1326.07 206H1322.92V172.038H1326.84V181.292L1326.74 185.489C1327.79 184.567 1328.93 183.804 1330.17 183.2C1331.45 182.564 1332.72 182.246 1333.99 182.246C1337.01 182.246 1339.3 183.311 1340.86 185.442C1342.42 187.572 1343.2 190.434 1343.2 194.027C1343.2 196.667 1342.72 198.925 1341.77 200.801C1340.84 202.677 1339.62 204.108 1338.09 205.094C1336.6 206.079 1334.96 206.572 1333.18 206.572ZM1332.51 203.281C1334.42 203.281 1335.99 202.47 1337.23 200.848C1338.51 199.195 1339.14 196.937 1339.14 194.075C1339.14 191.531 1338.67 189.48 1337.71 187.922C1336.79 186.332 1335.23 185.537 1333.04 185.537C1332.05 185.537 1331.05 185.807 1330.03 186.348C1329.01 186.888 1327.95 187.667 1326.84 188.685V200.848C1327.85 201.739 1328.85 202.375 1329.84 202.756C1330.86 203.106 1331.75 203.281 1332.51 203.281ZM1353.98 206.572C1352.04 206.572 1350.42 206 1349.11 204.855C1347.84 203.679 1347.21 202.057 1347.21 199.99C1347.21 197.446 1348.34 195.506 1350.59 194.171C1352.88 192.803 1356.49 191.849 1361.42 191.309C1361.42 190.323 1361.28 189.385 1360.99 188.494C1360.74 187.604 1360.26 186.888 1359.56 186.348C1358.89 185.775 1357.92 185.489 1356.65 185.489C1355.32 185.489 1354.06 185.744 1352.88 186.252C1351.71 186.761 1350.66 187.334 1349.73 187.97L1348.21 185.251C1349.29 184.551 1350.61 183.883 1352.17 183.247C1353.76 182.58 1355.47 182.246 1357.32 182.246C1360.15 182.246 1362.2 183.12 1363.47 184.869C1364.74 186.586 1365.38 188.892 1365.38 191.786V206H1362.14L1361.8 203.233H1361.66C1360.58 204.124 1359.39 204.903 1358.08 205.571C1356.81 206.238 1355.44 206.572 1353.98 206.572ZM1355.12 203.424C1356.24 203.424 1357.29 203.154 1358.27 202.613C1359.26 202.073 1360.31 201.31 1361.42 200.324V193.884C1357.57 194.361 1354.87 195.077 1353.31 196.031C1351.79 196.985 1351.02 198.209 1351.02 199.704C1351.02 201.007 1351.42 201.961 1352.21 202.566C1353.01 203.138 1353.98 203.424 1355.12 203.424ZM1378.73 206.572C1377.08 206.572 1375.5 206.27 1374.01 205.666C1372.51 205.03 1371.21 204.267 1370.1 203.377L1372.05 200.753C1373.07 201.548 1374.12 202.216 1375.2 202.756C1376.28 203.265 1377.51 203.52 1378.87 203.52C1380.4 203.52 1381.55 203.17 1382.31 202.47C1383.07 201.739 1383.45 200.88 1383.45 199.894C1383.45 199.099 1383.18 198.432 1382.64 197.891C1382.13 197.35 1381.47 196.905 1380.64 196.555C1379.84 196.174 1379.02 195.824 1378.16 195.506C1377.08 195.093 1376.01 194.632 1374.96 194.123C1373.91 193.582 1373.06 192.899 1372.39 192.072C1371.72 191.213 1371.39 190.132 1371.39 188.828C1371.39 186.952 1372.09 185.394 1373.48 184.154C1374.92 182.882 1376.89 182.246 1379.4 182.246C1380.83 182.246 1382.17 182.5 1383.41 183.009C1384.65 183.518 1385.71 184.138 1386.6 184.869L1384.69 187.349C1383.9 186.745 1383.07 186.252 1382.21 185.871C1381.35 185.489 1380.42 185.298 1379.4 185.298C1377.94 185.298 1376.86 185.632 1376.16 186.3C1375.49 186.968 1375.15 187.747 1375.15 188.637C1375.15 189.369 1375.39 189.973 1375.87 190.45C1376.35 190.895 1376.97 191.293 1377.73 191.642C1378.49 191.96 1379.3 192.294 1380.16 192.644C1381.28 193.058 1382.37 193.535 1383.45 194.075C1384.53 194.584 1385.43 195.284 1386.12 196.174C1386.86 197.032 1387.22 198.193 1387.22 199.656C1387.22 200.896 1386.89 202.041 1386.22 203.09C1385.58 204.14 1384.63 204.982 1383.36 205.618C1382.12 206.254 1380.58 206.572 1378.73 206.572ZM1402.05 206.572C1399.99 206.572 1398.11 206.095 1396.43 205.141C1394.74 204.156 1393.4 202.756 1392.42 200.944C1391.43 199.131 1390.94 196.969 1390.94 194.457C1390.94 191.913 1391.43 189.734 1392.42 187.922C1393.44 186.109 1394.74 184.71 1396.33 183.724C1397.92 182.739 1399.59 182.246 1401.34 182.246C1404.3 182.246 1406.57 183.231 1408.16 185.203C1409.78 187.175 1410.59 189.814 1410.59 193.121C1410.59 193.535 1410.58 193.948 1410.54 194.361C1410.54 194.743 1410.51 195.077 1410.45 195.363H1394.8C1394.96 197.812 1395.73 199.767 1397.09 201.23C1398.49 202.693 1400.3 203.424 1402.53 203.424C1403.64 203.424 1404.66 203.265 1405.58 202.947C1406.54 202.597 1407.44 202.152 1408.3 201.612L1409.69 204.187C1408.7 204.823 1407.57 205.38 1406.3 205.857C1405.06 206.334 1403.64 206.572 1402.05 206.572ZM1394.76 192.549H1407.16C1407.16 190.196 1406.65 188.415 1405.63 187.206C1404.65 185.966 1403.25 185.346 1401.43 185.346C1399.81 185.346 1398.35 185.982 1397.05 187.254C1395.77 188.494 1395.01 190.259 1394.76 192.549ZM1416.05 185.442L1414.95 183.629C1416.16 182.834 1417.05 181.991 1417.62 181.101C1418.22 180.179 1418.53 179.034 1418.53 177.666C1418.43 177.698 1418.3 177.714 1418.14 177.714C1417.48 177.714 1416.89 177.507 1416.38 177.094C1415.87 176.681 1415.62 176.092 1415.62 175.329C1415.62 174.502 1415.85 173.851 1416.33 173.374C1416.81 172.897 1417.41 172.658 1418.14 172.658C1419.07 172.658 1419.8 173.04 1420.34 173.803C1420.88 174.534 1421.15 175.6 1421.15 176.999C1421.15 178.907 1420.7 180.56 1419.81 181.959C1418.96 183.327 1417.7 184.488 1416.05 185.442ZM1424.49 185.442L1423.39 183.629C1424.6 182.834 1425.49 181.991 1426.06 181.101C1426.67 180.179 1426.97 179.034 1426.97 177.666C1426.87 177.698 1426.75 177.714 1426.59 177.714C1425.92 177.714 1425.33 177.507 1424.82 177.094C1424.31 176.681 1424.06 176.092 1424.06 175.329C1424.06 174.502 1424.3 173.851 1424.77 173.374C1425.25 172.897 1425.86 172.658 1426.59 172.658C1427.51 172.658 1428.24 173.04 1428.78 173.803C1429.32 174.534 1429.59 175.6 1429.59 176.999C1429.59 178.907 1429.15 180.56 1428.26 181.959C1427.4 183.327 1426.14 184.488 1424.49 185.442Z" fill="black"/>
<path d="M904.293 906V874.709H913.213C915.566 874.709 917.617 874.995 919.366 875.568C921.115 876.14 922.482 877.11 923.468 878.477C924.454 879.813 924.947 881.626 924.947 883.915C924.947 887.19 923.882 889.623 921.751 891.213C919.62 892.803 916.838 893.598 913.404 893.598H908.252V906H904.293ZM908.252 890.355H912.927C915.661 890.355 917.681 889.846 918.984 888.828C920.32 887.779 920.988 886.141 920.988 883.915C920.988 881.657 920.288 880.099 918.889 879.241C917.522 878.35 915.471 877.905 912.736 877.905H908.252V890.355ZM934.221 906.572C932.282 906.572 930.66 906 929.356 904.855C928.084 903.679 927.448 902.057 927.448 899.99C927.448 897.446 928.577 895.506 930.835 894.171C933.124 892.803 936.734 891.849 941.663 891.309C941.663 890.323 941.519 889.385 941.233 888.494C940.979 887.604 940.502 886.888 939.802 886.348C939.134 885.775 938.165 885.489 936.893 885.489C935.557 885.489 934.301 885.744 933.124 886.252C931.948 886.761 930.898 887.334 929.976 887.97L928.45 885.251C929.531 884.551 930.851 883.883 932.409 883.247C933.999 882.58 935.716 882.246 937.56 882.246C940.391 882.246 942.442 883.12 943.714 884.869C944.986 886.586 945.622 888.892 945.622 891.786V906H942.378L942.044 903.233H941.901C940.82 904.124 939.627 904.903 938.324 905.571C937.052 906.238 935.684 906.572 934.221 906.572ZM935.366 903.424C936.479 903.424 937.529 903.154 938.514 902.613C939.5 902.073 940.55 901.31 941.663 900.324V893.884C937.815 894.361 935.112 895.077 933.554 896.031C932.027 896.985 931.264 898.209 931.264 899.704C931.264 901.007 931.662 901.961 932.457 902.566C933.252 903.138 934.221 903.424 935.366 903.424ZM952.915 906V882.818H956.159L956.493 887.016H956.636C957.431 885.553 958.401 884.392 959.545 883.534C960.69 882.675 961.914 882.246 963.218 882.246C964.14 882.246 964.967 882.405 965.699 882.723L964.935 886.157C964.554 886.03 964.204 885.934 963.886 885.871C963.568 885.807 963.171 885.775 962.694 885.775C961.708 885.775 960.674 886.173 959.593 886.968C958.544 887.763 957.622 889.146 956.827 891.118V906H952.915ZM976.75 906.572C974.269 906.572 972.536 905.857 971.55 904.426C970.596 902.995 970.119 901.135 970.119 898.845V886.014H966.685V883.057L970.31 882.818L970.787 876.331H974.078V882.818H980.327V886.014H974.078V898.893C974.078 900.324 974.333 901.437 974.842 902.232C975.382 902.995 976.32 903.377 977.656 903.377C978.069 903.377 978.515 903.313 978.992 903.186C979.469 903.027 979.898 902.884 980.279 902.756L981.043 905.714C980.407 905.936 979.707 906.127 978.944 906.286C978.212 906.477 977.481 906.572 976.75 906.572ZM985.569 906V882.818H989.48V906H985.569ZM987.572 878.048C986.809 878.048 986.173 877.825 985.664 877.38C985.187 876.903 984.949 876.267 984.949 875.472C984.949 874.709 985.187 874.089 985.664 873.612C986.173 873.135 986.809 872.897 987.572 872.897C988.335 872.897 988.956 873.135 989.433 873.612C989.941 874.089 990.196 874.709 990.196 875.472C990.196 876.267 989.941 876.903 989.433 877.38C988.956 877.825 988.335 878.048 987.572 878.048ZM1006.47 906.572C1004.43 906.572 1002.59 906.095 1000.93 905.141C999.279 904.187 997.975 902.804 997.021 900.992C996.067 899.179 995.59 897.001 995.59 894.457C995.59 891.849 996.099 889.639 997.117 887.826C998.166 886.014 999.533 884.631 1001.22 883.677C1002.94 882.723 1004.78 882.246 1006.75 882.246C1008.28 882.246 1009.58 882.516 1010.66 883.057C1011.78 883.597 1012.73 884.233 1013.53 884.965L1011.52 887.54C1010.85 886.936 1010.14 886.443 1009.38 886.062C1008.64 885.68 1007.82 885.489 1006.9 885.489C1005.5 885.489 1004.24 885.871 1003.13 886.634C1002.05 887.365 1001.19 888.415 1000.55 889.782C999.947 891.118 999.645 892.676 999.645 894.457C999.645 897.096 1000.3 899.243 1001.6 900.896C1002.94 902.518 1004.67 903.329 1006.8 903.329C1007.88 903.329 1008.88 903.106 1009.8 902.661C1010.73 902.184 1011.54 901.628 1012.24 900.992L1013.95 903.615C1012.91 904.537 1011.74 905.269 1010.47 905.809C1009.2 906.318 1007.86 906.572 1006.47 906.572ZM1025.83 906.572C1023.39 906.572 1021.59 905.809 1020.44 904.283C1019.3 902.725 1018.73 900.467 1018.73 897.509V882.818H1022.69V896.985C1022.69 899.147 1023.02 900.721 1023.69 901.707C1024.39 902.693 1025.5 903.186 1027.03 903.186C1028.24 903.186 1029.3 902.884 1030.22 902.279C1031.18 901.643 1032.19 900.642 1033.28 899.274V882.818H1037.19V906H1033.94L1033.61 902.375H1033.47C1032.39 903.647 1031.24 904.664 1030.03 905.428C1028.82 906.191 1027.42 906.572 1025.83 906.572ZM1049.16 906.572C1047.69 906.572 1046.63 906.127 1045.96 905.237C1045.32 904.315 1045.01 903.011 1045.01 901.325V872.038H1048.92V901.612C1048.92 902.216 1049.03 902.661 1049.25 902.947C1049.47 903.202 1049.73 903.329 1050.02 903.329C1050.14 903.329 1050.25 903.329 1050.35 903.329C1050.48 903.297 1050.65 903.265 1050.87 903.233L1051.4 906.191C1051.14 906.318 1050.84 906.413 1050.49 906.477C1050.14 906.541 1049.7 906.572 1049.16 906.572ZM1062.51 906.572C1060.57 906.572 1058.95 906 1057.64 904.855C1056.37 903.679 1055.73 902.057 1055.73 899.99C1055.73 897.446 1056.86 895.506 1059.12 894.171C1061.41 892.803 1065.02 891.849 1069.95 891.309C1069.95 890.323 1069.81 889.385 1069.52 888.494C1069.26 887.604 1068.79 886.888 1068.09 886.348C1067.42 885.775 1066.45 885.489 1065.18 885.489C1063.84 885.489 1062.59 885.744 1061.41 886.252C1060.23 886.761 1059.18 887.334 1058.26 887.97L1056.74 885.251C1057.82 884.551 1059.14 883.883 1060.69 883.247C1062.28 882.58 1064 882.246 1065.85 882.246C1068.68 882.246 1070.73 883.12 1072 884.869C1073.27 886.586 1073.91 888.892 1073.91 891.786V906H1070.66L1070.33 903.233H1070.19C1069.11 904.124 1067.91 904.903 1066.61 905.571C1065.34 906.238 1063.97 906.572 1062.51 906.572ZM1063.65 903.424C1064.76 903.424 1065.81 903.154 1066.8 902.613C1067.79 902.073 1068.84 901.31 1069.95 900.324V893.884C1066.1 894.361 1063.4 895.077 1061.84 896.031C1060.31 896.985 1059.55 898.209 1059.55 899.704C1059.55 901.007 1059.95 901.961 1060.74 902.566C1061.54 903.138 1062.51 903.424 1063.65 903.424ZM1081.2 906V882.818H1084.44L1084.78 887.016H1084.92C1085.72 885.553 1086.69 884.392 1087.83 883.534C1088.98 882.675 1090.2 882.246 1091.5 882.246C1092.43 882.246 1093.25 882.405 1093.98 882.723L1093.22 886.157C1092.84 886.03 1092.49 885.934 1092.17 885.871C1091.85 885.807 1091.46 885.775 1090.98 885.775C1089.99 885.775 1088.96 886.173 1087.88 886.968C1086.83 887.763 1085.91 889.146 1085.11 891.118V906H1081.2ZM1112.29 906L1103.95 882.818H1108L1112.39 895.983C1112.74 897.128 1113.09 898.273 1113.44 899.417C1113.82 900.562 1114.19 901.691 1114.54 902.804H1114.73C1115.08 901.691 1115.43 900.562 1115.78 899.417C1116.16 898.273 1116.51 897.128 1116.83 895.983L1121.21 882.818H1125.08L1116.87 906H1112.29ZM1138.76 906.572C1136.7 906.572 1134.82 906.095 1133.13 905.141C1131.45 904.156 1130.11 902.756 1129.13 900.944C1128.14 899.131 1127.65 896.969 1127.65 894.457C1127.65 891.913 1128.14 889.734 1129.13 887.922C1130.15 886.109 1131.45 884.71 1133.04 883.724C1134.63 882.739 1136.3 882.246 1138.05 882.246C1141 882.246 1143.28 883.231 1144.87 885.203C1146.49 887.175 1147.3 889.814 1147.3 893.121C1147.3 893.535 1147.29 893.948 1147.25 894.361C1147.25 894.743 1147.22 895.077 1147.16 895.363H1131.51C1131.67 897.812 1132.43 899.767 1133.8 901.23C1135.2 902.693 1137.01 903.424 1139.24 903.424C1140.35 903.424 1141.37 903.265 1142.29 902.947C1143.25 902.597 1144.15 902.152 1145.01 901.612L1146.39 904.187C1145.41 904.823 1144.28 905.38 1143.01 905.857C1141.77 906.334 1140.35 906.572 1138.76 906.572ZM1131.46 892.549H1143.87C1143.87 890.196 1143.36 888.415 1142.34 887.206C1141.35 885.966 1139.96 885.346 1138.14 885.346C1136.52 885.346 1135.06 885.982 1133.75 887.254C1132.48 888.494 1131.72 890.259 1131.46 892.549ZM1153.03 906V882.818H1156.27L1156.61 887.016H1156.75C1157.55 885.553 1158.52 884.392 1159.66 883.534C1160.8 882.675 1162.03 882.246 1163.33 882.246C1164.25 882.246 1165.08 882.405 1165.81 882.723L1165.05 886.157C1164.67 886.03 1164.32 885.934 1164 885.871C1163.68 885.807 1163.28 885.775 1162.81 885.775C1161.82 885.775 1160.79 886.173 1159.71 886.968C1158.66 887.763 1157.74 889.146 1156.94 891.118V906H1153.03ZM1175.44 906.572C1173.78 906.572 1172.21 906.27 1170.72 905.666C1169.22 905.03 1167.92 904.267 1166.8 903.377L1168.76 900.753C1169.78 901.548 1170.83 902.216 1171.91 902.756C1172.99 903.265 1174.21 903.52 1175.58 903.52C1177.11 903.52 1178.25 903.17 1179.02 902.47C1179.78 901.739 1180.16 900.88 1180.16 899.894C1180.16 899.099 1179.89 898.432 1179.35 897.891C1178.84 897.35 1178.17 896.905 1177.35 896.555C1176.55 896.174 1175.72 895.824 1174.87 895.506C1173.78 895.093 1172.72 894.632 1171.67 894.123C1170.62 893.582 1169.76 892.899 1169.09 892.072C1168.43 891.213 1168.09 890.132 1168.09 888.828C1168.09 886.952 1168.79 885.394 1170.19 884.154C1171.62 882.882 1173.59 882.246 1176.11 882.246C1177.54 882.246 1178.87 882.5 1180.11 883.009C1181.35 883.518 1182.42 884.138 1183.31 884.869L1181.4 887.349C1180.61 886.745 1179.78 886.252 1178.92 885.871C1178.06 885.489 1177.12 885.298 1176.11 885.298C1174.64 885.298 1173.56 885.632 1172.86 886.3C1172.19 886.968 1171.86 887.747 1171.86 888.637C1171.86 889.369 1172.1 889.973 1172.58 890.45C1173.05 890.895 1173.67 891.293 1174.44 891.642C1175.2 891.96 1176.01 892.294 1176.87 892.644C1177.98 893.058 1179.08 893.535 1180.16 894.075C1181.24 894.584 1182.13 895.284 1182.83 896.174C1183.56 897.032 1183.93 898.193 1183.93 899.656C1183.93 900.896 1183.59 902.041 1182.93 903.09C1182.29 904.14 1181.34 904.982 1180.06 905.618C1178.82 906.254 1177.28 906.572 1175.44 906.572ZM1189.36 906V882.818H1193.27V906H1189.36ZM1191.37 878.048C1190.6 878.048 1189.97 877.825 1189.46 877.38C1188.98 876.903 1188.74 876.267 1188.74 875.472C1188.74 874.709 1188.98 874.089 1189.46 873.612C1189.97 873.135 1190.6 872.897 1191.37 872.897C1192.13 872.897 1192.75 873.135 1193.23 873.612C1193.74 874.089 1193.99 874.709 1193.99 875.472C1193.99 876.267 1193.74 876.903 1193.23 877.38C1192.75 877.825 1192.13 878.048 1191.37 878.048ZM1210.12 906.572C1208.24 906.572 1206.48 906.095 1204.82 905.141C1203.2 904.187 1201.88 902.804 1200.86 900.992C1199.88 899.179 1199.38 897.001 1199.38 894.457C1199.38 891.849 1199.88 889.639 1200.86 887.826C1201.88 886.014 1203.2 884.631 1204.82 883.677C1206.48 882.723 1208.24 882.246 1210.12 882.246C1212.02 882.246 1213.79 882.723 1215.41 883.677C1217.03 884.631 1218.34 886.014 1219.32 887.826C1220.34 889.639 1220.85 891.849 1220.85 894.457C1220.85 897.001 1220.34 899.179 1219.32 900.992C1218.34 902.804 1217.03 904.187 1215.41 905.141C1213.79 906.095 1212.02 906.572 1210.12 906.572ZM1210.12 903.329C1212.12 903.329 1213.73 902.518 1214.93 900.896C1216.17 899.243 1216.79 897.096 1216.79 894.457C1216.79 891.786 1216.17 889.623 1214.93 887.97C1213.73 886.316 1212.12 885.489 1210.12 885.489C1208.15 885.489 1206.54 886.316 1205.3 887.97C1204.06 889.623 1203.44 891.786 1203.44 894.457C1203.44 897.096 1204.06 899.243 1205.3 900.896C1206.54 902.518 1208.15 903.329 1210.12 903.329ZM1226.95 906V882.818H1230.2L1230.53 886.157H1230.68C1231.79 885.044 1232.96 884.122 1234.2 883.39C1235.45 882.627 1236.86 882.246 1238.45 882.246C1240.9 882.246 1242.68 883.025 1243.79 884.583C1244.94 886.109 1245.51 888.351 1245.51 891.309V906H1241.6V891.833C1241.6 889.671 1241.25 888.097 1240.55 887.111C1239.85 886.125 1238.74 885.632 1237.21 885.632C1236.03 885.632 1234.97 885.934 1234.01 886.539C1233.09 887.143 1232.04 888.033 1230.87 889.21V906H1226.95ZM1271.6 906.572C1269.73 906.572 1267.96 906.095 1266.31 905.141C1264.69 904.187 1263.37 902.804 1262.35 900.992C1261.37 899.179 1260.87 897.001 1260.87 894.457C1260.87 891.849 1261.37 889.639 1262.35 887.826C1263.37 886.014 1264.69 884.631 1266.31 883.677C1267.96 882.723 1269.73 882.246 1271.6 882.246C1273.51 882.246 1275.28 882.723 1276.9 883.677C1278.52 884.631 1279.82 886.014 1280.81 887.826C1281.83 889.639 1282.34 891.849 1282.34 894.457C1282.34 897.001 1281.83 899.179 1280.81 900.992C1279.82 902.804 1278.52 904.187 1276.9 905.141C1275.28 906.095 1273.51 906.572 1271.6 906.572ZM1271.6 903.329C1273.61 903.329 1275.21 902.518 1276.42 900.896C1277.66 899.243 1278.28 897.096 1278.28 894.457C1278.28 891.786 1277.66 889.623 1276.42 887.97C1275.21 886.316 1273.61 885.489 1271.6 885.489C1269.63 885.489 1268.03 886.316 1266.79 887.97C1265.55 889.623 1264.93 891.786 1264.93 894.457C1264.93 897.096 1265.55 899.243 1266.79 900.896C1268.03 902.518 1269.63 903.329 1271.6 903.329ZM1289.11 906V886.014H1285.96V883.057L1289.11 882.818V879.145C1289.11 876.792 1289.65 874.932 1290.73 873.564C1291.84 872.165 1293.56 871.466 1295.88 871.466C1296.61 871.466 1297.31 871.545 1297.98 871.704C1298.65 871.831 1299.24 872.006 1299.75 872.229L1298.89 875.234C1298.03 874.852 1297.16 874.661 1296.26 874.661C1294.1 874.661 1293.02 876.156 1293.02 879.145V882.818H1297.93V886.014H1293.02V906H1289.11ZM1319.22 906.572C1316.74 906.572 1315 905.857 1314.02 904.426C1313.06 902.995 1312.59 901.135 1312.59 898.845V886.014H1309.15V883.057L1312.78 882.818L1313.25 876.331H1316.55V882.818H1322.79V886.014H1316.55V898.893C1316.55 900.324 1316.8 901.437 1317.31 902.232C1317.85 902.995 1318.79 903.377 1320.12 903.377C1320.54 903.377 1320.98 903.313 1321.46 903.186C1321.94 903.027 1322.37 902.884 1322.75 902.756L1323.51 905.714C1322.87 905.936 1322.17 906.127 1321.41 906.286C1320.68 906.477 1319.95 906.572 1319.22 906.572ZM1328.04 906V872.038H1331.95V881.292L1331.8 886.062C1332.92 885.012 1334.08 884.122 1335.29 883.39C1336.53 882.627 1337.94 882.246 1339.53 882.246C1341.98 882.246 1343.76 883.025 1344.87 884.583C1346.02 886.109 1346.59 888.351 1346.59 891.309V906H1342.68V891.833C1342.68 889.671 1342.33 888.097 1341.63 887.111C1340.93 886.125 1339.82 885.632 1338.29 885.632C1337.12 885.632 1336.05 885.934 1335.1 886.539C1334.17 887.143 1333.12 888.033 1331.95 889.21V906H1328.04ZM1363.38 906.572C1361.31 906.572 1359.44 906.095 1357.75 905.141C1356.07 904.156 1354.73 902.756 1353.74 900.944C1352.76 899.131 1352.27 896.969 1352.27 894.457C1352.27 891.913 1352.76 889.734 1353.74 887.922C1354.76 886.109 1356.07 884.71 1357.66 883.724C1359.25 882.739 1360.91 882.246 1362.66 882.246C1365.62 882.246 1367.89 883.231 1369.48 885.203C1371.11 887.175 1371.92 889.814 1371.92 893.121C1371.92 893.535 1371.9 893.948 1371.87 894.361C1371.87 894.743 1371.84 895.077 1371.77 895.363H1356.13C1356.29 897.812 1357.05 899.767 1358.42 901.23C1359.82 902.693 1361.63 903.424 1363.86 903.424C1364.97 903.424 1365.99 903.265 1366.91 902.947C1367.86 902.597 1368.77 902.152 1369.63 901.612L1371.01 904.187C1370.03 904.823 1368.9 905.38 1367.62 905.857C1366.38 906.334 1364.97 906.572 1363.38 906.572ZM1356.08 892.549H1368.48C1368.48 890.196 1367.97 888.415 1366.96 887.206C1365.97 885.966 1364.57 885.346 1362.76 885.346C1361.14 885.346 1359.67 885.982 1358.37 887.254C1357.1 888.494 1356.34 890.259 1356.08 892.549ZM1387.2 915.778V882.818H1390.44L1390.77 885.489H1390.92C1391.97 884.599 1393.11 883.836 1394.35 883.2C1395.62 882.564 1396.94 882.246 1398.31 882.246C1401.3 882.246 1403.57 883.327 1405.13 885.489C1406.69 887.62 1407.47 890.482 1407.47 894.075C1407.47 896.683 1406.99 898.925 1406.04 900.801C1405.11 902.677 1403.89 904.108 1402.36 905.094C1400.87 906.079 1399.23 906.572 1397.45 906.572C1396.37 906.572 1395.29 906.334 1394.21 905.857C1393.16 905.38 1392.09 904.728 1391.01 903.901L1391.11 907.956V915.778H1387.2ZM1396.78 903.281C1398.69 903.281 1400.26 902.47 1401.5 900.848C1402.78 899.195 1403.41 896.937 1403.41 894.075C1403.41 891.531 1402.94 889.48 1401.98 887.922C1401.06 886.332 1399.5 885.537 1397.31 885.537C1396.32 885.537 1395.32 885.807 1394.3 886.348C1393.32 886.888 1392.25 887.667 1391.11 888.685V900.848C1392.16 901.739 1393.17 902.375 1394.16 902.756C1395.15 903.106 1396.02 903.281 1396.78 903.281ZM1413.65 906V882.818H1416.9L1417.23 887.016H1417.37C1418.17 885.553 1419.14 884.392 1420.28 883.534C1421.43 882.675 1422.65 882.246 1423.96 882.246C1424.88 882.246 1425.71 882.405 1426.44 882.723L1425.67 886.157C1425.29 886.03 1424.94 885.934 1424.62 885.871C1424.31 885.807 1423.91 885.775 1423.43 885.775C1422.45 885.775 1421.41 886.173 1420.33 886.968C1419.28 887.763 1418.36 889.146 1417.56 891.118V906H1413.65ZM1438.74 906.572C1436.86 906.572 1435.1 906.095 1433.44 905.141C1431.82 904.187 1430.5 902.804 1429.49 900.992C1428.5 899.179 1428.01 897.001 1428.01 894.457C1428.01 891.849 1428.5 889.639 1429.49 887.826C1430.5 886.014 1431.82 884.631 1433.44 883.677C1435.1 882.723 1436.86 882.246 1438.74 882.246C1440.65 882.246 1442.41 882.723 1444.03 883.677C1445.66 884.631 1446.96 886.014 1447.95 887.826C1448.96 889.639 1449.47 891.849 1449.47 894.457C1449.47 897.001 1448.96 899.179 1447.95 900.992C1446.96 902.804 1445.66 904.187 1444.03 905.141C1442.41 906.095 1440.65 906.572 1438.74 906.572ZM1438.74 903.329C1440.74 903.329 1442.35 902.518 1443.56 900.896C1444.8 899.243 1445.42 897.096 1445.42 894.457C1445.42 891.786 1444.8 889.623 1443.56 887.97C1442.35 886.316 1440.74 885.489 1438.74 885.489C1436.77 885.489 1435.16 886.316 1433.92 887.97C1432.68 889.623 1432.06 891.786 1432.06 894.457C1432.06 897.096 1432.68 899.243 1433.92 900.896C1435.16 902.518 1436.77 903.329 1438.74 903.329ZM1453.19 916.351C1452.49 916.351 1451.86 916.287 1451.28 916.16C1450.68 916.033 1450.17 915.89 1449.76 915.731L1450.57 912.773C1450.85 912.869 1451.19 912.948 1451.57 913.012C1451.95 913.107 1452.35 913.155 1452.76 913.155C1453.91 913.155 1454.67 912.742 1455.05 911.915C1455.43 911.12 1455.62 910.023 1455.62 908.623V882.818H1459.54V908.623C1459.54 910.977 1459.06 912.853 1458.1 914.252C1457.15 915.651 1455.51 916.351 1453.19 916.351ZM1457.53 878.048C1456.77 878.048 1456.13 877.825 1455.62 877.38C1455.15 876.903 1454.91 876.267 1454.91 875.472C1454.91 874.709 1455.15 874.089 1455.62 873.612C1456.13 873.135 1456.77 872.897 1457.53 872.897C1458.3 872.897 1458.92 873.135 1459.39 873.612C1459.9 874.089 1460.16 874.709 1460.16 875.472C1460.16 876.267 1459.9 876.903 1459.39 877.38C1458.92 877.825 1458.3 878.048 1457.53 878.048ZM1476.76 906.572C1474.69 906.572 1472.82 906.095 1471.13 905.141C1469.44 904.156 1468.11 902.756 1467.12 900.944C1466.14 899.131 1465.64 896.969 1465.64 894.457C1465.64 891.913 1466.14 889.734 1467.12 887.922C1468.14 886.109 1469.44 884.71 1471.03 883.724C1472.62 882.739 1474.29 882.246 1476.04 882.246C1479 882.246 1481.27 883.231 1482.86 885.203C1484.49 887.175 1485.3 889.814 1485.3 893.121C1485.3 893.535 1485.28 893.948 1485.25 894.361C1485.25 894.743 1485.22 895.077 1485.15 895.363H1469.51C1469.67 897.812 1470.43 899.767 1471.8 901.23C1473.2 902.693 1475.01 903.424 1477.24 903.424C1478.35 903.424 1479.37 903.265 1480.29 902.947C1481.24 902.597 1482.15 902.152 1483.01 901.612L1484.39 904.187C1483.4 904.823 1482.28 905.38 1481 905.857C1479.76 906.334 1478.35 906.572 1476.76 906.572ZM1469.46 892.549H1481.86C1481.86 890.196 1481.35 888.415 1480.34 887.206C1479.35 885.966 1477.95 885.346 1476.14 885.346C1474.52 885.346 1473.05 885.982 1471.75 887.254C1470.48 888.494 1469.72 890.259 1469.46 892.549ZM1500.18 906.572C1498.15 906.572 1496.3 906.095 1494.65 905.141C1493 904.187 1491.69 902.804 1490.74 900.992C1489.79 899.179 1489.31 897.001 1489.31 894.457C1489.31 891.849 1489.82 889.639 1490.83 887.826C1491.88 886.014 1493.25 884.631 1494.94 883.677C1496.65 882.723 1498.5 882.246 1500.47 882.246C1502 882.246 1503.3 882.516 1504.38 883.057C1505.49 883.597 1506.45 884.233 1507.24 884.965L1505.24 887.54C1504.57 886.936 1503.86 886.443 1503.09 886.062C1502.36 885.68 1501.54 885.489 1500.61 885.489C1499.21 885.489 1497.96 885.871 1496.84 886.634C1495.76 887.365 1494.9 888.415 1494.27 889.782C1493.66 891.118 1493.36 892.676 1493.36 894.457C1493.36 897.096 1494.01 899.243 1495.32 900.896C1496.65 902.518 1498.39 903.329 1500.52 903.329C1501.6 903.329 1502.6 903.106 1503.52 902.661C1504.44 902.184 1505.26 901.628 1505.96 900.992L1507.67 903.615C1506.62 904.537 1505.46 905.269 1504.19 905.809C1502.92 906.318 1501.58 906.572 1500.18 906.572ZM1519.61 906.572C1517.13 906.572 1515.4 905.857 1514.41 904.426C1513.46 902.995 1512.98 901.135 1512.98 898.845V886.014H1509.55V883.057L1513.17 882.818L1513.65 876.331H1516.94V882.818H1523.19V886.014H1516.94V898.893C1516.94 900.324 1517.19 901.437 1517.7 902.232C1518.24 902.995 1519.18 903.377 1520.52 903.377C1520.93 903.377 1521.38 903.313 1521.85 903.186C1522.33 903.027 1522.76 902.884 1523.14 902.756L1523.9 905.714C1523.27 905.936 1522.57 906.127 1521.81 906.286C1521.07 906.477 1520.34 906.572 1519.61 906.572Z" fill="black"/>
</svg>
