<?xml version="1.0" encoding="UTF-8" standalone="no"?>
<!-- Created with Inkscape (http://www.inkscape.org/) -->

<svg
   version="1.1"
   id="svg2"
   xml:space="preserve"
   width="1122.5197"
   height="793.70081"
   viewBox="0 0 1122.5197 793.70081"
   xmlns="http://www.w3.org/2000/svg"
   xmlns:svg="http://www.w3.org/2000/svg"><defs
     id="defs6"><clipPath
       clipPathUnits="userSpaceOnUse"
       id="clipPath18"><path
         d="m 24.105,0 h 793.68 V 595 H 24.105 Z"
         id="path16" /></clipPath><clipPath
       clipPathUnits="userSpaceOnUse"
       id="clipPath28"><path
         d="m 24.105,0 h 793.68 V 54 H 24.105 Z"
         id="path26" /></clipPath><clipPath
       clipPathUnits="userSpaceOnUse"
       id="clipPath42"><path
         d="m 24.105,53 h 793.68 v 2 H 24.105 Z"
         id="path40" /></clipPath><clipPath
       clipPathUnits="userSpaceOnUse"
       id="clipPath56"><path
         d="M 24.105,53 H 347 v 2 H 24.105 Z"
         id="path54" /></clipPath><clipPath
       clipPathUnits="userSpaceOnUse"
       id="clipPath176"><path
         d="m 802,585 h 4 v 10 h -4 z"
         id="path174" /></clipPath><clipPath
       clipPathUnits="userSpaceOnUse"
       id="clipPath194"><path
         d="m 812,586 h 5.785 v 9 H 812 Z"
         id="path192" /></clipPath></defs><g
     id="g8"
     transform="matrix(1.3333333,0,0,1.3333333,0,2.184252e-5)"><g
       id="g10" /><g
       id="g12"><g
         id="g14"
         clip-path="url(#clipPath18)"><path
           d="m 24.105,0.008 h 793.691 v 595.27 H 24.105 Z"
           style="fill:#fafafa;fill-opacity:1;fill-rule:nonzero;stroke:none"
           id="path20" /></g></g><g
       id="g22"><g
         id="g24"
         clip-path="url(#clipPath28)"><path
           d="M 24.105,0.008 H 817.796 V 53.34 H 24.105 Z"
           style="fill:#23373b;fill-opacity:1;fill-rule:nonzero;stroke:none"
           id="path30" /><text
           transform="translate(43.263268,34.183558)"
           style="font-variant:normal;font-weight:normal;font-size:21.7929px;font-family:'Fira Sans';-inkscape-font-specification:FiraSans-Regular;writing-mode:lr-tb;fill:#fafafa;fill-opacity:1;fill-rule:nonzero;stroke:none"
           id="text34"><tspan
             x="0 13.250063 24.909246 35.086514 41.232101 57.402409 65.182465 75.904549 88.849518 100.72662"
             y="0"
             id="tspan32">Basictypes</tspan></text></g></g><g
       id="g36"><g
         id="g38"
         clip-path="url(#clipPath42)"><g
           id="g44"
           transform="scale(1,-1)"><path
             d="M 24.105,-53.777 H 817.797"
             style="fill:none;stroke:#d6c6b7;stroke-width:0.871706;stroke-linecap:butt;stroke-linejoin:miter;stroke-miterlimit:10;stroke-dasharray:none;stroke-opacity:1"
             id="path46" /></g><path
           d="m 24.105,53.34 h 793.699 v 0.871 H 24.105 Z"
           style="fill:#d6c6b7;fill-opacity:1;fill-rule:nonzero;stroke:none"
           id="path48" /></g></g><g
       id="g50"><g
         id="g52"
         clip-path="url(#clipPath56)"><path
           d="m 24.105,53.34 h 322.863 v 0.871 H 24.105 Z"
           style="fill:#eb811b;fill-opacity:1;fill-rule:nonzero;stroke:none"
           id="path58" /></g></g><g
       id="g60"><text
         transform="translate(86.111386,135.41956)"
         style="font-variant:normal;font-weight:normal;font-size:19.6137px;font-family:'Fira Sans';-inkscape-font-specification:FiraSans-Regular;writing-mode:lr-tb;fill:#23373b;fill-opacity:1;fill-rule:nonzero;stroke:none"
         id="text64"><tspan
           x="0 13.396165 24.811344 41.620296 53.27084 63.960312"
           y="0"
           id="tspan62">Number</tspan></text><text
         transform="translate(109.90446,179.20829)"
         style="font-variant:normal;font-weight:300;font-size:19.6137px;font-family:'Fira Sans Light';-inkscape-font-specification:FiraSans-Light;writing-mode:lr-tb;fill:#23373b;fill-opacity:1;fill-rule:nonzero;stroke:none"
         id="text70"><tspan
           x="0 15.43599 24.20332 35.402748 48.171276 59.566841 70.766266 77.454544 94.38118 99.67688 111.13129 117.60381 128.11676 137.72748 148.24043 155.20329 169.75667 180.26962 191.72403 208.67027 215.41739 225.73421 236.05101 247.07391 258.52832 269.88467 286.61517 298.01071 308.52368 315.50616 324.6069"
           y="0"
           id="tspan66">•Forbothintegersandrealnumbers.</tspan><tspan
           x="0 15.43599 25.144777 36.599186 47.112133 53.859249 69.824814 80.337761 87.084877 103.05044 109.73872 121.19312 127.94024 138.45319 154.41875 163.51952 174.91507 185.42802 194.62686 199.92256 210.25899 221.28189 230.26497 240.58177 246.15207 257.50842 268.02136 277.12213"
           y="33.980125"
           id="tspan68">•Therearethreespecialvalues:</tspan></text><text
         transform="translate(398.36331,213.18842)"
         style="font-variant:normal;font-size:19.6137px;font-family:'Iosevka Term Regular';-inkscape-font-specification:Iosevka-Term;writing-mode:lr-tb;fill:#23373b;fill-opacity:1;fill-rule:nonzero;stroke:none"
         id="text74"><tspan
           x="0 9.8068552 19.61371 29.420567 39.227421 49.034279 58.841133 68.647987"
           y="0"
           id="tspan72">Infinity</tspan></text><text
         transform="translate(476.81816,213.18842)"
         style="font-variant:normal;font-weight:300;font-size:19.6137px;font-family:'Fira Sans Light';-inkscape-font-specification:FiraSans-Light;writing-mode:lr-tb;fill:#23373b;fill-opacity:1;fill-rule:nonzero;stroke:none"
         id="text78"><tspan
           x="0"
           y="0"
           id="tspan76">,</tspan></text><text
         transform="translate(486.35042,213.18842)"
         style="font-variant:normal;font-size:19.6137px;font-family:'Iosevka Term Regular';-inkscape-font-specification:Iosevka-Term;writing-mode:lr-tb;fill:#23373b;fill-opacity:1;fill-rule:nonzero;stroke:none"
         id="text82"><tspan
           x="0 9.8068552 19.61371 29.420567 39.227421 49.034279 58.841133 68.647987 78.454842"
           y="0"
           id="tspan80">-Infinity</tspan></text><text
         transform="translate(580.08435,213.18842)"
         style="font-variant:normal;font-weight:300;font-size:19.6137px;font-family:'Fira Sans Light';-inkscape-font-specification:FiraSans-Light;writing-mode:lr-tb;fill:#23373b;fill-opacity:1;fill-rule:nonzero;stroke:none"
         id="text86"><tspan
           x="0 10.512949 21.967356"
           y="0"
           id="tspan84">and</tspan></text><text
         transform="translate(618.99795,213.18842)"
         style="font-variant:normal;font-size:19.6137px;font-family:'Iosevka Term Regular';-inkscape-font-specification:Iosevka-Term;writing-mode:lr-tb;fill:#23373b;fill-opacity:1;fill-rule:nonzero;stroke:none"
         id="text90"><tspan
           x="0 9.8068552 19.61371"
           y="0"
           id="tspan88">NaN</tspan></text><text
         transform="translate(648.41851,213.18842)"
         style="font-variant:normal;font-weight:300;font-size:19.6137px;font-family:'Fira Sans Light';-inkscape-font-specification:FiraSans-Light;writing-mode:lr-tb;fill:#23373b;fill-opacity:1;fill-rule:nonzero;stroke:none"
         id="text98"><tspan
           x="0"
           y="0"
           id="tspan92">.</tspan><tspan
           x="-538.51404 -523.07806 -510.68219 -499.48276 -494.18707 -482.73267 -467.39474 -450.66425 -440.15128 -433.46301 -416.53638 -402.84601 -397.55032 -390.86203 -373.93539 -362.48099 -351.12466 -334.39417 -322.9986 -312.48566 -305.50317 -290.9498 -285.65408 -271.08109 -262.15686 -251.64391 -245.54405 -229.57849 -223.22365 -217.92795 -205.76744 -196.13712 -185.62416 -174.16975 -163.6568 -157.02737 -146.51442 -140.06151 -129.54857 -114.99519 -103.54078 -86.869125 -76.473862 -67.608459 -58.743065 -48.230114 -36.834549 -30.146275 -24.850573 -13.651143 -2.1967356 12.356638 23.556067 36.344208 46.857155 54.173069 60.920185 72.119614 79.082481 88.183243 94.538086"
           y="33.980125"
           id="tspan94">•Doingmathwithnumbersissafe(itgeneratesnoexceptionsorerrors).</tspan><tspan
           x="-523.07928 -511.99753 -499.83704 -483.10654 -471.9071 -462.80634 -450.64584 -441.46661 -430.26718 -413.47784 -403.84753 -393.33456 -381.1937 -372.2106 -361.8938 -356.32352 -344.96716 -334.45422 -319.90085 -314.33054 -309.03485 -299.58102"
           y="61.424103"
           id="tspan96">Atmostyougetvalueslike</tspan></text><text
         transform="translate(364.80304,274.61252)"
         style="font-variant:normal;font-size:19.6137px;font-family:'Iosevka Term Regular';-inkscape-font-specification:Iosevka-Term;writing-mode:lr-tb;fill:#23373b;fill-opacity:1;fill-rule:nonzero;stroke:none"
         id="text102"><tspan
           x="0 9.8068552 19.61371"
           y="0"
           id="tspan100">NaN</tspan></text><text
         transform="translate(399.69583,274.61252)"
         style="font-variant:normal;font-weight:300;font-size:19.6137px;font-family:'Fira Sans Light';-inkscape-font-specification:FiraSans-Light;writing-mode:lr-tb;fill:#23373b;fill-opacity:1;fill-rule:nonzero;stroke:none"
         id="text106"><tspan
           x="0 11.199429"
           y="0"
           id="tspan104">or</tspan></text><text
         transform="translate(423.6834,274.61252)"
         style="font-variant:normal;font-size:19.6137px;font-family:'Iosevka Term Regular';-inkscape-font-specification:Iosevka-Term;writing-mode:lr-tb;fill:#23373b;fill-opacity:1;fill-rule:nonzero;stroke:none"
         id="text110"><tspan
           x="0 9.8068552 19.61371 29.420567 39.227421 49.034279 58.841133 68.647987"
           y="0"
           id="tspan108">Infinity</tspan></text><text
         transform="translate(502.13824,274.61252)"
         style="font-variant:normal;font-weight:300;font-size:19.6137px;font-family:'Fira Sans Light';-inkscape-font-specification:FiraSans-Light;writing-mode:lr-tb;fill:#23373b;fill-opacity:1;fill-rule:nonzero;stroke:none"
         id="text114"><tspan
           x="0"
           y="0"
           id="tspan112">.</tspan></text><text
         transform="translate(86.111386,318.39907)"
         style="font-variant:normal;font-weight:normal;font-size:19.6137px;font-family:'Fira Sans';-inkscape-font-specification:FiraSans-Regular;writing-mode:lr-tb;fill:#23373b;fill-opacity:1;fill-rule:nonzero;stroke:none"
         id="text118"><tspan
           x="0 11.925137 23.379543 34.83395 40.502312 50.995647 61.665508"
           y="0"
           id="tspan116">Boolean</tspan></text><text
         transform="translate(109.90446,362.18562)"
         style="font-variant:normal;font-weight:300;font-size:19.6137px;font-family:'Fira Sans Light';-inkscape-font-specification:FiraSans-Light;writing-mode:lr-tb;fill:#23373b;fill-opacity:1;fill-rule:nonzero;stroke:none"
         id="text122"><tspan
           x="0 15.43599 24.20332 35.402748 48.171276 54.85955 62.175465 73.531799 80.220078 97.146713 106.12979 116.4466 122.0169 133.37323 143.88618 152.98694"
           y="0"
           id="tspan120">•Fortruthvalues:</tspan></text><text
         transform="translate(274.22814,362.18562)"
         style="font-variant:normal;font-size:19.6137px;font-family:'Iosevka Term Regular';-inkscape-font-specification:Iosevka-Term;writing-mode:lr-tb;fill:#23373b;fill-opacity:1;fill-rule:nonzero;stroke:none"
         id="text126"><tspan
           x="0 9.8068552 19.61371 29.420567"
           y="0"
           id="tspan124">true</tspan></text><text
         transform="translate(318.92778,362.18562)"
         style="font-variant:normal;font-weight:300;font-size:19.6137px;font-family:'Fira Sans Light';-inkscape-font-specification:FiraSans-Light;writing-mode:lr-tb;fill:#23373b;fill-opacity:1;fill-rule:nonzero;stroke:none"
         id="text130"><tspan
           x="0 10.512949 21.967356"
           y="0"
           id="tspan128">and</tspan></text><text
         transform="translate(357.84139,362.18562)"
         style="font-variant:normal;font-size:19.6137px;font-family:'Iosevka Term Regular';-inkscape-font-specification:Iosevka-Term;writing-mode:lr-tb;fill:#23373b;fill-opacity:1;fill-rule:nonzero;stroke:none"
         id="text134"><tspan
           x="0 9.8068552 19.61371 29.420567 39.227421"
           y="0"
           id="tspan132">false</tspan></text><text
         transform="translate(406.87566,362.18562)"
         style="font-variant:normal;font-weight:300;font-size:19.6137px;font-family:'Fira Sans Light';-inkscape-font-specification:FiraSans-Light;writing-mode:lr-tb;fill:#23373b;fill-opacity:1;fill-rule:nonzero;stroke:none"
         id="text140"><tspan
           x="0"
           y="0"
           id="tspan136">.</tspan><tspan
           x="-296.97119 -281.53522 -271.82642 -260.37201 -244.38684 -237.63972 -227.12677 -218.02602 -206.66968 -201.09938 -188.9585 -177.75906 -165.99083 -155.59557 -146.59288 -135.19731 -128.4698 -117.95686 -109.11108 -100.01031 -94.714607 -83.515182 -72.060776 -57.507401 -51.937107 -46.641403 -37.187595 -26.674646"
           y="33.980125"
           id="tspan138">•Theresultofexpressionslike:</tspan></text><path
         d="m 125.34,435.98 v -18.949 c 0,-3.765 3.055,-6.82 6.82,-6.82 h 616.813 c 3.769,0 6.824,3.055 6.824,6.82 v 18.949 c 0,3.766 -3.055,6.821 -6.824,6.821 H 132.16 c -3.765,0 -6.82,-3.055 -6.82,-6.821 z"
         style="fill:#cccccc;fill-opacity:1;fill-rule:nonzero;stroke:none"
         id="path142" /><path
         d="m 125.961,435.98 v -18.949 c 0,-3.422 2.773,-6.199 6.199,-6.199 h 616.813 c 3.425,0 6.203,2.777 6.203,6.199 v 18.949 c 0,3.422 -2.778,6.2 -6.203,6.2 H 132.16 c -3.426,0 -6.199,-2.778 -6.199,-6.2 z"
         style="fill:#f1f1f1;fill-opacity:1;fill-rule:nonzero;stroke:none"
         id="path144" /><text
         transform="translate(132.15977,431.60488)"
         style="font-variant:normal;font-size:19.6137px;font-family:'Iosevka Term Regular';-inkscape-font-specification:Iosevka-Term;writing-mode:lr-tb;fill:#000000;fill-opacity:1;fill-rule:nonzero;stroke:none"
         id="text148"><tspan
           x="0 9.8068552 19.61371"
           y="0"
           id="tspan146">age</tspan></text><text
         transform="translate(171.38763,431.60488)"
         style="font-variant:normal;font-weight:800;font-size:19.6137px;font-family:'Iosevka Term Extrabold';-inkscape-font-specification:Iosevka-Term-Extrabold;writing-mode:lr-tb;fill:#cf5c00;fill-opacity:1;fill-rule:nonzero;stroke:none"
         id="text152"><tspan
           x="0"
           y="0"
           id="tspan150">&gt;</tspan></text><text
         transform="translate(191.00046,431.60488)"
         style="font-variant:normal;font-weight:800;font-size:19.6137px;font-family:'Iosevka Term Extrabold';-inkscape-font-specification:Iosevka-Term-Extrabold;writing-mode:lr-tb;fill:#0000cf;fill-opacity:1;fill-rule:nonzero;stroke:none"
         id="text156"><tspan
           x="0 9.8068552"
           y="0"
           id="tspan154">18</tspan></text><text
         transform="translate(86.111386,486.58688)"
         style="font-variant:normal;font-weight:normal;font-size:19.6137px;font-family:'Fira Sans';-inkscape-font-specification:FiraSans-Regular;writing-mode:lr-tb;fill:#23373b;fill-opacity:1;fill-rule:nonzero;stroke:none"
         id="text160"><tspan
           x="0 10.689472 17.770021 25.340914 30.871981 42.365616"
           y="0"
           id="tspan158">String</tspan></text><text
         transform="translate(109.90446,530.37561)"
         style="font-variant:normal;font-weight:300;font-size:19.6137px;font-family:'Fira Sans Light';-inkscape-font-specification:FiraSans-Light;writing-mode:lr-tb;fill:#23373b;fill-opacity:1;fill-rule:nonzero;stroke:none"
         id="text164"><tspan
           x="0 15.43599 26.00778 36.520729 47.994751 59.351089 69.864037 81.318443 90.203461 100.71641 115.26978 126.46921 138.23744 147.43626 158.89067 169.40363 176.05267 186.56561 195.76445 202.21736 212.73032 219.69318"
           y="0"
           id="tspan162">•Sequencesofcharacters</tspan></text><text
         transform="translate(791.19567,594.18623)"
         style="font-variant:normal;font-weight:300;font-size:10.8964px;font-family:'Fira Sans Light';-inkscape-font-specification:FiraSans-Light;writing-mode:lr-tb;fill:#23373b;fill-opacity:1;fill-rule:nonzero;stroke:none"
         id="text168"><tspan
           x="0 4.9469805"
           y="0"
           id="tspan166">24</tspan></text></g><g
       id="g170"><g
         id="g172"
         clip-path="url(#clipPath176)"><text
           transform="translate(801.56907,594.18623)"
           style="font-variant:normal;font-weight:300;font-size:10.8964px;font-family:'Fira Sans Light';-inkscape-font-specification:FiraSans-Light;writing-mode:lr-tb;fill:#23373b;fill-opacity:1;fill-rule:nonzero;stroke:none"
           id="text180"><tspan
             x="0"
             y="0"
             id="tspan178">/</tspan></text></g></g><g
       id="g182"><text
         transform="translate(807.01729,594.18623)"
         style="font-variant:normal;font-weight:300;font-size:10.8964px;font-family:'Fira Sans Light';-inkscape-font-specification:FiraSans-Light;writing-mode:lr-tb;fill:#23373b;fill-opacity:1;fill-rule:nonzero;stroke:none"
         id="text186"><tspan
           x="0"
           y="0"
           id="tspan184">5</tspan></text></g><g
       id="g188"><g
         id="g190"
         clip-path="url(#clipPath194)"><text
           transform="translate(812.1604,594.18623)"
           style="font-variant:normal;font-weight:300;font-size:10.8964px;font-family:'Fira Sans Light';-inkscape-font-specification:FiraSans-Light;writing-mode:lr-tb;fill:#23373b;fill-opacity:1;fill-rule:nonzero;stroke:none"
           id="text198"><tspan
             x="0"
             y="0"
             id="tspan196">9</tspan></text></g></g></g></svg>
