<svg width="1920" height="1080" viewBox="0 0 1920 1080" fill="none" xmlns="http://www.w3.org/2000/svg">
<rect width="1920" height="1080" fill="white"/>
<rect x="426" y="84" width="359" height="937" fill="#ECF1F5" stroke="black" stroke-width="4"/>
<path d="M609.059 956.954L609.059 813.383M609.059 813.383L529.256 681.608L529.256 542.829L529.256 400.549M609.059 813.383L687.387 681.608L687.387 509.286L529.256 400.549M529.256 400.549L621 306L621 187" stroke="#AB9F81" stroke-width="11.4267"/>
<circle cx="608.674" cy="958.676" r="38.8239" transform="rotate(-90 608.674 958.676)" fill="#343434"/>
<path d="M580.591 966.22L589.185 966.22M638.571 954.783L638.571 966.22L609.581 966.22M609.581 966.22L609.581 954.783L619.547 954.783M609.581 966.22L599.499 966.22M599.499 966.22L599.499 954.783M599.499 966.22L589.185 966.22M589.185 966.22L589.185 954.783M629.513 943.147L629.513 954.783L619.547 954.783M619.547 954.783L619.547 943.147" stroke="#A4C6DF" stroke-width="0.661116"/>
<path d="M578.878 971.509L575.698 971.509L575.698 967.807L577.521 966.203L578.878 971.509Z" fill="#C4933D" stroke="black" stroke-width="0.285663"/>
<path d="M576.666 966.796L576.664 961.236L583.665 961.225L583.665 971.509L577.463 971.509L577.452 967.581L576.666 966.796Z" fill="#F5CE85" stroke="black" stroke-width="0.285663"/>
<path d="M588.134 959.874L584.954 959.874L584.954 956.171L586.777 954.568L588.134 959.874Z" fill="#C4933D" stroke="black" stroke-width="0.285663"/>
<path d="M585.922 955.16L585.92 949.601L592.92 949.59L592.92 959.874L586.719 959.874L586.707 955.946L585.922 955.16Z" fill="#F5CE85" stroke="black" stroke-width="0.285663"/>
<path d="M598.315 959.874L595.135 959.874L595.135 956.171L596.958 954.568L598.315 959.874Z" fill="#C4933D" stroke="black" stroke-width="0.285663"/>
<path d="M596.103 955.16L596.101 949.601L603.102 949.59L603.102 959.874L596.9 959.874L596.888 955.946L596.103 955.16Z" fill="#F5CE85" stroke="black" stroke-width="0.285663"/>
<path d="M637.188 959.874L634.009 959.874L634.009 956.171L635.831 954.568L637.188 959.874Z" fill="#C4933D" stroke="black" stroke-width="0.285663"/>
<path d="M634.976 955.16L634.974 949.601L641.975 949.59L641.975 959.874L635.773 959.874L635.762 955.946L634.976 955.16Z" fill="#F5CE85" stroke="black" stroke-width="0.285663"/>
<path d="M627.933 948.238L624.753 948.238L624.753 944.536L626.576 942.932L627.933 948.238Z" fill="#C4933D" stroke="black" stroke-width="0.285663"/>
<path d="M625.721 943.524L625.719 937.965L632.72 937.954L632.72 948.238L626.518 948.238L626.506 944.31L625.721 943.524Z" fill="#F5CE85" stroke="black" stroke-width="0.285663"/>
<path d="M608.496 959.874L605.316 959.874L605.316 956.171L607.139 954.568L608.496 959.874Z" fill="#C4933D" stroke="black" stroke-width="0.285663"/>
<path d="M606.284 955.16L606.282 949.601L613.283 949.59L613.283 959.874L607.081 959.874L607.07 955.946L606.284 955.16Z" fill="#F5CE85" stroke="black" stroke-width="0.285663"/>
<path d="M617.752 948.238L614.572 948.238L614.572 944.536L616.395 942.932L617.752 948.238Z" fill="#C4933D" stroke="black" stroke-width="0.285663"/>
<path d="M615.54 943.524L615.538 937.965L622.538 937.954L622.538 948.238L616.337 948.238L616.325 944.31L615.54 943.524Z" fill="#F5CE85" stroke="black" stroke-width="0.285663"/>
<circle cx="606.472" cy="814.146" r="38.8239" transform="rotate(-90 606.472 814.146)" fill="#343434"/>
<path d="M578.388 821.69L586.982 821.69M636.368 810.253L636.368 821.69L607.378 821.69M607.378 821.69L607.378 810.253L617.344 810.253M607.378 821.69L597.296 821.69M597.296 821.69L597.296 810.253M597.296 821.69L586.982 821.69M586.982 821.69L586.982 810.253M627.311 798.617L627.311 810.253L617.344 810.253M617.344 810.253L617.344 798.617" stroke="#A4C6DF" stroke-width="0.661116"/>
<path d="M576.675 826.979L573.496 826.979L573.496 823.277L575.318 821.673L576.675 826.979Z" fill="#C4933D" stroke="black" stroke-width="0.285663"/>
<path d="M574.463 822.266L574.461 816.706L581.462 816.695L581.462 826.979L575.26 826.979L575.249 823.051L574.463 822.266Z" fill="#F5CE85" stroke="black" stroke-width="0.285663"/>
<path d="M585.931 815.344L582.751 815.344L582.751 811.641L584.574 810.038L585.931 815.344Z" fill="#C4933D" stroke="black" stroke-width="0.285663"/>
<path d="M583.719 810.63L583.717 805.071L590.718 805.06L590.718 815.344L584.516 815.344L584.504 811.416L583.719 810.63Z" fill="#F5CE85" stroke="black" stroke-width="0.285663"/>
<path d="M596.112 815.344L592.933 815.344L592.933 811.641L594.755 810.038L596.112 815.344Z" fill="#C4933D" stroke="black" stroke-width="0.285663"/>
<path d="M593.9 810.63L593.898 805.071L600.899 805.06L600.899 815.344L594.697 815.344L594.686 811.416L593.9 810.63Z" fill="#F5CE85" stroke="black" stroke-width="0.285663"/>
<path d="M634.986 815.344L631.806 815.344L631.806 811.641L633.629 810.038L634.986 815.344Z" fill="#C4933D" stroke="black" stroke-width="0.285663"/>
<path d="M632.774 810.63L632.772 805.071L639.772 805.06L639.772 815.344L633.571 815.344L633.559 811.416L632.774 810.63Z" fill="#F5CE85" stroke="black" stroke-width="0.285663"/>
<path d="M625.73 803.708L622.551 803.708L622.551 800.006L624.373 798.402L625.73 803.708Z" fill="#C4933D" stroke="black" stroke-width="0.285663"/>
<path d="M623.518 798.994L623.516 793.435L630.517 793.424L630.517 803.708L624.315 803.708L624.304 799.78L623.518 798.994Z" fill="#F5CE85" stroke="black" stroke-width="0.285663"/>
<path d="M606.293 815.344L603.114 815.344L603.114 811.641L604.936 810.038L606.293 815.344Z" fill="#C4933D" stroke="black" stroke-width="0.285663"/>
<path d="M604.081 810.63L604.079 805.071L611.08 805.06L611.08 815.344L604.878 815.344L604.867 811.416L604.081 810.63Z" fill="#F5CE85" stroke="black" stroke-width="0.285663"/>
<path d="M615.549 803.708L612.369 803.708L612.369 800.006L614.192 798.402L615.549 803.708Z" fill="#C4933D" stroke="black" stroke-width="0.285663"/>
<path d="M613.337 798.994L613.335 793.435L620.336 793.424L620.336 803.708L614.134 803.708L614.122 799.78L613.337 798.994Z" fill="#F5CE85" stroke="black" stroke-width="0.285663"/>
<circle cx="528.824" cy="683.561" r="38.8239" transform="rotate(-90 528.824 683.561)" fill="#343434"/>
<path d="M500.74 691.105L509.335 691.105M558.72 679.667L558.72 691.105L529.73 691.105M529.73 691.105L529.73 679.667L539.697 679.667M529.73 691.105L519.648 691.105M519.648 691.105L519.648 679.667M519.648 691.105L509.335 691.105M509.335 691.105L509.335 679.667M549.663 668.032L549.663 679.667L539.697 679.667M539.697 679.667L539.697 668.032" stroke="#A4C6DF" stroke-width="0.661116"/>
<path d="M499.027 696.394L495.848 696.394L495.848 692.691L497.67 691.088L499.027 696.394Z" fill="#C4933D" stroke="black" stroke-width="0.285663"/>
<path d="M496.816 691.68L496.814 686.121L503.814 686.11L503.814 696.394L497.612 696.394L497.601 692.466L496.816 691.68Z" fill="#F5CE85" stroke="black" stroke-width="0.285663"/>
<path d="M508.283 684.758L505.104 684.758L505.104 681.056L506.926 679.452L508.283 684.758Z" fill="#C4933D" stroke="black" stroke-width="0.285663"/>
<path d="M506.071 680.045L506.069 674.485L513.07 674.474L513.07 684.758L506.868 684.758L506.857 680.83L506.071 680.045Z" fill="#F5CE85" stroke="black" stroke-width="0.285663"/>
<path d="M518.464 684.758L515.285 684.758L515.285 681.056L517.107 679.452L518.464 684.758Z" fill="#C4933D" stroke="black" stroke-width="0.285663"/>
<path d="M516.252 680.045L516.25 674.485L523.251 674.474L523.251 684.758L517.049 684.758L517.038 680.83L516.252 680.045Z" fill="#F5CE85" stroke="black" stroke-width="0.285663"/>
<path d="M557.338 684.758L554.158 684.758L554.158 681.056L555.981 679.452L557.338 684.758Z" fill="#C4933D" stroke="black" stroke-width="0.285663"/>
<path d="M555.126 680.045L555.124 674.485L562.125 674.474L562.125 684.758L555.923 684.758L555.912 680.83L555.126 680.045Z" fill="#F5CE85" stroke="black" stroke-width="0.285663"/>
<path d="M548.082 673.122L544.903 673.122L544.903 669.42L546.725 667.816L548.082 673.122Z" fill="#C4933D" stroke="black" stroke-width="0.285663"/>
<path d="M545.87 668.409L545.868 662.85L552.869 662.838L552.869 673.122L546.667 673.122L546.656 669.194L545.87 668.409Z" fill="#F5CE85" stroke="black" stroke-width="0.285663"/>
<path d="M528.645 684.758L525.466 684.758L525.466 681.056L527.288 679.452L528.645 684.758Z" fill="#C4933D" stroke="black" stroke-width="0.285663"/>
<path d="M526.434 680.045L526.432 674.485L533.432 674.474L533.432 684.758L527.23 684.758L527.219 680.83L526.434 680.045Z" fill="#F5CE85" stroke="black" stroke-width="0.285663"/>
<path d="M537.901 673.122L534.722 673.122L534.722 669.42L536.544 667.816L537.901 673.122Z" fill="#C4933D" stroke="black" stroke-width="0.285663"/>
<path d="M535.689 668.409L535.687 662.85L542.688 662.838L542.688 673.122L536.486 673.122L536.475 669.194L535.689 668.409Z" fill="#F5CE85" stroke="black" stroke-width="0.285663"/>
<circle cx="528.824" cy="543.134" r="38.8239" transform="rotate(-90 528.824 543.134)" fill="#343434"/>
<path d="M500.74 550.678L509.335 550.678M558.72 539.241L558.72 550.678L529.73 550.678M529.73 550.678L529.73 539.241L539.697 539.241M529.73 550.678L519.648 550.678M519.648 550.678L519.648 539.241M519.648 550.678L509.335 550.678M509.335 550.678L509.335 539.241M549.663 527.605L549.663 539.241L539.697 539.241M539.697 539.241L539.697 527.605" stroke="#A4C6DF" stroke-width="0.661116"/>
<path d="M499.027 555.967L495.848 555.967L495.848 552.265L497.67 550.661L499.027 555.967Z" fill="#C4933D" stroke="black" stroke-width="0.285663"/>
<path d="M496.816 551.253L496.814 545.694L503.814 545.683L503.814 555.967L497.612 555.967L497.601 552.039L496.816 551.253Z" fill="#F5CE85" stroke="black" stroke-width="0.285663"/>
<path d="M508.283 544.331L505.104 544.331L505.104 540.629L506.926 539.025L508.283 544.331Z" fill="#C4933D" stroke="black" stroke-width="0.285663"/>
<path d="M506.071 539.618L506.069 534.059L513.07 534.047L513.07 544.331L506.868 544.331L506.857 540.403L506.071 539.618Z" fill="#F5CE85" stroke="black" stroke-width="0.285663"/>
<path d="M518.464 544.331L515.285 544.331L515.285 540.629L517.107 539.025L518.464 544.331Z" fill="#C4933D" stroke="black" stroke-width="0.285663"/>
<path d="M516.252 539.618L516.25 534.059L523.251 534.047L523.251 544.331L517.049 544.331L517.038 540.403L516.252 539.618Z" fill="#F5CE85" stroke="black" stroke-width="0.285663"/>
<path d="M557.338 544.331L554.158 544.331L554.158 540.629L555.981 539.025L557.338 544.331Z" fill="#C4933D" stroke="black" stroke-width="0.285663"/>
<path d="M555.126 539.618L555.124 534.059L562.125 534.047L562.125 544.331L555.923 544.331L555.912 540.403L555.126 539.618Z" fill="#F5CE85" stroke="black" stroke-width="0.285663"/>
<path d="M548.082 532.696L544.903 532.696L544.903 528.993L546.725 527.39L548.082 532.696Z" fill="#C4933D" stroke="black" stroke-width="0.285663"/>
<path d="M545.87 527.982L545.868 522.423L552.869 522.412L552.869 532.696L546.667 532.696L546.656 528.768L545.87 527.982Z" fill="#F5CE85" stroke="black" stroke-width="0.285663"/>
<path d="M528.645 544.331L525.466 544.331L525.466 540.629L527.288 539.025L528.645 544.331Z" fill="#C4933D" stroke="black" stroke-width="0.285663"/>
<path d="M526.434 539.618L526.432 534.059L533.432 534.047L533.432 544.331L527.23 544.331L527.219 540.403L526.434 539.618Z" fill="#F5CE85" stroke="black" stroke-width="0.285663"/>
<path d="M537.901 532.696L534.722 532.696L534.722 528.993L536.544 527.39L537.901 532.696Z" fill="#C4933D" stroke="black" stroke-width="0.285663"/>
<path d="M535.689 527.982L535.687 522.423L542.688 522.412L542.688 532.696L536.486 532.696L536.475 528.768L535.689 527.982Z" fill="#F5CE85" stroke="black" stroke-width="0.285663"/>
<circle cx="529.93" cy="402.824" r="38.8239" transform="rotate(-90 529.93 402.824)" fill="#343434"/>
<path d="M501.846 410.368L510.441 410.368M559.826 398.931L559.826 410.368L530.836 410.368M530.836 410.368L530.836 398.931L540.802 398.931M530.836 410.368L520.754 410.368M520.754 410.368L520.754 398.931M520.754 410.368L510.441 410.368M510.441 410.368L510.441 398.931M550.769 387.295L550.769 398.931L540.802 398.931M540.802 398.931L540.802 387.295" stroke="#A4C6DF" stroke-width="0.661116"/>
<path d="M500.133 415.657L496.954 415.657L496.954 411.955L498.776 410.351L500.133 415.657Z" fill="#C4933D" stroke="black" stroke-width="0.285663"/>
<path d="M497.921 410.943L497.919 405.384L504.92 405.373L504.92 415.657L498.718 415.657L498.707 411.729L497.921 410.943Z" fill="#F5CE85" stroke="black" stroke-width="0.285663"/>
<path d="M509.389 404.021L506.209 404.021L506.209 400.319L508.032 398.715L509.389 404.021Z" fill="#C4933D" stroke="black" stroke-width="0.285663"/>
<path d="M507.177 399.308L507.175 393.749L514.176 393.737L514.176 404.021L507.974 404.021L507.962 400.093L507.177 399.308Z" fill="#F5CE85" stroke="black" stroke-width="0.285663"/>
<path d="M519.57 404.021L516.391 404.021L516.391 400.319L518.213 398.715L519.57 404.021Z" fill="#C4933D" stroke="black" stroke-width="0.285663"/>
<path d="M517.358 399.308L517.356 393.749L524.357 393.737L524.357 404.021L518.155 404.021L518.144 400.093L517.358 399.308Z" fill="#F5CE85" stroke="black" stroke-width="0.285663"/>
<path d="M558.444 404.021L555.264 404.021L555.264 400.319L557.087 398.715L558.444 404.021Z" fill="#C4933D" stroke="black" stroke-width="0.285663"/>
<path d="M556.232 399.308L556.23 393.749L563.231 393.737L563.231 404.021L557.029 404.021L557.017 400.093L556.232 399.308Z" fill="#F5CE85" stroke="black" stroke-width="0.285663"/>
<path d="M549.188 392.385L546.009 392.385L546.009 388.683L547.831 387.08L549.188 392.385Z" fill="#C4933D" stroke="black" stroke-width="0.285663"/>
<path d="M546.976 387.672L546.974 382.113L553.975 382.102L553.975 392.385L547.773 392.385L547.762 388.458L546.976 387.672Z" fill="#F5CE85" stroke="black" stroke-width="0.285663"/>
<path d="M529.751 404.021L526.572 404.021L526.572 400.319L528.394 398.715L529.751 404.021Z" fill="#C4933D" stroke="black" stroke-width="0.285663"/>
<path d="M527.539 399.308L527.537 393.749L534.538 393.737L534.538 404.021L528.336 404.021L528.325 400.093L527.539 399.308Z" fill="#F5CE85" stroke="black" stroke-width="0.285663"/>
<path d="M539.007 392.385L535.827 392.385L535.827 388.683L537.65 387.08L539.007 392.385Z" fill="#C4933D" stroke="black" stroke-width="0.285663"/>
<path d="M536.795 387.672L536.793 382.113L543.794 382.102L543.794 392.385L537.592 392.385L537.581 388.458L536.795 387.672Z" fill="#F5CE85" stroke="black" stroke-width="0.285663"/>
<circle cx="686.322" cy="682.459" r="38.8239" transform="rotate(-90 686.322 682.459)" fill="#343434"/>
<path d="M658.238 690.003L666.833 690.003M716.218 678.566L716.218 690.003L687.228 690.003M687.228 690.003L687.228 678.566L697.195 678.566M687.228 690.003L677.146 690.003M677.146 690.003L677.146 678.566M677.146 690.003L666.833 690.003M666.833 690.003L666.833 678.566M707.161 666.93L707.161 678.566L697.195 678.566M697.195 678.566L697.195 666.93" stroke="#A4C6DF" stroke-width="0.661116"/>
<path d="M656.526 695.292L653.346 695.292L653.346 691.59L655.169 689.986L656.526 695.292Z" fill="#C4933D" stroke="black" stroke-width="0.285663"/>
<path d="M654.314 690.579L654.312 685.02L661.312 685.008L661.312 695.292L655.111 695.292L655.099 691.364L654.314 690.579Z" fill="#F5CE85" stroke="black" stroke-width="0.285663"/>
<path d="M665.781 683.657L662.602 683.657L662.602 679.954L664.424 678.351L665.781 683.657Z" fill="#C4933D" stroke="black" stroke-width="0.285663"/>
<path d="M663.569 678.943L663.567 673.384L670.568 673.373L670.568 683.657L664.366 683.657L664.355 679.729L663.569 678.943Z" fill="#F5CE85" stroke="black" stroke-width="0.285663"/>
<path d="M675.962 683.657L672.783 683.657L672.783 679.954L674.606 678.351L675.962 683.657Z" fill="#C4933D" stroke="black" stroke-width="0.285663"/>
<path d="M673.751 678.943L673.749 673.384L680.749 673.373L680.749 683.657L674.547 683.657L674.536 679.729L673.751 678.943Z" fill="#F5CE85" stroke="black" stroke-width="0.285663"/>
<path d="M714.836 683.657L711.657 683.657L711.657 679.954L713.479 678.351L714.836 683.657Z" fill="#C4933D" stroke="black" stroke-width="0.285663"/>
<path d="M712.624 678.943L712.622 673.384L719.623 673.373L719.623 683.657L713.421 683.657L713.41 679.729L712.624 678.943Z" fill="#F5CE85" stroke="black" stroke-width="0.285663"/>
<path d="M705.58 672.021L702.401 672.021L702.401 668.319L704.224 666.715L705.58 672.021Z" fill="#C4933D" stroke="black" stroke-width="0.285663"/>
<path d="M703.369 667.308L703.367 661.748L710.367 661.737L710.367 672.021L704.165 672.021L704.154 668.093L703.369 667.308Z" fill="#F5CE85" stroke="black" stroke-width="0.285663"/>
<path d="M686.144 683.657L682.964 683.657L682.964 679.954L684.787 678.351L686.144 683.657Z" fill="#C4933D" stroke="black" stroke-width="0.285663"/>
<path d="M683.932 678.943L683.93 673.384L690.93 673.373L690.93 683.657L684.729 683.657L684.717 679.729L683.932 678.943Z" fill="#F5CE85" stroke="black" stroke-width="0.285663"/>
<path d="M695.399 672.021L692.22 672.021L692.22 668.319L694.042 666.715L695.399 672.021Z" fill="#C4933D" stroke="black" stroke-width="0.285663"/>
<path d="M693.187 667.308L693.185 661.748L700.186 661.737L700.186 672.021L693.984 672.021L693.973 668.093L693.187 667.308Z" fill="#F5CE85" stroke="black" stroke-width="0.285663"/>
<circle cx="687.691" cy="510.087" r="38.8239" transform="rotate(-90 687.691 510.087)" fill="#343434"/>
<path d="M659.608 517.631L668.202 517.631M717.588 506.194L717.588 517.631L688.598 517.631M688.598 517.631L688.598 506.194L698.564 506.194M688.598 517.631L678.516 517.631M678.516 517.631L678.516 506.194M678.516 517.631L668.202 517.631M668.202 517.631L668.202 506.194M708.53 494.558L708.53 506.194L698.564 506.194M698.564 506.194L698.564 494.558" stroke="#A4C6DF" stroke-width="0.661116"/>
<path d="M657.895 522.92L654.716 522.92L654.716 519.218L656.538 517.614L657.895 522.92Z" fill="#C4933D" stroke="black" stroke-width="0.285663"/>
<path d="M655.683 518.206L655.681 512.647L662.682 512.636L662.682 522.92L656.48 522.92L656.469 518.992L655.683 518.206Z" fill="#F5CE85" stroke="black" stroke-width="0.285663"/>
<path d="M667.151 511.284L663.971 511.284L663.971 507.582L665.794 505.978L667.151 511.284Z" fill="#C4933D" stroke="black" stroke-width="0.285663"/>
<path d="M664.939 506.571L664.937 501.012L671.937 501.001L671.937 511.284L665.736 511.284L665.724 507.357L664.939 506.571Z" fill="#F5CE85" stroke="black" stroke-width="0.285663"/>
<path d="M677.332 511.284L674.152 511.284L674.152 507.582L675.975 505.978L677.332 511.284Z" fill="#C4933D" stroke="black" stroke-width="0.285663"/>
<path d="M675.12 506.571L675.118 501.012L682.119 501.001L682.119 511.284L675.917 511.284L675.905 507.357L675.12 506.571Z" fill="#F5CE85" stroke="black" stroke-width="0.285663"/>
<path d="M716.205 511.284L713.026 511.284L713.026 507.582L714.849 505.978L716.205 511.284Z" fill="#C4933D" stroke="black" stroke-width="0.285663"/>
<path d="M713.994 506.571L713.992 501.012L720.992 501.001L720.992 511.284L714.79 511.284L714.779 507.357L713.994 506.571Z" fill="#F5CE85" stroke="black" stroke-width="0.285663"/>
<path d="M706.95 499.649L703.77 499.649L703.77 495.946L705.593 494.343L706.95 499.649Z" fill="#C4933D" stroke="black" stroke-width="0.285663"/>
<path d="M704.738 494.935L704.736 489.376L711.737 489.365L711.737 499.649L705.535 499.649L705.523 495.721L704.738 494.935Z" fill="#F5CE85" stroke="black" stroke-width="0.285663"/>
<path d="M687.513 511.284L684.334 511.284L684.334 507.582L686.156 505.978L687.513 511.284Z" fill="#C4933D" stroke="black" stroke-width="0.285663"/>
<path d="M685.301 506.571L685.299 501.012L692.3 501.001L692.3 511.284L686.098 511.284L686.087 507.357L685.301 506.571Z" fill="#F5CE85" stroke="black" stroke-width="0.285663"/>
<path d="M696.769 499.649L693.589 499.649L693.589 495.946L695.412 494.343L696.769 499.649Z" fill="#C4933D" stroke="black" stroke-width="0.285663"/>
<path d="M694.557 494.935L694.555 489.376L701.555 489.365L701.555 499.649L695.354 499.649L695.342 495.721L694.557 494.935Z" fill="#F5CE85" stroke="black" stroke-width="0.285663"/>
<circle cx="621.824" cy="304.824" r="38.8239" transform="rotate(-90 621.824 304.824)" fill="#FFC700"/>
<path d="M593.74 312.368L602.335 312.368M651.72 300.931L651.72 312.368L622.73 312.368M622.73 312.368L622.73 300.931L632.696 300.931M622.73 312.368L612.648 312.368M612.648 312.368L612.648 300.931M612.648 312.368L602.335 312.368M602.335 312.368L602.335 300.931M642.663 289.295L642.663 300.931L632.696 300.931M632.696 300.931L632.696 289.295" stroke="#A4C6DF" stroke-width="0.661116"/>
<path d="M592.027 317.657L588.848 317.657L588.848 313.955L590.67 312.351L592.027 317.657Z" fill="#C4933D" stroke="black" stroke-width="0.285663"/>
<path d="M589.815 312.943L589.813 307.384L596.814 307.373L596.814 317.657L590.612 317.657L590.601 313.729L589.815 312.943Z" fill="#F5CE85" stroke="black" stroke-width="0.285663"/>
<path d="M601.283 306.021L598.104 306.021L598.104 302.319L599.926 300.715L601.283 306.021Z" fill="#C4933D" stroke="black" stroke-width="0.285663"/>
<path d="M599.071 301.308L599.069 295.749L606.07 295.737L606.07 306.021L599.868 306.021L599.857 302.093L599.071 301.308Z" fill="#F5CE85" stroke="black" stroke-width="0.285663"/>
<path d="M611.464 306.021L608.285 306.021L608.285 302.319L610.107 300.715L611.464 306.021Z" fill="#C4933D" stroke="black" stroke-width="0.285663"/>
<path d="M609.252 301.308L609.25 295.749L616.251 295.737L616.251 306.021L610.049 306.021L610.038 302.093L609.252 301.308Z" fill="#F5CE85" stroke="black" stroke-width="0.285663"/>
<path d="M650.338 306.021L647.158 306.021L647.158 302.319L648.981 300.715L650.338 306.021Z" fill="#C4933D" stroke="black" stroke-width="0.285663"/>
<path d="M648.126 301.308L648.124 295.749L655.125 295.737L655.125 306.021L648.923 306.021L648.912 302.093L648.126 301.308Z" fill="#F5CE85" stroke="black" stroke-width="0.285663"/>
<path d="M641.082 294.385L637.903 294.385L637.903 290.683L639.725 289.08L641.082 294.385Z" fill="#C4933D" stroke="black" stroke-width="0.285663"/>
<path d="M638.87 289.672L638.868 284.113L645.869 284.102L645.869 294.385L639.667 294.385L639.656 290.458L638.87 289.672Z" fill="#F5CE85" stroke="black" stroke-width="0.285663"/>
<path d="M621.645 306.021L618.466 306.021L618.466 302.319L620.288 300.715L621.645 306.021Z" fill="#C4933D" stroke="black" stroke-width="0.285663"/>
<path d="M619.433 301.308L619.431 295.749L626.432 295.737L626.432 306.021L620.23 306.021L620.219 302.093L619.433 301.308Z" fill="#F5CE85" stroke="black" stroke-width="0.285663"/>
<path d="M630.901 294.385L627.722 294.385L627.722 290.683L629.544 289.08L630.901 294.385Z" fill="#C4933D" stroke="black" stroke-width="0.285663"/>
<path d="M628.689 289.672L628.687 284.113L635.688 284.102L635.688 294.385L629.486 294.385L629.475 290.458L628.689 289.672Z" fill="#F5CE85" stroke="black" stroke-width="0.285663"/>
<circle cx="620.824" cy="186.824" r="38.8239" transform="rotate(-90 620.824 186.824)" fill="#FFC700"/>
<path d="M592.74 194.368L601.335 194.368M650.72 182.931L650.72 194.368L621.73 194.368M621.73 194.368L621.73 182.931L631.696 182.931M621.73 194.368L611.648 194.368M611.648 194.368L611.648 182.931M611.648 194.368L601.335 194.368M601.335 194.368L601.335 182.931M641.663 171.295L641.663 182.931L631.696 182.931M631.696 182.931L631.696 171.295" stroke="#A4C6DF" stroke-width="0.661116"/>
<path d="M591.027 199.657L587.848 199.657L587.848 195.955L589.67 194.351L591.027 199.657Z" fill="#C4933D" stroke="black" stroke-width="0.285663"/>
<path d="M588.815 194.943L588.813 189.384L595.814 189.373L595.814 199.657L589.612 199.657L589.601 195.729L588.815 194.943Z" fill="#F5CE85" stroke="black" stroke-width="0.285663"/>
<path d="M600.283 188.021L597.104 188.021L597.104 184.319L598.926 182.715L600.283 188.021Z" fill="#C4933D" stroke="black" stroke-width="0.285663"/>
<path d="M598.071 183.308L598.069 177.749L605.07 177.737L605.07 188.021L598.868 188.021L598.857 184.093L598.071 183.308Z" fill="#F5CE85" stroke="black" stroke-width="0.285663"/>
<path d="M610.464 188.021L607.285 188.021L607.285 184.319L609.107 182.715L610.464 188.021Z" fill="#C4933D" stroke="black" stroke-width="0.285663"/>
<path d="M608.252 183.308L608.25 177.749L615.251 177.737L615.251 188.021L609.049 188.021L609.038 184.093L608.252 183.308Z" fill="#F5CE85" stroke="black" stroke-width="0.285663"/>
<path d="M649.338 188.021L646.158 188.021L646.158 184.319L647.981 182.715L649.338 188.021Z" fill="#C4933D" stroke="black" stroke-width="0.285663"/>
<path d="M647.126 183.308L647.124 177.749L654.125 177.737L654.125 188.021L647.923 188.021L647.912 184.093L647.126 183.308Z" fill="#F5CE85" stroke="black" stroke-width="0.285663"/>
<path d="M640.082 176.385L636.903 176.385L636.903 172.683L638.725 171.08L640.082 176.385Z" fill="#C4933D" stroke="black" stroke-width="0.285663"/>
<path d="M637.87 171.672L637.868 166.113L644.869 166.102L644.869 176.385L638.667 176.385L638.656 172.458L637.87 171.672Z" fill="#F5CE85" stroke="black" stroke-width="0.285663"/>
<path d="M620.645 188.021L617.466 188.021L617.466 184.319L619.288 182.715L620.645 188.021Z" fill="#C4933D" stroke="black" stroke-width="0.285663"/>
<path d="M618.433 183.308L618.431 177.749L625.432 177.737L625.432 188.021L619.23 188.021L619.219 184.093L618.433 183.308Z" fill="#F5CE85" stroke="black" stroke-width="0.285663"/>
<path d="M629.901 176.385L626.722 176.385L626.722 172.683L628.544 171.08L629.901 176.385Z" fill="#C4933D" stroke="black" stroke-width="0.285663"/>
<path d="M627.689 171.672L627.687 166.113L634.688 166.102L634.688 176.385L628.486 176.385L628.475 172.458L627.689 171.672Z" fill="#F5CE85" stroke="black" stroke-width="0.285663"/>
<path d="M163.4 1017V977.64H169.4L176.96 998.64C177.44 1000 177.9 1001.38 178.34 1002.78C178.82 1004.14 179.3 1005.5 179.78 1006.86H180.02C180.5 1005.5 180.94 1004.14 181.34 1002.78C181.78 1001.38 182.24 1000 182.72 998.64L190.16 977.64H196.22V1017H191.54V995.34C191.54 993.58 191.62 991.64 191.78 989.52C191.94 987.36 192.08 985.42 192.2 983.7H191.96L188.84 992.64L181.4 1013.04H178.1L170.66 992.64L167.54 983.7H167.3C167.42 985.42 167.54 987.36 167.66 989.52C167.82 991.64 167.9 993.58 167.9 995.34V1017H163.4ZM206.994 1029.54C206.354 1029.54 205.734 1029.48 205.134 1029.36C204.574 1029.24 204.054 1029.1 203.574 1028.94L204.534 1025.04C204.854 1025.12 205.214 1025.2 205.614 1025.28C206.014 1025.4 206.394 1025.46 206.754 1025.46C208.394 1025.46 209.754 1024.86 210.834 1023.66C211.914 1022.5 212.754 1021.02 213.354 1019.22L214.014 1017.06L202.314 987.84H207.414L213.354 1003.98C213.794 1005.22 214.254 1006.56 214.734 1008C215.254 1009.44 215.734 1010.84 216.174 1012.2H216.414C216.854 1010.88 217.274 1009.5 217.674 1008.06C218.074 1006.62 218.474 1005.26 218.874 1003.98L224.094 987.84H228.894L217.914 1019.4C217.234 1021.32 216.414 1023.04 215.454 1024.56C214.534 1026.08 213.374 1027.28 211.974 1028.16C210.614 1029.08 208.954 1029.54 206.994 1029.54ZM246.533 1017V987.84H250.613L251.033 993.12H251.213C252.213 991.28 253.433 989.82 254.873 988.74C256.313 987.66 257.853 987.12 259.493 987.12C260.653 987.12 261.693 987.32 262.613 987.72L261.653 992.04C261.173 991.88 260.733 991.76 260.333 991.68C259.933 991.6 259.433 991.56 258.833 991.56C257.593 991.56 256.293 992.06 254.933 993.06C253.613 994.06 252.453 995.8 251.453 998.28V1017H246.533ZM278.568 1017.72C275.968 1017.72 273.608 1017.12 271.488 1015.92C269.368 1014.68 267.688 1012.92 266.448 1010.64C265.208 1008.36 264.588 1005.64 264.588 1002.48C264.588 999.28 265.208 996.54 266.448 994.26C267.728 991.98 269.368 990.22 271.368 988.98C273.368 987.74 275.468 987.12 277.668 987.12C281.388 987.12 284.248 988.36 286.248 990.84C288.288 993.32 289.308 996.64 289.308 1000.8C289.308 1001.32 289.288 1001.84 289.248 1002.36C289.248 1002.84 289.208 1003.26 289.128 1003.62H269.448C269.648 1006.7 270.608 1009.16 272.328 1011C274.088 1012.84 276.368 1013.76 279.168 1013.76C280.568 1013.76 281.848 1013.56 283.008 1013.16C284.208 1012.72 285.348 1012.16 286.428 1011.48L288.168 1014.72C286.928 1015.52 285.508 1016.22 283.908 1016.82C282.348 1017.42 280.568 1017.72 278.568 1017.72ZM269.388 1000.08H284.988C284.988 997.12 284.348 994.88 283.068 993.36C281.828 991.8 280.068 991.02 277.788 991.02C275.748 991.02 273.908 991.82 272.268 993.42C270.668 994.98 269.708 997.2 269.388 1000.08ZM296.514 1029.3V987.84H300.594L301.014 991.2H301.194C302.514 990.08 303.954 989.12 305.514 988.32C307.114 987.52 308.774 987.12 310.494 987.12C314.254 987.12 317.114 988.48 319.074 991.2C321.034 993.88 322.014 997.48 322.014 1002C322.014 1005.28 321.414 1008.1 320.214 1010.46C319.054 1012.82 317.514 1014.62 315.594 1015.86C313.714 1017.1 311.654 1017.72 309.414 1017.72C308.054 1017.72 306.694 1017.42 305.334 1016.82C304.014 1016.22 302.674 1015.4 301.314 1014.36L301.434 1019.46V1029.3H296.514ZM308.574 1013.58C310.974 1013.58 312.954 1012.56 314.514 1010.52C316.114 1008.44 316.914 1005.6 316.914 1002C316.914 998.8 316.314 996.22 315.114 994.26C313.954 992.26 311.994 991.26 309.234 991.26C307.994 991.26 306.734 991.6 305.454 992.28C304.214 992.96 302.874 993.94 301.434 995.22V1010.52C302.754 1011.64 304.034 1012.44 305.274 1012.92C306.514 1013.36 307.614 1013.58 308.574 1013.58ZM341.135 1017.72C338.775 1017.72 336.555 1017.12 334.475 1015.92C332.435 1014.72 330.775 1012.98 329.495 1010.7C328.255 1008.42 327.635 1005.68 327.635 1002.48C327.635 999.2 328.255 996.42 329.495 994.14C330.775 991.86 332.435 990.12 334.475 988.92C336.555 987.72 338.775 987.12 341.135 987.12C343.535 987.12 345.755 987.72 347.795 988.92C349.835 990.12 351.475 991.86 352.715 994.14C353.995 996.42 354.635 999.2 354.635 1002.48C354.635 1005.68 353.995 1008.42 352.715 1010.7C351.475 1012.98 349.835 1014.72 347.795 1015.92C345.755 1017.12 343.535 1017.72 341.135 1017.72ZM341.135 1013.64C343.655 1013.64 345.675 1012.62 347.195 1010.58C348.755 1008.5 349.535 1005.8 349.535 1002.48C349.535 999.12 348.755 996.4 347.195 994.32C345.675 992.24 343.655 991.2 341.135 991.2C338.655 991.2 336.635 992.24 335.075 994.32C333.515 996.4 332.735 999.12 332.735 1002.48C332.735 1005.8 333.515 1008.5 335.075 1010.58C336.635 1012.62 338.655 1013.64 341.135 1013.64Z" fill="black"/>
<rect x="551" y="115" width="140" height="265" rx="70" stroke="#BC7100" stroke-width="2"/>
<path d="M226.293 261V229.709H230.395L241.7 249.361L245.087 255.848H245.277C245.182 254.258 245.071 252.621 244.943 250.935C244.848 249.218 244.8 247.533 244.8 245.879V229.709H248.569V261H244.466L233.114 241.3L229.727 234.861H229.537C229.664 236.419 229.775 238.025 229.87 239.678C229.998 241.332 230.061 242.985 230.061 244.639V261H226.293ZM266.192 261.572C264.125 261.572 262.249 261.095 260.563 260.141C258.878 259.156 257.542 257.756 256.556 255.944C255.571 254.131 255.078 251.969 255.078 249.457C255.078 246.913 255.571 244.734 256.556 242.922C257.574 241.109 258.878 239.71 260.468 238.724C262.058 237.739 263.727 237.246 265.476 237.246C268.434 237.246 270.707 238.231 272.297 240.203C273.919 242.175 274.73 244.814 274.73 248.121C274.73 248.535 274.714 248.948 274.682 249.361C274.682 249.743 274.65 250.077 274.587 250.363H258.941C259.1 252.812 259.864 254.767 261.231 256.23C262.63 257.693 264.443 258.424 266.669 258.424C267.782 258.424 268.799 258.265 269.722 257.947C270.676 257.597 271.582 257.152 272.44 256.612L273.824 259.187C272.838 259.823 271.709 260.38 270.437 260.857C269.197 261.334 267.782 261.572 266.192 261.572ZM258.894 247.549H271.296C271.296 245.196 270.787 243.415 269.769 242.206C268.783 240.966 267.384 240.346 265.572 240.346C263.95 240.346 262.487 240.982 261.183 242.254C259.911 243.494 259.148 245.259 258.894 247.549ZM284.364 261L277.925 237.818H281.931L285.366 251.222C285.62 252.303 285.859 253.384 286.081 254.465C286.304 255.515 286.527 256.58 286.749 257.661H286.94C287.194 256.58 287.449 255.515 287.703 254.465C287.958 253.384 288.228 252.303 288.514 251.222L292.091 237.818H295.907L299.533 251.222C299.819 252.303 300.089 253.384 300.343 254.465C300.63 255.515 300.9 256.58 301.154 257.661H301.345C301.6 256.58 301.838 255.515 302.061 254.465C302.315 253.384 302.554 252.303 302.776 251.222L306.163 237.818H309.883L303.682 261H298.913L295.574 248.55C295.287 247.437 295.017 246.34 294.763 245.259C294.54 244.178 294.286 243.049 293.999 241.872H293.809C293.554 243.049 293.3 244.194 293.045 245.307C292.791 246.388 292.505 247.485 292.187 248.598L288.943 261H284.364ZM333.636 261.572C331.601 261.572 329.757 261.095 328.103 260.141C326.45 259.187 325.146 257.804 324.192 255.992C323.238 254.179 322.761 252.001 322.761 249.457C322.761 246.849 323.27 244.639 324.287 242.826C325.337 241.014 326.704 239.631 328.389 238.677C330.106 237.723 331.951 237.246 333.922 237.246C335.449 237.246 336.753 237.516 337.834 238.057C338.947 238.597 339.901 239.233 340.696 239.965L338.692 242.54C338.025 241.936 337.309 241.443 336.546 241.062C335.815 240.68 334.988 240.489 334.066 240.489C332.666 240.489 331.41 240.871 330.297 241.634C329.216 242.365 328.358 243.415 327.722 244.782C327.117 246.118 326.815 247.676 326.815 249.457C326.815 252.096 327.467 254.243 328.771 255.896C330.106 257.518 331.84 258.329 333.97 258.329C335.051 258.329 336.053 258.106 336.975 257.661C337.897 257.184 338.708 256.628 339.408 255.992L341.125 258.615C340.076 259.537 338.915 260.269 337.643 260.809C336.371 261.318 335.035 261.572 333.636 261.572ZM354.222 261.572C352.346 261.572 350.581 261.095 348.927 260.141C347.306 259.187 345.986 257.804 344.968 255.992C343.982 254.179 343.49 252.001 343.49 249.457C343.49 246.849 343.982 244.639 344.968 242.826C345.986 241.014 347.306 239.631 348.927 238.677C350.581 237.723 352.346 237.246 354.222 237.246C356.13 237.246 357.895 237.723 359.517 238.677C361.138 239.631 362.442 241.014 363.428 242.826C364.446 244.639 364.954 246.849 364.954 249.457C364.954 252.001 364.446 254.179 363.428 255.992C362.442 257.804 361.138 259.187 359.517 260.141C357.895 261.095 356.13 261.572 354.222 261.572ZM354.222 258.329C356.225 258.329 357.831 257.518 359.04 255.896C360.28 254.243 360.9 252.096 360.9 249.457C360.9 246.786 360.28 244.623 359.04 242.97C357.831 241.316 356.225 240.489 354.222 240.489C352.25 240.489 350.645 241.316 349.404 242.97C348.164 244.623 347.544 246.786 347.544 249.457C347.544 252.096 348.164 254.243 349.404 255.896C350.645 257.518 352.25 258.329 354.222 258.329ZM371.06 261V237.818H374.303L374.637 241.157H374.78C375.798 240.044 376.911 239.122 378.119 238.39C379.327 237.627 380.615 237.246 381.983 237.246C383.763 237.246 385.147 237.643 386.133 238.438C387.15 239.201 387.897 240.283 388.374 241.682C389.583 240.378 390.807 239.313 392.047 238.486C393.288 237.659 394.607 237.246 396.006 237.246C398.391 237.246 400.156 238.025 401.301 239.583C402.478 241.109 403.066 243.351 403.066 246.309V261H399.155V246.833C399.155 244.671 398.805 243.097 398.105 242.111C397.406 241.125 396.324 240.632 394.862 240.632C393.144 240.632 391.205 241.825 389.042 244.21V261H385.131V246.833C385.131 244.671 384.781 243.097 384.081 242.111C383.382 241.125 382.285 240.632 380.79 240.632C379.073 240.632 377.133 241.825 374.971 244.21V261H371.06ZM410.607 261V237.818H413.851L414.185 241.157H414.328C415.345 240.044 416.458 239.122 417.667 238.39C418.875 237.627 420.163 237.246 421.53 237.246C423.311 237.246 424.695 237.643 425.68 238.438C426.698 239.201 427.445 240.283 427.922 241.682C429.131 240.378 430.355 239.313 431.595 238.486C432.835 237.659 434.155 237.246 435.554 237.246C437.939 237.246 439.704 238.025 440.849 239.583C442.025 241.109 442.614 243.351 442.614 246.309V261H438.702V246.833C438.702 244.671 438.352 243.097 437.653 242.111C436.953 241.125 435.872 240.632 434.409 240.632C432.692 240.632 430.752 241.825 428.59 244.21V261H424.679V246.833C424.679 244.671 424.329 243.097 423.629 242.111C422.93 241.125 421.833 240.632 420.338 240.632C418.621 240.632 416.681 241.825 414.519 244.21V261H410.607ZM450.155 261V237.818H454.066V261H450.155ZM452.158 233.048C451.395 233.048 450.759 232.825 450.25 232.38C449.773 231.903 449.535 231.267 449.535 230.472C449.535 229.709 449.773 229.089 450.25 228.612C450.759 228.135 451.395 227.897 452.158 227.897C452.922 227.897 453.542 228.135 454.019 228.612C454.527 229.089 454.782 229.709 454.782 230.472C454.782 231.267 454.527 231.903 454.019 232.38C453.542 232.825 452.922 233.048 452.158 233.048ZM469.192 261.572C466.711 261.572 464.978 260.857 463.992 259.426C463.038 257.995 462.561 256.135 462.561 253.845V241.014H459.127V238.057L462.752 237.818L463.229 231.331H466.52V237.818H472.769V241.014H466.52V253.893C466.52 255.324 466.775 256.437 467.284 257.232C467.824 257.995 468.762 258.377 470.098 258.377C470.511 258.377 470.956 258.313 471.433 258.186C471.91 258.027 472.34 257.884 472.721 257.756L473.485 260.714C472.849 260.936 472.149 261.127 471.386 261.286C470.654 261.477 469.923 261.572 469.192 261.572ZM483.603 261.572C481.949 261.572 480.375 261.27 478.881 260.666C477.386 260.03 476.082 259.267 474.969 258.377L476.925 255.753C477.942 256.548 478.992 257.216 480.073 257.756C481.154 258.265 482.379 258.52 483.746 258.52C485.272 258.52 486.417 258.17 487.18 257.47C487.943 256.739 488.325 255.88 488.325 254.894C488.325 254.099 488.055 253.432 487.514 252.891C487.005 252.35 486.338 251.905 485.511 251.555C484.716 251.174 483.889 250.824 483.03 250.506C481.949 250.093 480.884 249.632 479.835 249.123C478.785 248.582 477.927 247.899 477.259 247.072C476.591 246.213 476.257 245.132 476.257 243.828C476.257 241.952 476.957 240.394 478.356 239.154C479.787 237.882 481.758 237.246 484.271 237.246C485.702 237.246 487.037 237.5 488.277 238.009C489.518 238.518 490.583 239.138 491.473 239.869L489.565 242.349C488.77 241.745 487.943 241.252 487.085 240.871C486.226 240.489 485.288 240.298 484.271 240.298C482.808 240.298 481.727 240.632 481.027 241.3C480.359 241.968 480.025 242.747 480.025 243.637C480.025 244.369 480.264 244.973 480.741 245.45C481.218 245.895 481.838 246.293 482.601 246.642C483.364 246.96 484.175 247.294 485.034 247.644C486.147 248.058 487.244 248.535 488.325 249.075C489.406 249.584 490.297 250.284 490.996 251.174C491.728 252.032 492.093 253.193 492.093 254.656C492.093 255.896 491.759 257.041 491.092 258.09C490.456 259.14 489.502 259.982 488.23 260.618C486.989 261.254 485.447 261.572 483.603 261.572Z" fill="black"/>
<path d="M511.5 236.5L569.5 202.5M511.5 262L569.5 286" stroke="black" stroke-width="2"/>
<path d="M50.2 101V48.52H65.16C69.1067 48.52 72.5467 49 75.48 49.96C78.4133 50.92 80.7067 52.5467 82.36 54.84C84.0133 57.08 84.84 60.12 84.84 63.96C84.84 69.4533 83.0533 73.5333 79.48 76.2C75.9067 78.8667 71.24 80.2 65.48 80.2H56.84V101H50.2ZM56.84 74.76H64.68C69.2667 74.76 72.6533 73.9067 74.84 72.2C77.08 70.44 78.2 67.6933 78.2 63.96C78.2 60.1733 77.0267 57.56 74.68 56.12C72.3867 54.6267 68.9467 53.88 64.36 53.88H56.84V74.76ZM106.233 101.96C102.126 101.96 99.1125 100.68 97.1925 98.12C95.2725 95.5067 94.3125 91.72 94.3125 86.76V62.12H100.953V85.88C100.953 89.5067 101.513 92.1467 102.633 93.8C103.806 95.4533 105.673 96.28 108.233 96.28C110.259 96.28 112.046 95.7733 113.593 94.76C115.193 93.6933 116.899 92.0133 118.713 89.72V62.12H125.273V101H119.833L119.273 94.92H119.033C117.219 97.0533 115.299 98.76 113.273 100.04C111.246 101.32 108.899 101.96 106.233 101.96ZM148.548 101.96C145.775 101.96 143.135 101.453 140.628 100.44C138.121 99.3733 135.935 98.0933 134.068 96.6L137.348 92.2C139.055 93.5333 140.815 94.6533 142.628 95.56C144.441 96.4133 146.495 96.84 148.788 96.84C151.348 96.84 153.268 96.2533 154.548 95.08C155.828 93.8533 156.468 92.4133 156.468 90.76C156.468 89.4267 156.015 88.3067 155.108 87.4C154.255 86.4933 153.135 85.7467 151.748 85.16C150.415 84.52 149.028 83.9333 147.588 83.4C145.775 82.7067 143.988 81.9333 142.228 81.08C140.468 80.1733 139.028 79.0267 137.908 77.64C136.788 76.2 136.228 74.3867 136.228 72.2C136.228 69.0533 137.401 66.44 139.748 64.36C142.148 62.2267 145.455 61.16 149.668 61.16C152.068 61.16 154.308 61.5867 156.388 62.44C158.468 63.2933 160.255 64.3333 161.748 65.56L158.548 69.72C157.215 68.7067 155.828 67.88 154.388 67.24C152.948 66.6 151.375 66.28 149.668 66.28C147.215 66.28 145.401 66.84 144.228 67.96C143.108 69.08 142.548 70.3867 142.548 71.88C142.548 73.1067 142.948 74.12 143.748 74.92C144.548 75.6667 145.588 76.3333 146.868 76.92C148.148 77.4533 149.508 78.0133 150.948 78.6C152.815 79.2933 154.655 80.0933 156.468 81C158.281 81.8533 159.775 83.0267 160.948 84.52C162.175 85.96 162.788 87.9067 162.788 90.36C162.788 92.44 162.228 94.36 161.108 96.12C160.041 97.88 158.441 99.2933 156.308 100.36C154.228 101.427 151.641 101.96 148.548 101.96ZM171.904 101V44.04H178.464V59.56L178.224 67.56C180.09 65.8 182.037 64.3067 184.064 63.08C186.144 61.8 188.517 61.16 191.184 61.16C195.29 61.16 198.277 62.4667 200.144 65.08C202.064 67.64 203.024 71.4 203.024 76.36V101H196.464V77.24C196.464 73.6133 195.877 70.9733 194.704 69.32C193.53 67.6667 191.664 66.84 189.104 66.84C187.13 66.84 185.344 67.3467 183.744 68.36C182.197 69.3733 180.437 70.8667 178.464 72.84V101H171.904ZM215.419 101V62.12H221.979V101H215.419ZM218.779 54.12C217.499 54.12 216.433 53.7467 215.579 53C214.779 52.2 214.379 51.1333 214.379 49.8C214.379 48.52 214.779 47.48 215.579 46.68C216.433 45.88 217.499 45.48 218.779 45.48C220.059 45.48 221.099 45.88 221.899 46.68C222.753 47.48 223.179 48.52 223.179 49.8C223.179 51.1333 222.753 52.2 221.899 53C221.099 53.7467 220.059 54.12 218.779 54.12ZM235.107 101V62.12H240.547L241.107 67.72H241.347C243.214 65.8533 245.187 64.3067 247.267 63.08C249.347 61.8 251.72 61.16 254.387 61.16C258.494 61.16 261.48 62.4667 263.347 65.08C265.267 67.64 266.227 71.4 266.227 76.36V101H259.667V77.24C259.667 73.6133 259.08 70.9733 257.907 69.32C256.734 67.6667 254.867 66.84 252.307 66.84C250.334 66.84 248.547 67.3467 246.947 68.36C245.4 69.3733 243.64 70.8667 241.667 72.84V101H235.107ZM291.977 118.92C287.23 118.92 283.364 118.013 280.377 116.2C277.39 114.387 275.897 111.8 275.897 108.44C275.897 106.787 276.404 105.187 277.417 103.64C278.43 102.147 279.817 100.813 281.577 99.64V99.32C280.617 98.7333 279.79 97.9067 279.097 96.84C278.457 95.7733 278.137 94.4933 278.137 93C278.137 91.3467 278.59 89.9067 279.497 88.68C280.404 87.4533 281.364 86.4933 282.377 85.8V85.48C281.097 84.4133 279.924 82.9733 278.857 81.16C277.844 79.3467 277.337 77.2933 277.337 75C277.337 72.1733 278.004 69.72 279.337 67.64C280.67 65.56 282.457 63.96 284.697 62.84C286.937 61.72 289.364 61.16 291.977 61.16C293.044 61.16 294.057 61.2667 295.017 61.48C295.977 61.64 296.804 61.8533 297.497 62.12H311.017V67.16H303.017C303.924 68.0133 304.67 69.16 305.257 70.6C305.897 71.9867 306.217 73.5067 306.217 75.16C306.217 77.9333 305.577 80.3333 304.297 82.36C303.017 84.3867 301.31 85.96 299.177 87.08C297.044 88.1467 294.644 88.68 291.977 88.68C289.897 88.68 287.95 88.2267 286.137 87.32C285.444 87.9067 284.857 88.5733 284.377 89.32C283.897 90.0133 283.657 90.8933 283.657 91.96C283.657 93.1867 284.137 94.2 285.097 95C286.11 95.8 287.924 96.2 290.537 96.2H298.057C302.59 96.2 305.977 96.9467 308.217 98.44C310.51 99.88 311.657 102.227 311.657 105.48C311.657 107.88 310.857 110.093 309.257 112.12C307.657 114.147 305.39 115.773 302.457 117C299.524 118.28 296.03 118.92 291.977 118.92ZM291.977 84.28C294.217 84.28 296.137 83.4533 297.737 81.8C299.39 80.0933 300.217 77.8267 300.217 75C300.217 72.1733 299.417 69.96 297.817 68.36C296.217 66.76 294.27 65.96 291.977 65.96C289.684 65.96 287.737 66.76 286.137 68.36C284.537 69.96 283.737 72.1733 283.737 75C283.737 77.8267 284.537 80.0933 286.137 81.8C287.79 83.4533 289.737 84.28 291.977 84.28ZM292.937 114.36C296.67 114.36 299.657 113.533 301.897 111.88C304.137 110.28 305.257 108.467 305.257 106.44C305.257 104.627 304.564 103.373 303.177 102.68C301.844 101.987 299.924 101.64 297.417 101.64H290.697C289.95 101.64 289.124 101.587 288.217 101.48C287.364 101.373 286.51 101.213 285.657 101C284.27 102.013 283.257 103.08 282.617 104.2C281.977 105.32 281.657 106.44 281.657 107.56C281.657 109.64 282.644 111.293 284.617 112.52C286.644 113.747 289.417 114.36 292.937 114.36Z" fill="black"/>
<rect x="1390.54" y="93.5393" width="276.298" height="721.147" fill="#DCFFF5" stroke="black" stroke-width="3.07853"/>
<path d="M1534.51 764.624L1534.51 654.128M1534.51 654.128L1473.09 552.709L1473.09 445.9L1473.09 336.396L1594.79 420.084L1594.79 552.709L1534.51 654.128Z" stroke="#AB9F81" stroke-width="8.79435"/>
<circle cx="1534.21" cy="765.95" r="29.8801" transform="rotate(-90 1534.21 765.95)" fill="#343434"/>
<path d="M1512.6 771.756L1519.21 771.756M1557.22 762.953L1557.22 771.756L1534.91 771.756M1534.91 771.756L1534.91 762.953L1542.58 762.953M1534.91 771.756L1527.15 771.756M1527.15 771.756L1527.15 762.953M1527.15 771.756L1519.21 771.756M1519.21 771.756L1519.21 762.953M1550.25 753.998L1550.25 762.953L1542.58 762.953M1542.58 762.953L1542.58 753.998" stroke="#A4C6DF" stroke-width="0.508817"/>
<path d="M1511.28 775.826L1508.83 775.826L1508.83 772.977L1510.23 771.743L1511.28 775.826Z" fill="#C4933D" stroke="black" stroke-width="0.219856"/>
<path d="M1509.58 772.199L1509.57 767.92L1514.96 767.912L1514.96 775.826L1510.19 775.826L1510.18 772.803L1509.58 772.199Z" fill="#F5CE85" stroke="black" stroke-width="0.219856"/>
<path d="M1518.4 766.871L1515.95 766.871L1515.95 764.022L1517.36 762.787L1518.4 766.871Z" fill="#C4933D" stroke="black" stroke-width="0.219856"/>
<path d="M1516.7 763.243L1516.7 758.965L1522.09 758.956L1522.09 766.871L1517.31 766.871L1517.3 763.848L1516.7 763.243Z" fill="#F5CE85" stroke="black" stroke-width="0.219856"/>
<path d="M1526.24 766.871L1523.79 766.871L1523.79 764.022L1525.19 762.787L1526.24 766.871Z" fill="#C4933D" stroke="black" stroke-width="0.219856"/>
<path d="M1524.53 763.243L1524.53 758.965L1529.92 758.956L1529.92 766.871L1525.15 766.871L1525.14 763.848L1524.53 763.243Z" fill="#F5CE85" stroke="black" stroke-width="0.219856"/>
<path d="M1556.16 766.871L1553.71 766.871L1553.71 764.022L1555.11 762.787L1556.16 766.871Z" fill="#C4933D" stroke="black" stroke-width="0.219856"/>
<path d="M1554.45 763.243L1554.45 758.965L1559.84 758.956L1559.84 766.871L1555.07 766.871L1555.06 763.848L1554.45 763.243Z" fill="#F5CE85" stroke="black" stroke-width="0.219856"/>
<path d="M1549.03 757.916L1546.58 757.916L1546.58 755.067L1547.99 753.832L1549.03 757.916Z" fill="#C4933D" stroke="black" stroke-width="0.219856"/>
<path d="M1547.33 754.288L1547.33 750.01L1552.72 750.001L1552.72 757.916L1547.94 757.916L1547.93 754.893L1547.33 754.288Z" fill="#F5CE85" stroke="black" stroke-width="0.219856"/>
<path d="M1534.07 766.871L1531.63 766.871L1531.63 764.022L1533.03 762.787L1534.07 766.871Z" fill="#C4933D" stroke="black" stroke-width="0.219856"/>
<path d="M1532.37 763.243L1532.37 758.965L1537.76 758.956L1537.76 766.871L1532.98 766.871L1532.98 763.848L1532.37 763.243Z" fill="#F5CE85" stroke="black" stroke-width="0.219856"/>
<path d="M1541.2 757.916L1538.75 757.916L1538.75 755.067L1540.15 753.832L1541.2 757.916Z" fill="#C4933D" stroke="black" stroke-width="0.219856"/>
<path d="M1539.49 754.288L1539.49 750.01L1544.88 750.001L1544.88 757.916L1540.11 757.916L1540.1 754.893L1539.49 754.288Z" fill="#F5CE85" stroke="black" stroke-width="0.219856"/>
<circle cx="1532.51" cy="654.715" r="29.8801" transform="rotate(-90 1532.51 654.715)" fill="#343434"/>
<path d="M1510.9 660.521L1517.52 660.521M1555.52 651.718L1555.52 660.521L1533.21 660.521M1533.21 660.521L1533.21 651.718L1540.88 651.718M1533.21 660.521L1525.45 660.521M1525.45 660.521L1525.45 651.718M1525.45 660.521L1517.52 660.521M1517.52 660.521L1517.52 651.718M1548.55 642.763L1548.55 651.718L1540.88 651.718M1540.88 651.718L1540.88 642.763" stroke="#A4C6DF" stroke-width="0.508817"/>
<path d="M1509.58 664.591L1507.14 664.591L1507.14 661.742L1508.54 660.508L1509.58 664.591Z" fill="#C4933D" stroke="black" stroke-width="0.219856"/>
<path d="M1507.88 660.964L1507.88 656.685L1513.27 656.677L1513.27 664.591L1508.49 664.591L1508.48 661.568L1507.88 660.964Z" fill="#F5CE85" stroke="black" stroke-width="0.219856"/>
<path d="M1516.71 655.636L1514.26 655.636L1514.26 652.787L1515.66 651.552L1516.71 655.636Z" fill="#C4933D" stroke="black" stroke-width="0.219856"/>
<path d="M1515 652.008L1515 647.73L1520.39 647.721L1520.39 655.636L1515.62 655.636L1515.61 652.613L1515 652.008Z" fill="#F5CE85" stroke="black" stroke-width="0.219856"/>
<path d="M1524.54 655.636L1522.09 655.636L1522.09 652.787L1523.5 651.552L1524.54 655.636Z" fill="#C4933D" stroke="black" stroke-width="0.219856"/>
<path d="M1522.84 652.008L1522.84 647.73L1528.23 647.721L1528.23 655.636L1523.45 655.636L1523.44 652.613L1522.84 652.008Z" fill="#F5CE85" stroke="black" stroke-width="0.219856"/>
<path d="M1554.46 655.636L1552.01 655.636L1552.01 652.787L1553.42 651.552L1554.46 655.636Z" fill="#C4933D" stroke="black" stroke-width="0.219856"/>
<path d="M1552.76 652.008L1552.76 647.73L1558.14 647.721L1558.14 655.636L1553.37 655.636L1553.36 652.613L1552.76 652.008Z" fill="#F5CE85" stroke="black" stroke-width="0.219856"/>
<path d="M1547.34 646.681L1544.89 646.681L1544.89 643.832L1546.29 642.597L1547.34 646.681Z" fill="#C4933D" stroke="black" stroke-width="0.219856"/>
<path d="M1545.63 643.053L1545.63 638.775L1551.02 638.766L1551.02 646.681L1546.25 646.681L1546.24 643.658L1545.63 643.053Z" fill="#F5CE85" stroke="black" stroke-width="0.219856"/>
<path d="M1532.38 655.636L1529.93 655.636L1529.93 652.787L1531.33 651.552L1532.38 655.636Z" fill="#C4933D" stroke="black" stroke-width="0.219856"/>
<path d="M1530.68 652.008L1530.67 647.73L1536.06 647.721L1536.06 655.636L1531.29 655.636L1531.28 652.613L1530.68 652.008Z" fill="#F5CE85" stroke="black" stroke-width="0.219856"/>
<path d="M1539.5 646.681L1537.05 646.681L1537.05 643.832L1538.46 642.597L1539.5 646.681Z" fill="#C4933D" stroke="black" stroke-width="0.219856"/>
<path d="M1537.8 643.053L1537.8 638.775L1543.18 638.766L1543.18 646.681L1538.41 646.681L1538.4 643.658L1537.8 643.053Z" fill="#F5CE85" stroke="black" stroke-width="0.219856"/>
<circle cx="1472.75" cy="554.212" r="29.8801" transform="rotate(-90 1472.75 554.212)" fill="#343434"/>
<path d="M1451.14 560.018L1457.76 560.018M1495.76 551.215L1495.76 560.018L1473.45 560.018M1473.45 560.018L1473.45 551.215L1481.12 551.215M1473.45 560.018L1465.69 560.018M1465.69 560.018L1465.69 551.215M1465.69 560.018L1457.76 560.018M1457.76 560.018L1457.76 551.215M1488.79 542.26L1488.79 551.215L1481.12 551.215M1481.12 551.215L1481.12 542.26" stroke="#A4C6DF" stroke-width="0.508817"/>
<path d="M1449.82 564.088L1447.38 564.088L1447.38 561.239L1448.78 560.005L1449.82 564.088Z" fill="#C4933D" stroke="black" stroke-width="0.219856"/>
<path d="M1448.12 560.461L1448.12 556.182L1453.51 556.174L1453.51 564.088L1448.73 564.088L1448.72 561.065L1448.12 560.461Z" fill="#F5CE85" stroke="black" stroke-width="0.219856"/>
<path d="M1456.95 555.133L1454.5 555.133L1454.5 552.284L1455.9 551.049L1456.95 555.133Z" fill="#C4933D" stroke="black" stroke-width="0.219856"/>
<path d="M1455.24 551.505L1455.24 547.227L1460.63 547.218L1460.63 555.133L1455.86 555.133L1455.85 552.11L1455.24 551.505Z" fill="#F5CE85" stroke="black" stroke-width="0.219856"/>
<path d="M1464.78 555.133L1462.33 555.133L1462.33 552.284L1463.74 551.049L1464.78 555.133Z" fill="#C4933D" stroke="black" stroke-width="0.219856"/>
<path d="M1463.08 551.505L1463.08 547.227L1468.47 547.218L1468.47 555.133L1463.69 555.133L1463.68 552.11L1463.08 551.505Z" fill="#F5CE85" stroke="black" stroke-width="0.219856"/>
<path d="M1494.7 555.133L1492.25 555.133L1492.25 552.284L1493.66 551.049L1494.7 555.133Z" fill="#C4933D" stroke="black" stroke-width="0.219856"/>
<path d="M1493 551.505L1493 547.227L1498.38 547.218L1498.38 555.133L1493.61 555.133L1493.6 552.11L1493 551.505Z" fill="#F5CE85" stroke="black" stroke-width="0.219856"/>
<path d="M1487.58 546.178L1485.13 546.178L1485.13 543.329L1486.53 542.094L1487.58 546.178Z" fill="#C4933D" stroke="black" stroke-width="0.219856"/>
<path d="M1485.87 542.55L1485.87 538.272L1491.26 538.263L1491.26 546.178L1486.49 546.178L1486.48 543.155L1485.87 542.55Z" fill="#F5CE85" stroke="black" stroke-width="0.219856"/>
<path d="M1472.62 555.133L1470.17 555.133L1470.17 552.284L1471.57 551.049L1472.62 555.133Z" fill="#C4933D" stroke="black" stroke-width="0.219856"/>
<path d="M1470.91 551.505L1470.91 547.227L1476.3 547.218L1476.3 555.133L1471.53 555.133L1471.52 552.11L1470.91 551.505Z" fill="#F5CE85" stroke="black" stroke-width="0.219856"/>
<path d="M1479.74 546.178L1477.29 546.178L1477.29 543.329L1478.7 542.094L1479.74 546.178Z" fill="#C4933D" stroke="black" stroke-width="0.219856"/>
<path d="M1478.04 542.55L1478.04 538.272L1483.42 538.263L1483.42 546.178L1478.65 546.178L1478.64 543.155L1478.04 542.55Z" fill="#F5CE85" stroke="black" stroke-width="0.219856"/>
<circle cx="1472.75" cy="446.134" r="29.8801" transform="rotate(-90 1472.75 446.134)" fill="#343434"/>
<path d="M1451.14 451.941L1457.76 451.941M1495.76 443.138L1495.76 451.941L1473.45 451.941M1473.45 451.941L1473.45 443.138L1481.12 443.138M1473.45 451.941L1465.69 451.941M1465.69 451.941L1465.69 443.138M1465.69 451.941L1457.76 451.941M1457.76 451.941L1457.76 443.138M1488.79 434.183L1488.79 443.138L1481.12 443.138M1481.12 443.138L1481.12 434.183" stroke="#A4C6DF" stroke-width="0.508817"/>
<path d="M1449.82 456.011L1447.38 456.011L1447.38 453.162L1448.78 451.928L1449.82 456.011Z" fill="#C4933D" stroke="black" stroke-width="0.219856"/>
<path d="M1448.12 452.384L1448.12 448.105L1453.51 448.096L1453.51 456.011L1448.73 456.011L1448.72 452.988L1448.12 452.384Z" fill="#F5CE85" stroke="black" stroke-width="0.219856"/>
<path d="M1456.95 447.056L1454.5 447.056L1454.5 444.207L1455.9 442.972L1456.95 447.056Z" fill="#C4933D" stroke="black" stroke-width="0.219856"/>
<path d="M1455.24 443.428L1455.24 439.15L1460.63 439.141L1460.63 447.056L1455.86 447.056L1455.85 444.033L1455.24 443.428Z" fill="#F5CE85" stroke="black" stroke-width="0.219856"/>
<path d="M1464.78 447.056L1462.33 447.056L1462.33 444.207L1463.74 442.972L1464.78 447.056Z" fill="#C4933D" stroke="black" stroke-width="0.219856"/>
<path d="M1463.08 443.428L1463.08 439.15L1468.47 439.141L1468.47 447.056L1463.69 447.056L1463.68 444.033L1463.08 443.428Z" fill="#F5CE85" stroke="black" stroke-width="0.219856"/>
<path d="M1494.7 447.056L1492.25 447.056L1492.25 444.207L1493.66 442.972L1494.7 447.056Z" fill="#C4933D" stroke="black" stroke-width="0.219856"/>
<path d="M1493 443.428L1493 439.15L1498.38 439.141L1498.38 447.056L1493.61 447.056L1493.6 444.033L1493 443.428Z" fill="#F5CE85" stroke="black" stroke-width="0.219856"/>
<path d="M1487.58 438.101L1485.13 438.101L1485.13 435.251L1486.53 434.017L1487.58 438.101Z" fill="#C4933D" stroke="black" stroke-width="0.219856"/>
<path d="M1485.87 434.473L1485.87 430.195L1491.26 430.186L1491.26 438.101L1486.49 438.101L1486.48 435.078L1485.87 434.473Z" fill="#F5CE85" stroke="black" stroke-width="0.219856"/>
<path d="M1472.62 447.056L1470.17 447.056L1470.17 444.207L1471.57 442.972L1472.62 447.056Z" fill="#C4933D" stroke="black" stroke-width="0.219856"/>
<path d="M1470.91 443.428L1470.91 439.15L1476.3 439.141L1476.3 447.056L1471.53 447.056L1471.52 444.033L1470.91 443.428Z" fill="#F5CE85" stroke="black" stroke-width="0.219856"/>
<path d="M1479.74 438.101L1477.29 438.101L1477.29 435.251L1478.7 434.017L1479.74 438.101Z" fill="#C4933D" stroke="black" stroke-width="0.219856"/>
<path d="M1478.04 434.473L1478.04 430.195L1483.42 430.186L1483.42 438.101L1478.65 438.101L1478.64 435.078L1478.04 434.473Z" fill="#F5CE85" stroke="black" stroke-width="0.219856"/>
<circle cx="1473.61" cy="338.147" r="29.8801" transform="rotate(-90 1473.61 338.147)" fill="#343434"/>
<path d="M1451.99 343.953L1458.61 343.953M1496.61 335.151L1496.61 343.953L1474.3 343.953M1474.3 343.953L1474.3 335.151L1481.97 335.151M1474.3 343.953L1466.54 343.953M1466.54 343.953L1466.54 335.151M1466.54 343.953L1458.61 343.953M1458.61 343.953L1458.61 335.151M1489.64 326.196L1489.64 335.151L1481.97 335.151M1481.97 335.151L1481.97 326.196" stroke="#A4C6DF" stroke-width="0.508817"/>
<path d="M1450.67 348.024L1448.23 348.024L1448.23 345.174L1449.63 343.94L1450.67 348.024Z" fill="#C4933D" stroke="black" stroke-width="0.219856"/>
<path d="M1448.97 344.396L1448.97 340.118L1454.36 340.109L1454.36 348.024L1449.58 348.024L1449.58 345.001L1448.97 344.396Z" fill="#F5CE85" stroke="black" stroke-width="0.219856"/>
<path d="M1457.8 339.069L1455.35 339.069L1455.35 336.219L1456.75 334.985L1457.8 339.069Z" fill="#C4933D" stroke="black" stroke-width="0.219856"/>
<path d="M1456.09 335.441L1456.09 331.162L1461.48 331.154L1461.48 339.069L1456.71 339.069L1456.7 336.046L1456.09 335.441Z" fill="#F5CE85" stroke="black" stroke-width="0.219856"/>
<path d="M1465.63 339.069L1463.19 339.069L1463.19 336.219L1464.59 334.985L1465.63 339.069Z" fill="#C4933D" stroke="black" stroke-width="0.219856"/>
<path d="M1463.93 335.441L1463.93 331.162L1469.32 331.154L1469.32 339.069L1464.54 339.069L1464.53 336.046L1463.93 335.441Z" fill="#F5CE85" stroke="black" stroke-width="0.219856"/>
<path d="M1495.55 339.069L1493.1 339.069L1493.1 336.219L1494.51 334.985L1495.55 339.069Z" fill="#C4933D" stroke="black" stroke-width="0.219856"/>
<path d="M1493.85 335.441L1493.85 331.162L1499.24 331.154L1499.24 339.069L1494.46 339.069L1494.45 336.046L1493.85 335.441Z" fill="#F5CE85" stroke="black" stroke-width="0.219856"/>
<path d="M1488.43 330.113L1485.98 330.113L1485.98 327.264L1487.38 326.03L1488.43 330.113Z" fill="#C4933D" stroke="black" stroke-width="0.219856"/>
<path d="M1486.73 326.486L1486.72 322.207L1492.11 322.199L1492.11 330.113L1487.34 330.113L1487.33 327.09L1486.73 326.486Z" fill="#F5CE85" stroke="black" stroke-width="0.219856"/>
<path d="M1473.47 339.069L1471.02 339.069L1471.02 336.219L1472.42 334.985L1473.47 339.069Z" fill="#C4933D" stroke="black" stroke-width="0.219856"/>
<path d="M1471.77 335.441L1471.76 331.162L1477.15 331.154L1477.15 339.069L1472.38 339.069L1472.37 336.046L1471.77 335.441Z" fill="#F5CE85" stroke="black" stroke-width="0.219856"/>
<path d="M1480.59 330.113L1478.14 330.113L1478.14 327.264L1479.55 326.03L1480.59 330.113Z" fill="#C4933D" stroke="black" stroke-width="0.219856"/>
<path d="M1478.89 326.486L1478.89 322.207L1484.28 322.199L1484.28 330.113L1479.5 330.113L1479.49 327.09L1478.89 326.486Z" fill="#F5CE85" stroke="black" stroke-width="0.219856"/>
<circle cx="1593.97" cy="553.364" r="29.8801" transform="rotate(-90 1593.97 553.364)" fill="#343434"/>
<path d="M1572.36 559.17L1578.97 559.17M1616.98 550.368L1616.98 559.17L1594.67 559.17M1594.67 559.17L1594.67 550.368L1602.34 550.368M1594.67 559.17L1586.91 559.17M1586.91 559.17L1586.91 550.368M1586.91 559.17L1578.97 559.17M1578.97 559.17L1578.97 550.368M1610.01 541.412L1610.01 550.368L1602.34 550.368M1602.34 550.368L1602.34 541.412" stroke="#A4C6DF" stroke-width="0.508817"/>
<path d="M1571.04 563.241L1568.59 563.241L1568.59 560.391L1569.99 559.157L1571.04 563.241Z" fill="#C4933D" stroke="black" stroke-width="0.219856"/>
<path d="M1569.34 559.613L1569.33 555.334L1574.72 555.326L1574.72 563.241L1569.95 563.241L1569.94 560.218L1569.34 559.613Z" fill="#F5CE85" stroke="black" stroke-width="0.219856"/>
<path d="M1578.16 554.285L1575.71 554.285L1575.71 551.436L1577.12 550.202L1578.16 554.285Z" fill="#C4933D" stroke="black" stroke-width="0.219856"/>
<path d="M1576.46 550.658L1576.46 546.379L1581.85 546.371L1581.85 554.285L1577.07 554.285L1577.06 551.262L1576.46 550.658Z" fill="#F5CE85" stroke="black" stroke-width="0.219856"/>
<path d="M1586 554.285L1583.55 554.285L1583.55 551.436L1584.95 550.202L1586 554.285Z" fill="#C4933D" stroke="black" stroke-width="0.219856"/>
<path d="M1584.29 550.658L1584.29 546.379L1589.68 546.371L1589.68 554.285L1584.91 554.285L1584.9 551.262L1584.29 550.658Z" fill="#F5CE85" stroke="black" stroke-width="0.219856"/>
<path d="M1615.92 554.285L1613.47 554.285L1613.47 551.436L1614.87 550.202L1615.92 554.285Z" fill="#C4933D" stroke="black" stroke-width="0.219856"/>
<path d="M1614.21 550.658L1614.21 546.379L1619.6 546.371L1619.6 554.285L1614.83 554.285L1614.82 551.262L1614.21 550.658Z" fill="#F5CE85" stroke="black" stroke-width="0.219856"/>
<path d="M1608.79 545.33L1606.35 545.33L1606.35 542.481L1607.75 541.247L1608.79 545.33Z" fill="#C4933D" stroke="black" stroke-width="0.219856"/>
<path d="M1607.09 541.703L1607.09 537.424L1612.48 537.416L1612.48 545.33L1607.7 545.33L1607.69 542.307L1607.09 541.703Z" fill="#F5CE85" stroke="black" stroke-width="0.219856"/>
<path d="M1593.83 554.285L1591.39 554.285L1591.39 551.436L1592.79 550.202L1593.83 554.285Z" fill="#C4933D" stroke="black" stroke-width="0.219856"/>
<path d="M1592.13 550.658L1592.13 546.379L1597.52 546.371L1597.52 554.285L1592.74 554.285L1592.74 551.262L1592.13 550.658Z" fill="#F5CE85" stroke="black" stroke-width="0.219856"/>
<path d="M1600.96 545.33L1598.51 545.33L1598.51 542.481L1599.91 541.247L1600.96 545.33Z" fill="#C4933D" stroke="black" stroke-width="0.219856"/>
<path d="M1599.25 541.703L1599.25 537.424L1604.64 537.416L1604.64 545.33L1599.87 545.33L1599.86 542.307L1599.25 541.703Z" fill="#F5CE85" stroke="black" stroke-width="0.219856"/>
<circle cx="1595.02" cy="420.7" r="29.8801" transform="rotate(-90 1595.02 420.7)" fill="#343434"/>
<path d="M1573.41 426.507L1580.02 426.507M1618.03 417.704L1618.03 426.507L1595.72 426.507M1595.72 426.507L1595.72 417.704L1603.39 417.704M1595.72 426.507L1587.96 426.507M1587.96 426.507L1587.96 417.704M1587.96 426.507L1580.02 426.507M1580.02 426.507L1580.02 417.704M1611.06 408.749L1611.06 417.704L1603.39 417.704M1603.39 417.704L1603.39 408.749" stroke="#A4C6DF" stroke-width="0.508817"/>
<path d="M1572.09 430.577L1569.64 430.577L1569.64 427.728L1571.05 426.493L1572.09 430.577Z" fill="#C4933D" stroke="black" stroke-width="0.219856"/>
<path d="M1570.39 426.95L1570.39 422.671L1575.78 422.662L1575.78 430.577L1571 430.577L1570.99 427.554L1570.39 426.95Z" fill="#F5CE85" stroke="black" stroke-width="0.219856"/>
<path d="M1579.22 421.622L1576.77 421.622L1576.77 418.773L1578.17 417.538L1579.22 421.622Z" fill="#C4933D" stroke="black" stroke-width="0.219856"/>
<path d="M1577.51 417.994L1577.51 413.716L1582.9 413.707L1582.9 421.622L1578.13 421.622L1578.12 418.599L1577.51 417.994Z" fill="#F5CE85" stroke="black" stroke-width="0.219856"/>
<path d="M1587.05 421.622L1584.6 421.622L1584.6 418.773L1586.01 417.538L1587.05 421.622Z" fill="#C4933D" stroke="black" stroke-width="0.219856"/>
<path d="M1585.35 417.994L1585.35 413.716L1590.74 413.707L1590.74 421.622L1585.96 421.622L1585.95 418.599L1585.35 417.994Z" fill="#F5CE85" stroke="black" stroke-width="0.219856"/>
<path d="M1616.97 421.622L1614.52 421.622L1614.52 418.773L1615.93 417.538L1616.97 421.622Z" fill="#C4933D" stroke="black" stroke-width="0.219856"/>
<path d="M1615.27 417.994L1615.27 413.716L1620.65 413.707L1620.65 421.622L1615.88 421.622L1615.87 418.599L1615.27 417.994Z" fill="#F5CE85" stroke="black" stroke-width="0.219856"/>
<path d="M1609.85 412.667L1607.4 412.667L1607.4 409.817L1608.8 408.583L1609.85 412.667Z" fill="#C4933D" stroke="black" stroke-width="0.219856"/>
<path d="M1608.14 409.039L1608.14 404.761L1613.53 404.752L1613.53 412.667L1608.76 412.667L1608.75 409.644L1608.14 409.039Z" fill="#F5CE85" stroke="black" stroke-width="0.219856"/>
<path d="M1594.89 421.622L1592.44 421.622L1592.44 418.773L1593.84 417.538L1594.89 421.622Z" fill="#C4933D" stroke="black" stroke-width="0.219856"/>
<path d="M1593.18 417.994L1593.18 413.716L1598.57 413.707L1598.57 421.622L1593.8 421.622L1593.79 418.599L1593.18 417.994Z" fill="#F5CE85" stroke="black" stroke-width="0.219856"/>
<path d="M1602.01 412.667L1599.56 412.667L1599.56 409.817L1600.97 408.583L1602.01 412.667Z" fill="#C4933D" stroke="black" stroke-width="0.219856"/>
<path d="M1600.31 409.039L1600.31 404.761L1605.69 404.752L1605.69 412.667L1600.92 412.667L1600.91 409.644L1600.31 409.039Z" fill="#F5CE85" stroke="black" stroke-width="0.219856"/>
<path d="M1524.95 716.113L1534.3 704.482L1544.34 716.113" stroke="#AB9F81" stroke-width="1.76231"/>
<path d="M1463.3 506.184L1472.64 494.552L1482.69 506.184" stroke="#AB9F81" stroke-width="1.76231"/>
<path d="M1585 482.07L1594.34 470.439L1604.39 482.07" stroke="#AB9F81" stroke-width="1.76231"/>
<path d="M1463.87 395.829L1473.21 384.197L1483.25 395.829" stroke="#AB9F81" stroke-width="1.76231"/>
<path d="M1552.75 603.839L1566.78 598.764L1569.31 613.923" stroke="#AB9F81" stroke-width="1.76231"/>
<path d="M1499.22 613.985L1501.02 599.177L1515.69 603.764" stroke="#AB9F81" stroke-width="1.76231"/>
<path d="M1533.54 389.275L1529.61 374.884L1544.92 373.587" stroke="#AB9F81" stroke-width="1.76231"/>
<rect x="1487.13" y="108.547" width="106.979" height="203.183" rx="53.4895" stroke="black" stroke-opacity="0.5" stroke-width="2.3089" stroke-dasharray="3.85 3.85"/>
<path d="M1714.86 814.277V783.985H1724.33C1726.39 783.985 1728.22 784.262 1729.82 784.816C1731.43 785.339 1732.67 786.232 1733.56 787.494C1734.49 788.726 1734.95 790.388 1734.95 792.481C1734.95 794.821 1734.33 796.714 1733.1 798.161C1731.87 799.577 1730.21 800.547 1728.12 801.07L1735.83 814.277H1731.49L1724.19 801.486H1718.7V814.277H1714.86ZM1718.7 798.346H1723.78C1726.15 798.346 1727.96 797.869 1729.22 796.914C1730.49 795.929 1731.12 794.452 1731.12 792.481C1731.12 790.48 1730.49 789.08 1729.22 788.279C1727.96 787.479 1726.15 787.078 1723.78 787.078H1718.7V798.346ZM1749.43 814.831C1747.43 814.831 1745.61 814.37 1743.98 813.446C1742.35 812.492 1741.06 811.137 1740.1 809.382C1739.15 807.628 1738.67 805.534 1738.67 803.102C1738.67 800.639 1739.15 798.531 1740.1 796.776C1741.09 795.021 1742.35 793.667 1743.89 792.712C1745.43 791.758 1747.04 791.281 1748.74 791.281C1751.6 791.281 1753.8 792.235 1755.34 794.144C1756.91 796.052 1757.7 798.608 1757.7 801.809C1757.7 802.209 1757.68 802.61 1757.65 803.01C1757.65 803.379 1757.62 803.703 1757.56 803.98H1742.41C1742.57 806.35 1743.3 808.243 1744.63 809.66C1745.98 811.076 1747.74 811.784 1749.89 811.784C1750.97 811.784 1751.95 811.63 1752.85 811.322C1753.77 810.983 1754.65 810.552 1755.48 810.029L1756.82 812.523C1755.86 813.138 1754.77 813.677 1753.54 814.139C1752.34 814.601 1750.97 814.831 1749.43 814.831ZM1742.37 801.255H1754.37C1754.37 798.977 1753.88 797.253 1752.89 796.083C1751.94 794.883 1750.58 794.282 1748.83 794.282C1747.26 794.282 1745.84 794.898 1744.58 796.129C1743.35 797.33 1742.61 799.039 1742.37 801.255ZM1763.24 814.277V791.835H1766.38L1766.71 795.067H1766.84C1767.83 793.99 1768.91 793.097 1770.08 792.389C1771.25 791.65 1772.49 791.281 1773.82 791.281C1775.54 791.281 1776.88 791.666 1777.83 792.435C1778.82 793.174 1779.54 794.221 1780 795.575C1781.17 794.313 1782.36 793.282 1783.56 792.481C1784.76 791.681 1786.04 791.281 1787.39 791.281C1789.7 791.281 1791.41 792.035 1792.52 793.543C1793.66 795.021 1794.23 797.191 1794.23 800.055V814.277H1790.44V800.562C1790.44 798.469 1790.1 796.945 1789.42 795.991C1788.75 795.037 1787.7 794.559 1786.28 794.559C1784.62 794.559 1782.74 795.714 1780.65 798.023V814.277H1776.86V800.562C1776.86 798.469 1776.53 796.945 1775.85 795.991C1775.17 795.037 1774.11 794.559 1772.66 794.559C1771 794.559 1769.12 795.714 1767.03 798.023V814.277H1763.24ZM1810.26 814.831C1808.44 814.831 1806.73 814.37 1805.13 813.446C1803.56 812.523 1802.28 811.183 1801.3 809.429C1800.34 807.674 1799.87 805.565 1799.87 803.102C1799.87 800.578 1800.34 798.438 1801.3 796.684C1802.28 794.929 1803.56 793.59 1805.13 792.666C1806.73 791.742 1808.44 791.281 1810.26 791.281C1812.1 791.281 1813.81 791.742 1815.38 792.666C1816.95 793.59 1818.21 794.929 1819.17 796.684C1820.15 798.438 1820.65 800.578 1820.65 803.102C1820.65 805.565 1820.15 807.674 1819.17 809.429C1818.21 811.183 1816.95 812.523 1815.38 813.446C1813.81 814.37 1812.1 814.831 1810.26 814.831ZM1810.26 811.691C1812.2 811.691 1813.75 810.906 1814.92 809.336C1816.12 807.735 1816.72 805.657 1816.72 803.102C1816.72 800.516 1816.12 798.423 1814.92 796.822C1813.75 795.221 1812.2 794.421 1810.26 794.421C1808.35 794.421 1806.79 795.221 1805.59 796.822C1804.39 798.423 1803.79 800.516 1803.79 803.102C1803.79 805.657 1804.39 807.735 1805.59 809.336C1806.79 810.906 1808.35 811.691 1810.26 811.691ZM1832.85 814.831C1830.45 814.831 1828.78 814.139 1827.82 812.753C1826.9 811.368 1826.44 809.567 1826.44 807.351V794.929H1823.11V792.066L1826.62 791.835L1827.08 785.555H1830.27V791.835H1836.32V794.929H1830.27V807.397C1830.27 808.782 1830.52 809.86 1831.01 810.629C1831.53 811.368 1832.44 811.738 1833.73 811.738C1834.13 811.738 1834.56 811.676 1835.03 811.553C1835.49 811.399 1835.9 811.26 1836.27 811.137L1837.01 814C1836.4 814.216 1835.72 814.4 1834.98 814.554C1834.27 814.739 1833.56 814.831 1832.85 814.831ZM1849.86 814.831C1847.86 814.831 1846.04 814.37 1844.41 813.446C1842.78 812.492 1841.48 811.137 1840.53 809.382C1839.58 807.628 1839.1 805.534 1839.1 803.102C1839.1 800.639 1839.58 798.531 1840.53 796.776C1841.52 795.021 1842.78 793.667 1844.32 792.712C1845.86 791.758 1847.47 791.281 1849.17 791.281C1852.03 791.281 1854.23 792.235 1855.77 794.144C1857.34 796.052 1858.12 798.608 1858.12 801.809C1858.12 802.209 1858.11 802.61 1858.08 803.01C1858.08 803.379 1858.05 803.703 1857.99 803.98H1842.84C1842.99 806.35 1843.73 808.243 1845.06 809.66C1846.41 811.076 1848.17 811.784 1850.32 811.784C1851.4 811.784 1852.38 811.63 1853.28 811.322C1854.2 810.983 1855.08 810.552 1855.91 810.029L1857.25 812.523C1856.29 813.138 1855.2 813.677 1853.97 814.139C1852.77 814.601 1851.4 814.831 1849.86 814.831ZM1842.79 801.255H1854.8C1854.8 798.977 1854.31 797.253 1853.32 796.083C1852.37 794.883 1851.01 794.282 1849.26 794.282C1847.69 794.282 1846.27 794.898 1845.01 796.129C1843.78 797.33 1843.04 799.039 1842.79 801.255Z" fill="black"/>
<path d="M1503 198L1446.6 132.279L1417.88 213.981L1503 198ZM688.918 246.895C838.573 155.219 987.675 124.5 1126 124.5V109.5C985.325 109.5 833.427 140.781 681.082 234.104L688.918 246.895ZM1126 124.5C1243.05 124.5 1325.56 144.7 1436.91 182.718L1441.75 168.522C1329.52 130.204 1245.29 109.5 1126 109.5V124.5Z" fill="#FF0000"/>
</svg>
