<svg width="1920" height="1080" viewBox="0 0 1920 1080" fill="none" xmlns="http://www.w3.org/2000/svg">
<rect width="1920" height="1080" fill="white"/>
<path d="M50.2 101V48.52H65.16C69.1067 48.52 72.5467 49 75.48 49.96C78.4133 50.92 80.7067 52.5467 82.36 54.84C84.0133 57.08 84.84 60.12 84.84 63.96C84.84 69.4533 83.0533 73.5333 79.48 76.2C75.9067 78.8667 71.24 80.2 65.48 80.2H56.84V101H50.2ZM56.84 74.76H64.68C69.2667 74.76 72.6533 73.9067 74.84 72.2C77.08 70.44 78.2 67.6933 78.2 63.96C78.2 60.1733 77.0267 57.56 74.68 56.12C72.3867 54.6267 68.9467 53.88 64.36 53.88H56.84V74.76ZM106.233 101.96C102.126 101.96 99.1125 100.68 97.1925 98.12C95.2725 95.5067 94.3125 91.72 94.3125 86.76V62.12H100.953V85.88C100.953 89.5067 101.513 92.1467 102.633 93.8C103.806 95.4533 105.673 96.28 108.233 96.28C110.259 96.28 112.046 95.7733 113.593 94.76C115.193 93.6933 116.899 92.0133 118.713 89.72V62.12H125.273V101H119.833L119.273 94.92H119.033C117.219 97.0533 115.299 98.76 113.273 100.04C111.246 101.32 108.899 101.96 106.233 101.96ZM145.348 101.96C142.895 101.96 141.108 101.213 139.988 99.72C138.921 98.1733 138.388 95.9867 138.388 93.16V44.04H144.948V93.64C144.948 94.6533 145.135 95.4 145.508 95.88C145.881 96.3067 146.308 96.52 146.788 96.52C147.001 96.52 147.188 96.52 147.348 96.52C147.561 96.4667 147.855 96.4133 148.228 96.36L149.108 101.32C148.681 101.533 148.175 101.693 147.588 101.8C147.001 101.907 146.255 101.96 145.348 101.96ZM165.739 101.96C163.285 101.96 161.499 101.213 160.379 99.72C159.312 98.1733 158.779 95.9867 158.779 93.16V44.04H165.339V93.64C165.339 94.6533 165.525 95.4 165.899 95.88C166.272 96.3067 166.699 96.52 167.179 96.52C167.392 96.52 167.579 96.52 167.739 96.52C167.952 96.4667 168.245 96.4133 168.619 96.36L169.499 101.32C169.072 101.533 168.565 101.693 167.979 101.8C167.392 101.907 166.645 101.96 165.739 101.96ZM179.169 101V62.12H185.729V101H179.169ZM182.529 54.12C181.249 54.12 180.183 53.7467 179.329 53C178.529 52.2 178.129 51.1333 178.129 49.8C178.129 48.52 178.529 47.48 179.329 46.68C180.183 45.88 181.249 45.48 182.529 45.48C183.809 45.48 184.849 45.88 185.649 46.68C186.503 47.48 186.929 48.52 186.929 49.8C186.929 51.1333 186.503 52.2 185.649 53C184.849 53.7467 183.809 54.12 182.529 54.12ZM198.857 101V62.12H204.297L204.857 67.72H205.097C206.964 65.8533 208.937 64.3067 211.017 63.08C213.097 61.8 215.47 61.16 218.137 61.16C222.244 61.16 225.23 62.4667 227.097 65.08C229.017 67.64 229.977 71.4 229.977 76.36V101H223.417V77.24C223.417 73.6133 222.83 70.9733 221.657 69.32C220.484 67.6667 218.617 66.84 216.057 66.84C214.084 66.84 212.297 67.3467 210.697 68.36C209.15 69.3733 207.39 70.8667 205.417 72.84V101H198.857ZM255.727 118.92C250.98 118.92 247.114 118.013 244.127 116.2C241.14 114.387 239.647 111.8 239.647 108.44C239.647 106.787 240.154 105.187 241.167 103.64C242.18 102.147 243.567 100.813 245.327 99.64V99.32C244.367 98.7333 243.54 97.9067 242.847 96.84C242.207 95.7733 241.887 94.4933 241.887 93C241.887 91.3467 242.34 89.9067 243.247 88.68C244.154 87.4533 245.114 86.4933 246.127 85.8V85.48C244.847 84.4133 243.674 82.9733 242.607 81.16C241.594 79.3467 241.087 77.2933 241.087 75C241.087 72.1733 241.754 69.72 243.087 67.64C244.42 65.56 246.207 63.96 248.447 62.84C250.687 61.72 253.114 61.16 255.727 61.16C256.794 61.16 257.807 61.2667 258.767 61.48C259.727 61.64 260.554 61.8533 261.247 62.12H274.767V67.16H266.767C267.674 68.0133 268.42 69.16 269.007 70.6C269.647 71.9867 269.967 73.5067 269.967 75.16C269.967 77.9333 269.327 80.3333 268.047 82.36C266.767 84.3867 265.06 85.96 262.927 87.08C260.794 88.1467 258.394 88.68 255.727 88.68C253.647 88.68 251.7 88.2267 249.887 87.32C249.194 87.9067 248.607 88.5733 248.127 89.32C247.647 90.0133 247.407 90.8933 247.407 91.96C247.407 93.1867 247.887 94.2 248.847 95C249.86 95.8 251.674 96.2 254.287 96.2H261.807C266.34 96.2 269.727 96.9467 271.967 98.44C274.26 99.88 275.407 102.227 275.407 105.48C275.407 107.88 274.607 110.093 273.007 112.12C271.407 114.147 269.14 115.773 266.207 117C263.274 118.28 259.78 118.92 255.727 118.92ZM255.727 84.28C257.967 84.28 259.887 83.4533 261.487 81.8C263.14 80.0933 263.967 77.8267 263.967 75C263.967 72.1733 263.167 69.96 261.567 68.36C259.967 66.76 258.02 65.96 255.727 65.96C253.434 65.96 251.487 66.76 249.887 68.36C248.287 69.96 247.487 72.1733 247.487 75C247.487 77.8267 248.287 80.0933 249.887 81.8C251.54 83.4533 253.487 84.28 255.727 84.28ZM256.687 114.36C260.42 114.36 263.407 113.533 265.647 111.88C267.887 110.28 269.007 108.467 269.007 106.44C269.007 104.627 268.314 103.373 266.927 102.68C265.594 101.987 263.674 101.64 261.167 101.64H254.447C253.7 101.64 252.874 101.587 251.967 101.48C251.114 101.373 250.26 101.213 249.407 101C248.02 102.013 247.007 103.08 246.367 104.2C245.727 105.32 245.407 106.44 245.407 107.56C245.407 109.64 246.394 111.293 248.367 112.52C250.394 113.747 253.167 114.36 256.687 114.36Z" fill="black"/>
<rect x="426" y="84" width="359" height="937" fill="#ECF1F5" stroke="black" stroke-width="4"/>
<path d="M609.059 956.954L609.058 813.383M609.058 813.383L529.256 681.608L529.256 542.829L529.256 400.549L687.386 509.286L687.386 681.608L609.058 813.383Z" stroke="#AB9F81" stroke-width="11.4267"/>
<circle cx="608.674" cy="958.676" r="38.8239" transform="rotate(-90 608.674 958.676)" fill="#343434"/>
<path d="M580.591 966.22L589.185 966.22M638.571 954.783L638.571 966.22L609.581 966.22M609.581 966.22L609.581 954.783L619.547 954.783M609.581 966.22L599.499 966.22M599.499 966.22L599.499 954.783M599.499 966.22L589.185 966.22M589.185 966.22L589.185 954.783M629.513 943.147L629.513 954.783L619.547 954.783M619.547 954.783L619.547 943.147" stroke="#A4C6DF" stroke-width="0.661116"/>
<path d="M578.878 971.509L575.698 971.509L575.698 967.807L577.521 966.203L578.878 971.509Z" fill="#C4933D" stroke="black" stroke-width="0.285663"/>
<path d="M576.666 966.796L576.664 961.236L583.665 961.225L583.665 971.509L577.463 971.509L577.452 967.581L576.666 966.796Z" fill="#F5CE85" stroke="black" stroke-width="0.285663"/>
<path d="M588.134 959.874L584.954 959.874L584.954 956.171L586.777 954.568L588.134 959.874Z" fill="#C4933D" stroke="black" stroke-width="0.285663"/>
<path d="M585.922 955.16L585.92 949.601L592.92 949.59L592.92 959.874L586.719 959.874L586.707 955.946L585.922 955.16Z" fill="#F5CE85" stroke="black" stroke-width="0.285663"/>
<path d="M598.315 959.874L595.135 959.874L595.135 956.171L596.958 954.568L598.315 959.874Z" fill="#C4933D" stroke="black" stroke-width="0.285663"/>
<path d="M596.103 955.16L596.101 949.601L603.102 949.59L603.102 959.874L596.9 959.874L596.888 955.946L596.103 955.16Z" fill="#F5CE85" stroke="black" stroke-width="0.285663"/>
<path d="M637.188 959.874L634.009 959.874L634.009 956.171L635.832 954.568L637.188 959.874Z" fill="#C4933D" stroke="black" stroke-width="0.285663"/>
<path d="M634.977 955.16L634.975 949.601L641.975 949.59L641.975 959.874L635.773 959.874L635.762 955.946L634.977 955.16Z" fill="#F5CE85" stroke="black" stroke-width="0.285663"/>
<path d="M627.933 948.238L624.753 948.238L624.753 944.536L626.576 942.932L627.933 948.238Z" fill="#C4933D" stroke="black" stroke-width="0.285663"/>
<path d="M625.721 943.524L625.719 937.965L632.72 937.954L632.72 948.238L626.518 948.238L626.507 944.31L625.721 943.524Z" fill="#F5CE85" stroke="black" stroke-width="0.285663"/>
<path d="M608.496 959.874L605.316 959.874L605.316 956.171L607.139 954.568L608.496 959.874Z" fill="#C4933D" stroke="black" stroke-width="0.285663"/>
<path d="M606.284 955.16L606.282 949.601L613.283 949.59L613.283 959.874L607.081 959.874L607.07 955.946L606.284 955.16Z" fill="#F5CE85" stroke="black" stroke-width="0.285663"/>
<path d="M617.752 948.238L614.572 948.238L614.572 944.536L616.395 942.932L617.752 948.238Z" fill="#C4933D" stroke="black" stroke-width="0.285663"/>
<path d="M615.54 943.524L615.538 937.965L622.538 937.954L622.538 948.238L616.336 948.238L616.325 944.31L615.54 943.524Z" fill="#F5CE85" stroke="black" stroke-width="0.285663"/>
<circle cx="606.472" cy="814.146" r="38.8239" transform="rotate(-90 606.472 814.146)" fill="#343434"/>
<path d="M578.388 821.69L586.982 821.69M636.368 810.253L636.368 821.69L607.378 821.69M607.378 821.69L607.378 810.253L617.344 810.253M607.378 821.69L597.296 821.69M597.296 821.69L597.296 810.253M597.296 821.69L586.982 821.69M586.982 821.69L586.982 810.253M627.311 798.617L627.311 810.253L617.344 810.253M617.344 810.253L617.344 798.617" stroke="#A4C6DF" stroke-width="0.661116"/>
<path d="M576.675 826.979L573.496 826.979L573.496 823.277L575.318 821.673L576.675 826.979Z" fill="#C4933D" stroke="black" stroke-width="0.285663"/>
<path d="M574.463 822.266L574.461 816.706L581.462 816.695L581.462 826.979L575.26 826.979L575.249 823.051L574.463 822.266Z" fill="#F5CE85" stroke="black" stroke-width="0.285663"/>
<path d="M585.931 815.344L582.751 815.344L582.751 811.641L584.574 810.038L585.931 815.344Z" fill="#C4933D" stroke="black" stroke-width="0.285663"/>
<path d="M583.719 810.63L583.717 805.071L590.718 805.06L590.718 815.344L584.516 815.344L584.504 811.416L583.719 810.63Z" fill="#F5CE85" stroke="black" stroke-width="0.285663"/>
<path d="M596.112 815.344L592.932 815.344L592.932 811.641L594.755 810.038L596.112 815.344Z" fill="#C4933D" stroke="black" stroke-width="0.285663"/>
<path d="M593.9 810.63L593.898 805.071L600.899 805.06L600.899 815.344L594.697 815.344L594.686 811.416L593.9 810.63Z" fill="#F5CE85" stroke="black" stroke-width="0.285663"/>
<path d="M634.986 815.344L631.806 815.344L631.806 811.641L633.629 810.038L634.986 815.344Z" fill="#C4933D" stroke="black" stroke-width="0.285663"/>
<path d="M632.774 810.63L632.772 805.071L639.772 805.06L639.772 815.344L633.571 815.344L633.559 811.416L632.774 810.63Z" fill="#F5CE85" stroke="black" stroke-width="0.285663"/>
<path d="M625.73 803.708L622.551 803.708L622.551 800.006L624.373 798.402L625.73 803.708Z" fill="#C4933D" stroke="black" stroke-width="0.285663"/>
<path d="M623.518 798.994L623.516 793.435L630.517 793.424L630.517 803.708L624.315 803.708L624.304 799.78L623.518 798.994Z" fill="#F5CE85" stroke="black" stroke-width="0.285663"/>
<path d="M606.293 815.344L603.114 815.344L603.114 811.641L604.936 810.038L606.293 815.344Z" fill="#C4933D" stroke="black" stroke-width="0.285663"/>
<path d="M604.081 810.63L604.079 805.071L611.08 805.06L611.08 815.344L604.878 815.344L604.867 811.416L604.081 810.63Z" fill="#F5CE85" stroke="black" stroke-width="0.285663"/>
<path d="M615.549 803.708L612.369 803.708L612.369 800.006L614.192 798.402L615.549 803.708Z" fill="#C4933D" stroke="black" stroke-width="0.285663"/>
<path d="M613.337 798.994L613.335 793.435L620.335 793.424L620.335 803.708L614.134 803.708L614.122 799.78L613.337 798.994Z" fill="#F5CE85" stroke="black" stroke-width="0.285663"/>
<circle cx="528.824" cy="683.561" r="38.8239" transform="rotate(-90 528.824 683.561)" fill="#343434"/>
<path d="M500.74 691.105L509.335 691.105M558.72 679.667L558.72 691.105L529.73 691.105M529.73 691.105L529.73 679.667L539.697 679.667M529.73 691.105L519.648 691.105M519.648 691.105L519.648 679.667M519.648 691.105L509.335 691.105M509.335 691.105L509.335 679.667M549.663 668.032L549.663 679.667L539.697 679.667M539.697 679.667L539.697 668.032" stroke="#A4C6DF" stroke-width="0.661116"/>
<path d="M499.027 696.394L495.848 696.394L495.848 692.691L497.67 691.088L499.027 696.394Z" fill="#C4933D" stroke="black" stroke-width="0.285663"/>
<path d="M496.815 691.68L496.813 686.121L503.814 686.11L503.814 696.394L497.612 696.394L497.601 692.466L496.815 691.68Z" fill="#F5CE85" stroke="black" stroke-width="0.285663"/>
<path d="M508.283 684.758L505.104 684.758L505.104 681.056L506.926 679.452L508.283 684.758Z" fill="#C4933D" stroke="black" stroke-width="0.285663"/>
<path d="M506.071 680.045L506.069 674.485L513.07 674.474L513.07 684.758L506.868 684.758L506.857 680.83L506.071 680.045Z" fill="#F5CE85" stroke="black" stroke-width="0.285663"/>
<path d="M518.464 684.758L515.285 684.758L515.285 681.056L517.107 679.452L518.464 684.758Z" fill="#C4933D" stroke="black" stroke-width="0.285663"/>
<path d="M516.252 680.045L516.25 674.485L523.251 674.474L523.251 684.758L517.049 684.758L517.038 680.83L516.252 680.045Z" fill="#F5CE85" stroke="black" stroke-width="0.285663"/>
<path d="M557.338 684.758L554.158 684.758L554.158 681.056L555.981 679.452L557.338 684.758Z" fill="#C4933D" stroke="black" stroke-width="0.285663"/>
<path d="M555.126 680.045L555.124 674.485L562.125 674.474L562.125 684.758L555.923 684.758L555.912 680.83L555.126 680.045Z" fill="#F5CE85" stroke="black" stroke-width="0.285663"/>
<path d="M548.082 673.122L544.903 673.122L544.903 669.42L546.725 667.816L548.082 673.122Z" fill="#C4933D" stroke="black" stroke-width="0.285663"/>
<path d="M545.87 668.409L545.868 662.85L552.869 662.838L552.869 673.122L546.667 673.122L546.656 669.194L545.87 668.409Z" fill="#F5CE85" stroke="black" stroke-width="0.285663"/>
<path d="M528.645 684.758L525.466 684.758L525.466 681.056L527.288 679.452L528.645 684.758Z" fill="#C4933D" stroke="black" stroke-width="0.285663"/>
<path d="M526.433 680.045L526.431 674.485L533.432 674.474L533.432 684.758L527.23 684.758L527.219 680.83L526.433 680.045Z" fill="#F5CE85" stroke="black" stroke-width="0.285663"/>
<path d="M537.901 673.122L534.722 673.122L534.722 669.42L536.544 667.816L537.901 673.122Z" fill="#C4933D" stroke="black" stroke-width="0.285663"/>
<path d="M535.689 668.409L535.687 662.85L542.688 662.838L542.688 673.122L536.486 673.122L536.475 669.194L535.689 668.409Z" fill="#F5CE85" stroke="black" stroke-width="0.285663"/>
<circle cx="528.824" cy="543.134" r="38.8239" transform="rotate(-90 528.824 543.134)" fill="#343434"/>
<path d="M500.74 550.678L509.335 550.678M558.72 539.241L558.72 550.678L529.73 550.678M529.73 550.678L529.73 539.241L539.697 539.241M529.73 550.678L519.648 550.678M519.648 550.678L519.648 539.241M519.648 550.678L509.335 550.678M509.335 550.678L509.335 539.241M549.663 527.605L549.663 539.241L539.697 539.241M539.697 539.241L539.697 527.605" stroke="#A4C6DF" stroke-width="0.661116"/>
<path d="M499.027 555.967L495.848 555.967L495.848 552.265L497.67 550.661L499.027 555.967Z" fill="#C4933D" stroke="black" stroke-width="0.285663"/>
<path d="M496.815 551.253L496.813 545.694L503.814 545.683L503.814 555.967L497.612 555.967L497.601 552.039L496.815 551.253Z" fill="#F5CE85" stroke="black" stroke-width="0.285663"/>
<path d="M508.283 544.331L505.104 544.331L505.104 540.629L506.926 539.025L508.283 544.331Z" fill="#C4933D" stroke="black" stroke-width="0.285663"/>
<path d="M506.071 539.618L506.069 534.059L513.07 534.047L513.07 544.331L506.868 544.331L506.857 540.403L506.071 539.618Z" fill="#F5CE85" stroke="black" stroke-width="0.285663"/>
<path d="M518.464 544.331L515.285 544.331L515.285 540.629L517.107 539.025L518.464 544.331Z" fill="#C4933D" stroke="black" stroke-width="0.285663"/>
<path d="M516.252 539.618L516.25 534.059L523.251 534.047L523.251 544.331L517.049 544.331L517.038 540.403L516.252 539.618Z" fill="#F5CE85" stroke="black" stroke-width="0.285663"/>
<path d="M557.338 544.331L554.158 544.331L554.158 540.629L555.981 539.025L557.338 544.331Z" fill="#C4933D" stroke="black" stroke-width="0.285663"/>
<path d="M555.126 539.618L555.124 534.059L562.125 534.047L562.125 544.331L555.923 544.331L555.912 540.403L555.126 539.618Z" fill="#F5CE85" stroke="black" stroke-width="0.285663"/>
<path d="M548.082 532.696L544.903 532.696L544.903 528.993L546.725 527.39L548.082 532.696Z" fill="#C4933D" stroke="black" stroke-width="0.285663"/>
<path d="M545.87 527.982L545.868 522.423L552.869 522.412L552.869 532.696L546.667 532.696L546.656 528.768L545.87 527.982Z" fill="#F5CE85" stroke="black" stroke-width="0.285663"/>
<path d="M528.645 544.331L525.466 544.331L525.466 540.629L527.288 539.025L528.645 544.331Z" fill="#C4933D" stroke="black" stroke-width="0.285663"/>
<path d="M526.433 539.618L526.431 534.059L533.432 534.047L533.432 544.331L527.23 544.331L527.219 540.403L526.433 539.618Z" fill="#F5CE85" stroke="black" stroke-width="0.285663"/>
<path d="M537.901 532.696L534.722 532.696L534.722 528.993L536.544 527.39L537.901 532.696Z" fill="#C4933D" stroke="black" stroke-width="0.285663"/>
<path d="M535.689 527.982L535.687 522.423L542.688 522.412L542.688 532.696L536.486 532.696L536.475 528.768L535.689 527.982Z" fill="#F5CE85" stroke="black" stroke-width="0.285663"/>
<circle cx="529.93" cy="402.824" r="38.8239" transform="rotate(-90 529.93 402.824)" fill="#343434"/>
<path d="M501.846 410.368L510.44 410.368M559.826 398.931L559.826 410.368L530.836 410.368M530.836 410.368L530.836 398.931L540.802 398.931M530.836 410.368L520.754 410.368M520.754 410.368L520.754 398.931M520.754 410.368L510.44 410.368M510.44 410.368L510.44 398.931M550.769 387.295L550.769 398.931L540.802 398.931M540.802 398.931L540.802 387.295" stroke="#A4C6DF" stroke-width="0.661116"/>
<path d="M500.133 415.657L496.954 415.657L496.954 411.955L498.776 410.351L500.133 415.657Z" fill="#C4933D" stroke="black" stroke-width="0.285663"/>
<path d="M497.921 410.943L497.919 405.384L504.92 405.373L504.92 415.657L498.718 415.657L498.707 411.729L497.921 410.943Z" fill="#F5CE85" stroke="black" stroke-width="0.285663"/>
<path d="M509.389 404.021L506.209 404.021L506.209 400.319L508.032 398.715L509.389 404.021Z" fill="#C4933D" stroke="black" stroke-width="0.285663"/>
<path d="M507.177 399.308L507.175 393.749L514.176 393.737L514.176 404.021L507.974 404.021L507.962 400.093L507.177 399.308Z" fill="#F5CE85" stroke="black" stroke-width="0.285663"/>
<path d="M519.57 404.021L516.39 404.021L516.39 400.319L518.213 398.715L519.57 404.021Z" fill="#C4933D" stroke="black" stroke-width="0.285663"/>
<path d="M517.358 399.308L517.356 393.749L524.357 393.737L524.357 404.021L518.155 404.021L518.144 400.093L517.358 399.308Z" fill="#F5CE85" stroke="black" stroke-width="0.285663"/>
<path d="M558.444 404.021L555.264 404.021L555.264 400.319L557.087 398.715L558.444 404.021Z" fill="#C4933D" stroke="black" stroke-width="0.285663"/>
<path d="M556.232 399.308L556.23 393.749L563.23 393.737L563.23 404.021L557.029 404.021L557.017 400.093L556.232 399.308Z" fill="#F5CE85" stroke="black" stroke-width="0.285663"/>
<path d="M549.188 392.385L546.009 392.385L546.009 388.683L547.831 387.08L549.188 392.385Z" fill="#C4933D" stroke="black" stroke-width="0.285663"/>
<path d="M546.976 387.672L546.974 382.113L553.975 382.102L553.975 392.385L547.773 392.385L547.762 388.458L546.976 387.672Z" fill="#F5CE85" stroke="black" stroke-width="0.285663"/>
<path d="M529.751 404.021L526.572 404.021L526.572 400.319L528.394 398.715L529.751 404.021Z" fill="#C4933D" stroke="black" stroke-width="0.285663"/>
<path d="M527.539 399.308L527.537 393.749L534.538 393.737L534.538 404.021L528.336 404.021L528.325 400.093L527.539 399.308Z" fill="#F5CE85" stroke="black" stroke-width="0.285663"/>
<path d="M539.007 392.385L535.827 392.385L535.827 388.683L537.65 387.08L539.007 392.385Z" fill="#C4933D" stroke="black" stroke-width="0.285663"/>
<path d="M536.795 387.672L536.793 382.113L543.793 382.102L543.793 392.385L537.592 392.385L537.58 388.458L536.795 387.672Z" fill="#F5CE85" stroke="black" stroke-width="0.285663"/>
<circle cx="686.322" cy="682.459" r="38.8239" transform="rotate(-90 686.322 682.459)" fill="#343434"/>
<path d="M658.239 690.003L666.833 690.003M716.218 678.566L716.218 690.003L687.228 690.003M687.228 690.003L687.228 678.566L697.195 678.566M687.228 690.003L677.146 690.003M677.146 690.003L677.146 678.566M677.146 690.003L666.833 690.003M666.833 690.003L666.833 678.566M707.161 666.93L707.161 678.566L697.195 678.566M697.195 678.566L697.195 666.93" stroke="#A4C6DF" stroke-width="0.661116"/>
<path d="M656.526 695.292L653.346 695.292L653.346 691.59L655.169 689.986L656.526 695.292Z" fill="#C4933D" stroke="black" stroke-width="0.285663"/>
<path d="M654.314 690.579L654.312 685.02L661.313 685.008L661.313 695.292L655.111 695.292L655.099 691.364L654.314 690.579Z" fill="#F5CE85" stroke="black" stroke-width="0.285663"/>
<path d="M665.781 683.657L662.602 683.657L662.602 679.954L664.424 678.351L665.781 683.657Z" fill="#C4933D" stroke="black" stroke-width="0.285663"/>
<path d="M663.569 678.943L663.567 673.384L670.568 673.373L670.568 683.657L664.366 683.657L664.355 679.729L663.569 678.943Z" fill="#F5CE85" stroke="black" stroke-width="0.285663"/>
<path d="M675.962 683.657L672.783 683.657L672.783 679.954L674.605 678.351L675.962 683.657Z" fill="#C4933D" stroke="black" stroke-width="0.285663"/>
<path d="M673.751 678.943L673.749 673.384L680.749 673.373L680.749 683.657L674.547 683.657L674.536 679.729L673.751 678.943Z" fill="#F5CE85" stroke="black" stroke-width="0.285663"/>
<path d="M714.836 683.657L711.657 683.657L711.657 679.954L713.479 678.351L714.836 683.657Z" fill="#C4933D" stroke="black" stroke-width="0.285663"/>
<path d="M712.624 678.943L712.622 673.384L719.623 673.373L719.623 683.657L713.421 683.657L713.41 679.729L712.624 678.943Z" fill="#F5CE85" stroke="black" stroke-width="0.285663"/>
<path d="M705.581 672.021L702.401 672.021L702.401 668.319L704.224 666.715L705.581 672.021Z" fill="#C4933D" stroke="black" stroke-width="0.285663"/>
<path d="M703.369 667.308L703.367 661.748L710.367 661.737L710.367 672.021L704.166 672.021L704.154 668.093L703.369 667.308Z" fill="#F5CE85" stroke="black" stroke-width="0.285663"/>
<path d="M686.144 683.657L682.964 683.657L682.964 679.954L684.787 678.351L686.144 683.657Z" fill="#C4933D" stroke="black" stroke-width="0.285663"/>
<path d="M683.932 678.943L683.93 673.384L690.93 673.373L690.93 683.657L684.729 683.657L684.717 679.729L683.932 678.943Z" fill="#F5CE85" stroke="black" stroke-width="0.285663"/>
<path d="M695.399 672.021L692.22 672.021L692.22 668.319L694.042 666.715L695.399 672.021Z" fill="#C4933D" stroke="black" stroke-width="0.285663"/>
<path d="M693.187 667.308L693.185 661.748L700.186 661.737L700.186 672.021L693.984 672.021L693.973 668.093L693.187 667.308Z" fill="#F5CE85" stroke="black" stroke-width="0.285663"/>
<circle cx="687.692" cy="510.087" r="38.8239" transform="rotate(-90 687.692 510.087)" fill="#343434"/>
<path d="M659.608 517.631L668.202 517.631M717.588 506.194L717.588 517.631L688.598 517.631M688.598 517.631L688.598 506.194L698.564 506.194M688.598 517.631L678.516 517.631M678.516 517.631L678.516 506.194M678.516 517.631L668.202 517.631M668.202 517.631L668.202 506.194M708.531 494.558L708.531 506.194L698.564 506.194M698.564 506.194L698.564 494.558" stroke="#A4C6DF" stroke-width="0.661116"/>
<path d="M657.895 522.92L654.716 522.92L654.716 519.218L656.538 517.614L657.895 522.92Z" fill="#C4933D" stroke="black" stroke-width="0.285663"/>
<path d="M655.683 518.206L655.681 512.647L662.682 512.636L662.682 522.92L656.48 522.92L656.469 518.992L655.683 518.206Z" fill="#F5CE85" stroke="black" stroke-width="0.285663"/>
<path d="M667.151 511.284L663.971 511.284L663.971 507.582L665.794 505.978L667.151 511.284Z" fill="#C4933D" stroke="black" stroke-width="0.285663"/>
<path d="M664.939 506.571L664.937 501.012L671.938 501.001L671.938 511.284L665.736 511.284L665.724 507.357L664.939 506.571Z" fill="#F5CE85" stroke="black" stroke-width="0.285663"/>
<path d="M677.332 511.284L674.152 511.284L674.152 507.582L675.975 505.978L677.332 511.284Z" fill="#C4933D" stroke="black" stroke-width="0.285663"/>
<path d="M675.12 506.571L675.118 501.012L682.119 501.001L682.119 511.284L675.917 511.284L675.905 507.357L675.12 506.571Z" fill="#F5CE85" stroke="black" stroke-width="0.285663"/>
<path d="M716.206 511.284L713.026 511.284L713.026 507.582L714.849 505.978L716.206 511.284Z" fill="#C4933D" stroke="black" stroke-width="0.285663"/>
<path d="M713.994 506.571L713.992 501.012L720.992 501.001L720.992 511.284L714.791 511.284L714.779 507.357L713.994 506.571Z" fill="#F5CE85" stroke="black" stroke-width="0.285663"/>
<path d="M706.95 499.649L703.771 499.649L703.771 495.946L705.593 494.343L706.95 499.649Z" fill="#C4933D" stroke="black" stroke-width="0.285663"/>
<path d="M704.738 494.935L704.736 489.376L711.737 489.365L711.737 499.649L705.535 499.649L705.524 495.721L704.738 494.935Z" fill="#F5CE85" stroke="black" stroke-width="0.285663"/>
<path d="M687.513 511.284L684.333 511.284L684.333 507.582L686.156 505.978L687.513 511.284Z" fill="#C4933D" stroke="black" stroke-width="0.285663"/>
<path d="M685.301 506.571L685.299 501.012L692.3 501.001L692.3 511.284L686.098 511.284L686.087 507.357L685.301 506.571Z" fill="#F5CE85" stroke="black" stroke-width="0.285663"/>
<path d="M696.769 499.649L693.589 499.649L693.589 495.946L695.412 494.343L696.769 499.649Z" fill="#C4933D" stroke="black" stroke-width="0.285663"/>
<path d="M694.557 494.935L694.555 489.376L701.555 489.365L701.555 499.649L695.354 499.649L695.342 495.721L694.557 494.935Z" fill="#F5CE85" stroke="black" stroke-width="0.285663"/>
<path d="M163.4 1017V977.64H169.4L176.96 998.64C177.44 1000 177.9 1001.38 178.34 1002.78C178.82 1004.14 179.3 1005.5 179.78 1006.86H180.02C180.5 1005.5 180.94 1004.14 181.34 1002.78C181.78 1001.38 182.24 1000 182.72 998.64L190.16 977.64H196.22V1017H191.54V995.34C191.54 993.58 191.62 991.64 191.78 989.52C191.94 987.36 192.08 985.42 192.2 983.7H191.96L188.84 992.64L181.4 1013.04H178.1L170.66 992.64L167.54 983.7H167.3C167.42 985.42 167.54 987.36 167.66 989.52C167.82 991.64 167.9 993.58 167.9 995.34V1017H163.4ZM206.994 1029.54C206.354 1029.54 205.734 1029.48 205.134 1029.36C204.574 1029.24 204.054 1029.1 203.574 1028.94L204.534 1025.04C204.854 1025.12 205.214 1025.2 205.614 1025.28C206.014 1025.4 206.394 1025.46 206.754 1025.46C208.394 1025.46 209.754 1024.86 210.834 1023.66C211.914 1022.5 212.754 1021.02 213.354 1019.22L214.014 1017.06L202.314 987.84H207.414L213.354 1003.98C213.794 1005.22 214.254 1006.56 214.734 1008C215.254 1009.44 215.734 1010.84 216.174 1012.2H216.414C216.854 1010.88 217.274 1009.5 217.674 1008.06C218.074 1006.62 218.474 1005.26 218.874 1003.98L224.094 987.84H228.894L217.914 1019.4C217.234 1021.32 216.414 1023.04 215.454 1024.56C214.534 1026.08 213.374 1027.28 211.974 1028.16C210.614 1029.08 208.954 1029.54 206.994 1029.54ZM246.533 1017V987.84H250.613L251.033 993.12H251.213C252.213 991.28 253.433 989.82 254.873 988.74C256.313 987.66 257.853 987.12 259.493 987.12C260.653 987.12 261.693 987.32 262.613 987.72L261.653 992.04C261.173 991.88 260.733 991.76 260.333 991.68C259.933 991.6 259.433 991.56 258.833 991.56C257.593 991.56 256.293 992.06 254.933 993.06C253.613 994.06 252.453 995.8 251.453 998.28V1017H246.533ZM278.568 1017.72C275.968 1017.72 273.608 1017.12 271.488 1015.92C269.368 1014.68 267.688 1012.92 266.448 1010.64C265.208 1008.36 264.588 1005.64 264.588 1002.48C264.588 999.28 265.208 996.54 266.448 994.26C267.728 991.98 269.368 990.22 271.368 988.98C273.368 987.74 275.468 987.12 277.668 987.12C281.388 987.12 284.248 988.36 286.248 990.84C288.288 993.32 289.308 996.64 289.308 1000.8C289.308 1001.32 289.288 1001.84 289.248 1002.36C289.248 1002.84 289.208 1003.26 289.128 1003.62H269.448C269.648 1006.7 270.608 1009.16 272.328 1011C274.088 1012.84 276.368 1013.76 279.168 1013.76C280.568 1013.76 281.848 1013.56 283.008 1013.16C284.208 1012.72 285.348 1012.16 286.428 1011.48L288.168 1014.72C286.928 1015.52 285.508 1016.22 283.908 1016.82C282.348 1017.42 280.568 1017.72 278.568 1017.72ZM269.388 1000.08H284.988C284.988 997.12 284.348 994.88 283.068 993.36C281.828 991.8 280.068 991.02 277.788 991.02C275.748 991.02 273.908 991.82 272.268 993.42C270.668 994.98 269.708 997.2 269.388 1000.08ZM296.514 1029.3V987.84H300.594L301.014 991.2H301.194C302.514 990.08 303.954 989.12 305.514 988.32C307.114 987.52 308.774 987.12 310.494 987.12C314.254 987.12 317.114 988.48 319.074 991.2C321.034 993.88 322.014 997.48 322.014 1002C322.014 1005.28 321.414 1008.1 320.214 1010.46C319.054 1012.82 317.514 1014.62 315.594 1015.86C313.714 1017.1 311.654 1017.72 309.414 1017.72C308.054 1017.72 306.694 1017.42 305.334 1016.82C304.014 1016.22 302.674 1015.4 301.314 1014.36L301.434 1019.46V1029.3H296.514ZM308.574 1013.58C310.974 1013.58 312.954 1012.56 314.514 1010.52C316.114 1008.44 316.914 1005.6 316.914 1002C316.914 998.8 316.314 996.22 315.114 994.26C313.954 992.26 311.994 991.26 309.234 991.26C307.994 991.26 306.734 991.6 305.454 992.28C304.214 992.96 302.874 993.94 301.434 995.22V1010.52C302.754 1011.64 304.034 1012.44 305.274 1012.92C306.514 1013.36 307.614 1013.58 308.574 1013.58ZM341.135 1017.72C338.775 1017.72 336.555 1017.12 334.475 1015.92C332.435 1014.72 330.775 1012.98 329.495 1010.7C328.255 1008.42 327.635 1005.68 327.635 1002.48C327.635 999.2 328.255 996.42 329.495 994.14C330.775 991.86 332.435 990.12 334.475 988.92C336.555 987.72 338.775 987.12 341.135 987.12C343.535 987.12 345.755 987.72 347.795 988.92C349.835 990.12 351.475 991.86 352.715 994.14C353.995 996.42 354.635 999.2 354.635 1002.48C354.635 1005.68 353.995 1008.42 352.715 1010.7C351.475 1012.98 349.835 1014.72 347.795 1015.92C345.755 1017.12 343.535 1017.72 341.135 1017.72ZM341.135 1013.64C343.655 1013.64 345.675 1012.62 347.195 1010.58C348.755 1008.5 349.535 1005.8 349.535 1002.48C349.535 999.12 348.755 996.4 347.195 994.32C345.675 992.24 343.655 991.2 341.135 991.2C338.655 991.2 336.635 992.24 335.075 994.32C333.515 996.4 332.735 999.12 332.735 1002.48C332.735 1005.8 333.515 1008.5 335.075 1010.58C336.635 1012.62 338.655 1013.64 341.135 1013.64Z" fill="black"/>
<rect x="559.154" y="138.154" width="106.979" height="203.183" rx="53.4895" stroke="black" stroke-opacity="0.5" stroke-width="2.3089" stroke-dasharray="3.85 3.85"/>
<rect x="1290.54" y="119.539" width="276.298" height="721.147" fill="#DCFFF5" stroke="black" stroke-width="3.07853"/>
<path d="M1434.51 790.624L1434.51 680.128M1434.51 680.128L1373.09 578.709L1373.09 471.9L1373.09 362.396M1434.51 680.128L1494.79 578.709L1494.79 446.084L1373.09 362.396M1373.09 362.396L1434.5 283.5L1434.5 189.5" stroke="#AB9F81" stroke-width="8.79435"/>
<circle cx="1434.21" cy="791.95" r="29.8801" transform="rotate(-90 1434.21 791.95)" fill="#343434"/>
<path d="M1412.6 797.756L1419.21 797.756M1457.22 788.953L1457.22 797.756L1434.91 797.756M1434.91 797.756L1434.91 788.953L1442.58 788.953M1434.91 797.756L1427.15 797.756M1427.15 797.756L1427.15 788.953M1427.15 797.756L1419.21 797.756M1419.21 797.756L1419.21 788.953M1450.25 779.998L1450.25 788.953L1442.58 788.953M1442.58 788.953L1442.58 779.998" stroke="#A4C6DF" stroke-width="0.508817"/>
<path d="M1411.28 801.826L1408.83 801.826L1408.83 798.977L1410.23 797.743L1411.28 801.826Z" fill="#C4933D" stroke="black" stroke-width="0.219856"/>
<path d="M1409.58 798.199L1409.57 793.92L1414.96 793.912L1414.96 801.826L1410.19 801.826L1410.18 798.803L1409.58 798.199Z" fill="#F5CE85" stroke="black" stroke-width="0.219856"/>
<path d="M1418.4 792.871L1415.95 792.871L1415.95 790.022L1417.36 788.787L1418.4 792.871Z" fill="#C4933D" stroke="black" stroke-width="0.219856"/>
<path d="M1416.7 789.243L1416.7 784.965L1422.09 784.956L1422.09 792.871L1417.31 792.871L1417.3 789.848L1416.7 789.243Z" fill="#F5CE85" stroke="black" stroke-width="0.219856"/>
<path d="M1426.24 792.871L1423.79 792.871L1423.79 790.022L1425.19 788.787L1426.24 792.871Z" fill="#C4933D" stroke="black" stroke-width="0.219856"/>
<path d="M1424.53 789.243L1424.53 784.965L1429.92 784.956L1429.92 792.871L1425.15 792.871L1425.14 789.848L1424.53 789.243Z" fill="#F5CE85" stroke="black" stroke-width="0.219856"/>
<path d="M1456.16 792.871L1453.71 792.871L1453.71 790.022L1455.11 788.787L1456.16 792.871Z" fill="#C4933D" stroke="black" stroke-width="0.219856"/>
<path d="M1454.45 789.243L1454.45 784.965L1459.84 784.956L1459.84 792.871L1455.07 792.871L1455.06 789.848L1454.45 789.243Z" fill="#F5CE85" stroke="black" stroke-width="0.219856"/>
<path d="M1449.03 783.916L1446.58 783.916L1446.58 781.067L1447.99 779.832L1449.03 783.916Z" fill="#C4933D" stroke="black" stroke-width="0.219856"/>
<path d="M1447.33 780.288L1447.33 776.01L1452.72 776.001L1452.72 783.916L1447.94 783.916L1447.93 780.893L1447.33 780.288Z" fill="#F5CE85" stroke="black" stroke-width="0.219856"/>
<path d="M1434.07 792.871L1431.63 792.871L1431.63 790.022L1433.03 788.787L1434.07 792.871Z" fill="#C4933D" stroke="black" stroke-width="0.219856"/>
<path d="M1432.37 789.243L1432.37 784.965L1437.76 784.956L1437.76 792.871L1432.98 792.871L1432.97 789.848L1432.37 789.243Z" fill="#F5CE85" stroke="black" stroke-width="0.219856"/>
<path d="M1441.2 783.916L1438.75 783.916L1438.75 781.067L1440.15 779.832L1441.2 783.916Z" fill="#C4933D" stroke="black" stroke-width="0.219856"/>
<path d="M1439.49 780.288L1439.49 776.01L1444.88 776.001L1444.88 783.916L1440.11 783.916L1440.1 780.893L1439.49 780.288Z" fill="#F5CE85" stroke="black" stroke-width="0.219856"/>
<circle cx="1432.51" cy="680.715" r="29.8801" transform="rotate(-90 1432.51 680.715)" fill="#343434"/>
<path d="M1410.9 686.521L1417.52 686.521M1455.52 677.718L1455.52 686.521L1433.21 686.521M1433.21 686.521L1433.21 677.718L1440.88 677.718M1433.21 686.521L1425.45 686.521M1425.45 686.521L1425.45 677.718M1425.45 686.521L1417.52 686.521M1417.52 686.521L1417.52 677.718M1448.55 668.763L1448.55 677.718L1440.88 677.718M1440.88 677.718L1440.88 668.763" stroke="#A4C6DF" stroke-width="0.508817"/>
<path d="M1409.58 690.591L1407.14 690.591L1407.14 687.742L1408.54 686.508L1409.58 690.591Z" fill="#C4933D" stroke="black" stroke-width="0.219856"/>
<path d="M1407.88 686.964L1407.88 682.685L1413.27 682.677L1413.27 690.591L1408.49 690.591L1408.48 687.568L1407.88 686.964Z" fill="#F5CE85" stroke="black" stroke-width="0.219856"/>
<path d="M1416.71 681.636L1414.26 681.636L1414.26 678.787L1415.66 677.552L1416.71 681.636Z" fill="#C4933D" stroke="black" stroke-width="0.219856"/>
<path d="M1415 678.008L1415 673.73L1420.39 673.721L1420.39 681.636L1415.62 681.636L1415.61 678.613L1415 678.008Z" fill="#F5CE85" stroke="black" stroke-width="0.219856"/>
<path d="M1424.54 681.636L1422.09 681.636L1422.09 678.787L1423.5 677.552L1424.54 681.636Z" fill="#C4933D" stroke="black" stroke-width="0.219856"/>
<path d="M1422.84 678.008L1422.84 673.73L1428.23 673.721L1428.23 681.636L1423.45 681.636L1423.44 678.613L1422.84 678.008Z" fill="#F5CE85" stroke="black" stroke-width="0.219856"/>
<path d="M1454.46 681.636L1452.01 681.636L1452.01 678.787L1453.42 677.552L1454.46 681.636Z" fill="#C4933D" stroke="black" stroke-width="0.219856"/>
<path d="M1452.76 678.008L1452.76 673.73L1458.14 673.721L1458.14 681.636L1453.37 681.636L1453.36 678.613L1452.76 678.008Z" fill="#F5CE85" stroke="black" stroke-width="0.219856"/>
<path d="M1447.34 672.681L1444.89 672.681L1444.89 669.832L1446.29 668.597L1447.34 672.681Z" fill="#C4933D" stroke="black" stroke-width="0.219856"/>
<path d="M1445.63 669.053L1445.63 664.775L1451.02 664.766L1451.02 672.681L1446.25 672.681L1446.24 669.658L1445.63 669.053Z" fill="#F5CE85" stroke="black" stroke-width="0.219856"/>
<path d="M1432.38 681.636L1429.93 681.636L1429.93 678.787L1431.33 677.552L1432.38 681.636Z" fill="#C4933D" stroke="black" stroke-width="0.219856"/>
<path d="M1430.67 678.008L1430.67 673.73L1436.06 673.721L1436.06 681.636L1431.29 681.636L1431.28 678.613L1430.67 678.008Z" fill="#F5CE85" stroke="black" stroke-width="0.219856"/>
<path d="M1439.5 672.681L1437.05 672.681L1437.05 669.832L1438.46 668.597L1439.5 672.681Z" fill="#C4933D" stroke="black" stroke-width="0.219856"/>
<path d="M1437.8 669.053L1437.8 664.775L1443.18 664.766L1443.18 672.681L1438.41 672.681L1438.4 669.658L1437.8 669.053Z" fill="#F5CE85" stroke="black" stroke-width="0.219856"/>
<circle cx="1372.75" cy="580.212" r="29.8801" transform="rotate(-90 1372.75 580.212)" fill="#343434"/>
<path d="M1351.14 586.018L1357.76 586.018M1395.76 577.215L1395.76 586.018L1373.45 586.018M1373.45 586.018L1373.45 577.215L1381.12 577.215M1373.45 586.018L1365.69 586.018M1365.69 586.018L1365.69 577.215M1365.69 586.018L1357.76 586.018M1357.76 586.018L1357.76 577.215M1388.79 568.26L1388.79 577.215L1381.12 577.215M1381.12 577.215L1381.12 568.26" stroke="#A4C6DF" stroke-width="0.508817"/>
<path d="M1349.82 590.088L1347.38 590.088L1347.37 587.239L1348.78 586.005L1349.82 590.088Z" fill="#C4933D" stroke="black" stroke-width="0.219856"/>
<path d="M1348.12 586.461L1348.12 582.182L1353.51 582.174L1353.51 590.088L1348.73 590.088L1348.72 587.065L1348.12 586.461Z" fill="#F5CE85" stroke="black" stroke-width="0.219856"/>
<path d="M1356.95 581.133L1354.5 581.133L1354.5 578.284L1355.9 577.049L1356.95 581.133Z" fill="#C4933D" stroke="black" stroke-width="0.219856"/>
<path d="M1355.24 577.505L1355.24 573.227L1360.63 573.218L1360.63 581.133L1355.86 581.133L1355.85 578.11L1355.24 577.505Z" fill="#F5CE85" stroke="black" stroke-width="0.219856"/>
<path d="M1364.78 581.133L1362.33 581.133L1362.33 578.284L1363.74 577.049L1364.78 581.133Z" fill="#C4933D" stroke="black" stroke-width="0.219856"/>
<path d="M1363.08 577.505L1363.08 573.227L1368.47 573.218L1368.47 581.133L1363.69 581.133L1363.68 578.11L1363.08 577.505Z" fill="#F5CE85" stroke="black" stroke-width="0.219856"/>
<path d="M1394.7 581.133L1392.25 581.133L1392.25 578.284L1393.66 577.049L1394.7 581.133Z" fill="#C4933D" stroke="black" stroke-width="0.219856"/>
<path d="M1393 577.505L1393 573.227L1398.38 573.218L1398.38 581.133L1393.61 581.133L1393.6 578.11L1393 577.505Z" fill="#F5CE85" stroke="black" stroke-width="0.219856"/>
<path d="M1387.58 572.178L1385.13 572.178L1385.13 569.329L1386.53 568.094L1387.58 572.178Z" fill="#C4933D" stroke="black" stroke-width="0.219856"/>
<path d="M1385.87 568.55L1385.87 564.272L1391.26 564.263L1391.26 572.178L1386.49 572.178L1386.48 569.155L1385.87 568.55Z" fill="#F5CE85" stroke="black" stroke-width="0.219856"/>
<path d="M1372.62 581.133L1370.17 581.133L1370.17 578.284L1371.57 577.049L1372.62 581.133Z" fill="#C4933D" stroke="black" stroke-width="0.219856"/>
<path d="M1370.91 577.505L1370.91 573.227L1376.3 573.218L1376.3 581.133L1371.53 581.133L1371.52 578.11L1370.91 577.505Z" fill="#F5CE85" stroke="black" stroke-width="0.219856"/>
<path d="M1379.74 572.178L1377.29 572.178L1377.29 569.329L1378.7 568.094L1379.74 572.178Z" fill="#C4933D" stroke="black" stroke-width="0.219856"/>
<path d="M1378.04 568.55L1378.04 564.272L1383.42 564.263L1383.42 572.178L1378.65 572.178L1378.64 569.155L1378.04 568.55Z" fill="#F5CE85" stroke="black" stroke-width="0.219856"/>
<circle cx="1372.75" cy="472.134" r="29.8801" transform="rotate(-90 1372.75 472.134)" fill="#343434"/>
<path d="M1351.14 477.941L1357.76 477.941M1395.76 469.138L1395.76 477.941L1373.45 477.941M1373.45 477.941L1373.45 469.138L1381.12 469.138M1373.45 477.941L1365.69 477.941M1365.69 477.941L1365.69 469.138M1365.69 477.941L1357.76 477.941M1357.76 477.941L1357.76 469.138M1388.79 460.183L1388.79 469.138L1381.12 469.138M1381.12 469.138L1381.12 460.183" stroke="#A4C6DF" stroke-width="0.508817"/>
<path d="M1349.82 482.011L1347.38 482.011L1347.37 479.162L1348.78 477.928L1349.82 482.011Z" fill="#C4933D" stroke="black" stroke-width="0.219856"/>
<path d="M1348.12 478.384L1348.12 474.105L1353.51 474.096L1353.51 482.011L1348.73 482.011L1348.72 478.988L1348.12 478.384Z" fill="#F5CE85" stroke="black" stroke-width="0.219856"/>
<path d="M1356.95 473.056L1354.5 473.056L1354.5 470.207L1355.9 468.972L1356.95 473.056Z" fill="#C4933D" stroke="black" stroke-width="0.219856"/>
<path d="M1355.24 469.428L1355.24 465.15L1360.63 465.141L1360.63 473.056L1355.86 473.056L1355.85 470.033L1355.24 469.428Z" fill="#F5CE85" stroke="black" stroke-width="0.219856"/>
<path d="M1364.78 473.056L1362.33 473.056L1362.33 470.207L1363.74 468.972L1364.78 473.056Z" fill="#C4933D" stroke="black" stroke-width="0.219856"/>
<path d="M1363.08 469.428L1363.08 465.15L1368.47 465.141L1368.47 473.056L1363.69 473.056L1363.68 470.033L1363.08 469.428Z" fill="#F5CE85" stroke="black" stroke-width="0.219856"/>
<path d="M1394.7 473.056L1392.25 473.056L1392.25 470.207L1393.66 468.972L1394.7 473.056Z" fill="#C4933D" stroke="black" stroke-width="0.219856"/>
<path d="M1393 469.428L1393 465.15L1398.38 465.141L1398.38 473.056L1393.61 473.056L1393.6 470.033L1393 469.428Z" fill="#F5CE85" stroke="black" stroke-width="0.219856"/>
<path d="M1387.58 464.101L1385.13 464.101L1385.13 461.251L1386.53 460.017L1387.58 464.101Z" fill="#C4933D" stroke="black" stroke-width="0.219856"/>
<path d="M1385.87 460.473L1385.87 456.195L1391.26 456.186L1391.26 464.101L1386.49 464.101L1386.48 461.078L1385.87 460.473Z" fill="#F5CE85" stroke="black" stroke-width="0.219856"/>
<path d="M1372.62 473.056L1370.17 473.056L1370.17 470.207L1371.57 468.972L1372.62 473.056Z" fill="#C4933D" stroke="black" stroke-width="0.219856"/>
<path d="M1370.91 469.428L1370.91 465.15L1376.3 465.141L1376.3 473.056L1371.53 473.056L1371.52 470.033L1370.91 469.428Z" fill="#F5CE85" stroke="black" stroke-width="0.219856"/>
<path d="M1379.74 464.101L1377.29 464.101L1377.29 461.251L1378.7 460.017L1379.74 464.101Z" fill="#C4933D" stroke="black" stroke-width="0.219856"/>
<path d="M1378.04 460.473L1378.04 456.195L1383.42 456.186L1383.42 464.101L1378.65 464.101L1378.64 461.078L1378.04 460.473Z" fill="#F5CE85" stroke="black" stroke-width="0.219856"/>
<circle cx="1373.61" cy="364.147" r="29.8801" transform="rotate(-90 1373.61 364.147)" fill="#343434"/>
<path d="M1351.99 369.953L1358.61 369.953M1396.61 361.151L1396.61 369.953L1374.3 369.953M1374.3 369.953L1374.3 361.151L1381.97 361.151M1374.3 369.953L1366.54 369.953M1366.54 369.953L1366.54 361.151M1366.54 369.953L1358.61 369.953M1358.61 369.953L1358.61 361.151M1389.64 352.196L1389.64 361.151L1381.97 361.151M1381.97 361.151L1381.97 352.196" stroke="#A4C6DF" stroke-width="0.508817"/>
<path d="M1350.67 374.024L1348.23 374.024L1348.23 371.174L1349.63 369.94L1350.67 374.024Z" fill="#C4933D" stroke="black" stroke-width="0.219856"/>
<path d="M1348.97 370.396L1348.97 366.118L1354.36 366.109L1354.36 374.024L1349.58 374.024L1349.58 371.001L1348.97 370.396Z" fill="#F5CE85" stroke="black" stroke-width="0.219856"/>
<path d="M1357.8 365.069L1355.35 365.069L1355.35 362.219L1356.75 360.985L1357.8 365.069Z" fill="#C4933D" stroke="black" stroke-width="0.219856"/>
<path d="M1356.09 361.441L1356.09 357.162L1361.48 357.154L1361.48 365.069L1356.71 365.069L1356.7 362.046L1356.09 361.441Z" fill="#F5CE85" stroke="black" stroke-width="0.219856"/>
<path d="M1365.63 365.069L1363.19 365.069L1363.19 362.219L1364.59 360.985L1365.63 365.069Z" fill="#C4933D" stroke="black" stroke-width="0.219856"/>
<path d="M1363.93 361.441L1363.93 357.162L1369.32 357.154L1369.32 365.069L1364.54 365.069L1364.53 362.046L1363.93 361.441Z" fill="#F5CE85" stroke="black" stroke-width="0.219856"/>
<path d="M1395.55 365.069L1393.1 365.069L1393.1 362.219L1394.51 360.985L1395.55 365.069Z" fill="#C4933D" stroke="black" stroke-width="0.219856"/>
<path d="M1393.85 361.441L1393.85 357.162L1399.23 357.154L1399.23 365.069L1394.46 365.069L1394.45 362.046L1393.85 361.441Z" fill="#F5CE85" stroke="black" stroke-width="0.219856"/>
<path d="M1388.43 356.113L1385.98 356.113L1385.98 353.264L1387.38 352.03L1388.43 356.113Z" fill="#C4933D" stroke="black" stroke-width="0.219856"/>
<path d="M1386.72 352.486L1386.72 348.207L1392.11 348.199L1392.11 356.113L1387.34 356.113L1387.33 353.09L1386.72 352.486Z" fill="#F5CE85" stroke="black" stroke-width="0.219856"/>
<path d="M1373.47 365.069L1371.02 365.069L1371.02 362.219L1372.42 360.985L1373.47 365.069Z" fill="#C4933D" stroke="black" stroke-width="0.219856"/>
<path d="M1371.77 361.441L1371.76 357.162L1377.15 357.154L1377.15 365.069L1372.38 365.069L1372.37 362.046L1371.77 361.441Z" fill="#F5CE85" stroke="black" stroke-width="0.219856"/>
<path d="M1380.59 356.113L1378.14 356.113L1378.14 353.264L1379.55 352.03L1380.59 356.113Z" fill="#C4933D" stroke="black" stroke-width="0.219856"/>
<path d="M1378.89 352.486L1378.89 348.207L1384.28 348.199L1384.28 356.113L1379.5 356.113L1379.49 353.09L1378.89 352.486Z" fill="#F5CE85" stroke="black" stroke-width="0.219856"/>
<circle cx="1493.97" cy="579.364" r="29.8801" transform="rotate(-90 1493.97 579.364)" fill="#343434"/>
<path d="M1472.36 585.17L1478.97 585.17M1516.98 576.368L1516.98 585.17L1494.67 585.17M1494.67 585.17L1494.67 576.368L1502.34 576.368M1494.67 585.17L1486.91 585.17M1486.91 585.17L1486.91 576.368M1486.91 585.17L1478.97 585.17M1478.97 585.17L1478.97 576.368M1510.01 567.412L1510.01 576.368L1502.34 576.368M1502.34 576.368L1502.34 567.412" stroke="#A4C6DF" stroke-width="0.508817"/>
<path d="M1471.04 589.241L1468.59 589.241L1468.59 586.391L1469.99 585.157L1471.04 589.241Z" fill="#C4933D" stroke="black" stroke-width="0.219856"/>
<path d="M1469.34 585.613L1469.33 581.334L1474.72 581.326L1474.72 589.241L1469.95 589.241L1469.94 586.218L1469.34 585.613Z" fill="#F5CE85" stroke="black" stroke-width="0.219856"/>
<path d="M1478.16 580.285L1475.71 580.285L1475.71 577.436L1477.12 576.202L1478.16 580.285Z" fill="#C4933D" stroke="black" stroke-width="0.219856"/>
<path d="M1476.46 576.658L1476.46 572.379L1481.85 572.371L1481.85 580.285L1477.07 580.285L1477.06 577.262L1476.46 576.658Z" fill="#F5CE85" stroke="black" stroke-width="0.219856"/>
<path d="M1486 580.285L1483.55 580.285L1483.55 577.436L1484.95 576.202L1486 580.285Z" fill="#C4933D" stroke="black" stroke-width="0.219856"/>
<path d="M1484.29 576.658L1484.29 572.379L1489.68 572.371L1489.68 580.285L1484.91 580.285L1484.9 577.262L1484.29 576.658Z" fill="#F5CE85" stroke="black" stroke-width="0.219856"/>
<path d="M1515.92 580.285L1513.47 580.285L1513.47 577.436L1514.87 576.202L1515.92 580.285Z" fill="#C4933D" stroke="black" stroke-width="0.219856"/>
<path d="M1514.21 576.658L1514.21 572.379L1519.6 572.371L1519.6 580.285L1514.83 580.285L1514.82 577.262L1514.21 576.658Z" fill="#F5CE85" stroke="black" stroke-width="0.219856"/>
<path d="M1508.79 571.33L1506.35 571.33L1506.35 568.481L1507.75 567.247L1508.79 571.33Z" fill="#C4933D" stroke="black" stroke-width="0.219856"/>
<path d="M1507.09 567.703L1507.09 563.424L1512.48 563.416L1512.48 571.33L1507.7 571.33L1507.69 568.307L1507.09 567.703Z" fill="#F5CE85" stroke="black" stroke-width="0.219856"/>
<path d="M1493.83 580.285L1491.39 580.285L1491.39 577.436L1492.79 576.202L1493.83 580.285Z" fill="#C4933D" stroke="black" stroke-width="0.219856"/>
<path d="M1492.13 576.658L1492.13 572.379L1497.52 572.371L1497.52 580.285L1492.74 580.285L1492.74 577.262L1492.13 576.658Z" fill="#F5CE85" stroke="black" stroke-width="0.219856"/>
<path d="M1500.96 571.33L1498.51 571.33L1498.51 568.481L1499.91 567.247L1500.96 571.33Z" fill="#C4933D" stroke="black" stroke-width="0.219856"/>
<path d="M1499.25 567.703L1499.25 563.424L1504.64 563.416L1504.64 571.33L1499.87 571.33L1499.86 568.307L1499.25 567.703Z" fill="#F5CE85" stroke="black" stroke-width="0.219856"/>
<circle cx="1495.02" cy="446.7" r="29.8801" transform="rotate(-90 1495.02 446.7)" fill="#343434"/>
<path d="M1473.41 452.507L1480.02 452.507M1518.03 443.704L1518.03 452.507L1495.72 452.507M1495.72 452.507L1495.72 443.704L1503.39 443.704M1495.72 452.507L1487.96 452.507M1487.96 452.507L1487.96 443.704M1487.96 452.507L1480.02 452.507M1480.02 452.507L1480.02 443.704M1511.06 434.749L1511.06 443.704L1503.39 443.704M1503.39 443.704L1503.39 434.749" stroke="#A4C6DF" stroke-width="0.508817"/>
<path d="M1472.09 456.577L1469.64 456.577L1469.64 453.728L1471.05 452.493L1472.09 456.577Z" fill="#C4933D" stroke="black" stroke-width="0.219856"/>
<path d="M1470.39 452.95L1470.39 448.671L1475.78 448.662L1475.78 456.577L1471 456.577L1470.99 453.554L1470.39 452.95Z" fill="#F5CE85" stroke="black" stroke-width="0.219856"/>
<path d="M1479.22 447.622L1476.77 447.622L1476.77 444.772L1478.17 443.538L1479.22 447.622Z" fill="#C4933D" stroke="black" stroke-width="0.219856"/>
<path d="M1477.51 443.994L1477.51 439.716L1482.9 439.707L1482.9 447.622L1478.13 447.622L1478.12 444.599L1477.51 443.994Z" fill="#F5CE85" stroke="black" stroke-width="0.219856"/>
<path d="M1487.05 447.622L1484.6 447.622L1484.6 444.772L1486.01 443.538L1487.05 447.622Z" fill="#C4933D" stroke="black" stroke-width="0.219856"/>
<path d="M1485.35 443.994L1485.35 439.716L1490.74 439.707L1490.74 447.622L1485.96 447.622L1485.95 444.599L1485.35 443.994Z" fill="#F5CE85" stroke="black" stroke-width="0.219856"/>
<path d="M1516.97 447.622L1514.52 447.622L1514.52 444.772L1515.93 443.538L1516.97 447.622Z" fill="#C4933D" stroke="black" stroke-width="0.219856"/>
<path d="M1515.27 443.994L1515.27 439.716L1520.65 439.707L1520.65 447.622L1515.88 447.622L1515.87 444.599L1515.27 443.994Z" fill="#F5CE85" stroke="black" stroke-width="0.219856"/>
<path d="M1509.85 438.667L1507.4 438.667L1507.4 435.817L1508.8 434.583L1509.85 438.667Z" fill="#C4933D" stroke="black" stroke-width="0.219856"/>
<path d="M1508.14 435.039L1508.14 430.761L1513.53 430.752L1513.53 438.667L1508.76 438.667L1508.75 435.644L1508.14 435.039Z" fill="#F5CE85" stroke="black" stroke-width="0.219856"/>
<path d="M1494.89 447.622L1492.44 447.622L1492.44 444.772L1493.84 443.538L1494.89 447.622Z" fill="#C4933D" stroke="black" stroke-width="0.219856"/>
<path d="M1493.18 443.994L1493.18 439.716L1498.57 439.707L1498.57 447.622L1493.8 447.622L1493.79 444.599L1493.18 443.994Z" fill="#F5CE85" stroke="black" stroke-width="0.219856"/>
<path d="M1502.01 438.667L1499.56 438.667L1499.56 435.817L1500.97 434.583L1502.01 438.667Z" fill="#C4933D" stroke="black" stroke-width="0.219856"/>
<path d="M1500.31 435.039L1500.31 430.761L1505.69 430.752L1505.69 438.667L1500.92 438.667L1500.91 435.644L1500.31 435.039Z" fill="#F5CE85" stroke="black" stroke-width="0.219856"/>
<path d="M1424.95 742.113L1434.3 730.482L1444.34 742.113" stroke="#AB9F81" stroke-width="1.76231"/>
<path d="M1363.3 532.184L1372.64 520.552L1382.69 532.184" stroke="#AB9F81" stroke-width="1.76231"/>
<path d="M1485 508.07L1494.34 496.439L1504.39 508.07" stroke="#AB9F81" stroke-width="1.76231"/>
<path d="M1363.87 421.829L1373.21 410.197L1383.25 421.829" stroke="#AB9F81" stroke-width="1.76231"/>
<path d="M1452.75 629.839L1466.78 624.764L1469.31 639.923" stroke="#AB9F81" stroke-width="1.76231"/>
<path d="M1399.22 639.985L1401.02 625.177L1415.69 629.764" stroke="#AB9F81" stroke-width="1.76231"/>
<path d="M1433.54 415.275L1429.61 400.884L1444.92 399.587" stroke="#AB9F81" stroke-width="1.76231"/>
<path d="M1614.86 840.277V809.985H1624.33C1626.39 809.985 1628.22 810.262 1629.82 810.816C1631.43 811.339 1632.67 812.232 1633.56 813.494C1634.49 814.726 1634.95 816.388 1634.95 818.481C1634.95 820.821 1634.33 822.714 1633.1 824.161C1631.87 825.577 1630.21 826.547 1628.12 827.07L1635.83 840.277H1631.49L1624.19 827.486H1618.7V840.277H1614.86ZM1618.7 824.346H1623.78C1626.15 824.346 1627.96 823.869 1629.22 822.914C1630.49 821.929 1631.12 820.452 1631.12 818.481C1631.12 816.48 1630.49 815.08 1629.22 814.279C1627.96 813.479 1626.15 813.078 1623.78 813.078H1618.7V824.346ZM1649.43 840.831C1647.43 840.831 1645.61 840.37 1643.98 839.446C1642.35 838.492 1641.06 837.137 1640.1 835.382C1639.15 833.628 1638.67 831.534 1638.67 829.102C1638.67 826.639 1639.15 824.531 1640.1 822.776C1641.09 821.021 1642.35 819.667 1643.89 818.712C1645.43 817.758 1647.04 817.281 1648.74 817.281C1651.6 817.281 1653.8 818.235 1655.34 820.144C1656.91 822.052 1657.7 824.608 1657.7 827.809C1657.7 828.209 1657.68 828.61 1657.65 829.01C1657.65 829.379 1657.62 829.703 1657.56 829.98H1642.41C1642.57 832.35 1643.3 834.243 1644.63 835.66C1645.98 837.076 1647.74 837.784 1649.89 837.784C1650.97 837.784 1651.95 837.63 1652.85 837.322C1653.77 836.983 1654.65 836.552 1655.48 836.029L1656.82 838.523C1655.86 839.138 1654.77 839.677 1653.54 840.139C1652.34 840.601 1650.97 840.831 1649.43 840.831ZM1642.37 827.255H1654.37C1654.37 824.977 1653.88 823.253 1652.89 822.083C1651.94 820.883 1650.58 820.282 1648.83 820.282C1647.26 820.282 1645.84 820.898 1644.58 822.129C1643.35 823.33 1642.61 825.039 1642.37 827.255ZM1663.24 840.277V817.835H1666.38L1666.71 821.067H1666.84C1667.83 819.99 1668.91 819.097 1670.08 818.389C1671.25 817.65 1672.49 817.281 1673.82 817.281C1675.54 817.281 1676.88 817.666 1677.83 818.435C1678.82 819.174 1679.54 820.221 1680 821.575C1681.17 820.313 1682.36 819.282 1683.56 818.481C1684.76 817.681 1686.04 817.281 1687.39 817.281C1689.7 817.281 1691.41 818.035 1692.52 819.543C1693.66 821.021 1694.23 823.191 1694.23 826.055V840.277H1690.44V826.562C1690.44 824.469 1690.1 822.945 1689.42 821.991C1688.75 821.037 1687.7 820.559 1686.28 820.559C1684.62 820.559 1682.74 821.714 1680.65 824.023V840.277H1676.86V826.562C1676.86 824.469 1676.53 822.945 1675.85 821.991C1675.17 821.037 1674.11 820.559 1672.66 820.559C1671 820.559 1669.12 821.714 1667.03 824.023V840.277H1663.24ZM1710.26 840.831C1708.44 840.831 1706.73 840.37 1705.13 839.446C1703.56 838.523 1702.28 837.183 1701.3 835.429C1700.34 833.674 1699.87 831.565 1699.87 829.102C1699.87 826.578 1700.34 824.438 1701.3 822.684C1702.28 820.929 1703.56 819.59 1705.13 818.666C1706.73 817.742 1708.44 817.281 1710.26 817.281C1712.1 817.281 1713.81 817.742 1715.38 818.666C1716.95 819.59 1718.21 820.929 1719.17 822.684C1720.15 824.438 1720.65 826.578 1720.65 829.102C1720.65 831.565 1720.15 833.674 1719.17 835.429C1718.21 837.183 1716.95 838.523 1715.38 839.446C1713.81 840.37 1712.1 840.831 1710.26 840.831ZM1710.26 837.691C1712.2 837.691 1713.75 836.906 1714.92 835.336C1716.12 833.735 1716.72 831.657 1716.72 829.102C1716.72 826.516 1716.12 824.423 1714.92 822.822C1713.75 821.221 1712.2 820.421 1710.26 820.421C1708.35 820.421 1706.79 821.221 1705.59 822.822C1704.39 824.423 1703.79 826.516 1703.79 829.102C1703.79 831.657 1704.39 833.735 1705.59 835.336C1706.79 836.906 1708.35 837.691 1710.26 837.691ZM1732.85 840.831C1730.45 840.831 1728.78 840.139 1727.82 838.753C1726.9 837.368 1726.44 835.567 1726.44 833.351V820.929H1723.11V818.066L1726.62 817.835L1727.08 811.555H1730.27V817.835H1736.32V820.929H1730.27V833.397C1730.27 834.782 1730.52 835.86 1731.01 836.629C1731.53 837.368 1732.44 837.738 1733.73 837.738C1734.13 837.738 1734.56 837.676 1735.03 837.553C1735.49 837.399 1735.9 837.26 1736.27 837.137L1737.01 840C1736.4 840.216 1735.72 840.4 1734.98 840.554C1734.27 840.739 1733.56 840.831 1732.85 840.831ZM1749.86 840.831C1747.86 840.831 1746.04 840.37 1744.41 839.446C1742.78 838.492 1741.48 837.137 1740.53 835.382C1739.58 833.628 1739.1 831.534 1739.1 829.102C1739.1 826.639 1739.58 824.531 1740.53 822.776C1741.52 821.021 1742.78 819.667 1744.32 818.712C1745.86 817.758 1747.47 817.281 1749.17 817.281C1752.03 817.281 1754.23 818.235 1755.77 820.144C1757.34 822.052 1758.12 824.608 1758.12 827.809C1758.12 828.209 1758.11 828.61 1758.08 829.01C1758.08 829.379 1758.05 829.703 1757.99 829.98H1742.84C1742.99 832.35 1743.73 834.243 1745.06 835.66C1746.41 837.076 1748.17 837.784 1750.32 837.784C1751.4 837.784 1752.38 837.63 1753.28 837.322C1754.2 836.983 1755.08 836.552 1755.91 836.029L1757.25 838.523C1756.29 839.138 1755.2 839.677 1753.97 840.139C1752.77 840.601 1751.4 840.831 1749.86 840.831ZM1742.79 827.255H1754.8C1754.8 824.977 1754.31 823.253 1753.32 822.083C1752.37 820.883 1751.01 820.282 1749.26 820.282C1747.69 820.282 1746.27 820.898 1745.01 822.129C1743.78 823.33 1743.04 825.039 1742.79 827.255Z" fill="black"/>
<circle cx="1434.22" cy="279.371" r="30.3902" transform="rotate(-90 1434.22 279.371)" fill="#FFC700"/>
<path d="M1412.24 285.277L1418.97 285.277M1457.62 276.324L1457.62 285.277L1434.93 285.277M1434.93 285.277L1434.93 276.324L1442.73 276.324M1434.93 285.277L1427.04 285.277M1427.04 285.277L1427.04 276.324M1427.04 285.277L1418.97 285.277M1418.97 285.277L1418.97 276.324M1450.53 267.216L1450.53 276.324L1442.73 276.324M1442.73 276.324L1442.73 267.216" stroke="#A4C6DF" stroke-width="0.517503"/>
<path d="M1410.9 289.417L1408.41 289.417L1408.41 286.519L1409.84 285.263L1410.9 289.417Z" fill="#C4933D" stroke="black" stroke-width="0.223609"/>
<path d="M1409.17 285.727L1409.17 281.376L1414.65 281.367L1414.65 289.417L1409.79 289.417L1409.78 286.342L1409.17 285.727Z" fill="#F5CE85" stroke="black" stroke-width="0.223609"/>
<path d="M1418.14 280.309L1415.65 280.309L1415.65 277.411L1417.08 276.155L1418.14 280.309Z" fill="#C4933D" stroke="black" stroke-width="0.223609"/>
<path d="M1416.41 276.619L1416.41 272.268L1421.89 272.259L1421.89 280.309L1417.04 280.309L1417.03 277.234L1416.41 276.619Z" fill="#F5CE85" stroke="black" stroke-width="0.223609"/>
<path d="M1426.11 280.309L1423.62 280.309L1423.62 277.411L1425.05 276.155L1426.11 280.309Z" fill="#C4933D" stroke="black" stroke-width="0.223609"/>
<path d="M1424.38 276.619L1424.38 272.268L1429.86 272.259L1429.86 280.309L1425 280.309L1425 277.234L1424.38 276.619Z" fill="#F5CE85" stroke="black" stroke-width="0.223609"/>
<path d="M1456.54 280.309L1454.05 280.309L1454.05 277.411L1455.48 276.155L1456.54 280.309Z" fill="#C4933D" stroke="black" stroke-width="0.223609"/>
<path d="M1454.81 276.619L1454.81 272.268L1460.29 272.259L1460.29 280.309L1455.43 280.309L1455.43 277.234L1454.81 276.619Z" fill="#F5CE85" stroke="black" stroke-width="0.223609"/>
<path d="M1449.3 271.201L1446.81 271.201L1446.81 268.303L1448.23 267.047L1449.3 271.201Z" fill="#C4933D" stroke="black" stroke-width="0.223609"/>
<path d="M1447.57 267.511L1447.56 263.159L1453.04 263.151L1453.04 271.201L1448.19 271.201L1448.18 268.126L1447.57 267.511Z" fill="#F5CE85" stroke="black" stroke-width="0.223609"/>
<path d="M1434.08 280.309L1431.59 280.309L1431.59 277.411L1433.02 276.155L1434.08 280.309Z" fill="#C4933D" stroke="black" stroke-width="0.223609"/>
<path d="M1432.35 276.619L1432.35 272.268L1437.83 272.259L1437.83 280.309L1432.97 280.309L1432.97 277.234L1432.35 276.619Z" fill="#F5CE85" stroke="black" stroke-width="0.223609"/>
<path d="M1441.33 271.201L1438.84 271.201L1438.84 268.303L1440.26 267.047L1441.33 271.201Z" fill="#C4933D" stroke="black" stroke-width="0.223609"/>
<path d="M1439.6 267.511L1439.59 263.159L1445.07 263.151L1445.07 271.201L1440.22 271.201L1440.21 268.126L1439.6 267.511Z" fill="#F5CE85" stroke="black" stroke-width="0.223609"/>
<circle cx="1433.44" cy="187.004" r="30.3902" transform="rotate(-90 1433.44 187.004)" fill="#FFC700"/>
<path d="M1411.46 192.91L1418.18 192.91M1456.84 183.957L1456.84 192.91L1434.15 192.91M1434.15 192.91L1434.15 183.957L1441.95 183.957M1434.15 192.91L1426.26 192.91M1426.26 192.91L1426.26 183.957M1426.26 192.91L1418.18 192.91M1418.18 192.91L1418.18 183.957M1449.75 174.849L1449.75 183.957L1441.95 183.957M1441.95 183.957L1441.95 174.849" stroke="#A4C6DF" stroke-width="0.517503"/>
<path d="M1410.11 197.05L1407.63 197.05L1407.63 194.152L1409.05 192.896L1410.11 197.05Z" fill="#C4933D" stroke="black" stroke-width="0.223609"/>
<path d="M1408.38 193.36L1408.38 189.008L1413.86 189L1413.86 197.05L1409.01 197.05L1409 193.975L1408.38 193.36Z" fill="#F5CE85" stroke="black" stroke-width="0.223609"/>
<path d="M1417.36 187.942L1414.87 187.942L1414.87 185.044L1416.3 183.788L1417.36 187.942Z" fill="#C4933D" stroke="black" stroke-width="0.223609"/>
<path d="M1415.63 184.252L1415.63 179.9L1421.11 179.892L1421.11 187.942L1416.25 187.942L1416.24 184.867L1415.63 184.252Z" fill="#F5CE85" stroke="black" stroke-width="0.223609"/>
<path d="M1425.33 187.942L1422.84 187.942L1422.84 185.044L1424.27 183.788L1425.33 187.942Z" fill="#C4933D" stroke="black" stroke-width="0.223609"/>
<path d="M1423.6 184.252L1423.6 179.9L1429.08 179.892L1429.08 187.942L1424.22 187.942L1424.21 184.867L1423.6 184.252Z" fill="#F5CE85" stroke="black" stroke-width="0.223609"/>
<path d="M1455.76 187.942L1453.27 187.942L1453.27 185.044L1454.7 183.788L1455.76 187.942Z" fill="#C4933D" stroke="black" stroke-width="0.223609"/>
<path d="M1454.03 184.252L1454.03 179.9L1459.51 179.892L1459.51 187.942L1454.65 187.942L1454.64 184.867L1454.03 184.252Z" fill="#F5CE85" stroke="black" stroke-width="0.223609"/>
<path d="M1448.51 178.834L1446.02 178.834L1446.02 175.936L1447.45 174.68L1448.51 178.834Z" fill="#C4933D" stroke="black" stroke-width="0.223609"/>
<path d="M1446.78 175.144L1446.78 170.792L1452.26 170.784L1452.26 178.834L1447.41 178.834L1447.4 175.759L1446.78 175.144Z" fill="#F5CE85" stroke="black" stroke-width="0.223609"/>
<path d="M1433.3 187.942L1430.81 187.942L1430.81 185.044L1432.24 183.788L1433.3 187.942Z" fill="#C4933D" stroke="black" stroke-width="0.223609"/>
<path d="M1431.57 184.252L1431.57 179.9L1437.05 179.892L1437.05 187.942L1432.19 187.942L1432.18 184.867L1431.57 184.252Z" fill="#F5CE85" stroke="black" stroke-width="0.223609"/>
<path d="M1440.54 178.834L1438.06 178.834L1438.06 175.936L1439.48 174.68L1440.54 178.834Z" fill="#C4933D" stroke="black" stroke-width="0.223609"/>
<path d="M1438.81 175.144L1438.81 170.792L1444.29 170.784L1444.29 178.834L1439.44 178.834L1439.43 175.759L1438.81 175.144Z" fill="#F5CE85" stroke="black" stroke-width="0.223609"/>
<rect x="1378.78" y="130.783" width="109.588" height="207.434" rx="54.794" stroke="#BC7100" stroke-width="1.56554"/>
<path d="M1550.79 254.5V223.209H1554.9L1566.2 242.861L1569.59 249.348H1569.78C1569.68 247.758 1569.57 246.121 1569.44 244.435C1569.35 242.718 1569.3 241.033 1569.3 239.379V223.209H1573.07V254.5H1568.97L1557.61 234.8L1554.23 228.361H1554.04C1554.16 229.919 1554.28 231.525 1554.37 233.178C1554.5 234.832 1554.56 236.485 1554.56 238.139V254.5H1550.79ZM1590.69 255.072C1588.62 255.072 1586.75 254.595 1585.06 253.641C1583.38 252.656 1582.04 251.256 1581.06 249.444C1580.07 247.631 1579.58 245.469 1579.58 242.957C1579.58 240.413 1580.07 238.234 1581.06 236.422C1582.07 234.609 1583.38 233.21 1584.97 232.224C1586.56 231.239 1588.23 230.746 1589.98 230.746C1592.93 230.746 1595.21 231.731 1596.8 233.703C1598.42 235.675 1599.23 238.314 1599.23 241.621C1599.23 242.035 1599.21 242.448 1599.18 242.861C1599.18 243.243 1599.15 243.577 1599.09 243.863H1583.44C1583.6 246.312 1584.36 248.267 1585.73 249.73C1587.13 251.193 1588.94 251.924 1591.17 251.924C1592.28 251.924 1593.3 251.765 1594.22 251.447C1595.18 251.097 1596.08 250.652 1596.94 250.112L1598.32 252.687C1597.34 253.323 1596.21 253.88 1594.94 254.357C1593.7 254.834 1592.28 255.072 1590.69 255.072ZM1583.39 241.049H1595.8C1595.8 238.696 1595.29 236.915 1594.27 235.706C1593.28 234.466 1591.88 233.846 1590.07 233.846C1588.45 233.846 1586.99 234.482 1585.68 235.754C1584.41 236.994 1583.65 238.759 1583.39 241.049ZM1608.86 254.5L1602.42 231.318H1606.43L1609.87 244.722C1610.12 245.803 1610.36 246.884 1610.58 247.965C1610.8 249.015 1611.03 250.08 1611.25 251.161H1611.44C1611.69 250.08 1611.95 249.015 1612.2 247.965C1612.46 246.884 1612.73 245.803 1613.01 244.722L1616.59 231.318H1620.41L1624.03 244.722C1624.32 245.803 1624.59 246.884 1624.84 247.965C1625.13 249.015 1625.4 250.08 1625.65 251.161H1625.85C1626.1 250.08 1626.34 249.015 1626.56 247.965C1626.82 246.884 1627.05 245.803 1627.28 244.722L1630.66 231.318H1634.38L1628.18 254.5H1623.41L1620.07 242.05C1619.79 240.937 1619.52 239.84 1619.26 238.759C1619.04 237.678 1618.79 236.549 1618.5 235.372H1618.31C1618.05 236.549 1617.8 237.694 1617.55 238.807C1617.29 239.888 1617 240.985 1616.69 242.098L1613.44 254.5H1608.86ZM1658.14 255.072C1656.1 255.072 1654.26 254.595 1652.6 253.641C1650.95 252.687 1649.65 251.304 1648.69 249.492C1647.74 247.679 1647.26 245.501 1647.26 242.957C1647.26 240.349 1647.77 238.139 1648.79 236.326C1649.84 234.514 1651.2 233.131 1652.89 232.177C1654.61 231.223 1656.45 230.746 1658.42 230.746C1659.95 230.746 1661.25 231.016 1662.33 231.557C1663.45 232.097 1664.4 232.733 1665.2 233.465L1663.19 236.04C1662.52 235.436 1661.81 234.943 1661.05 234.562C1660.31 234.18 1659.49 233.989 1658.57 233.989C1657.17 233.989 1655.91 234.371 1654.8 235.134C1653.72 235.865 1652.86 236.915 1652.22 238.282C1651.62 239.618 1651.32 241.176 1651.32 242.957C1651.32 245.596 1651.97 247.743 1653.27 249.396C1654.61 251.018 1656.34 251.829 1658.47 251.829C1659.55 251.829 1660.55 251.606 1661.48 251.161C1662.4 250.684 1663.21 250.128 1663.91 249.492L1665.63 252.115C1664.58 253.037 1663.42 253.769 1662.14 254.309C1660.87 254.818 1659.54 255.072 1658.14 255.072ZM1678.72 255.072C1676.85 255.072 1675.08 254.595 1673.43 253.641C1671.81 252.687 1670.49 251.304 1669.47 249.492C1668.48 247.679 1667.99 245.501 1667.99 242.957C1667.99 240.349 1668.48 238.139 1669.47 236.326C1670.49 234.514 1671.81 233.131 1673.43 232.177C1675.08 231.223 1676.85 230.746 1678.72 230.746C1680.63 230.746 1682.39 231.223 1684.02 232.177C1685.64 233.131 1686.94 234.514 1687.93 236.326C1688.95 238.139 1689.45 240.349 1689.45 242.957C1689.45 245.501 1688.95 247.679 1687.93 249.492C1686.94 251.304 1685.64 252.687 1684.02 253.641C1682.39 254.595 1680.63 255.072 1678.72 255.072ZM1678.72 251.829C1680.73 251.829 1682.33 251.018 1683.54 249.396C1684.78 247.743 1685.4 245.596 1685.4 242.957C1685.4 240.286 1684.78 238.123 1683.54 236.47C1682.33 234.816 1680.73 233.989 1678.72 233.989C1676.75 233.989 1675.14 234.816 1673.9 236.47C1672.66 238.123 1672.04 240.286 1672.04 242.957C1672.04 245.596 1672.66 247.743 1673.9 249.396C1675.14 251.018 1676.75 251.829 1678.72 251.829ZM1695.56 254.5V231.318H1698.8L1699.14 234.657H1699.28C1700.3 233.544 1701.41 232.622 1702.62 231.89C1703.83 231.127 1705.12 230.746 1706.48 230.746C1708.26 230.746 1709.65 231.143 1710.63 231.938C1711.65 232.701 1712.4 233.783 1712.87 235.182C1714.08 233.878 1715.31 232.813 1716.55 231.986C1717.79 231.159 1719.11 230.746 1720.51 230.746C1722.89 230.746 1724.66 231.525 1725.8 233.083C1726.98 234.609 1727.57 236.851 1727.57 239.809V254.5H1723.65V240.333C1723.65 238.171 1723.3 236.597 1722.61 235.611C1721.91 234.625 1720.82 234.132 1719.36 234.132C1717.64 234.132 1715.7 235.325 1713.54 237.71V254.5H1709.63V240.333C1709.63 238.171 1709.28 236.597 1708.58 235.611C1707.88 234.625 1706.78 234.132 1705.29 234.132C1703.57 234.132 1701.63 235.325 1699.47 237.71V254.5H1695.56ZM1735.11 254.5V231.318H1738.35L1738.68 234.657H1738.83C1739.85 233.544 1740.96 232.622 1742.17 231.89C1743.38 231.127 1744.66 230.746 1746.03 230.746C1747.81 230.746 1749.19 231.143 1750.18 231.938C1751.2 232.701 1751.95 233.783 1752.42 235.182C1753.63 233.878 1754.85 232.813 1756.1 231.986C1757.34 231.159 1758.65 230.746 1760.05 230.746C1762.44 230.746 1764.2 231.525 1765.35 233.083C1766.53 234.609 1767.11 236.851 1767.11 239.809V254.5H1763.2V240.333C1763.2 238.171 1762.85 236.597 1762.15 235.611C1761.45 234.625 1760.37 234.132 1758.91 234.132C1757.19 234.132 1755.25 235.325 1753.09 237.71V254.5H1749.18V240.333C1749.18 238.171 1748.83 236.597 1748.13 235.611C1747.43 234.625 1746.33 234.132 1744.84 234.132C1743.12 234.132 1741.18 235.325 1739.02 237.71V254.5H1735.11ZM1774.66 254.5V231.318H1778.57V254.5H1774.66ZM1776.66 226.548C1775.9 226.548 1775.26 226.325 1774.75 225.88C1774.27 225.403 1774.03 224.767 1774.03 223.972C1774.03 223.209 1774.27 222.589 1774.75 222.112C1775.26 221.635 1775.9 221.397 1776.66 221.397C1777.42 221.397 1778.04 221.635 1778.52 222.112C1779.03 222.589 1779.28 223.209 1779.28 223.972C1779.28 224.767 1779.03 225.403 1778.52 225.88C1778.04 226.325 1777.42 226.548 1776.66 226.548ZM1793.69 255.072C1791.21 255.072 1789.48 254.357 1788.49 252.926C1787.54 251.495 1787.06 249.635 1787.06 247.345V234.514H1783.63V231.557L1787.25 231.318L1787.73 224.831H1791.02V231.318H1797.27V234.514H1791.02V247.393C1791.02 248.824 1791.27 249.937 1791.78 250.732C1792.32 251.495 1793.26 251.877 1794.6 251.877C1795.01 251.877 1795.46 251.813 1795.93 251.686C1796.41 251.527 1796.84 251.384 1797.22 251.256L1797.98 254.214C1797.35 254.436 1796.65 254.627 1795.89 254.786C1795.15 254.977 1794.42 255.072 1793.69 255.072ZM1808.1 255.072C1806.45 255.072 1804.88 254.77 1803.38 254.166C1801.89 253.53 1800.58 252.767 1799.47 251.877L1801.42 249.253C1802.44 250.048 1803.49 250.716 1804.57 251.256C1805.65 251.765 1806.88 252.02 1808.25 252.02C1809.77 252.02 1810.92 251.67 1811.68 250.97C1812.44 250.239 1812.83 249.38 1812.83 248.394C1812.83 247.599 1812.55 246.932 1812.01 246.391C1811.51 245.85 1810.84 245.405 1810.01 245.055C1809.22 244.674 1808.39 244.324 1807.53 244.006C1806.45 243.593 1805.38 243.132 1804.33 242.623C1803.29 242.082 1802.43 241.399 1801.76 240.572C1801.09 239.713 1800.76 238.632 1800.76 237.328C1800.76 235.452 1801.46 233.894 1802.86 232.654C1804.29 231.382 1806.26 230.746 1808.77 230.746C1810.2 230.746 1811.54 231 1812.78 231.509C1814.02 232.018 1815.08 232.638 1815.97 233.369L1814.07 235.849C1813.27 235.245 1812.44 234.752 1811.58 234.371C1810.73 233.989 1809.79 233.798 1808.77 233.798C1807.31 233.798 1806.23 234.132 1805.53 234.8C1804.86 235.468 1804.53 236.247 1804.53 237.137C1804.53 237.869 1804.76 238.473 1805.24 238.95C1805.72 239.395 1806.34 239.793 1807.1 240.142C1807.86 240.46 1808.68 240.794 1809.53 241.144C1810.65 241.558 1811.74 242.035 1812.83 242.575C1813.91 243.084 1814.8 243.784 1815.5 244.674C1816.23 245.532 1816.59 246.693 1816.59 248.156C1816.59 249.396 1816.26 250.541 1815.59 251.59C1814.96 252.64 1814 253.482 1812.73 254.118C1811.49 254.754 1809.95 255.072 1808.1 255.072Z" fill="black"/>
<path d="M1530 226L1472 192M1530 251.5L1472 275.5" stroke="black" stroke-width="2"/>
<path d="M646 237.5L704.076 173.256L730.674 255.673L646 237.5ZM1385.9 244.329C1277.84 195.254 1179.89 171.5 1046 171.5L1046 156.5C1182.11 156.5 1282.16 180.746 1392.1 230.671L1385.9 244.329ZM1046 171.5C931.585 171.5 832.745 187.395 712.436 223.939L708.076 209.586C829.613 172.669 929.926 156.5 1046 156.5L1046 171.5Z" fill="#FF0000"/>
<path d="M1050.5 0V1080" stroke="black" stroke-width="5" stroke-dasharray="10 20 30 40"/>
</svg>
